<svg xmlns="http://www.w3.org/2000/svg" viewBox="0 0 400 239.2"><defs><style>.cls-1,.cls-2{fill:#181818;}.cls-2{fill-rule:evenodd;}</style></defs><g id="Layer_2" data-name="Layer 2"><g id="Layer_1-2" data-name="Layer 1"><path class="cls-1" d="M112.72,86.87a40.24,40.24,0,0,0,1.47,11.84,70.77,70.77,0,0,0,4.25,9.58,5.78,5.78,0,0,1,.94,3.06c0,1.33-.8,2.66-2.53,4l-8.38,5.59a6.39,6.39,0,0,1-3.46,1.2,6.12,6.12,0,0,1-4-1.87A40.31,40.31,0,0,1,96.23,114c-1.33-2.26-2.66-4.79-4.13-7.85Q76.55,124.52,53,124.52c-11.17,0-20.09-3.19-26.61-9.58S16.54,100,16.54,89.4c0-11.31,4-20.49,12.11-27.41S47.54,51.62,61.24,51.62a106.15,106.15,0,0,1,14.1,1.06c4.92.67,10,1.73,15.3,2.93V45.9c0-10.11-2.13-17.16-6.25-21.29S73,18.49,62.7,18.49a60.49,60.49,0,0,0-14.37,1.73A106.44,106.44,0,0,0,34,24.74a35.93,35.93,0,0,1-4.66,1.73,8,8,0,0,1-2.13.4c-1.86,0-2.79-1.33-2.79-4.12V16.23c0-2.13.26-3.72.93-4.66A9.91,9.91,0,0,1,29,8.78a77.13,77.13,0,0,1,16.77-6A80.6,80.6,0,0,1,66.56.27C82.39.27,94,3.86,101.42,11s11,18.09,11,32.73v43.1Zm-54,20.22a43,43,0,0,0,13.7-2.39,29.6,29.6,0,0,0,12.64-8.52,21.09,21.09,0,0,0,4.53-8.51A48.14,48.14,0,0,0,90.91,76.1V70.51a111.31,111.31,0,0,0-12.24-2.26,100.7,100.7,0,0,0-12.51-.8c-8.91,0-15.43,1.73-19.82,5.32s-6.52,8.65-6.52,15.3c0,6.25,1.6,10.91,4.92,14.1S52.59,107.09,58.71,107.09Zm106.83,14.37c-2.4,0-4-.4-5.06-1.33s-2-2.66-2.79-5.19L126.43,12.11a23.19,23.19,0,0,1-1.2-5.33c0-2.12,1.06-3.32,3.19-3.32h13c2.53,0,4.26.4,5.19,1.33s1.86,2.66,2.66,5.19l22.35,88.07L192.41,10c.67-2.66,1.47-4.39,2.53-5.19a9.13,9.13,0,0,1,5.32-1.33H210.9c2.53,0,4.26.4,5.33,1.33s2,2.66,2.52,5.19l21,89.13,23-89.13c.8-2.66,1.73-4.39,2.66-5.19a8.65,8.65,0,0,1,5.19-1.33H283c2.13,0,3.33,1.06,3.33,3.32a13.48,13.48,0,0,1-.27,2.13,18.72,18.72,0,0,1-.93,3.33L253.08,115.08q-1.2,4-2.8,5.18a8.47,8.47,0,0,1-5.05,1.33H233.79c-2.53,0-4.26-.39-5.32-1.33s-2-2.66-2.53-5.32L205.32,29.13l-20.49,85.68c-.67,2.66-1.46,4.39-2.53,5.32s-2.93,1.33-5.32,1.33Zm171,3.59A87.84,87.84,0,0,1,316,122.66c-6.65-1.6-11.84-3.33-15.3-5.32-2.13-1.2-3.59-2.53-4.12-3.73a9.41,9.41,0,0,1-.8-3.72V103.1c0-2.79,1.07-4.12,3.06-4.12a7.46,7.46,0,0,1,2.4.4c.79.26,2,.8,3.32,1.33a72.39,72.39,0,0,0,14.64,4.65A79.46,79.46,0,0,0,335,107c8.38,0,14.9-1.46,19.42-4.39a14.33,14.33,0,0,0,6.92-12.64,13,13,0,0,0-3.59-9.31c-2.4-2.53-6.92-4.79-13.44-6.92l-19.29-6c-9.71-3.06-16.9-7.59-21.29-13.57a31.73,31.73,0,0,1-6.65-19.29,29.67,29.67,0,0,1,3.59-14.77,34.3,34.3,0,0,1,9.58-10.91,42.32,42.32,0,0,1,13.84-6.92A58.2,58.2,0,0,1,340.88,0a66.48,66.48,0,0,1,8.91.53c3.06.4,5.86.93,8.65,1.47s5.19,1.33,7.58,2.12a28.88,28.88,0,0,1,5.59,2.4,11.56,11.56,0,0,1,4,3.32,7.17,7.17,0,0,1,1.2,4.39v6.26c0,2.79-1.06,4.25-3.06,4.25a14,14,0,0,1-5.06-1.59A60.81,60.81,0,0,0,343.14,18c-7.58,0-13.57,1.2-17.69,3.72s-6.25,6.39-6.25,11.85a12.56,12.56,0,0,0,4,9.44c2.66,2.53,7.58,5.06,14.63,7.32l18.89,6c9.58,3.06,16.5,7.32,20.62,12.78a30,30,0,0,1,6.12,18.62A34.2,34.2,0,0,1,380,103.1a35.56,35.56,0,0,1-9.71,11.71,42.8,42.8,0,0,1-14.77,7.45A63.3,63.3,0,0,1,336.49,125.05Z"/><path class="cls-2" d="M361.63,189.71C317.87,222,254.27,239.2,199.6,239.2,123,239.2,53.92,210.86,1.77,163.77c-4.12-3.73-.4-8.78,4.53-5.86,56.4,32.73,126,52.55,198,52.55,48.56,0,101.91-10.11,151-30.86C362.57,176.27,368.82,184.39,361.63,189.71Z"/><path class="cls-2" d="M379.86,169c-5.59-7.19-37-3.46-51.22-1.73-4.26.53-4.92-3.2-1.06-6,25-17.56,66.12-12.51,70.9-6.65s-1.33,47.09-24.74,66.78c-3.59,3.06-7.05,1.46-5.45-2.53C373.61,205.67,385.45,176,379.86,169Z"/></g></g></svg>