<svg xmlns="http://www.w3.org/2000/svg" viewBox="0 0 400 99.97"><defs><style>.cls-1{fill:#fff;}</style></defs><g id="Layer_2" data-name="Layer 2"><g id="Layer_1-2" data-name="Layer 1"><path class="cls-1" d="M116.85,35.33h-9.77V26.16c.93,0,1.82,0,2.71,0,5.14-.19,7.75-2.78,7.87-7.89.07-2.75,0-5.49,0-8.4H127v16.3c3,0,5.76,0,8.5,0a36.86,36.86,0,0,0,5.26-.27,6.41,6.41,0,0,0,5.83-6.37c.19-2.37.1-4.75.13-7.13,0-.82,0-1.65,0-2.52.65-.07,1-.15,1.39-.15H156V26.08H167.1v9.21H156.2c-.06,1-.13,1.67-.13,2.34,0,8,.08,15.95,0,23.93-.07,5.15,1.47,8.36,8.81,7.75.68-.06,1.36-.17,2.23-.28v8.6c-4.36,1.16-8.71,1.48-13-.22-4.93-1.94-7.33-5.83-7.95-10.91a50.07,50.07,0,0,1-.18-5.75c0-7.51,0-15,0-22.55V35.53H127.13c0,.81-.12,1.56-.12,2.3q0,11.73,0,23.47c0,6.56,2.62,8.78,9.23,8,.53-.07,1.06-.12,1.8-.19v8.56c-4.58,1.26-9.18,1.53-13.64-.46s-6.67-5.7-7.31-10.41a33.43,33.43,0,0,1-.23-4.36c0-8,0-16,0-23.93Z"/><path class="cls-1" d="M390.14,32.72v-6.2h9.73c0,.78.1,1.52.1,2.26,0,14.95.09,29.91-.05,44.86a39.41,39.41,0,0,1-1.37,10c-2.41,8.73-8.39,13.89-17.19,15.63-5.54,1.09-11.14,1.13-16.54-.88-7.23-2.68-12.12-7.59-14-15.21-.16-.64-.2-1.32-.32-2.16l9.17-2.16c.25.88.46,1.66.7,2.44a14,14,0,0,0,14.59,10.22,26.46,26.46,0,0,0,3.88-.42c6.79-1.42,10.51-5.71,11.18-13.28.3-3.37.05-6.8.05-10.29-.37.14-.57.15-.62.25-4.77,7.49-15.18,9.39-23.95,6.06-8.05-3.06-12.67-9.18-14.4-17.45A27.29,27.29,0,0,1,353.33,38c5.75-11.44,18.12-14.74,28.52-11.44a13.32,13.32,0,0,1,7.34,5.62,6.42,6.42,0,0,0,.54.63ZM360.26,50.07c.26,2,.37,3.69.7,5.33a14.82,14.82,0,0,0,28.73,1.26A21.89,21.89,0,0,0,390,45.33a14.55,14.55,0,0,0-14-11.78A14.36,14.36,0,0,0,361.34,44.3,56.44,56.44,0,0,0,360.26,50.07Z"/><path class="cls-1" d="M9.84,71.35v6.51H0V0H9.88V33c1.12-1.25,1.85-2.21,2.72-3,4.25-4.05,9.47-5.53,15.19-5.34,12,.41,20.06,7.52,22.41,19.79A34.78,34.78,0,0,1,48,65.84C42,79.17,28.67,81.15,19.65,78.3a17.8,17.8,0,0,1-9.34-7.1ZM23.68,33.59c-4.59.09-9.28,2.88-11.84,8.58A22.68,22.68,0,0,0,12.06,62c2.75,5.74,7.52,8.62,13.88,8.36s10.66-3.56,12.94-9.39a24.39,24.39,0,0,0,0-18.17C36.6,36.84,31.71,33.62,23.68,33.59Z"/><path class="cls-1" d="M105.28,54.93H66.7c-1,5.83,3.53,12.68,9.79,14.82a16.87,16.87,0,0,0,12.15-.34c4.1-1.69,6.38-5.08,7.91-9.18l8.69,3c-3.16,8.74-9.08,14.16-18,15.83-16.87,3.16-30.89-8.44-31.36-25.63-.2-7.48,1.49-14.35,6.42-20.1,7.14-8.32,16.22-10.68,26.59-7.66,10,2.92,14.69,10.42,16.25,20.25A26.58,26.58,0,0,1,105.28,54.93ZM66.77,46.58H94.82c.14-7.29-5.2-12.67-12.76-13C73.62,33.15,67.39,38.36,66.77,46.58Z"/><path class="cls-1" d="M218.14,54.87H179.48c-1,5.93,3.56,12.74,9.82,14.88a16.74,16.74,0,0,0,12.14-.35c4.1-1.68,6.37-5.09,7.91-9.17L218,63.28c-3.18,8.74-9.1,14.17-18,15.83-16.62,3.08-30.48-8.07-31.32-25-.4-8.13,1.59-15.5,7.15-21.66,8.94-9.9,22.54-9.71,31.31-4.37,6.5,4,9.51,10.18,10.73,17.43A32.24,32.24,0,0,1,218.14,54.87Zm-38.37-8.29h27.84c.19-7.9-5.89-13.28-14.58-13.06C185.61,33.71,179.25,39.91,179.77,46.58Z"/><path class="cls-1" d="M307.11,64.66l8.32-3a6.32,6.32,0,0,1,.6,1c2.1,5.8,5.54,8.41,11.69,8.4a14.8,14.8,0,0,0,5.74-1.24,6,6,0,0,0,3.65-5.69,5.9,5.9,0,0,0-3.63-5.69,39.66,39.66,0,0,0-6.33-1.94c-2.58-.67-5.25-1.08-7.8-1.86C313.83,53,310,49.5,308.9,43.61c-1-5.61.94-10.27,5.06-14a17.72,17.72,0,0,1,11-4.71A24.36,24.36,0,0,1,336,26.33a17,17,0,0,1,9.94,10.51,10,10,0,0,1,.28,1.51L338,41.43c-.24-.57-.43-1-.58-1.39-2.29-6.78-9.11-8-14-6.49a8.17,8.17,0,0,0-2.25,1.12,6.33,6.33,0,0,0-3,6.29,5.82,5.82,0,0,0,4.45,5c2.77.82,5.66,1.27,8.47,2a46.34,46.34,0,0,1,7,2.22c11.05,5,11.27,18.83,2.42,25.42a19.55,19.55,0,0,1-10.69,3.74,23.84,23.84,0,0,1-15.14-3.61,17.06,17.06,0,0,1-7.06-9.08C307.38,66.13,307.3,65.53,307.11,64.66Z"/><path class="cls-1" d="M251.91,25.64V36.16c-.67,0-1.33,0-2,0a40.74,40.74,0,0,0-6.84.46c-5.86,1.33-9.36,6-9.54,13-.2,8-.08,15.94-.1,23.91,0,1.37,0,2.73,0,4.28h-10V26.35h9.64v7.74l.43.25c2.33-4.24,5.63-7.26,10.31-8.46A16.83,16.83,0,0,1,251.91,25.64Z"/><path class="cls-1" d="M303.38,46.74A7.47,7.47,0,0,1,295,54.13a3.69,3.69,0,0,0-3.29.95q-5.16,4.22-10.44,8.3a6.29,6.29,0,0,1-2.62,1.28,3.24,3.24,0,0,1-3.44-1.8,3.53,3.53,0,0,1,.64-4.23c1.29-1.2,2.71-2.26,4.08-3.36,2.46-2,4.93-3.89,7.38-5.87a2.64,2.64,0,0,0,0-4.4c-5.8-4.65-11.64-9.25-17.42-13.92a2.9,2.9,0,0,0-2.75-.37,7.45,7.45,0,0,1-8.54-5.62,7.55,7.55,0,0,1,4.81-8.85,7.4,7.4,0,0,1,9.31,4.18,7.27,7.27,0,0,1,.6,2.89,2.5,2.5,0,0,0,1.17,2.29c5.64,4.48,11.3,8.93,16.88,13.49,1,.85,1.92.57,2.95.35A7.52,7.52,0,0,1,303.38,46.74Z"/><path class="cls-1" d="M273.08,71a7,7,0,0,1-7.18,7.25,7.27,7.27,0,0,1-7.38-7.17,7.56,7.56,0,0,1,7.31-7.38A7.28,7.28,0,0,1,273.08,71Z"/></g></g></svg>