<svg xmlns="http://www.w3.org/2000/svg" viewBox="0 0 400 318.75"><defs><style>.cls-1{fill:#fff;}</style></defs><g id="Layer_2" data-name="Layer 2"><g id="Layer_1-2" data-name="Layer 1"><path class="cls-1" d="M201.57,166.8H166v55.81h37.19c24.31,0,37.19-9.75,37.19-28.08S227.09,166.8,201.57,166.8Z"/><path class="cls-1" d="M362.91,111.43c-6.79-22-7.73-49-7-69.77C356.66,20,339.77,0,317,0H83.08C60.26,0,43.37,20,44.13,41.66c.72,20.81-.22,47.78-7,69.77S18.8,147.43,0,149.22v20.31c18.8,1.79,30.31,15.73,37.12,37.79s7.73,49,7,69.77c-.76,21.68,16.13,41.66,38.95,41.66H317c22.82,0,39.71-20,38.95-41.66-.72-20.81.22-47.78,7-69.77s18.29-36,37.09-37.79V149.22C381.2,147.43,369.71,133.49,362.91,111.43ZM208.67,244.11H139V74.58h69.32c30.82,0,51,16.68,51,42.29,0,18-13.6,34.07-30.94,36.89v.94c23.59,2.59,39.48,18.92,39.48,41.47C267.89,226,245.62,244.11,208.67,244.11Z"/><path class="cls-1" d="M232.39,120.51c0-15.74-11.08-24.43-30.58-24.43H166v50.63h30.21C219.51,146.71,232.39,137.31,232.39,120.51Z"/></g></g></svg>