<svg xmlns="http://www.w3.org/2000/svg" viewBox="0 0 400 318.75"><defs><style>.cls-1{fill:#181818;}.cls-2{fill:#fff;}</style></defs><g id="Layer_2" data-name="Layer 2"><g id="Layer_1-2" data-name="Layer 1"><path class="cls-1" d="M44.13,41.66C43.37,20,60.26,0,83.08,0H317c22.82,0,39.71,20,38.95,41.66-.72,20.81.22,47.78,7,69.77s18.29,36,37.09,37.79v20.31c-18.8,1.79-30.29,15.73-37.09,37.79s-7.73,49-7,69.77c.76,21.68-16.13,41.66-38.95,41.66H83.08c-22.82,0-39.71-20-38.95-41.66.72-20.81-.22-47.78-7-69.77S18.8,171.32,0,169.53V149.22c18.8-1.79,30.31-15.73,37.12-37.79S44.85,62.47,44.13,41.66Z"/><path class="cls-2" d="M208.67,244.11c37,0,59.22-18.1,59.22-47.94,0-22.55-15.89-38.88-39.48-41.47v-.94c17.34-2.82,30.94-18.91,30.94-36.89,0-25.61-20.22-42.29-51-42.29H139V244.11ZM166,96.08h35.86c19.5,0,30.58,8.69,30.58,24.43,0,16.8-12.88,26.2-36.23,26.2H166Zm0,126.53V166.8h35.62c25.52,0,38.76,9.4,38.76,27.73s-12.88,28.08-37.19,28.08Z"/></g></g></svg>