<svg xmlns="http://www.w3.org/2000/svg" viewBox="0 0 400 122.83"><defs><style>.cls-1{fill:#fff;}</style></defs><g id="Layer_2" data-name="Layer 2"><g id="Layer_1-2" data-name="Layer 1"><g id="Layer_2-2" data-name="Layer 2"><g id="Layer_1-2-2" data-name="Layer 1-2"><path class="cls-1" d="M399.68,106.16a19.37,19.37,0,0,1-1.93,8.88c-1.53,3.18-4.83,2.72-6.42,5-1.52,0-3-.08-4.5,0a7.25,7.25,0,0,1-5.72-2.38q-12-11.81-23.75-23.74a26.57,26.57,0,0,1-2.59-3.76c.13-2.46.24-5.21.44-7.94,0-.29.5-.54.76-.8L339.81,65.27l-5.48,1c-5.46-1.46-7.37-5.2-9.44-8.42-1.77-2.79-3.26-5.75-5.22-8.47-.67-.93-.61-2.38-.81-3.25l6.87-6.82a6.42,6.42,0,0,1,4.47,1.44c3.11,2.49,6.76,4.26,10.18,6.4s6,5.19,5.49,9.73a10.46,10.46,0,0,1-1,2.62l16.69,16.7c4.79-2.66,9.32-.89,12.9,2.45,7.51,7,14.65,14.38,21.79,21.75C397.69,102,398.43,104,399.68,106.16Z"/><path class="cls-1" d="M372.44,62l4.13,4.13c3.1.66,5.49-.67,7.61-2.82,3-3.07,6.05-6.07,9.21-9.21h3.73c4.21,5.46,3.11,11.73,1.09,17.27a22.63,22.63,0,0,1-12.42,12.94c-2.81-2.81-5.75-5.61-8.54-8.6a16,16,0,0,0-11.91-5h-4.29l-8.43-8.41c.86-10.34,5-17.1,14.94-21.43,6.14-2.68,12.89-3,18.55,2-1.77,4.59-5.86,7-8.77,10.37A29.62,29.62,0,0,0,374,57.47,24.2,24.2,0,0,0,372.44,62Z"/><path class="cls-1" d="M346.45,77.47l3.94,4V91.51l5.24,8.12c-4.89,4.91-10.11,10.12-15.36,15.36-3.89,3.88-6.75,5-12.43,5-4.56-2.57-6.14-4.07-9.1-8.88l1.17-7.2C329.16,94.72,337.67,86.22,346.45,77.47Z"/><path class="cls-1" d="M293.92,30.16l-.08-.95L291.43,28l-.49.46a9.17,9.17,0,0,1-3.33-3.33l.45-.55c-.77-.78-.43-2.53-2.26-2.49-.9-1.36-.75-3.07-1.46-4.53l.83-.3v-2.9l-.74-.27,1.13-4.45,1.23-.22L288,7l-.41-.49a8,8,0,0,1,3.3-3.33l.49.39c.79-.71,2.46-.4,2.52-2.38L298.44,0l.26.76h2.94l.25-.74,4.6,1.2c-.26,2,1.63,1.56,2.32,2.45l1-.61c1,1.16,2.27,2,3,3.43l-.37.57,1.23,2.35,1.16.13L316,14l-.73.28v2.88l.73.35c-.62,1.41-.34,3.07-1.53,4.52-.32.14-1.15-.08-1.29,1-.09.62-1,1.11-.47,2-.49,1.42-1.89,2.2-2.9,3.43L309,28l-2.34,1.23-.12,1c-1.37,1-3.07.79-4.53,1.46l-.31-.82h-2.87c-.06.15-.1.27-.14.38l-.16.35C297,31,295.44,31.2,293.92,30.16Zm13.8-16.31c-1.51-3.39-3.55-5.58-7.37-5.58s-6.14,2-7.59,5.64v2.62a6.79,6.79,0,0,0,3.56,5.78l1.92,1c1.43-.14,3.07.28,4.61-.4a6.62,6.62,0,0,0,3.22-2.15c.84-1.32,2-2.59,1.7-4.42A15.78,15.78,0,0,1,307.72,13.85Z"/><path class="cls-1" d="M0,79.84c0-24.26,18.43-43,43.14-43,15.79,0,29.79,8.3,36.79,20.84L58.6,70.09C55.83,64.39,50,61,42.81,61c-10.58,0-18.4,7.65-18.4,18.88s7.82,18.88,18.43,18.88c7.16,0,13.19-3.41,15.79-9.11L80,101.83c-7,12.7-20.87,21-36.82,21C18.43,122.83,0,104.11,0,79.84Z"/><path class="cls-1" d="M168.49,39.16v81.39H144.08V112.9c-5.38,6.18-13.35,9.93-24.26,9.93-21.33,0-38.9-18.72-38.9-43s17.57-43,38.9-43c10.91,0,18.88,3.75,24.26,9.93V39.16ZM144.08,79.84c0-12.21-8.14-19.86-19.38-19.86s-19.37,7.67-19.37,19.86S113.48,99.7,124.7,99.7,144.08,92.06,144.08,79.84Z"/><path class="cls-1" d="M225.79,37.53V65.2c-10.1-1.62-24.42,2.46-24.42,18.56v36.79H177V39.16h24.42V53.65C204.62,42.74,215.53,37.53,225.79,37.53Z"/><path class="cls-1" d="M266.8,39.16c0-8.46,4.84-10.9,12.4-11.32V4.4c-25.1.82-36.81,12.79-36.81,34.76H231.48V62.6h10.91v58H266.8V62.6h20.83v58h24.43V39.16Z"/></g></g></g></g></svg>