<svg xmlns="http://www.w3.org/2000/svg" viewBox="0 0 283.39 400"><defs><style>.cls-1{fill:#fff;}</style></defs><g id="Layer_2" data-name="Layer 2"><g id="Layer_1-2" data-name="Layer 1"><path id="path2999" class="cls-1" d="M66.69,0h43V18h-25v18h25v18h-43Z"/><path id="path3001" class="cls-1" d="M118.26,0h43V15.62h-25v3.13h25V54.69h-43V38.28h25V35.16h-25Z"/><path id="path3003" class="cls-1" d="M169.82,0h43V15.62h-25v3.13h25V54.69h-43V38.28h25V35.16h-25Z"/><path class="cls-1" d="M0,78.61,25.79,367.87,141.52,400l116-32.17L283.39,78.61ZM224,209.54l-.87,9.53-8.34,93.4-.53,6-72.61,20.13h0l-.16.05L68.86,318.46l-5-55.7H99.5L102,291.05l39.51,10.67h0L181.14,291l4.12-46H62.3l-3.18-35.48H188.33l3.23-36.32H56l-3.23-35.48H230.44Z"/></g></g></svg>