<svg xmlns="http://www.w3.org/2000/svg" viewBox="0 0 283.39 400"><defs><style>.cls-1{fill:#181818;}.cls-2{fill:#fff;}</style></defs><g id="Layer_2" data-name="Layer 2"><g id="Layer_1-2" data-name="Layer 1"><polygon id="polygon2989" class="cls-1" points="283.39 78.61 257.57 367.83 141.52 400 25.79 367.87 0 78.61 283.39 78.61"/><polygon id="polygon2991" class="cls-1" points="235.47 349.41 257.53 102.26 141.69 102.26 141.69 375.41 235.47 349.41"/><polygon id="polygon2993" class="cls-2" points="59.12 209.54 62.3 245.02 141.69 245.02 141.69 209.54 59.12 209.54"/><polygon id="polygon2995" class="cls-2" points="141.69 137.74 141.57 137.74 52.73 137.74 55.96 173.22 141.69 173.22 141.69 137.74"/><polygon id="polygon2997" class="cls-2" points="141.69 338.59 141.69 301.68 141.54 301.72 102.03 291.06 99.5 262.76 80.3 262.76 63.89 262.76 68.86 318.46 141.53 338.64 141.69 338.59"/><path id="path2999" class="cls-1" d="M66.69,0h43V18h-25v18h25v18h-43Z"/><path id="path3001" class="cls-1" d="M118.26,0h43V15.62h-25v3.13h25V54.69h-43V38.28h25V35.16h-25Z"/><path id="path3003" class="cls-1" d="M169.82,0h43V15.62h-25v3.13h25V54.69h-43V38.28h25V35.16h-25Z"/><polygon id="polygon3005" class="cls-2" points="185.26 245.02 181.14 291.03 141.57 301.71 141.57 338.62 214.3 318.46 214.83 312.47 223.17 219.07 224.04 209.54 230.44 137.74 141.57 137.74 141.57 173.22 191.56 173.22 188.33 209.54 141.57 209.54 141.57 245.02 185.26 245.02"/></g></g></svg>