<svg xmlns="http://www.w3.org/2000/svg" viewBox="0 0 400 287.01"><defs><style>.cls-1{fill:#fff;}</style></defs><g id="Layer_2" data-name="Layer 2"><g id="Layer_1-2" data-name="Layer 1"><path class="cls-1" d="M396.19,108.54c-1.11-.91-11.13-8.53-32.65-8.53a101.58,101.58,0,0,0-16.9,1.5C342.57,73.12,319,59.38,318.06,58.67l-5.76-3.36-3.72,5.37a79.23,79.23,0,0,0-10.19,23.74c-3.9,16.14-1.49,31.35,6.68,44.34-9.83,5.56-25.79,6.87-29.14,7.06H12.46A12.44,12.44,0,0,0,0,148.26,188.08,188.08,0,0,0,11.51,216c9.09,23.74,22.63,41.38,40.08,52.12C71.25,280.14,103.35,287,139.52,287a270.68,270.68,0,0,0,48.8-4.46,201,201,0,0,0,63.81-23.18,174.51,174.51,0,0,0,43.43-35.62c21-23.57,33.4-49.9,42.49-73.28h3.71c22.82,0,36.92-9.08,44.7-16.89a49.54,49.54,0,0,0,11.88-17.45l1.66-4.82-3.81-2.77ZM233.12,128.2h35.26a3.14,3.14,0,0,0,3.16-3.15V93.5a3.15,3.15,0,0,0-3.16-3.16H233.12A3.14,3.14,0,0,0,230,93.5h0v31.55a3.27,3.27,0,0,0,3.16,3.15ZM184,37.86h35.26a3.14,3.14,0,0,0,3.16-3.16V3.16A3.28,3.28,0,0,0,219.22,0H184a3.14,3.14,0,0,0-3.16,3.16h0V34.7A3.25,3.25,0,0,0,184,37.86Zm0,45.25h35.26A3.27,3.27,0,0,0,222.38,80V48.41a3.28,3.28,0,0,0-3.16-3.16H184a3.14,3.14,0,0,0-3.16,3.16h0V80A3.22,3.22,0,0,0,184,83.11Zm-48.8,0h35.26A3.27,3.27,0,0,0,173.58,80V48.41a3.15,3.15,0,0,0-3.16-3.16H135.16A3.14,3.14,0,0,0,132,48.41h0V80a3.12,3.12,0,0,0,3.16,3.15Zm-49.55,0h35.26A3.27,3.27,0,0,0,124,80V48.41a3.15,3.15,0,0,0-3.16-3.16H85.61a3.14,3.14,0,0,0-3.16,3.16V80a3.4,3.4,0,0,0,3.16,3.15ZM184,128.2h35.26a3.14,3.14,0,0,0,3.16-3.15V93.5a3.15,3.15,0,0,0-3.16-3.16H184a3.14,3.14,0,0,0-3.16,3.16h0v31.55A3.12,3.12,0,0,0,184,128.2Zm-48.8,0h35.26a3.14,3.14,0,0,0,3.16-3.15h0V93.5a3.15,3.15,0,0,0-3.16-3.16H135.16A3.14,3.14,0,0,0,132,93.5h0v31.55a3,3,0,0,0,3.16,3.15Zm-49.55,0h35.26a3.14,3.14,0,0,0,3.16-3.15h0V93.5a3.15,3.15,0,0,0-3.16-3.16H85.61a3.14,3.14,0,0,0-3.16,3.16v31.55a3.27,3.27,0,0,0,3.16,3.15Zm-48.6,0H72.26a3.14,3.14,0,0,0,3.16-3.15h0V93.5a3.14,3.14,0,0,0-3.16-3.16H37a3.14,3.14,0,0,0-3.16,3.16h0v31.55A3.26,3.26,0,0,0,37,128.2Z"/></g></g></svg>