<svg xmlns="http://www.w3.org/2000/svg" viewBox="0 0 295.82 400"><defs><style>.cls-1{fill:#fff;}</style></defs><g id="Layer_2" data-name="Layer 2"><g id="Layer_1-2" data-name="Layer 1"><path class="cls-1" d="M14,323.85l3-1.27c.2-5.13-2.13-9.4-4.63-13.63-.59-1-1-2.08-1.52-3.12l-.12-.1c1.38.29,2.79.94,4.12.79a124.63,124.63,0,0,0,14.3-2.2c5.08-1.2,9.58-1.09,13.35,3.25.56-5.8-3.89-10.1-10-9.62a101.38,101.38,0,0,0-10.29,1.85c-1.18.22-2.36.4-3.55.6.14-4.18-2.73-6.88-4.68-10.07a10,10,0,0,0,1.41,8.76c.82,1.17,1.8,2,3.36,1.23-2.18.57-4.42,1-6.55,1.76-4.33,1.51-7.8.32-10.7-3l-.08.08c.32-.43.9-.85.9-1.28,0-4.65,3.18-7.09,6.45-9.45,3.05-2.21,5.95-4.5,6.38-8.7l-9.34,3.53.09.11-.84-4.73c1.68-.27,4.07.9,4.66-2.58-2,.53-4.61-.85-4.55,2.7L2.7,275.34l-.09.1c.55-.28,1.36-.4,1.62-.85,2.53-4.24,4.63-5,9.19-3.36l1.84.67c-1.11-3.3-3.14-4.49-5.85-4.72-1.47-.13-2.95-.07-4.42-.09l.11.12c.15-1,.64-2,.4-2.87A81.68,81.68,0,0,1,2.76,242.4c-.13-17.76-.11-35.53-.36-53.29-.34-25.29-.92-50.58-1.31-75.88q-.6-40-1-79.93C-.06,23.22,0,13.14,0,2.68a24.78,24.78,0,0,1,2.61-.24c31.08-.11,62.17-.12,93.25-.31,33.64-.21,67.28-.57,100.92-.88Q223.45,1,250.08.68c12.5-.17,25-.45,37.51-.66,1.86,0,3.71,0,5.91,0,0,2.84,0,5.35,0,7.86-.09,23.15-.12,46.3-.3,69.45q-.33,43.2-.88,86.39c-.31,25.69-.73,51.37-1.09,77.06A78.56,78.56,0,0,1,288.12,261c-.47,1.66-1.47,3.43.83,4l-7.68,1.27.11.11c3.47-3.59,4-8.33,4.85-12.88,2-10.51,1.53-21.18,1.6-31.8.08-11.57.11-23.15.16-34.72,0-1.32,0-2.63,0-4.41-46.68-.67-92.9.32-139.06.69-1.35,3.77-1.23,112.56.1,122.45l3.41.63c-.16.14-.28.35-.4.35a98.47,98.47,0,0,0-41.85,10.32c-15.35,7.78-30.68,15.6-47.26,20.54-4.61,1.37-9.24,2.7-13.76,4A14.77,14.77,0,0,0,47.81,339c-3.72-4.24-7.45-8.48-11.29-12.61a13.11,13.11,0,0,0-3.21-1.86l.07.09,3.3-6.5c-7.81,2.71-15,5.21-22.76,5.59ZM65,245.47l-1.13-.81-.51-1.78.74-2.82c1.11,2.06,1.84,3.41,2.75,5.08l4.38-1c-2.61-1.8-4.52-3.32-3.42-6.84,1.8,2,3.1,3.55,4.41,5l.76-.47c-1.06-1.49-2.9-2.75-1.77-5.36A24.78,24.78,0,0,0,73.49,239c1.07.87,2.27,1.66,3.36,0l.93-.93c2.81-1.12-1.38-2.21.29-3.56,1.6-.77,2.69,0,2.26,1.93a19,19,0,0,1-2.46,6.68c-4.64,6.72-10.45,12.18-18.25,15.15l-8.75,3.31v.82l7.34,1.69-.71-3.57,5.55,3.33L62.3,260l5,3.09-.08.08c-.68-1.11-1.37-2.22-2.06-3.33l.64-.48,3.9,2.14-.09.09L69.15,259l5.71,2.61c-1.41-1.77-4-2.28-3.88-5.61l8.15,4.24-4-5c3.32-.61,4.72,3.13,7.14,2l-2.79-3.76-.08.1,1.63-.15.82,1,.44.25-.53-.14L81,253.45l.21-1.71-.09.11c2-.06,3,3.13,5.49,1.84-.2-1.77-3.42-1.28-2.27-3.73l5.32,1.84a40.67,40.67,0,0,1-10.48,16.05l.08-.1a11.44,11.44,0,0,0,8.78-2.3h1.38l0-.25-1.26.32-2.68-.44,0-1.06,6-.76c.25.23.57.69.75.64.33-.1.58-.48.86-.75l-.3-.37-1.4.6c-.61-.56-1.23-1.13-2.47-2.29h4.85l.16-.5-2.66-1.23.82-1,5.39.59-3.16-3h7L98,254l.19-.7,6.67-.53v-.93c-2,0-4.27.71-5.85-1.88l7.32-1.33L104,246.55l5.51-.91-.1-.09c-1.23,2.81-2.41,5.64-3.73,8.41-.29.62-1.1,1-1.61,1.51-2.61,2.71-5.37,5.3-7.72,8.22-1.29,1.6-1.87,3.76-2.75,5.65l2,2.62-.4.47-3.65-1.5L90,273.17l-.76,1.1,3.87,1.45-.76,1.12-4.79-1.6-1.89,2.1,1.58,2.43c-2.23.46-4.62-2.46-5.9,1.11l1,2.64c-2.51-.81-4.82-1.86-5.65,1.52-.06.26-.74.38-1.14.54L72.07,287l-1-.46L70,288.85A12.35,12.35,0,0,0,67.26,287c-4.05-1.34-8.17-2.48-12.23-3.79-2-.64-3.58-.72-4.73,1.3,2,2.45,2.11-.9,3.63-.88l1,3.25.21-.11-.33.09L56,285l2.2,2.63,1.49-1.76c1.54,1.41,2.92,2.68,4.31,3.94a19.7,19.7,0,0,1-4.8-.06c-2.59-.65-5.06-1.76-7.6-2.61-4-1.35-7.56.6-8.14,4.64-.12.81,1,1.8,1.62,2.71a12.26,12.26,0,0,0,1.88-2c.27-.45,0-1.2,0-2l2.08.83,1.34-2.72,2.15,3.26.8-1.79,10.28,3.05.22-3.39,3,4.13-12.39,5c-5.33.7-7.22,3.39-5.75,9.25l1.64-4.64,2.9,1.31c-.26-1.81-.43-3-.61-4.31l2-.48c-.07.32-.13.64-.06.31v-.21l-.22-1.34c3.94,2,3.94,2,5.63-.69,3.14,1.56,3.14,1.56,4.87-1.27,2.72,2.46,3.56-.34,4.72-1.89,2.83,1.36,5.21,3.34,8.38,3.32l.46-2.89,1.87,2.35,1.06-1.65,2.2,1.41c.67-1.84.65-3.07-1.37-3.13s-4.23,0-7.26,0c1.29-2.38,1.85-4.45,3.19-5.68a60.26,60.26,0,0,1,7.77-5.58,20.92,20.92,0,0,1,3.48-1.41c-.54,2.05-.91,3.44-1.27,4.84l0,.18-.08-.3L95,279c.16,1.14.26,2.9.65,4.59s-3,2.95-.31,5.1c2.71-3.83,2.64-8.25,2.84-13.38.93,3.22,1.58,5.5,2.5,8.67l2-11.85c.76.44.88.8.81,1.12-.41,1.84-.35,3.95,1.4,4.61,1.54.58,3.59.16,5.31-.26a26.93,26.93,0,0,0,4.74-2.16,38.18,38.18,0,0,1-6.09.33c-1.86-.18-2.77-1.81-2.85-4.09,3.38,2.87,6.5,3.14,10.25.88l5.93.4v-.81l-5.86.49c-2.09-.55-4.78.47-6.45-2.58a49.71,49.71,0,0,0,14.2-.62l-4-1.18.22-1.1,4.2.23,1.23.36,0-.49-1.36.23c-.81-.75-1.61-1.49-2.56-2.35l2.4-5.94,2.84,1.55-.11-.12a20.7,20.7,0,0,0,2.85,3.72c2.66,2.25,5.54,4.25,8.32,6.36l.22-.11-.33.11,1.75-1.45c1.27,1.87,2.39,3.51,3.5,5.16l1.23-.36c0-26.46.06-52.92,0-79.38s-.3-53.06-.46-80c-3.66.41-6.88.51-10,1.17-10.56,2.23-19.6,7.54-27.83,14.35l3.81,3,.1-.12c-.53,0-1.19.28-1.57,0-4.43-2.64-7.58,0-10.76,2.53a5.37,5.37,0,0,0-1.92,6.24c6.16-5.34,13-4.09,20-2.14H105.11c5.46,1.76,10.67,5.91,16.68,1.21l.2,1-3.87,2.6c2.49,2.49,5,5.06,7.56,7.47a5.49,5.49,0,0,0,2.45.77c.43.09,1.2-.18,1.3,0,1.48,2.63,3.88.47,5.71,1.16l-.83.85,4.1,2.68-.1-.1c-1.87,2-2.81.39-3.83-1l-.13,0,.24.1c-.89.93-1.74,1-2.55-.1l-.14,0,.24.11c-1.93,2.12-2.68-.69-3.75-1-.74,1.42-2.3,3.21-1.92,3.86,2.15,3.66-1.15,4.93-2.65,6.94-1,1.31-2.19,2.43-3.3,3.64l.57.68,3.06-1.22-.29,2.56-.13.14.1-.19c3.42-.11.61,2.33,1.74,3.16l-.73.73-4.79-2.88c-1.57,1-4,1.92-5.59,3.58-3.34,3.37-7.31,3.92-11.67,3.8-3.64-.1-6.76-1.61-9.81-3.34-6.76-3.86-11.27-9.46-11-17.44A95.8,95.8,0,0,1,84.63,142c1.92-8.63,3.3-17-.06-25.73-5.77-14.9-2.68-28.75,6.08-41.63,1.18-1.74,2.61-3.3,4.22-5.31-3.43-.06-5.27,2-7.68,3.19l2,1.29-5.6,3c1.81,1.37.73,2.08-.58,2.84s-2.83,1.81-4.25,2.73l-1.89.45-.88,1-.15.15.06-.21.91-1.07,1.86-.43,2.53.12.24.78a40.26,40.26,0,0,0-4.31,2.41,53.72,53.72,0,0,0-4.35,3.88l5.44-1.8c-1.87,3.73-6.38,4.71-7.65,8.9l5-1.66c-1.94,3.49-6.3,5-5.64,9.9l4.86-3.07.56.69c-1.31,2.54-4.76,4-4.39,7.73l4.17-1.9c-1.1,2.48-1.92,4.29-3,6.71l4-1.86L74.5,117l.11-.11c-6.51,6.78-9.7,14.51-6.34,23.83.91,2.51.22,4-1.59,5.56a9.51,9.51,0,0,0-3.26,8.32,6.53,6.53,0,0,1-1.36,4.76c-3.59,5-4.83,10.4-2.55,16.35a15.33,15.33,0,0,1,.53,2.82c-10.62.39-20.22-1.54-29-7.33S16.7,157,12,147.91l-1,.37c.32,3.2.64,6.41,1,9.67l2.6-.39v8.77l2.07-3.19c1.36,3.89-.22,7.16,2.19,9.43.64-1.71,1.28-3.38,1.91-5l1,.26v7.55l1.59-3.17.92.91.55,6.77.68,0,1.62-5.67,1.07.18c0,.93.07,1.86,0,2.79-.16,1.85-.68,3.77,1.28,5.09v.11c-.14-1.94-.26-3.88,1.82-5.07,1.68,2.37-1.15,5.86,2.39,7.67.51-2.18-.75-4.73,1.81-6.17,1.35,2.49-.7,5.69,2.08,7.57v.29l-.1-.2.93-5.15c2,2.83.4,6.48,4.06,7.28-.39-4.66-.39-4.66,2.15-6.82.17,1.91.18,3.44.47,4.92s.48,3.56,2.92,3.56l.65-5.1h.91l1.59,5.35,1.31-3.92,1.89,5.34,1.52-3.39,1.77,3.95c-15.74,5.84-30.51,3.49-44.8-4.25l-.48.86c1,1.91,2.09,3.82,3.06,5.58l2.59-1.1a18.8,18.8,0,0,0,.37,3.1,25.71,25.71,0,0,0,1.4,3.07L21.38,195l2,6.87.56-.12.38-4.39.74-.07,2.62,6.61c.65-1.74,1-2.82,1.72-4.6,1.4,2.58.25,5.45,3.41,6.16.33-2.09-1.65-4.53,1-6.27,1,2.4.3,5.32,3.13,7.19v-5.08l.66-.11,2.27,5.29.65-3.81c2.81,4,2.81,4,5.47,3.38-1.5-3.6-1.5-3.6-.15-5.73,1,2.07,2,4.06,3.17,6.53.61-2.51-2.42-4.19-.37-6.1,1.33,1.73,2.51,3.3,3.76,4.8.13.16.72-.06,1.08-.11v-3.55l4.14,4-.09-.07a6.84,6.84,0,0,1-.72,2.14c-3.61,4.61-8.72,6.58-14.24,7.45-7.36,1.17-14.4-.21-21.19-3.2A31.81,31.81,0,0,0,16.29,211l2.5,4,2.75-.75,1.87,6.39.23-.14-.34.11,1.11-3.68c1.66,2.76,1.12,5.85,4.19,6.51l0,.24-.06-.14c-.32-1.74-2-3.52.55-5.77a34,34,0,0,0,1.48,3.76c.83,1.54,1.82,3,2.75,4.47l.11.11-.18-.07c0-1.78-2-3.51-.07-5.79.77,1.81,1.35,3.27,2,4.69.77,1.67,1.83,3,4,2.55l0,.3-.08-.21c-.56-2.14-2.7-4.07-.9-6.8,3.39,1.42.53,6.7,4.8,7.34l-1-5.8c3.67,1.4,2.83,6.36,6.92,6.37.31-2.63-3.39-4.73-.47-7.75.68,1.45,1.18,2.63,1.79,3.75s1.36,2.21,2,3.32c.15-2.14-2.16-3.82,0-6,1.63,1.83,1.18,5.34,4.84,5.31l-1.53-5.88c2.73,1.31,2.46,4.85,5.87,4.41-1.41-1.95-3.28-3.48-2.71-6.11,2.66.52,2.78,5,6.35,3.74-.4-1.64-3.2-2.26-1.58-4.47l3.63,2.8.39-.48L65,217.16l.52-.49,3,1.6V217l3.65-.66-.1.11c.51.45,1.5,1,1.44,1.33a14.05,14.05,0,0,1-1.24,4.61c-4.92,9.1-12.53,14-22.93,14.83a44.21,44.21,0,0,1-22-3.86,27.88,27.88,0,0,0-3.55-1l-.64.89,5.38,7.94L29,237.5l.72-.11,2.64,6.35.44-.09v-3.73l.61-.14c1.49,2.28,3,4.56,4.46,6.83-.74-3.79-.74-3.79,1.47-5a26.58,26.58,0,0,0,1.57,3.61,38,38,0,0,0,2.91,3.7l-1.67-5.6,1.12-.45a16,16,0,0,0,1.65,2.82A31.22,31.22,0,0,0,48,248.46l-.05.27.13-.17c-1.41-1.73-2.9-3.43-2.34-6.63,1.05.66,2,.93,2.31,1.53a24.44,24.44,0,0,1,1.52,3.69l-.09-.1c1,1.15,2,2.6,4.1,1.92-.63-1.68-3.36-2.8-1.35-5.13,2.53.72,1.74,5.3,5.46,4.44.07-2-3-3.43-1-5.79,2.65,1,2.06,6.1,6.23,5l-2.11-5.31.65-.43,2,1,.53,1.81,1.14.81.63.95.13.15-.19-.07ZM26.15,102.7l-.31.25.34-.37,0-.2Zm5.4,26.57.18-.08-.3.09.24-1.85,2.57-3.54c1,3.24-2,6.12.21,9.26,1-2,.47-4.67,3.45-5.72a5.68,5.68,0,0,1,0,1.81c-1.78,4.18-1.59,8,1.76,11.39h.14l-.24-.1c.41-2.41-.52-5.22,2.3-7.08a41.72,41.72,0,0,1,.47,5.29c.19,1.65-.83,3.82,1.6,4.74l-.08.09c0-1.88-.17-3.88,2.41-5.22-.12,3.28-1.73,6.51,1.44,8.73l.22-.1-.33,0c.55-1.59,0-3.67,2-4.94.92,2.56-1.26,5.83,2.28,7.19l.2.12h-.3l.58-3.84.92.1c.27,1.5.54,3,.9,5l1.92-5c1.54,2.32-.5,5.17,2.59,6.6,1.32-2.84,2.57-5.54,3.81-8.23-9-4.41-13.29-7.45-17.1-12.34a66.19,66.19,0,0,1-14.55-41.8c0-1.36-.19-2.73-.35-4.73a13.3,13.3,0,0,0-4.24,8.48l-.23.07.14-.08c.39.37,1.19.88,1.11,1.08A33,33,0,0,1,25.72,98c.74.42,1.82.72,1.84,1.08.08,1.57,1.16,3.08-.16,4.78a8.91,8.91,0,0,0-1.8,7.86l2.34-3.36c.79,3.78-2.62,6.9-1,10.5l2.85-6.62,1.14.42c-.44,1.46-.92,2.9-1.33,4.36-.91,3.24-1.88,6.5.51,9.57Zm27.57,3.83.12.1-.2,0-3.22-3.94-.67.7Zm30.73,164,.27.08h-.34l-4-3.18v4.65Zm39.43-9,7.11-1c.63-3.4-3.19-1.71-4.79-3.72l5.92.38L137,280l-3.89-.24L129.34,286c.34-2.2-1.57-3-3.52-4.65l4.6.31c1-3.36-.81-3.89-3.49-3.9-.6,1-1.2,2.19-2,3.26-1.72,2.46-3.52,4.87-5.28,7.3-.15-3.06-.51-3.38-5.16-4.37-4.33,5.87-8.86,11.84-13.16,18-1.75,2.51-1.32,4,.82,5.46s3.72,1.5,5.56-.66a47.46,47.46,0,0,0,3.21-4.82l-5-4,.45-.76c1.07.52,2.16,1,3.21,1.59s2,1.14,2.92,1.71c-1.21,2.5-2.58,4.93-3.57,7.52a5.82,5.82,0,0,0-.15,4c1.7,3.72,5.2,3.34,8.71-1.3l-6.12-4.2a5.16,5.16,0,0,1,5.81,1.66c.92,1.12,1.62,1,2.59.37l-.74,3.5,7.92-3.31a18.4,18.4,0,0,1-4.1-.08c-.64-.17-1.07-1.15-1.59-1.77A13.28,13.28,0,0,1,132,308.46c1.51-3.54.65-5.18-2.62-5.32-1.36-.05-2.74.17-4.88.31,3.3-2.76,6.09-1.78,8.76-.74,1.23-3.21.75-4.21-2.11-4.5-1.45-.14-2.93,0-4.82,0,2.93-2.7,5.65-2.29,8.48-.69-.45-4-.52-4-7.45-3.51l-3.59,4.88c.16-1.54.91-3.4.31-4.55s-2.57-1.81-4.19-2.84c2.87-1.5,4.33.7,6.5,2.09.2-2.16.36-3.79.5-5.25l-3.69-2.06.37-.89,4.74,1.55,1.22-1.11c0,.8-.07,1.6-.11,2.4l-1.73,3.62c3.07-.79,5.55-1.13,8,1,.58-3.05-1.2-3.57-3.1-4Zm6.43,11.18,8.45-.93c-.56-.85-.93-2.06-1.51-2.16a26.53,26.53,0,0,0-4.81-.1c1.27-2.92,4-.89,6.18-2.43l-4.83-2.42h5c.81-4.14-2.86-3.52-5.28-5.06l5.31-1.89a9.06,9.06,0,0,0-1.54-2.11,6.59,6.59,0,0,0-2.16-.67l.19-.71h4.12l-3.6-6.19a162.41,162.41,0,0,0-5.42,24.75c-.7,2.64-2.22,5.18-1.14,8.33l7.75-1.38-.05-1.06-6-.38c2.34-3.43,5.23-1,7.94-.55-.67-3.73-2.15-4.85-5.3-4.39C137.83,300.15,136.36,301.62,135.71,299.33ZM56.62,95.78,60.85,93c-1.08,3.76-4.51,5.57-3.68,9L60,100l.52.54c-.62,1.54-1.23,3.08-1.89,4.75l2.26-.31c0,3.27.32,6.21,4.07,7.81-.34-1.7-.5-3-.89-4.28-1.82-5.92-1-11.87,1.08-17.35,2.49-6.6,6.06-12.79,9.13-19.17.56-1.18,1-2.43,1.44-3.65l-.76-.48-6,3.84-.13.09,0-.19,1.6,1.69L63.9,76.52l3.12.93a27.63,27.63,0,0,0-4,2.32,13.51,13.51,0,0,0-2,2.66l-.26-.08.15,0L63.58,82l.19.77L57.84,87.4l.44.6L62,86.36l.57.57c-2.17,2.84-5.92,4.77-5.84,8.94l-.13.57ZM13.94,308.51l-.18-.15.28.05,5.18,13.39c4.53-1.26,9.56-2.24,14.24-4.11,2.85-1.14,5.27-3.51,7.67-5.58a2.51,2.51,0,0,0,0-3.93C39,306,36.3,304.56,33.22,305,26.77,306,20.36,307.33,13.94,308.51ZM42.2,94.18h2.43l-3.79,8c1.78-.63,2-3,4.59-2.46-1.11,3.6-3.93,6.6-2.69,10.65l3-4.59c.77,3.67-2.43,6.53-.9,9.95,1-1.73,2-3.34,3.2-5.44,2.31,4.16-2.5,7.4.13,11.22l2.37-4.93,1.08.11c1.2,3.35-2.33,7.55,1.21,10.72.79-5,.79-5,2.54-6.24-.22,2-.42,3.77-.66,5.9l2.88-1.31a18.76,18.76,0,0,1,4.66,8.7l2.84-14.06c-1-.67-2.17-1.51-3.38-2.3-4.84-3.15-8.78-7.13-11-12.51A80.54,80.54,0,0,1,45,80.32L43.8,83.76l-.07.21,0-.3c.22.9.82,1.94.57,2.67a16.42,16.42,0,0,1-2.13,3.28c-.1.16,0,.44,0,.61l1.76.62L42.2,94.28l-.05.16Zm6.58,75v.29l0-.17-.47-4.13,3.39.91c.27,1.54.51,2.92.74,4.29l.9.06c1.06-3.69,2.13-7.38,3-10.38-5-2.94-9.88-5.29-14.17-8.4a62.66,62.66,0,0,1-11.63-10.46,67.09,67.09,0,0,1-8.39-13.65c-2.25-4.63-3.66-9.68-5.51-14.76l-1.5,10.22,2.22-.93-1.62,6.7,2.95-1.49L17,135.58l2.67-3.08,1,.38L19,139.79,21.82,137l-1.46,7.31,0,.13,0-.23L25,139.86l-1.42,9.56.44.05,1.89-4,1,.29-.61,8.15.91.16c.86-2.06.54-4.85,3.75-6.06-.53,1.91-1,3.39-1.34,4.9s-.34,2.76-.49,4.14l.39-.09,2.27-5,.84.3a29.11,29.11,0,0,0-.51,4.7,24.69,24.69,0,0,0,.92,4.34l.63-.15,2-5.26.84.23a43,43,0,0,0-.41,5.41c.1,2.31,1.53,3.42,3.88,3.62.57-2.27-.2-4.95,2.9-6.09-.14,1.82-.29,3.39-.37,5s.19,3.26,2.17,3.81l-.09.09c0-2-.34-4.08,2.19-5.33-.09,1.5-.21,2.81-.22,4.12C46.47,168.2,46.9,169.39,48.78,169.23ZM2.64,47c96-.28,191.5-.77,286.79-2.3,1.21-4.49,1.28-36,.11-39.23L2.64,7.82ZM287.43,177.5c.38-41.91.75-83.24,1.12-125-2.84,0-5,0-7.08,0-18,.24-36,.6-54.06.71-24.48.15-49,.1-73.44.16-1.82,0-3.64.14-5.69.23v4.53q0,22.8,0,45.61,0,34.91.09,69.81a32,32,0,0,0,.88,5ZM11.57,279.21c3.24-2.3,3.9-4.81,2-6.31-2.05-1.64-6-.79-8.28,2.27l5-.86Zm109.73,5.73,1.85-4c-3.69-2.79-3.85-2.75-6.53,1.34Zm18.07-11.22-3.59-.28c-.78,1.73-1.47,3.24-2.29,5h4.93C138.71,277,139,275.67,139.37,273.72Zm-12.57,2.83,2.82-6.51-.77-.59-5.61,4.5Zm5.09,0c.26-1.81.49-3.45.73-5.09l-1-.35L128.27,276Zm-11,.74,4,2.11C124.4,275.78,123.52,275.37,120.86,277.27ZM42.32,292.73l-1.2-.27c-1,.9-2.17,1.76.37,3.64Z"/><path class="cls-1" d="M222.1,236.73c1.5-1.31,3-2.65,4.52-3.92,1.9-1.57,3.57-1.16,4.16,1.31.51,2.16.43,4.45.92,6.76a8.4,8.4,0,0,0,.62-2.9c-.49-3.29,1.32-4.64,4-5.95a13.39,13.39,0,0,0,6.39-6.43c1.12-2.36,2.69-5.16,4.83-6.23a48.86,48.86,0,0,1,13.46-4.3,5,5,0,0,1,5.94,3.71c.19.83,1.71,1.5,2.74,2a7.08,7.08,0,0,1,4.41,7.37c-.11,2.35,0,4.7,0,7.47,3,3.49,3.15,5.17.6,9.83-1.33,2.45-2.9,4.77-4.15,7.25-1.14,2.28-3,3.21-5.3,3.91-3.74,1.16-7.48,2.07-11.42,1.73l.17.09-4.22-1.71.15.11c-.08-.24-.08-.59-.25-.7-2.93-2.07-13.65-5.88-17.87-6.27,1.85,3.9.33,7.09-2.35,9.57-1.86,1.72-4.11,3.6-7.15,2.35l-.1-4.34.4-.06-.29.17.09,4.13c.11.65,0,1.5.35,1.91,3.42,3.75,6.93,7.42,10.4,11.12a8.11,8.11,0,0,1,1.56,1.83c2.18,4.6,5.76,8,9.39,11.42,1.73,1.63,3.43,3.3,5.91,5.68a63.39,63.39,0,0,1-1.36,7.13c-1.19,4.07-1.56,4.14-5.72,2.81-2.18,3.86-5.62,5-11.49,3.79-.66,2.21-1.33,4.43-1.85,6.15-2.56.54-4.47,1-6.41,1.3a11.35,11.35,0,0,1-3.58-.17c-2.86-.56-5.68-1.33-8.55-1.87a3.39,3.39,0,0,1-2.89-2.93,28.21,28.21,0,0,0-.81-3.9c-.56,2.56-1.11,5.12-1.79,8.3-2.76-1.36-5.6-2.39-8-4.05s-4.42-3.12-7.51-1.34c-2.13,1.23-3.7.15-4.31-2.55-.4-1.77-.55-3.61-.89-6-3.08,3.52-6.13,2-9,.78-2.28-1-2.76-2.65-1.17-4.45a13.62,13.62,0,0,1,4.27-2.79c2.24-1.09,4.6-2,6.91-2.93l-.35-1c-2.88.79-5.83,1.37-8.6,2.43a8.14,8.14,0,0,1-6.23-.17,49.75,49.75,0,0,0-5.36-1.69c-3.14-.83-4.94-3.29-3.85-6.3a17.86,17.86,0,0,0,.58-9.08,7.59,7.59,0,0,1,1.41-5.14c2.15-2.9,4.82-5.41,7.24-8.12a6.27,6.27,0,0,1,6.12-2.18c2.11.34,4.29.53,6-1.31l-.12.1a20.63,20.63,0,0,1,8.48.36c3.06.65,6.46-.35,10.32-.68,1.4,1.21,2.07,4.77,5.73,4.08l.62,1.29c-2,4.29-3.78,8.06-5.54,11.83l-.8.81-3.24,1.61-5.08,2.09-.7,1.15-.48,1-2.61,1.39-1.61,1.62c-.25.66-.5,1.32-.74,2l.65.17V285c.55-.53,1.09-1.07,1.63-1.61l2.57-1.43.5-1,.76-1.17c2.34.92,3.75-.42,5-2.07l3.24-1.6.81-.8c1.23-1.46,2.49-2.9,3.68-4.39,1.83-2.28,3.39-4.82,5.47-6.84,3.93-3.83,4-4.19-.14-8-.16-.14-.11-.5-.21-1l3.2-3.35,1.83-.64,2.73-.23-.39-1L216,251.22l-1.86.62c-2,.21-4.27,1.26-4.81-1.91.7-1.11,1.38-2.17,2.06-3.23l2-.43.78-.88,3.13,1,1.2-1.79,7.08,4.95c-.13-2.2-.24-4.06-.36-6.22-1.11,3.06-2.91,2.1-4.59,1.22-2.37-1.25-4.54-1.47-6.35.92l-.81.86-2.06.38-2.93-1.95c.5,5.63-.78,11.53,4.18,15.65-1.75,2.42-3.74,2.19-5.74,1.93-3.6-2.33-5-5.63-4.83-9.9.1-2.33-.54-4.69-.77-7a17.21,17.21,0,0,1,0-2.78c.15-2.65.38-5.3.47-7.95.05-1.74-.35-3.81,2-4.16a3.68,3.68,0,0,1,4.38,2.65,9.57,9.57,0,0,0,1.2,1.85l-.11-.16,1.69,3.3-.57,2.7-1.66.16,1,1,.52-1.29c.2-.88.41-1.76.61-2.64,2.42-.72,2.51-3.06,3.35-4.86l-.13.15.95-1-.16.13h3.4l-.18-.12,1.81.92-.16-.13,1,.95-.16-.12,1.58,2.75.15,0Zm-1.25,15.09h-.18l.27-.09,3,2.56c.1.38.19.77.07.27.38.33.09.09-.19-.16l1.15-2.29-.08.09Zm11.58-9.27c-.06.06-.18.12-.19.2s.06.19.09.28c.07-.07.18-.13.19-.21S232.46,242.63,232.43,242.55Z"/><path class="cls-1" d="M289.23,342.33l-5,6.9c-1.45.11-2.92.12-4.36.36a74.15,74.15,0,0,1-25.69.17,201.5,201.5,0,0,1-42.29-12.82c-14.08-6-28.24-11.84-42.45-17.57a54.2,54.2,0,0,0-30.88-2.74c-11.44,2.17-22.1,6.64-32.48,11.71A327.7,327.7,0,0,1,58.71,347.6c-11.09,3.41-22.31,6-34,5.53-3.29-.14-6.57-.39-10.45-.62,5.61,6,5.94,13.07,5.58,20.15,8.07,2.79,16,1.81,23.55.64,10.9-1.67,21.3-5.49,31.35-10.1,19.3-8.86,38.78-17.17,59.38-22.67a55,55,0,0,1,23.52-1.1c10.78,1.78,20.86,5.9,31,9.76,16.19,6.15,32.27,12.63,48.64,18.29,10.67,3.69,21.75,6,33.25,4,4.28-.74,4.38-.95,5-5.2.9-6.66,3.4-12.62,8.79-17-.82,1.37-1.57,2.8-2.49,4.1a26.81,26.81,0,0,0-5.22,18.59c.1.93,0,1.87,0,3.1a30.87,30.87,0,0,1-10.89,2c-10.49.45-20.67-1.6-30.46-5-15.08-5.25-29.87-11.33-44.91-16.7-9.84-3.51-19.85-6.65-29.92-9.46-8-2.25-16.15-1.79-24.32.05-20.7,4.68-40.26,12.22-59.21,21.75a124.09,124.09,0,0,1-37.17,11.59,50.12,50.12,0,0,1-21.18-1.6,39.4,39.4,0,0,1,.06-6.44,19.67,19.67,0,0,0-4.48-16.92c-2.45-2.86-4.95-5.67-7.42-8.5l-.07.11c16.87,4.69,33.44,2.81,49.93-2.13a283.14,283.14,0,0,0,44.37-18c10.69-5.29,21.33-10.76,33.07-13.64A58.87,58.87,0,0,1,171.06,315c17.41,7.09,34.62,14.65,52.13,21.48a130,130,0,0,0,44.75,9.24,65.81,65.81,0,0,0,21.39-3.3Z"/><path class="cls-1" d="M204.53,365.87c3.74.59,7.31,1.62,10.26,4.16l.11-.08c-2.84-1.41-5.19-.55-7.76,1.1a316.45,316.45,0,0,1-56.41,28.19,8.46,8.46,0,0,1-6.9,0c-10.75-4.54-21.8-8.4-32.3-13.45-8.29-4-16-9.29-23.83-14.14-1.87-1.15-3.52-2.48-5.88-1.89l.1.11c7.37-3.48,14.65-7.15,22.12-10.38,10.35-4.47,21.21-7.35,32.21-9.78,9.7-2.13,19.2-.76,28.65,1.31,3.85.84,7.55,2.31,11.32,3.5l.1-.1c-.92-.12-1.87-.17-2.77-.37-5-1.13-9.9-2.43-14.89-3.38-3.07-.59-6.23-.66-9.47-1a24.59,24.59,0,0,0-.34,2.62q0,19.36.09,38.72a23.06,23.06,0,0,0,.63,3.76c13.62-3.78,49.3-21.55,55.76-27.67l-.73-1.39Z"/><path class="cls-1" d="M209.47,235c.78-5.93-3.69-7.77-7.74-9.89-1.06-.55-2.28-.8-3.36-1.31-5.05-2.36-5.71-6.91-5.77-11.74a25.94,25.94,0,0,1,.09-4.32,10.93,10.93,0,0,1,1.26-4.5,80.5,80.5,0,0,0,6.82-12.11c1.06-2.3,3.23-2.95,5.33-1.18,2.55,2.14,5,2.86,8.12,1.64a2.26,2.26,0,0,1,1.58,0c2.23.94,4.07.31,6.06-.88,3-1.8,4.11-1.45,6.8.86a14.86,14.86,0,0,0,3.63,2.24c5.48,2.47,8.81,10.36,7,16.84a37.07,37.07,0,0,1-1,4.25,11.07,11.07,0,0,1-2.31,4c-3.09,2.94-6.48,5.56-9.57,8.5a6.56,6.56,0,0,0-1.61,3.56c-.39,2.58-1.79,3.41-4.18,3.09l.16.12-1-.95.16.13-1.81-.92.18.12c-1.13-1.25-2.26-1.22-3.4,0l.16-.13-.95,1,.13-.15c-1.66.51-2.46,3.68-5,1.62Z"/><path class="cls-1" d="M182.68,258.38c-3.2-.25-6.4-.56-9.61-.7-1.57-.07-3.16.32-4.74.28-3.64-.07-5.86-2.86-8.65-4.62-3.46-2.2-3.26-5.48-3.43-8.82a6.82,6.82,0,0,0-.94-3.37c-1.52-2.2-.79-4,.48-5.9,1-1.54,2.51-3.2,2.58-4.85.22-5.37,4.5-6.75,7.95-9,1.07-.7,2.79-1.25,3.05-2.19,1-3.58,4-4,6.76-4.93a3.83,3.83,0,0,1,2.73.08c3.77,1.88,7.93,3.06,10.84,6.5,1.71,2,3.63,3.59,3.92,6.68.15,1.59,2.17,3.27,3.71,4.39,3.79,2.77,4,3.22,3.22,7.65a18.74,18.74,0,0,0-.18,5.93c.32,2.38-.55,3.67-2.72,4.1-3,.59-4.9,2.41-6.75,4.69-.91,1.11-2.68,1.55-4.09,2.24s-2.83,1.31-4.25,2Z"/><path class="cls-1" d="M253.76,258.32a46.64,46.64,0,0,1,5.3,1.32,20.85,20.85,0,0,1,5.14,2.65,10.19,10.19,0,0,1,2.65,3.51,7.53,7.53,0,0,1,1,3.7c-.16,2.64-.82,5.24-1,7.88a6.1,6.1,0,0,0,.89,3c1.21,2.36.64,4.26-.84,6.33-2.48,3.45-5.27,5.14-9.59,3.33-1.26-.52-2.91-.06-4.37-.22-1.7-.2-3.81,0-5-1-3.74-2.95-7.79-5.64-10.29-10-1.24-2.17-3.08-4-4.61-6-2.33-3.06-4.62-6.15-6.73-9l7.84-8c4.8,2.79,10.32.22,15.71.92l-.15-.11,4.22,1.71Z"/><path class="cls-1" d="M2.57,340.75c-1.77-3-3.35-6-1.49-9.55l-.1-.14v4.81c5.44-4.92,11.76-5.62,17.82-7.11,4.9-1.21,9.72-2.73,14.58-4.1l-.07-.09c-.55,1.35-1.14,2.69-1.64,4.06-2.13,5.84-2.16,7.79-.23,15.54a26.39,26.39,0,0,1-3,.49A57.53,57.53,0,0,1,5.26,340.9a8.49,8.49,0,0,0-2.81,0Z"/><path class="cls-1" d="M261.22,321.26c3.06,2.67,6.82,3.64,10.69,4.3,3.44.58,6.92,1,10.33,1.7,4.72,1,9,2.86,11.49,7.42,2.25-3,1.94-4.78-1.3-8.24l-.09.11c2.63.07,3.18,1.95,3.41,4,.45,4.1-1.24,7.19-4.36,8.13l.06.09c-4.26.78-8.49,1.76-12.78,2.28a87.83,87.83,0,0,1-25.64-.75c-.2,0-.36-.38-.53-.57l-.1.07c3.06.29,6.14.51,9.19.89,2.36.3,3.26-.68,3.77-3,1.07-4.79-.13-9-2.47-13.07a33.28,33.28,0,0,1-1.55-3.56Z"/><path class="cls-1" d="M289.43,281.63l-8.85-3.77c-.54,2.57.88,4.25,2.73,5.61s3.86,2.37,5.67,3.72c3.2,2.37,5.22,5.32,3.58,10l2.66-1.41-.1-.11a11.51,11.51,0,0,1-6.55,5.39l.07.13c-.41-.27-.78-.71-1.23-.8-4-.78-8.07-1.62-12.14-2.2-5.25-.75-10.54-1.29-15.8-1.92l.14.12c2.59-.17,5.22-.67,7.77-.4,1.88.19,3.24,0,4-1.65,2.6-5.84,5.17-11.7,7.56-17.62.46-1.15,0-2.65.13-4a33,33,0,0,1,.82-3.64l-.09-.1c.45.19,1,.67,1.32.53,5-2.52,6.73-2.14,10.17,2.21a7.44,7.44,0,0,0,2.25,1.33l-.1-.1c-.32,1.41-.91,2.34-2.66,2.16s-3.37,0-5.78,0c.71.8,1.16,1.79,1.8,1.93a23.34,23.34,0,0,0,4.36.25l.06-.11-1.89,4.55Zm1.07-7.07c-.46-3.84-2.32-5.15-4.7-5.32a4.54,4.54,0,0,0-4.76,3c-.9,2.31.07,3.8,2.45,5.11.3-1.9.56-3.51.8-5.05Zm-15,22.32c2.83.09,3,.08,4.22-1.68,2.26-3.25,3.33-6.74,1.33-10.83Z"/><path class="cls-1" d="M285.26,304.39c-.72,1.23-1.53,2.42-2.14,3.71-1.47,3.09-2.95,6.2-4.21,9.38-.38,1-.06,2.2-.06,3.79l-20.15-4.21,2.52,4.2.12-.14a9.6,9.6,0,0,0-2.26,1.48c-4,4.68-8,9.43-11.9,14.18a21.71,21.71,0,0,0-1.44,2.4c-7.94-1.51-15.91-3.45-23.31-7.34l-.1.11q7.47,2.21,14.94,4.39c1.14.33,2.3.59,3.44.88,6.08-5.17,10.77-11.33,15.48-17.49,1.48-1.93,1.31-3.57-.54-5.24-3.26-3-4.92-6.62-4.11-11.11a4.46,4.46,0,0,1,.72-1.31l-.1-.11v5.62c2.43-5.11,6.49-6.74,11.5-7.09,4.44-.3,8.41,1.31,12.35,2.86a16.58,16.58,0,0,0,9.36,1.11ZM282,306.6c-3.82-1.24-7.69-2.86-11.71-3.69a30.75,30.75,0,0,0-9.9-.35c-3.67.46-6.27,3.39-6.28,6.36,0,3.29,2.28,5.06,5,6.15a59.2,59.2,0,0,0,17.66,4.21C278.55,314.86,280.27,310.7,282,306.6Z"/><path class="cls-1" d="M214.16,328.73,201.38,323l-.11.11,12.79,5.73Z"/><path class="cls-1" d="M159.45,307.56l7,1.79.1-.11-7-1.77Z"/><path class="cls-1" d="M184.41,315.65l-6.36-2.47-.08.1,6.34,2.48Z"/><path class="cls-1" d="M188.58,317.2l5.37,2.66.09-.1-5.34-2.68Z"/><path class="cls-1" d="M260.49,380.93h-4l0-.2h4Z"/><path class="cls-1" d="M40.09,383.29l-3.7.2,0-.31h3.71Z"/><path class="cls-1" d="M1.56,299.05c-.5-1.13-1-2.27-1.49-3.4l.73-.25.68,3.73Z"/><path class="cls-1" d="M272,380.08l-3.81,1.26-.17-.59,4.08-.63Z"/><path class="cls-1" d="M27.09,383.24H25v-.13h2Z"/><path class="cls-1" d="M159.54,307.47h-3.9l.06-.59,3.75.68Z"/><path class="cls-1" d="M171.73,310.63l3.48,2.13.09-.09-3.44-2.13Z"/><path class="cls-1" d="M218.21,330.3l-4.05-1.57-.1.11,4,1.57Z"/><path class="cls-1" d="M252.5,339.75h-3.85l.06-.53,3.69.6Z"/><path class="cls-1" d="M197.24,362.68l4,1.56.12-.1-4.06-1.6Z"/><path class="cls-1" d="M251.93,380.09h-1.84v-.21h1.84Z"/><path class="cls-1" d="M1.92,329.5l2.39-2.37L4.23,327l-2.44,2.43Z"/><path class="cls-1" d="M291.93,325.23l-3.14-1.55-.12.11,3.16,1.53Z"/><path class="cls-1" d="M252.26,302.07l1.61-2.44-.09-.11L252.16,302Z"/><path class="cls-1" d="M45.18,382.51H44.06v-.24l1.19-.08Z"/><path class="cls-1" d="M272.12,380.12l3.79-.17,0,0-3.93.17Z"/><path class="cls-1" d="M254.71,298.79l2.36-1.59-.05-.11-2.43,1.62Z"/><path class="cls-1" d="M5,267.09l-2.62,1.36,0,.09,2.76-1.33Z"/><path class="cls-1" d="M36.9,343.5l1,.15h-1Z"/><path class="cls-1" d="M247.52,379.26h-1.34a4.72,4.72,0,0,1,.72-.25C247,379,247.13,379.1,247.52,379.26Z"/><path class="cls-1" d="M.74,290.54V292H.5v-1.47Z"/><path class="cls-1" d="M7.57,325.47l3.19-.79-.06-.12-3.25.8Z"/><path class="cls-1" d="M10.76,324.68l3.28-.83-.12-.1-3.22.81Z"/><path class="cls-1" d="M286.21,323l2.46.78.12-.11-2.47-.78Z"/><path class="cls-1" d="M166.45,309.35l2.34.92.09-.09-2.33-.94Z"/><path class="cls-1" d="M19.42,381.42,19.11,380l.21,0v1.33Z"/><path class="cls-1" d="M283.81,322.16l2.4.85.11-.11-2.41-.84Z"/><path class="cls-1" d="M283.91,322.06h-1.58l.09-.44,1.39.54Z"/><path class="cls-1" d="M191.58,360.24,194,361l.11-.1-2.44-.8Z"/><path class="cls-1" d="M295.22,295.79v-1.52l.36.07-.46,1.34Z"/><path class="cls-1" d="M187.57,358.62l2.39.77.11-.1-2.43-.79Z"/><path class="cls-1" d="M185.1,357.84l2.47.78.07-.12-2.44-.81Z"/><path class="cls-1" d="M48.68,381.64h-.92v-.17h.91Z"/><path class="cls-1" d="M181.11,356.19l2.38.79.12-.11-2.43-.81Z"/><path class="cls-1" d="M233.62,375.83Z"/><path class="cls-1" d="M178.67,355.38l2.44.81.07-.13-2.44-.8Z"/><path class="cls-1" d="M186,316.61l2.63.59.12-.12-2.65-.58Z"/><path class="cls-1" d="M176.22,354.56l2.45.82.07-.12-2.42-.8Z"/><path class="cls-1" d="M220.78,331l-2.57-.65-.11.11,2.59.65Z"/><path class="cls-1" d="M236.59,376.57Z"/><path class="cls-1" d="M257.07,297.2l2.54-.8-.14-.12-2.45.81Z"/><path class="cls-1" d="M70.26,374.59l-2,1,.11.05,2-1Z"/><path class="cls-1" d="M56.67,379.09h.63a2.3,2.3,0,0,1-.43.18C56.81,379.28,56.73,379.16,56.67,379.09Z"/><path class="cls-1" d="M239.17,377.46H240v.15h-.87Z"/><path class="cls-1" d="M221.83,372.06l1.12.65-.23.21-.79-.86Z"/><path class="cls-1" d="M168.79,310.27l2.94.36.13-.09-3-.36Z"/><path class="cls-1" d="M51.8,380.7c-.06.07-.1.18-.17.2a1.61,1.61,0,0,1-.38,0c.06-.11.1-.27.19-.31S51.68,380.66,51.8,380.7Z"/><path class="cls-1" d="M242.93,378.2Z"/><path class="cls-1" d="M175.21,312.76l2.76.52.08-.1-2.75-.51Z"/><path class="cls-1" d="M41.62,342.74l.59.1Z"/><path class="cls-1" d="M45.53,341.93h.61a1.81,1.81,0,0,1-.42.16S45.59,342,45.53,341.93Z"/><path class="cls-1" d="M291.35,341l.1-2.22-.06-.09-.12,2.27Z"/><path class="cls-1" d="M279.89,269.13c.15-.66.29-1.32.44-2l-.1-.08c-.14.66-.29,1.31-.43,2Z"/><path class="cls-1" d="M1.49,271.3c-.06,0-.18-.06-.19-.1a1.57,1.57,0,0,1,.06-.28c.08,0,.22.06.22.09A1.2,1.2,0,0,1,1.49,271.3Z"/><path class="cls-1" d="M293.54,273.1c0-.3.09-.6,0-.31.17-.25,0,0-.15.21Z"/><path class="cls-1" d="M54.74,380a.89.89,0,0,1-.33.1c-.1,0-.18-.13-.27-.19Z"/><path class="cls-1" d="M2,274.25,1.36,274a.79.79,0,0,1,.32.07,1.22,1.22,0,0,1,.24.3Z"/><path class="cls-1" d="M222.43,331.84l-1.65-.89-.09.11,1.64.89Z"/><path class="cls-1" d="M1.08,331.2c.28-.56.56-1.13.83-1.7l-.12-.08L1,331.06Z"/><path class="cls-1" d="M183.49,357l1.61.86.1-.15-1.59-.82Z"/><path class="cls-1" d="M190,359.39l1.62.85.09-.13-1.6-.82Z"/><path class="cls-1" d="M292,283l-1.94-.2-.06.1,2,.2Z"/><path class="cls-1" d="M4.31,327.13l1.62-.82-.08-.13L4.23,327Z"/><path class="cls-1" d="M5.93,326.31l1.64-.84-.12-.11-1.6.82Z"/><path class="cls-1" d="M194,361l1.59.82.12-.11-1.6-.81Z"/><path class="cls-1" d="M195.59,361.83l1.65.85.08-.14-1.61-.82Z"/><path class="cls-1" d="M275.91,380l0-.85v.81Z"/><path class="cls-1" d="M294.34,286.43l-.72-1.44-.11.07.74,1.46Z"/><path class="cls-1" d="M201.26,364.24l1.62.82L203,365l-1.61-.81Z"/><path class="cls-1" d="M2.41,286.58l-.47,1.69.11.1.46-1.72Z"/><path class="cls-1" d="M202.88,365.06l1.65.81.07-.1L203,365Z"/><path class="cls-1" d="M201.38,323,200,322l-.1.11,1.42,1Z"/><path class="cls-1" d="M295,288.26c-.21-.61-.41-1.22-.61-1.83l-.09.09c.19.62.38,1.23.58,1.85Z"/><path class="cls-1" d="M200,322h-1.06l0-.32.93.43Z"/><path class="cls-1" d="M195.7,320.61l.26,0c.36.28.09.07-.17-.14Z"/><path class="cls-1" d="M294.83,288.37l.27.14c.15.26,0,0-.15-.25Z"/><path class="cls-1" d="M80.53,370.87l1.39-1-.1-.11-1.4,1Z"/><path class="cls-1" d="M214.79,370l.42,0-.31-.12Z"/><path class="cls-1" d="M195.79,320.5l-1.75-.74-.09.1,1.75.75Z"/><path class="cls-1" d="M80.42,370.83l-.39.07.5,0Z"/><path class="cls-1" d="M186.05,316.5l-1.64-.85-.1.11,1.64.85Z"/><path class="cls-1" d="M218.19,371.12c0-.06.06-.17.09-.17a1.4,1.4,0,0,1,.28.06c0,.07-.06.18-.09.18A1.28,1.28,0,0,1,218.19,371.12Z"/><path class="cls-1" d="M221.93,372.06l-.59-.07.49.07Z"/><path class="cls-1" d="M74.9,373.32l.31-.52-.42.48Z"/><path class="cls-1" d="M74.79,373.28l-.13,0h.24Z"/><path class="cls-1" d="M225.62,373.43c0,.07-.06.19-.1.19a.8.8,0,0,1-.3-.06c0-.07.06-.21.09-.21A1.09,1.09,0,0,1,225.62,373.43Z"/><path class="cls-1" d="M70.36,374.67l.54-.21-.64.13Z"/><polygon class="cls-1" points="59.94 378.23 60.23 378.36 59.92 378.43 59.94 378.23"/><polygon class="cls-1" points="230.42 375.2 230.41 375.02 230.7 375.1 230.42 375.2"/><path class="cls-1" d="M68.27,375.63l-.66.16.77-.11Z"/><path class="cls-1" d="M64.9,376.77a1,1,0,0,1-.28.08s-.06-.13-.09-.2a1.4,1.4,0,0,1,.28-.06S64.87,376.71,64.9,376.77Z"/><path class="cls-1" d="M62.59,377.59a1.4,1.4,0,0,1-.34.08s-.07-.15-.1-.23a1,1,0,0,1,.34-.07S62.56,377.51,62.59,377.59Z"/><path class="cls-1" d="M286.84,302.77l-.74.74.08.14.8-.82Z"/><path class="cls-1" d="M286.1,303.51l-.84.88.11.07.81-.81Z"/><path class="cls-1" d="M287.64,302l-.8.82.14.06.8-.81Z"/><path class="cls-1" d="M10.93,305.83l-.3-.07.18,0Z"/><path class="cls-1" d="M288.57,301.07l-.93.88.14.07.86-.82Z"/><path class="cls-1" d="M253.87,299.63l.84-.84-.12-.08-.81.81Z"/><path class="cls-1" d="M1.94,288.27l-.31.2.42-.1Z"/><path class="cls-1" d="M3.28,285.84l-.87.74.1.07.85-.76Z"/><path class="cls-1" d="M4.27,285.18l-1,.66.08.05.95-.61Z"/><path class="cls-1" d="M292.83,284.09l.68,1,.11-.07L293,284Z"/><path class="cls-1" d="M4.31,285.28l.75-.91L5,284.28l-.7.9Z"/><path class="cls-1" d="M292,283.12l.85,1,.14,0-1-1Z"/><path class="cls-1" d="M292.43,326.44l-.5-1.21-.1.09.51,1.23Z"/><path class="cls-1" d="M5.06,284.37l.9-1-.09-.11-.9,1Z"/><path class="cls-1" d="M289.33,281.74l.67,1.18.06-.1-.63-1.19Z"/><path class="cls-1" d="M291.16,277.3l.06-.11Z"/><path class="cls-1" d="M2.7,275.34,2,274.25l-.08.1.69,1.09Z"/><polygon class="cls-1" points="2.37 268.45 2.44 268.78 2.34 268.54 2.37 268.45"/><path class="cls-1" d="M293.26,268.34l.39,0-.31-.14Z"/><path class="cls-1" d="M3.63,341.33l-1.06-.58-.12.1,1.28.59Z"/><path class="cls-1" d="M290.49,341.77l.86-.76-.08,0-.88.74Z"/><path class="cls-1" d="M3.73,341.44l-.24.1.14-.21Z"/><path class="cls-1" d="M289.33,342.43l1.16-.66-.1-.06-1.16.62Z"/><path class="cls-1" d="M293.34,268.22l-.88-.73,0,.11.85.74Z"/><path class="cls-1" d="M292.46,267.49l-.68-.92,0,.09.68.94Z"/><path class="cls-1" d="M281.27,266.34l-1,.72.1.08,1.05-.69Z"/><path class="cls-1" d="M5.74,344.82l-.13.08Z"/><path class="cls-1" d="M6.67,345.75l-.93-.93-.13.08,1,1Z"/><polygon class="cls-1" points="291.78 266.57 291.67 266.42 291.73 266.66 291.78 266.57"/><path class="cls-1" d="M19.32,381.32l.28.11h-.18Z"/><path class="cls-1" d="M61.71,185.49l-.27-3.87.63-.12,1.48,3.92,1-1.31,2.66,5.94v-4.67l.8-.24c.55,1.72,1.11,3.43,1.66,5.14l.52-.06v-3.56l4.08,3.72c-1.6,2.42-3.38,3.13-6.7,2.4-4.34-.95-7-4-8-9.3l2.19,1.9c.17.69.34,1.38.52,2.07l.13.05-.23-.14Z"/><path class="cls-1" d="M86.32,216.59v-3.82l.86-.32,2.53,4.73.38-.13c-.09-.86-.17-1.71-.34-3.44L92.89,217l2.17-.8-1.52-2.42.31-.46,3.74,2.09c-2.08,5.76-11.13,6.32-16.25.48l2.21.3-.91-3.9.61-.32,3.18,4.65.21-.08Z"/><path class="cls-1" d="M126.9,131.57c5.06-3.69,6.2-4.12,9.89-3.69-.81.71-1.64,1.34-2.37,2.08s-1.17,1.41-1.85,2.25l-1.5-1.82-2.07,4,1.26.43-.08-.09a13.6,13.6,0,0,1-3.54.43c-2.56-.34-5.09-1-8.31-1.63l2.18,3.7-.44.44-4.3-3.64L127,131.45l.75,1.06.25-.28Z"/><path class="cls-1" d="M72,161.79c.57,2.55,1.13,5.09,1.86,8.34l1-3.9c1.21,2.35,2.11,4.11,3,5.86-6.08,1.63-9.66-1.71-9.46-9.37C70.36,165,70.46,162,72,161.79Zm-.24,4.71h-.2l.07,1h.13Z"/><path class="cls-1" d="M68.91,199.43l2.59,2.15.23.76-.32-.67v-3.48l.69-.13c.33,1.07.6,2.17,1,3.22.68,1.81.82,4,3.21,4.68l-.12-.1c2.45,2,5.13,1.9,7.92.91l-.1.08c.77,1,.77,1,.06,1.42-5.84,3.3-13.56-.26-15-7a9.52,9.52,0,0,1,0-2Z"/><path class="cls-1" d="M83.55,186.28l.79-1.77,2.65,5,.82-.27-.2-2.49,4.06,1.8c-3.78,4.44-8,3.7-13.31-3l2.21.61.44-3.41,2.6,3.48.58,1.8.1.14-.16-.09Z"/><path class="cls-1" d="M95.5,197.84h4.1l-.09-.09c-2.17,3.14-5.82,3.82-9.23,1.48a66.9,66.9,0,0,1-5.55-4.78h2.82l.2.49c0-.09.06-.21,0-.24a1.57,1.57,0,0,0-.31-.18l.4-2.49,2.53,4.5.74-2.85,3.64,4.14-.13-.08.95,0Z"/><path class="cls-1" d="M74.19,176.13l.89-1.4c2,.56,3.79,1.43,4.49,4.56.26-1.62.36-2.23.46-2.88.28,0,.7-.08.74,0,.83,1.78,1.48,3.81,4.54,1.81A4.91,4.91,0,0,1,80,181.47c-3.77-.2-5.57-1.84-7.91-7.51l2.25,2.25.15,0Z"/><path class="cls-1" d="M112.5,219l4.74,22.58C113.73,239.59,111,227.28,112.5,219Z"/><path class="cls-1" d="M68.82,149.16c3.6.75-.45,2.93,1.42,4.06l.8-1.35,1.73,5.31a7.26,7.26,0,0,1-6.68-4.54c-.92-2.47-.31-3.88,3.19-6.6l-.36,3.22-.28.61Z"/><path class="cls-1" d="M74.7,131.17l1.63-1.38v4.79c-4.79-1.7-5.73-3.71-4.81-10.63l2.38-.43a14.5,14.5,0,0,1,1.42,3.66A16.33,16.33,0,0,1,74.7,131.17Z"/><path class="cls-1" d="M115.6,213.29l2,5.05c-4.83-2.75-6.52-8.71-3.71-14.21.23,2.29.37,3.74.53,5.35l1.74-2.08c.57,2,1,3.74,1.61,5.77l-2.28.21-.2-.8Z"/><path class="cls-1" d="M128.57,258.23l2,4.49-.47.4-3.18-2.5.11.12c-1.75-4.05-4.14-7.92-4.06-12.51l.93-.37,4.75,10.49Z"/><path class="cls-1" d="M62.27,164.68c-1.61,4.66,3.39,6.86,3.86,11l-2.87.46C60.35,172.49,60.17,168.73,62.27,164.68Z"/><path class="cls-1" d="M130.56,170.28c.22.18.39.24.42.35.14.51.25,1,.37,1.57l2.36-2.24c.85,3.06,1.58,5.65,2.3,8.25l-.61.54a23.14,23.14,0,0,1-2.24-1.7,24.26,24.26,0,0,0-2.38-2.56C128.77,173.07,129.12,171.79,130.56,170.28Z"/><path class="cls-1" d="M113.14,189.13c.24,3.94.47,7.55.69,11.23A7.45,7.45,0,0,1,113.14,189.13Z"/><path class="cls-1" d="M104.25,260.75l2.37.88,1.48-3.42c2.07,1.88,1.25,4-.2,4.39-2.67.78-3.55,3-5.22,4.61a1.8,1.8,0,0,1-1.5.54C102.17,265.51,103.15,263.26,104.25,260.75Z"/><path class="cls-1" d="M135.11,237.29v-2.65l.64-.19,2.21,4.16c-2.21.6-4,1.12-5.33-.87-1.17-1.74-3.13-3.24-2-6.1,1.67,2,3.12,3.79,4.57,5.56l0,.27Z"/><path class="cls-1" d="M126.36,208.68a28.21,28.21,0,0,1,4.44,11.19C129.32,216.14,124.64,213.67,126.36,208.68Z"/><path class="cls-1" d="M97.18,244.28c-4.29.76-6.83-1.81-7.15-7.63Z"/><path class="cls-1" d="M74,145.05c-1.77-1.44-3.15-3.19-2.39-5.46.35-1,1.94-1.66,3.18-2.24C74,140,76,142.65,74,145.05Z"/><path class="cls-1" d="M118.92,236.07l5,9.06C120.08,243.88,118,240.34,118.92,236.07Z"/><path class="cls-1" d="M118.82,227.47l.81,2.62c-4.06-1.49-5.35-4.94-3.6-8.93,1,2.1,1.92,4.27,2.9,6.43Z"/><path class="cls-1" d="M87.41,230l.61,1.48c-5.09-1.07-6.86-3-6.7-6.64l6.21,5.26Z"/><path class="cls-1" d="M122.22,227.73c-1.32,2.38-2.3.3-3.4-.26l.11.12v-3.35l2.88-.52c.66,1.38,2.09,2.54.33,4.1l-.75-1.08-.45-.43.54.32Z"/><path class="cls-1" d="M127.79,240.56l-2,2.48a4.91,4.91,0,0,1-3.35-4.86l4.65,1.63-.13-.09.93.92Z"/><path class="cls-1" d="M78.88,143.42v7.18C75.81,148.5,75.87,146.15,78.88,143.42Z"/><path class="cls-1" d="M104.48,208.3l.6,1.41c-4.12-.25-5.57-2-5.31-6l4.84,4.71Z"/><path class="cls-1" d="M127.61,198.44c-2.29-2.24-1.44-4.9-1-7.5l1-.15,1,7.36Z"/><path class="cls-1" d="M133.67,159.41c0,3.05,0,5.27,0,7.48a4,4,0,0,1-.38,1.12C131.06,165.62,131.05,163.68,133.67,159.41Z"/><path class="cls-1" d="M77.47,157.12l2.48,7.6C76.88,163,76.5,162.05,77.47,157.12Z"/><path class="cls-1" d="M82,169.49c1.49,2.13,2.7,3.83,3.84,5.47C82.24,174.48,81.65,173.7,82,169.49Z"/><path class="cls-1" d="M137.67,188.56c-3.13-2.27-3.26-2.88-1.49-7.58C136.74,183.86,137.14,185.85,137.67,188.56Z"/><path class="cls-1" d="M119.15,176.62c-.19,2.08-.37,4.17-.57,6.46C116.51,180.89,116.55,180.06,119.15,176.62Z"/><path class="cls-1" d="M120.32,248.11c1.07,2.43,2.13,4.87,3.2,7.3-2.62-1.67-3.52-4.19-4-6.94Z"/><path class="cls-1" d="M100.44,239.78c-.57.53-1.24,1.59-1.67,1.5-2-.41-2.87-1.85-2.52-4.21l4.31,2.8Z"/><path class="cls-1" d="M139,199.2l-.62,1.85c-2.3-2-2.07-4.24-.94-6.76q.82,2.52,1.67,5.05Z"/><path class="cls-1" d="M128.68,258.35l-.63-3.76.84-.39,3.47,6-.47.64-3.32-2.65Z"/><path class="cls-1" d="M80.71,135.8c-1.37-4.08-1.24-4.47,2.47-6.55-.63,1.4-1.15,2.4-1.54,3.45S81,134.72,80.71,135.8Z"/><path class="cls-1" d="M97.54,183.05c-3.13,1.14-4.2.58-5.53-3Z"/><path class="cls-1" d="M89.84,229.25c-.3,1.93-1.5.9-2.43.74l.12.1c-.87-1.26-2.27-2.36-1-4.5L90,229.36Z"/><path class="cls-1" d="M131.71,198.64c-3-2-3-2.34-.36-5Z"/><path class="cls-1" d="M133.44,255.28l2.7,5.85c-3-1.3-4.09-2.89-3.58-5.42Z"/><path class="cls-1" d="M76.31,206c-1.09-1.68-2.47-3.31-1.07-5.48.67,1.73,3.19,3.13,1,5.38Z"/><path class="cls-1" d="M121.91,179.79v4.05C119.28,182.38,119.28,182.38,121.91,179.79Z"/><path class="cls-1" d="M104.61,208.41c-.47-1.19-1-2.38-1.43-3.57l.85-.46c1,1.18,1.94,2.35,3.08,3.75l-2.63.17Z"/><path class="cls-1" d="M90,229.36l-.87-3.14.93-.57,3.14,4.07-3.32-.47Z"/><path class="cls-1" d="M106,224.39l-1.47.84-2.13-3.86.85-.52,2,2.82-.1-.11.94.94Z"/><path class="cls-1" d="M100.56,239.87c-.58-.77-1.17-1.53-1.75-2.29l.64-.69,3.89,2.3-2.9.59Z"/><path class="cls-1" d="M136.16,168.27c-2.55-1.23-2.33-2.67-1.39-4.14l1-.09Z"/><path class="cls-1" d="M81.35,206.22c-2.68-.2-2.82-1.88-3-3.51l.81-.47Z"/><path class="cls-1" d="M135.46,199c-3-1.06-3.08-2.33-1.43-4.21Z"/><path class="cls-1" d="M138.22,174.94l.21,2.51c-2.59-1.24-3-2.59-1.6-4.73l1.48,2.35Z"/><path class="cls-1" d="M128,226.81l-2.08-3.54,1.08-.63,2,3.56Z"/><path class="cls-1" d="M119.41,201.91c-2.75-1-2.38-2.32-1.06-4C118.66,199.1,119,200.24,119.41,201.91Z"/><path class="cls-1" d="M77.84,238.18,77,239l-3.25-2,.68-1.1Z"/><path class="cls-1" d="M128.55,218.24l1.59,4.24C127.69,221.11,127.69,221.11,128.55,218.24Z"/><path class="cls-1" d="M128.61,185.63c-2.42-1.2-1.8-2.74-.09-4.39v4.48Z"/><path class="cls-1" d="M133.64,214c-.43-1.07-.85-2.15-1.27-3.22l1.09-.5,1.59,3.08Z"/><path class="cls-1" d="M127.1,239.81c-.49-1.3-1-2.61-1.75-4.68,3.37,3.13,3.47,3.41,2.44,5.43l.11.08-.93-.92Z"/><path class="cls-1" d="M135.08,264.19l3.61,1.64C136.69,267.43,136.69,267.43,135.08,264.19Z"/><path class="cls-1" d="M138.31,175.07c1.47-2.72,2.17-1.2,2.56,1.11l-2.65-1.24Z"/><path class="cls-1" d="M93,225.66l2.41,2.3-.64.77-2.69-2.08Z"/><path class="cls-1" d="M130.4,210.86c.53,1.09,1.07,2.17,1.85,3.75C129.85,213.46,129.85,213.46,130.4,210.86Z"/><path class="cls-1" d="M119,208l1.15,2.78-1,.45-1.22-2.75Z"/><path class="cls-1" d="M131.15,189.71l.28-3.93,1,.08c-.23,1.3-.47,2.6-.7,3.9Z"/><path class="cls-1" d="M138.41,157.43l-1.1-3.15L138,154c.74,1,1.49,2,2.54,3.38h-2.22Z"/><path class="cls-1" d="M59.08,204.18l-1.52,1.64.09.07-1.19-3.37,2.74,1.78Z"/><path class="cls-1" d="M137.67,257.1l2,2.87-.75.61-2.29-2.66Z"/><path class="cls-1" d="M139.13,199.34l.24-1.91.72-.26c.54,1.08,1.08,2.15,1.61,3.23l-.59.41L139,199.2Z"/><path class="cls-1" d="M115.72,268.94c1-2.16,1.92-1.79,3.28-.16Z"/><path class="cls-1" d="M104.82,238.17l-2.29-1.47L103,236l2.4,1.18Z"/><path class="cls-1" d="M139.65,186.17l.95,2.41-1,.49-1.34-2.34Z"/><path class="cls-1" d="M138.91,192.65l-.33-2.67,1-.13c.11,1,.21,1.94.32,2.91Z"/><path class="cls-1" d="M84.11,206.77l-2.34-2.34c2.24.35,2.24.35,2.24,2.42Z"/><path class="cls-1" d="M109.46,245.64l1.45-4.13-.11-.1-1.44,4.14Z"/><path class="cls-1" d="M102.87,186.78l1.86,3.09-.36.37a4.89,4.89,0,0,1-1.18-1.07A9.1,9.1,0,0,1,102.87,186.78Z"/><path class="cls-1" d="M101.22,190.44,99,187.75l1-.57,1.19,3.35Z"/><path class="cls-1" d="M115.73,197.5l.63,3.17-1,.2c-.23-1.13-.45-2.26-.67-3.4Z"/><path class="cls-1" d="M110,260l.73-2.23.77.19-.42,2.38Z"/><path class="cls-1" d="M105.26,223.67l.75-1.55,1.39,1.54-1.41.73.11.11-.94-.94Z"/><path class="cls-1" d="M124.11,183.45l.41,2.47-1,.17c-.15-.82-.31-1.64-.46-2.46Z"/><path class="cls-1" d="M138,168.65l-.91-2.45.93-.41,1.09,2.42Z"/><path class="cls-1" d="M61.6,205l-2.52-.81.12.12.65-2.25,1.65,3Z"/><path class="cls-1" d="M74.5,117c1.52.81,1.52.81.11,2.77v-2.88Z"/><path class="cls-1" d="M88.62,248.26l2,2.42-2.92-1,.94-1.41Z"/><path class="cls-1" d="M128.62,234.73l1,2.37-.5.39c-.35-.36-.83-.67-1-1.1a4.47,4.47,0,0,1-.15-1.48Z"/><path class="cls-1" d="M96.77,227l-1.15-1.53.48-.44,1.47,1.37Z"/><path class="cls-1" d="M67.52,172.87l.76,1.58-.61.3-.78-1.57Z"/><path class="cls-1" d="M130.37,138.15l1.88-1.63.46.91-2.41.62Z"/><path class="cls-1" d="M106.55,204.66l1.58,1.28-.43.64-1.75-1.1Z"/><path class="cls-1" d="M128.5,138.67c-1.34,1.36-2.13,0-3.09-.6l-.11.1,3.31.61Z"/><path class="cls-1" d="M94.78,197.81l-1.08-2.2.83-.35,1,2.58.1-.09-.95,0Z"/><path class="cls-1" d="M127,173.87l.35,1.5-.56.19-.63-1.42Z"/><path class="cls-1" d="M113.14,133c-1,1.51-2,1.38-3,0l-.1.12h3.26Z"/><path class="cls-1" d="M130.26,134.78l.84-1.9.87,1.05-1.79.76Z"/><path class="cls-1" d="M106.08,187.58l.79.92a2.5,2.5,0,0,1-.24.22c-.33-.24-.63-.5-.94-.76Z"/><path class="cls-1" d="M81.38,232.7l1.05.67a7,7,0,0,1-.82-.11C81.55,233.25,81.52,233.07,81.38,232.7Z"/><path class="cls-1" d="M118.84,244.45c-.59.28-.93.59-1.18.53s-.47-.49-.56-.79c0-.13.31-.55.4-.53A7.32,7.32,0,0,1,118.84,244.45Z"/><path class="cls-1" d="M88.69,248.31l2.68-.34,0,.83-2.72-.54Z"/><path class="cls-1" d="M137.37,211.44c.21-.07.52-.27.63-.19s.22.44.32.67c-.22.07-.53.28-.64.2S137.46,211.68,137.37,211.44Z"/><path class="cls-1" d="M72.16,216.36l-1.29-1,.49-.38.7,1.46Z"/><path class="cls-1" d="M128.61,138.78l1.76-.63-.07-.1-1.8.62Z"/><path class="cls-1" d="M59.14,191.55a2.53,2.53,0,0,1-.61.06.44.44,0,0,1-.11-.34,2.61,2.61,0,0,1,.47-.4C59,191.1,59.06,191.32,59.14,191.55Z"/><path class="cls-1" d="M130.58,184.48a2,2,0,0,1-.08-.41s.14,0,.21-.08Z"/><path class="cls-1" d="M101.83,191.52h.65l-.53-.12Z"/><path class="cls-1" d="M113.13,132.56l1,0-1,.45.12.12a.75.75,0,0,0,0-.71Z"/><path class="cls-1" d="M110.91,241.51c.09-.29.17-.58,0-.13.51-.12.18,0-.15,0Z"/><polygon class="cls-1" points="122.56 136.56 122.67 136.82 122.41 136.8 122.56 136.56"/><path class="cls-1" d="M125.41,138.07l-.19-.28.08.38Z"/><polygon class="cls-1" points="69.01 199.32 68.75 199.27 68.91 199.43 69.01 199.32"/><polygon class="cls-1" points="65.27 288.48 65.36 288.75 65.11 288.73 65.27 288.48"/><path class="cls-1" d="M113.23,132.44l-.67-1-.08.08.65,1Z"/><path class="cls-1" d="M111.48,130.92l1,.64.08-.08-1-.66Z"/><path class="cls-1" d="M111.59,130.82l-.33-.52.22.62Z"/><path class="cls-1" d="M99.6,197.83l.28-.37c0,.07,0,.19-.06.22a1,1,0,0,1-.31.06Z"/><path class="cls-1" d="M79.48,253.41l-.5-.21c.09,0,.22-.07.26,0a1.19,1.19,0,0,1,.16.34Z"/><path class="cls-1" d="M81.16,251.74l-.54-.08c.07,0,.17-.09.21-.06a1.14,1.14,0,0,1,.24.25Z"/><polygon class="cls-1" points="49.52 247.15 49.56 247 49.43 247.05 49.52 247.15"/><path class="cls-1" d="M128.36,232.91l.66-.17-.7.07Z"/><polygon class="cls-1" points="128.32 232.81 128.44 232.65 128.36 232.91 128.32 232.81"/><path class="cls-1" d="M128.52,185.72l.09-.09Z"/><path class="cls-1" d="M61.5,205.09l.35.09L61.6,205Z"/><path class="cls-1" d="M102,191.4l-.73-1-.1.09.71,1Z"/><path class="cls-1" d="M179.74,13h4.62V25.4h12.71V12.92h4.18c0,4.51,0,9,0,13.49s.22,9,.34,13.59h-4.55V26.91H184.62V40.07H180C180.54,31,180.81,22,179.74,13Z"/><path class="cls-1" d="M95.47,40.94c-7.75,0-13-5.83-13-14.22,0-8,5.57-13.87,13-13.88,7.63,0,13.1,6,13,14.27C108.44,35.18,103,41,95.47,40.94ZM105,27c-1-3.13-1.54-6.56-3.16-9.34-3-5.1-9.73-4.93-13,0s-3.09,14.05.25,18.79,10.06,4.83,13-.39C103.52,33.43,104,30.28,105,27Z"/><path class="cls-1" d="M63.33,40V34.37c.92,1.19,1.57,2.12,2.31,3a6.71,6.71,0,0,0,6.11,2.39c4-.44,5.81-4.13,3.5-7.34A17.64,17.64,0,0,0,71,28.77c-1.74-1.24-3.75-2.13-5.41-3.46C62.68,23,62,20.22,63.29,17.1s3.83-4.54,7.46-4.23c2.2.19,4.38.64,6.79,1v5.25c-.76-1-1.33-1.94-2-2.73C74,14.65,72,13.66,69.78,14.25c-1.39.37-3.16,1.36-3.65,2.53A5.11,5.11,0,0,0,67,21.07c1.11,1.4,3,2.22,4.51,3.27a51.36,51.36,0,0,1,5.66,3.81,6.83,6.83,0,0,1,2.08,8,7.1,7.1,0,0,1-6.83,4.75A27.19,27.19,0,0,1,68,40.55C66.6,40.4,65.17,40.2,63.33,40Z"/><path class="cls-1" d="M16.93,40.16C22.1,40.09,27,41.63,31.61,37.3l-1.16,3.84H12.33c1.09-8.89.15-18,0-27.27h17l.5,2.91c-4.32-3.16-8.67-2.07-13.18-1.76V25.79c3.75.75,7.31,1,10.89-1.17v4.06c-3.27-2.27-6.78-1.25-10.53-1.21Z"/><path class="cls-1" d="M220.13,12.1,232.42,40H226c1.71-3.18-.33-5.69-1.59-8.29-.29-.6-1.57-.95-2.42-1-2.66-.12-5.34,0-8.05,0-1.27,3.21-3.87,5.63-2.28,9.32h-3.56Zm-6,17.42h9.51c-1.6-3.74-3-7-4.4-10.25l-.89.19Z"/><path class="cls-1" d="M117.3,25.8l10.29-.73V27l-10.07-.49V40.6h-4.9c1.44-8.89.46-17.88.37-27.26h18.4l.31,3.05c-4.56-3.73-9.46-1.68-14.4-2.16Z"/><path class="cls-1" d="M140.49,14.18V25.72L151,25l.2,2.32c-1.87-.29-3.5-.64-5.16-.77s-3.39,0-5.15,0V40.62H136c1.25-9.09.72-18.26-.11-27.58h18.58l.76,3.22C150.36,12.63,145.47,14.48,140.49,14.18Z"/><path class="cls-1" d="M35.56,13.8h5c-.21,2.62-.55,5.14-.56,7.66,0,4,.1,8.07.33,12.09s2.8,6.35,6.73,6.73,8.2-1.79,8.78-5c1.27-7,.94-14.14.06-21.43a5,5,0,0,1,1.1-.21,11.35,11.35,0,0,1,1.6.15c-.06.34-.1.56-.14.77a27.92,27.92,0,0,0-.77,4.3c-.13,4.7,0,9.42-.18,14.12-.17,4.52-2.44,7.4-6.86,8.22A19.48,19.48,0,0,1,43.1,41c-4.24-.94-6.34-3.74-6.52-8.07s-.09-8.88-.26-13.31C36.25,17.69,35.83,15.78,35.56,13.8Z"/><path class="cls-1" d="M281.58,35.77c-.46,1.11-.93,2.22-1.49,3.55H263c0-4.62.12-9.13,0-13.63s.74-9-.82-13.56h5.16V37.87c4.4.27,8.6,1.29,12.5-1.49a5.81,5.81,0,0,1,1.77-.54Z"/><path class="cls-1" d="M257.74,35.32l-.61,4.23H238.6c1.74-3.51,1.9-22.79,0-27.33h6a25.1,25.1,0,0,0-.85,4.43c-.11,6-.11,12.09,0,18.13,0,3.3.44,3.59,3.79,3.75,3.83.18,7.53-.07,10.4-3.11Z"/><path class="cls-1" d="M257.84,35.42l.34-.7-.44.6Z"/><path class="cls-1" d="M281.53,35.84v-.39a2.7,2.7,0,0,0,.05.32Z"/><path class="cls-1" d="M217.47,70.16a14.68,14.68,0,0,1,12.44-3.1c7.92,1.4,15.9,2.48,23.86,3.69a9.48,9.48,0,0,1,1.57.31c3.76,1.21,7.52,2.45,12,3.91.17,1.75.42,4.24.7,7.08,1.75-1.56,3.53-3.45,6-1.85a50,50,0,0,1,5.46,4,3.29,3.29,0,0,1,.64,2.26c0,3.77-3.47,4.49-5.72,6.07-1.67,1.18-3.62.27-4.79-1.61-.12-.18-.45-.22-1.18-.56.55,7.28,1.07,14.3,1.62,21.53,3.77-4.17,4.73-4.16,9.23-1.05,2,1.39,4.27,2.38,4.06,5.36a7.54,7.54,0,0,1-.21,2c-1.52,4.4-7.76,6.47-12.35,3.55.46,7.22.88,14,1.34,21.34,1.19-1.42,1.85-2.62,2.86-3.28s2.53-1.13,3.25-.7a31.38,31.38,0,0,1,6.61,5,4.39,4.39,0,0,1,.73,4.05,32.26,32.26,0,0,1-4.84,5.65c-1.72,1.82-3.4,1.89-7.44.36.27,3.73.54,7.27.83,11.24-1.61.13-3,.38-4.42.35-13.58-.3-27.16-.7-40.74-.93-2.79,0-5.59.65-8.38.67a58.48,58.48,0,0,1-6.69-.74,39.47,39.47,0,0,0-5.51-.51c-12.36.43-24.72.95-37.08,1.46-2.55.11-5.1.42-7.65.43-3.11,0-3.5-.54-3.24-3.54s.44-5.84.72-9.72l-6.92,3.37-4.27-8.7,5.13-8.84,7.24,3.64c.8-7.34,1.51-13.95,2.25-20.74-3-1.34-4.77.88-7.27,2.65l-2.2-5.88-3.71-3.17c1.73-1.64,3.65-2.73,4.38-4.35.83-1.83,1.12-3.81,3.27-5,1.75,1.76,3,4.34,6.8,3.64l1.63-17.88-.93-.64-6.29,3c-1.27-2.62-2.63-5.29-3.83-8-.2-.45.12-1.64.46-1.76,2.71-.93,3.28-3.69,5-5.49.14-.16.5-.12.54-.13l4.57,3.64c3.11-2.56.94-6.23,3.31-8.89.77-.06,1.94-.13,3.1-.24s2.71.16,3.55-.46c3.47-2.56,7.48-1.6,11.26-2.18,5.16-.8,10.2-2.28,15.34-3.18a27.91,27.91,0,0,1,7.95-.31c1.52.17,2.91,1.48,4.36,2.28l.1-.11c-4-.9-8-2-12.17-.76-6.91,2.11-13.92,3.75-21.24,3.39-.21,0-.44.25-.95.55-.19.93-.45,2.09-.63,3.25q-1.11,7.27-2.18,14.54.3-7.76.61-15.52h-.23l-2.07,10V75.4c-.55,1.75-1.17,3.75-1.8,5.75l.07.09V76.91c-.75.35-1.15.78-1.19,1.24-.41,4.68-.74,9.36-1.11,14s-2.17,9.22-1.52,14a13,13,0,0,1-.35,3.19c-.41,3.46-.88,6.91-1.21,10.38-.67,7.08-1.27,14.16-1.9,21.24l-.67,7,.6,0v-7.12c.27-.44.72-.87.78-1.33.89-8,1.71-16,2.58-23.92.35-3.18.76-6.35,1.14-9.53l.87.11q-1,10.92-2.06,21.84l-2.34,20.63a10.44,10.44,0,0,0,1.24-4.28c.39-5.48.69-11,1-16.44.34-1.21.76-2.4,1-3.62.62-3.29,1.17-6.59,1.74-9.88q-1.14,14.34-2.27,28.68c1.12-6.33,2.07-12.67,2.79-19,1-8.64,1.69-17.32,2.67-26,.31-2.73,1.13-5.41,1.71-8.11-.6,6.13-1.15,12.26-1.8,18.38-.95,8.92-2,17.83-2.95,26.76-.49,4.6-.84,9.21-1.29,14.23a47.25,47.25,0,0,0,5,0c7.56-.88,15.09-2,22.65-2.74,4.68-.47,9.3-.11,13,3.41a30.56,30.56,0,0,0-16.08-2.21q-11.55,1.5-23.08,3.13c-.44.06-.82.65-1.73,1.41,8.21.2,15.67.14,23.1-1.22,6.17-1.13,12.27-1.12,17.94,2.26.67.4,1.67.24,3.32.43L213.31,150l4.22,1.58V70.09Zm8.79,85.56-2.13.83.26.43,1.78-1.35,1.47-.14-.12-.34Zm-15.34,1.72,1.63.71.13-.46-1.86-.15L206,155.93c-1.25-.32-2.51-1-3.73-.9-4.45.3-8.87.85-13.31,1.3l-19.4.66c5.61.22,11.21.26,16.8.18a8.26,8.26,0,0,0,2.5-.89c1.88,0,3.75-.05,5.62-.1l11.61-.34Zm13.77-4.21a16.17,16.17,0,0,0,2.65.4c3.2,0,6.45-.61,9.58-.18a146.38,146.38,0,0,0,24,1.26,19.32,19.32,0,0,0,2.37-.34,6.89,6.89,0,0,0-3.61-.86c-7.5,0-14.95,0-22.41-1.36-4-.71-8.56-1.4-12.51,1.18l-2,1.11.71.82Zm35.67-77.45-.18-.11h.27c.28,5.21.49,10.44.84,15.65q.79,11.43,1.74,22.87c.74,8.94,1.53,17.87,2.31,26.81.36,4.13.76,8.27,1.15,12.4.08-7.26-.29-14.47-.87-21.65-.64-7.89-1.58-15.75-2.21-23.63-.69-8.56-1.12-17.14-1.78-25.7A61.79,61.79,0,0,0,260.36,75.78Zm-39.7,77.49h.91c2.63-.94,5.21-2.42,7.9-2.67a50.62,50.62,0,0,1,10.77.59c6.92.87,13.81.55,21.66.45-1.18-1-1.56-1.53-1.93-1.53-12.31.2-24.55-2.71-36.89-.76,1.82-.63,3.65-1.79,5.48-1.8,5.2,0,10.42.29,15.61.71,5.57.45,11.11.37,16.85.3-.6-8.42-1.15-16.26-1.71-24.1l-.07.08a23.1,23.1,0,0,1,1.17,4.06c.69,6.91,1.24,13.83,1.85,20.74l.6,0q-.57-9.72-1.15-19.43l.75-.06,1.89,21.42.7-.08q-3.15-37.9-6.29-75.8l-.55,0c-.18.91-.35,1.83-.62,3.26l-.93-2.5-.43.1,1,16.18-.68,0c-.63-6.76-1.26-13.53-1.88-20.16-6.57-1.06-12.76-2.08-19-3-2.79-.43-5.59-.83-8.4-1-6.58-.5-9.12,1.83-9.13,8.26q0,32.49,0,65v9.82l2.59-.41C220.73,151.64,220.7,152.45,220.66,153.27Zm51.93,9.11c-2.23-29.5-3.72-58.57-6.62-87.68-3,.21-2.32,1.92-2.23,3.24.94,12.44,1.87,24.88,2.86,37.32.75,9.48,1.59,19,2.37,28.45.44,5.31.83,10.63,1.29,16.63H226.4v.88Zm-100-87.84c-2-.79-2,.65-2.16,2-1.26,12-2.59,24-3.81,36.07-1.49,14.7-2.89,29.42-4.34,44.13-.18,1.81-.4,3.62-.66,5.92l39.93-1.5v-.56l-37.23-.77C167.14,131.18,169.86,103.07,172.63,74.54Zm-1.89,80,.12,1c7.47-.21,15,.54,22.38-1.25,4.75-1.14,9.52-1.48,14.27.07l5.9,2,.43-.86c-1.05-.65-2.06-1.38-3.16-1.95-4.26-2.2-8.93-2.25-13.37-1.38a112.19,112.19,0,0,1-23.18,2.13C173,154.29,171.87,154.47,170.74,154.56Zm94,2.44,0-.94c-5.44,0-10.89.23-16.31-.06s-10.58-1.08-15.86-1.65A104.4,104.4,0,0,0,264.71,157Zm-45.78-1.88c.27,2.34.45,3.77.64,5.42C222.49,158.83,222.45,158.36,218.93,155.12Zm55.24-37.05c1-.83,1.66-1.09,1.71-1.43a3.9,3.9,0,0,0-.45-1.53l-.64,0Zm-10.4-19.32H264V94.93h-.22Zm13.9,50.12c.39-.75.76-1.15.68-1.38-.14-.39-.57-.67-.87-1-.25.23-.71.48-.7.7C276.81,147.56,277.14,147.91,277.67,148.87Zm-11.55-20.24.27,0V125.9l-.27,0ZM265.66,115h-.26v3.08h.26Zm-1-6.49h.19v-3.32h-.19Zm-93.71,41.16h.2v-2.35h-.2Zm-3.79,2.42h-.22v2.57h.22ZM272.6,87.82l.75-1a3.85,3.85,0,0,0-.87-.55c-.09,0-.48.36-.45.51A4.08,4.08,0,0,0,272.6,87.82Zm-9.4-2.64h-.15v2.26h.15Zm-16.89,73.26.07.35,1.85-.11v-.24Zm20.78-20.94h.14V136h-.14Zm.71,11.38H268v-1.54h-.17Zm-29.69,8Zm24.31-80h-.22V78h.22Zm-20.23,80.71-.06.26,1.83-.09Zm-55.9.88.08.15.28-.07Zm11.12-1.58.57.09Zm4.58.1-.31-.13-.05.14Zm64.16,1.53.31.13.05-.14Z"/><path class="cls-1" d="M215.81,69.38l1.66.78.06-.07-1.62-.82Z"/><path class="cls-1" d="M31.77,127.55l-1.71-.83c-.6-3,0-5.7,2.78-8.5C32.43,121.81,32.1,124.68,31.77,127.55Z"/><path class="cls-1" d="M113.26,298.84c-.38-2.95-.38-2.95-3.4-5.61l5.34,1.86c.36-.84.82-1.88,1.54-3.52l-3.38-3.48a25,25,0,0,0,3.3,1.73,7.13,7.13,0,0,0,2.35,0Q116.13,294.33,113.26,298.84Z"/><path class="cls-1" d="M121.43,306.88l-1.71,1.67c.63-3.68-1.46-5.57-5-6.68,3.71-1.79,4.9,1.13,6.76,2.52Z"/><path class="cls-1" d="M123.86,298.71c-.57,1.39-1.14,2.79-1.72,4.18.57-3.48-1.5-5-5.11-5.89,2.24-.76,3.6-.7,4.89.61A7.64,7.64,0,0,0,123.86,298.71Z"/><path class="cls-1" d="M118.9,290c.3-.6.6-1.2.91-1.79C119.5,288.76,119.2,289.36,118.9,290Z"/><path class="cls-1" d="M112.45,300.47l.91-1.79Z"/><path class="cls-1" d="M122.24,302.73l-.92,1.78Z"/><path class="cls-1" d="M103.19,301.78c3.09-.62,4.21.83,4.34,3.42Z"/><path class="cls-1" d="M145.65,325.44l.76-3.53c3.86,2.95,2.36,8.91,7.62,11.06.6-4,1.12-7.33,1.68-11.06,4,1.28,3.72,5.89,6.65,8.36l1.65-6.52,1.18.32A38,38,0,0,1,162,335q-2.38-4.17-4.78-8.34l-.74.09-1.42,7h-5.39c-1.19-1.47-.91-4.73-3.68-3.88-1.54.47-2.64,2.36-4.39,4,.5-2.92,1.32-5.08,3.25-6.73l-.1-.08,1.74,1.5.82-.83-1.73-2.31Z"/><path class="cls-1" d="M226.31,348.16c1.75-.6,2.46.17,2.66,1.87.23,2,.6,4,.91,6,3.41-.53,3.84-6.55,8.21-4.79-1.3,3.82-2.51,7.41-3.82,11.25l-2.53-.82,2.3-6.09-.4-.28-5.42,5.23c-.56-3.09-1-5.49-1.55-8.51-.8,2.77-1.45,5-2.15,7.39l-1.44-.66c1.14-3.63,2.23-7.15,3.33-10.66Z"/><path class="cls-1" d="M165.47,336.36c1.11-3.54,2.21-7.1,3.47-11.15,3.34,1.19,7.22,1.13,8.67,5.34a5.67,5.67,0,0,1-1.73,6.21C173.45,339.11,170.54,339,165.47,336.36Zm5.42-9-2.67,8.55c4.08,1.1,5.91.38,6.83-2.39C176.08,330.46,175,328.67,170.89,327.36Z"/><path class="cls-1" d="M198,349.24,195.91,348c.49-1.55.92-2.92,1.48-4.66l-3.95-1.66-2.06,4.79-2.27-1c1.47-3.64,2.87-7.07,4.38-10.78l2.43.79c-.62,1.47-1.17,2.74-1.95,4.54l4,1.64c.84-1.62,1.51-2.88,2.26-4.32l2.08.8Z"/><path class="cls-1" d="M221.06,357.93c-4.06-.88-2.68-4.74-5-6.74l-1.53,4.33-2.71-.9,4.42-11c2.36.85,5.16.91,6.18,3.75.92,2.55-1.31,3.44-3,4.65C219.91,353.82,220.4,355.58,221.06,357.93Zm-4.24-9.1.58.73c.87-.43,2.12-.63,2.54-1.33.82-1.37-.08-2.12-1.82-2.32C217.69,346.88,217.25,347.85,216.82,348.83Z"/><path class="cls-1" d="M249.42,358.8c0,3.65-2.49,6.39-5.79,6.43a6.09,6.09,0,0,1-5.95-6.28,6.39,6.39,0,0,1,6.21-6.16C247.22,352.78,249.44,355.2,249.42,358.8Zm-1.53-.64c-1.27-1.47-2-3-3.22-3.59-1.84-.83-2.95.71-3.6,2.29-.85,2-1.51,4.21.17,6.05.55.6,2.4,1,2.75.63A46.65,46.65,0,0,0,247.89,358.16Z"/><path class="cls-1" d="M47.8,368.15l-2.64,1-3-3.59c-2.47.64-1.34,4.28-4.62,4.35l2.93-6.1-4.57-5,2.71-1.22,2.74,3.33c2.75-.07.68-4.64,4.28-3.91-.78,2-2.36,4-2,5.72C43.94,364.54,46.06,366,47.8,368.15Z"/><path class="cls-1" d="M99.64,348.86,95,338.18c3.6-1.55,6.1,2.85,10,2.91l-2.33-5.83c1.76.35,4.2,5.07,5.23,10.35L97.74,341l3.54,7.58-1.74.24Z"/><path class="cls-1" d="M258.34,362.5c.61-2.25,1.17-4.34,1.77-6.43a7.77,7.77,0,0,1,1,.12q-1,5.47-1.9,10.91l-.8.27c-1.86-2.81-3.71-5.62-5.59-8.48-1.57,2.42-.53,5.63-2.76,7.69l1.16-12.13C255.47,355.12,255.31,360.33,258.34,362.5Z"/><path class="cls-1" d="M123.46,338.12l4.87-2.09c-.29,2.33-.92,2.7-6.94,3.86l-3.82-10.75c5.07-2.64,5.29-2.68,8-1.21a21.32,21.32,0,0,0-2.89.35c-1.5.41-2.39,1.39-1.71,3s1.86,1.13,3,.41l1.37-.91.86,1.93-3.87,1.44Z"/><path class="cls-1" d="M30.3,369l4.89-.71c-1.26,2.21-3.13,2.68-8.18,1.88V359.06c2.91-1.05,4.34-1,7.35.4l-5,.28c-.28,3.24-.28,3.24,4.11,3.91C32.85,365.69,27.49,364.38,30.3,369Z"/><path class="cls-1" d="M65.72,357.64,62.08,359c.37,1.25.73,2.44,1.21,4.08l5.16-1.84c-1,2.11-1.46,2.36-7.16,3.59-1.21-3.56-2.44-7.16-3.79-11.1,1.89-.63,3.86-1.35,5.87-1.87.35-.09.92.68,1.38,1.06l.08-.09-4.29,1.26.93,3.51,4.23-1.57-.08,1.66Z"/><path class="cls-1" d="M88.18,341.49c.34,1.19.34,2.87,1.12,3.41s2.29-.25,3.88-.52l.74,1.26-4.07,1.61,1.86,3.95,5-2.85c0,2.39-1.46,3.37-7.05,4.72-1.49-3.39-3-6.78-4.69-10.69l3.31-.79Z"/><path class="cls-1" d="M265.5,356.14l3.09,5.47,3.54-5.69c1.53,2-.34,2.83-.82,3.94s-1.48,2.32-1.76,3.58a22.09,22.09,0,0,0-.08,4.65h-3c1.52-4.61-1.45-7.7-3.88-11.37Z"/><path class="cls-1" d="M209.54,340.84v12.62l-2.52-.58c0-1.35.42-2.83-.12-3.76s-2-.92-3-1.3l-3.26,3C201,348.18,205,343.7,209.54,340.84Zm-2,5.32c-.38-.32-.65-.72-.92-.73s-.56.39-.84.61c.28.29.53.68.88.82C206.79,346.92,207.15,346.47,207.52,346.16Z"/><path class="cls-1" d="M80.16,356.83c-1.18-3.36-2.35-6.73-3.65-10.45l2-1.14,4.09,9.85,4.65-2.62c-.07,2.63-2.54,4.15-7.16,4.27Z"/><path class="cls-1" d="M71.31,360.93c-1.39-3.41-2.78-6.83-4.31-10.57l2.7-.63-.1-.1c1.18,3.09,2.35,6.18,3.73,9.8l5.46-3.34c-.37,1.12-.43,2.41-.94,2.62-2.14.88-4.41,1.45-6.64,2.14Z"/><path class="cls-1" d="M111.51,331.71a17.13,17.13,0,0,0-1.25,2.45,6.17,6.17,0,0,0,1.91,6.52c1.84,1.33,3.48,1,6.31-1.35-.89,2.76-2.8,4.19-5.28,3.94a6.68,6.68,0,0,1-5.59-5c-.56-2.69.91-5.05,4-6.41Z"/><path class="cls-1" d="M55.91,365.81c-3.14,2-6.34,1.53-8.1-1.23-2-3.16-1-6.52,2.44-8.49l-.08-.09c-.37,1.64-1.17,3.31-1,4.9.29,3.48,2,4.53,6.87,5Z"/><path class="cls-1" d="M50.25,356.09l5.24-1.73.86,2.65-6.18-1Z"/><path class="cls-1" d="M88.25,341.59c1.06-1.59,2.34-2.33,4.24-.52l-4.31.42Z"/><path class="cls-1" d="M111.59,331.81c1.73-.88,3.56-2.38,5.1,1l-5.18-1.11Z"/><path class="cls-1" d="M144.84,327.09l.81-1.65-.08-.07c-.27.55-.55,1.09-.83,1.64Z"/><polygon class="cls-1" points="226.41 348.07 226.29 347.94 226.31 348.16 226.41 348.07"/><polygon class="cls-1" points="69.7 349.73 69.81 349.54 69.6 349.63 69.7 349.73"/><polygon class="cls-1" points="99.54 348.77 99.48 348.94 99.64 348.86 99.54 348.77"/><path class="cls-1" d="M64.75,353l.39.19c-.07,0-.18,0-.2,0a1.09,1.09,0,0,1-.11-.27Z"/><polygon class="cls-1" points="80.07 356.74 80.09 356.96 80.16 356.83 80.07 356.74"/><polygon class="cls-1" points="65.62 357.73 65.78 357.91 65.72 357.64 65.62 357.73"/><polygon class="cls-1" points="71.21 360.85 71.2 361.1 71.31 360.93 71.21 360.85"/><path class="cls-1" d="M56.86,365.06l.08-.35-.18.25Z"/><path class="cls-1" d="M56,365.91l.86-.85-.1-.1-.85.85Z"/><path class="cls-1" d="M260.2,102l1.95,24.94-.89.06q-1-12.44-2.06-24.88Z"/><path class="cls-1" d="M258.89,98.6q-.64-8.67-1.28-17.34l.82-.08c.31,2.87.74,5.74.89,8.61s0,5.83,0,8.74Z"/><path class="cls-1" d="M259.31,124.45q-.84-9.27-1.66-18.54l-.06.09c.34.37,1,.73,1,1.12.28,5.8.47,11.61.68,17.41Z"/><path class="cls-1" d="M257.65,105.91l-.54-8.55h1q-.24,4.32-.49,8.64Z"/><path class="cls-1" d="M223.22,149.23,220.64,151Z"/><path class="cls-1" d="M177.13,84.57c-.25,4.35-.47,8.7-.79,13a10.67,10.67,0,0,1-.88,2.5Z"/><path class="cls-1" d="M175.52,99.92c-.28,4.48-.54,9-.88,13.45,0,.44-.52.85-.8,1.28Z"/><path class="cls-1" d="M174.78,89.64q-.47,6.67-.92,13.34l-.81-.08c-.16-4.46,0-8.89,1.82-13.16Z"/><path class="cls-1" d="M175.25,81.15l-.47,8.49.09.1.45-8.5Z"/><path class="cls-1" d="M221.63,153.37h0Z"/></g></g></svg>