<svg xmlns="http://www.w3.org/2000/svg" viewBox="0 0 274.38 400"><defs><style>.cls-1{fill:#fff;}</style></defs><g id="Layer_2" data-name="Layer 2"><g id="Layer_1-2" data-name="Layer 1"><path class="cls-1" d="M200,274.38a74.4,74.4,0,1,1,52.59-21.79A73.9,73.9,0,0,1,200,274.38Zm0-125.62a51.25,51.25,0,1,0,36.23,15A50.89,50.89,0,0,0,200,148.76Z"/><path class="cls-1" d="M74.38,400a74.38,74.38,0,1,1,0-148.76h74.38v74.38A74.4,74.4,0,0,1,74.38,400Zm0-125.62a51.24,51.24,0,1,0,51.24,51.24V274.38Z"/><path class="cls-1" d="M200,148.76H125.62V0H200a74.38,74.38,0,0,1,52.59,127A73.89,73.89,0,0,1,200,148.76Zm-51.24-23.14H200a51.24,51.24,0,0,0,0-102.48H148.76Z"/><path class="cls-1" d="M148.76,148.76H74.38a74.37,74.37,0,0,1-52.59-127A73.86,73.86,0,0,1,74.38,0h74.38ZM74.38,23.14a51.24,51.24,0,0,0,0,102.48h51.24V23.14Z"/><path class="cls-1" d="M148.76,274.38H74.38a74.38,74.38,0,0,1,0-148.76h74.38ZM74.38,148.76a51.24,51.24,0,0,0,0,102.48h51.24V148.76Z"/></g></g></svg>