<svg xmlns="http://www.w3.org/2000/svg" viewBox="0 0 291.23 424.56"><defs><style>.cls-1{fill:none;stroke:#181818;stroke-width:24.56px;}</style></defs><g id="Layer_2" data-name="Layer 2"><g id="Layer_1-2" data-name="Layer 1"><path class="cls-1" d="M145.61,212.28a66.68,66.68,0,1,1,19.53,47.14,66.68,66.68,0,0,1-19.53-47.14Z"/><path class="cls-1" d="M12.28,345.61A66.66,66.66,0,0,1,79,279h66.66v66.66a66.67,66.67,0,0,1-133.33,0Z"/><path class="cls-1" d="M145.61,12.28V145.61h66.67a66.67,66.67,0,0,0,0-133.33Z"/><path class="cls-1" d="M12.28,79A66.66,66.66,0,0,0,79,145.61h66.66V12.28H79A66.68,66.68,0,0,0,12.28,79Z"/><path class="cls-1" d="M12.28,212.28A66.68,66.68,0,0,0,79,279h66.66V145.61H79a66.68,66.68,0,0,0-66.67,66.67Z"/></g></g></svg>