<svg xmlns="http://www.w3.org/2000/svg" viewBox="0 0 401 100.67"><defs><style>.cls-1{fill:#181818;stroke:#181818;stroke-miterlimit:10;}</style></defs><g id="Layer_2" data-name="Layer 2"><g id="Layer_1-2" data-name="Layer 1"><g id="Layer_2-2" data-name="Layer 2"><g id="Layer_1-2-2" data-name="Layer 1-2"><g id="Layer_2-2-2" data-name="Layer 2-2"><g id="Layer_1-2-2-2" data-name="Layer 1-2-2"><path class="cls-1" d="M51.44,10.11c-10.07.1-18.28,2.36-25.68,7.24A31.9,31.9,0,0,0,12,34.83a35.85,35.85,0,0,0-.68,18.36A42.26,42.26,0,0,0,20,71.37c1.18,1.37,2.46,2.64,3.77,3.9l.68.67a4.52,4.52,0,0,1,1.39,5c-.68,2.36-1.39,4.68-2,7v.49a.82.82,0,0,0,.5-.11,29.2,29.2,0,0,0,9.57-5,4.62,4.62,0,0,1,6.44.49,6.84,6.84,0,0,1,.89,1.48,4.14,4.14,0,0,1-1.39,4.5,34.8,34.8,0,0,1-9.11,5.27,55,55,0,0,1-12.44,3.63,13.29,13.29,0,0,1-3.56.1,2.62,2.62,0,0,1-2.38-2.74.87.87,0,0,1,.1-.49c.68-2.85,1.57-5.66,2.39-8.51.49-1.87,1-3.73,1.56-5.56a.89.89,0,0,0-.21-.88A50.05,50.05,0,0,1,2.5,54.07a47.09,47.09,0,0,1-.78-11.82A39.78,39.78,0,0,1,11.78,17.92,47.74,47.74,0,0,1,32,4.62,53.82,53.82,0,0,1,51.58,1.49C63.74,1.88,74.7,5.61,84,13.31A39.46,39.46,0,0,1,98,35.57C100.66,47.88,98,59,89.71,68.7A35.84,35.84,0,0,1,67.27,81,42.93,42.93,0,0,1,34,73.09a34.29,34.29,0,0,1-13.73-21,28.91,28.91,0,0,1,.1-14,20.76,20.76,0,0,1,10-13.09c6.61-3.72,13.12-3,19.27,1.38.5.38.79.28,1.28,0A17.38,17.38,0,0,1,73,27.09a20.7,20.7,0,0,1,7.61,14.07c.78,7.24-1.28,13.47-6.83,18.46a21.21,21.21,0,0,1-9.67,5.17c-3.06.67-5.73-1.37-5.55-4.29a4.23,4.23,0,0,1,2.56-3.73,28.32,28.32,0,0,0,6.22-3.9,12.58,12.58,0,0,0,1.18-18L67.66,34a8.68,8.68,0,0,0-6.9-2.64A10.82,10.82,0,0,0,55,34l-2.88,2.53a2.88,2.88,0,0,1-3.77.11C46.89,35.5,45.5,34.41,44,33.35a8.06,8.06,0,0,0-8.89-1,11.19,11.19,0,0,0-4.34,4.29A15.75,15.75,0,0,0,28.64,47c1.1,10.44,6.72,17.69,16,22.47A32.64,32.64,0,0,0,60.86,73.2c10-.28,18.07-4.19,23.9-12.31A27.35,27.35,0,0,0,89.82,47.1c1-10.83-3.06-19.62-11.17-26.86A40.32,40.32,0,0,0,57.8,10.78C55.21,10.43,52.65,10.32,51.44,10.11Z"/><path class="cls-1" d="M16.09,100.17a7.36,7.36,0,0,1-1.57-.11,3.65,3.65,0,0,1-3.34-4,1.18,1.18,0,0,1,.21-.66c.5-2,1.1-4.12,1.67-6,.22-.78.5-1.55.68-2.36l.39-1.37L15.3,81.5c-7.22-7.25-11.77-16-13.94-27a49.88,49.88,0,0,1-.78-12.2A40.7,40.7,0,0,1,11,17.25,49.84,49.84,0,0,1,31.7,3.67,52.18,52.18,0,0,1,51.76.54a53.45,53.45,0,0,1,33.11,12.1c7.61,6.37,12.45,14,14.33,23,2.67,12.8-.21,24.23-8.5,34.08a37.54,37.54,0,0,1-23.11,12.8,43.42,43.42,0,0,1-34.08-8.19,35.28,35.28,0,0,1-14.12-21.7C18.22,47.1,18.22,42.43,19.5,38,21.28,31.77,24.83,27.09,30,24.25c6.9-3.8,13.72-3.31,20.45,1.37a18.41,18.41,0,0,1,23.51.77A22,22,0,0,1,82,41.23c.89,7.81-1.57,14.35-7.22,19.34a24.38,24.38,0,0,1-10.18,5.49,5.78,5.78,0,0,1-5-1.09,5.45,5.45,0,0,1,1.28-9.07,26.6,26.6,0,0,0,5.94-3.73,11.48,11.48,0,0,0,.29-17.27c-2-1.76-3.84-2.53-6-2.25A9.27,9.27,0,0,0,56,35c-.5.49-1.11,1-1.57,1.37s-.89.77-1.28,1.16a3.93,3.93,0,0,1-5.12.1c-.5-.38-1.1-.87-1.57-1.26-.88-.67-1.77-1.37-2.66-2A7.11,7.11,0,0,0,36,33.46a9.35,9.35,0,0,0-3.84,3.8,15.07,15.07,0,0,0-2.07,9.67c1,9.67,6,16.81,15.33,21.59A31.13,31.13,0,0,0,61.18,72c9.89-.29,17.57-4.29,22.91-11.82A26.85,26.85,0,0,0,88.93,47c.89-10.26-2.67-18.74-10.78-25.88a40.31,40.31,0,0,0-20.24-9.28c-1.78-.28-3.56-.39-4.84-.49-.49,0-.88-.11-1.17-.11-10.14.21-18,2.46-25.25,7.14-6.83,4.5-11.17,10-13.34,17a33.67,33.67,0,0,0-.6,17.79A40.66,40.66,0,0,0,21.1,70.91a22.71,22.71,0,0,0,2.38,2.53l1.28,1.27a5.92,5.92,0,0,0,.68.6,5.51,5.51,0,0,1,1.67,6.15c-.5,1.86-1.1,3.8-1.56,5.66a25.49,25.49,0,0,0,7.78-4.29,5.77,5.77,0,0,1,8,.6h0a5.23,5.23,0,0,1,1.1,1.86,5.3,5.3,0,0,1-1.78,5.77,37.76,37.76,0,0,1-9.39,5.38,58,58,0,0,1-12.66,3.73C17.58,100.1,16.87,100.17,16.09,100.17Zm1.17-18.25c-.39,1.37-.78,2.85-1.17,4.18l-.4,1.37L15,89.9c-.61,2-1.18,4-1.67,6a.29.29,0,0,1-.11.28,2.35,2.35,0,0,0,.28,1.09,1.45,1.45,0,0,0,1,.49,11.77,11.77,0,0,0,3.34-.1A52.68,52.68,0,0,0,30,94.19a33.46,33.46,0,0,0,8.78-5.06,3,3,0,0,0,1-3.31,3.07,3.07,0,0,0-.68-1.09,3.43,3.43,0,0,0-4.73-.39h0a31.93,31.93,0,0,1-10,5.17H24.3c-.21,0-.39.11-.67.11l-1.18.1V88.56a1.87,1.87,0,0,1,.11-.77v-.11L23,86.31c.5-1.86,1.1-3.79,1.67-5.76a3.23,3.23,0,0,0-1-3.8,4.69,4.69,0,0,0-.79-.67c-.39-.39-.78-.88-1.17-1.27-.89-.87-1.67-1.75-2.56-2.63A42.5,42.5,0,0,1,10.22,53.5a37.34,37.34,0,0,1,.67-19C13.17,27.24,18,21.08,25.12,16.37,32.59,11.38,41,9.05,51.37,9h.1c.29,0,.79.1,1.18.1,1.38.11,3.16.22,5.05.5a42.41,42.41,0,0,1,21.45,9.77c8.6,7.53,12.44,16.92,11.55,27.85a28.33,28.33,0,0,1-5.33,14.35C79.54,69.72,71.25,74,60.58,74.32a33.44,33.44,0,0,1-16.79-3.8q-15-7.76-16.61-23.35a17.29,17.29,0,0,1,2.38-11,11.28,11.28,0,0,1,4.74-4.67c3.55-1.76,6.9-1.38,10.17,1.09.89.66,1.88,1.47,2.77,2.14.5.39,1.1.88,1.57,1.27h0A1.78,1.78,0,0,0,51,36c.39-.39.89-.67,1.28-1.09s1.1-1,1.67-1.48a12,12,0,0,1,6.33-2.85,9.66,9.66,0,0,1,7.79,2.85,13.45,13.45,0,0,1,4.44,10.27A13.82,13.82,0,0,1,67.76,54a31.29,31.29,0,0,1-6.43,4.11,2.85,2.85,0,0,0-1.89,2.74,2.81,2.81,0,0,0,1.1,2.54,3.47,3.47,0,0,0,3.06.66,20.41,20.41,0,0,0,9.18-5c5-4.5,7.22-10.44,6.44-17.48A20,20,0,0,0,72,28.18C65.77,23,57.56,22.7,51.26,27.52a1.9,1.9,0,0,1-2.56,0q-8.91-6.28-18.07-1.27a20,20,0,0,0-9.49,12.48C20,42.74,20,47,21,52.13A33,33,0,0,0,34.37,72.46a41.12,41.12,0,0,0,32.4,7.7,35,35,0,0,0,21.73-12C96.39,58.85,99.06,48,96.5,36c-1.78-8.4-6.44-15.72-13.62-21.7C74.09,7,63.42,3.15,51.15,2.76A51,51,0,0,0,32,5.89,47.2,47.2,0,0,0,12.14,18.8,37.93,37.93,0,0,0,2.36,42.46,46.76,46.76,0,0,0,3,54C5.09,64.55,9.47,73.06,16.48,80A1.42,1.42,0,0,1,17.26,81.92Z"/></g></g></g></g><path class="cls-1" d="M117.75,79.63a5.94,5.94,0,0,1-.85-3.13c0-2.36,1.78-4.13,4.6-4.13A5.38,5.38,0,0,1,125.4,74c3.06,2.9,6,4.48,9.75,4.52,6.18,0,9.81-3.36,9.81-8.54V63.36h-.23C142.8,67.81,138,70.78,132,70.78c-10.32,0-16.82-7.88-16.82-20.52,0-13,6.34-20.68,17-20.68a13.43,13.43,0,0,1,12.64,7.81H145V35.1c0-3.82,2.44-5.72,5.68-5.72s5.61,1.9,5.61,5.72V70.05c0,10.78-7.81,17.28-21.15,17.2C126.72,87.21,120.42,84,117.75,79.63Zm27.33-29.22c0-7.46-3.63-12.25-9.28-12.25s-9.08,4.71-9.08,12.21,3.48,12,9.08,12S145.08,57.91,145.08,50.41Z"/><path class="cls-1" d="M163.44,19.26a6,6,0,1,1,6,5.83A5.85,5.85,0,0,1,163.44,19.26Zm.39,47.35V35.3c0-3.67,2.12-5.92,5.64-5.92s5.64,2.25,5.64,5.92V66.61c0,3.67-2.16,5.87-5.64,5.87S163.83,70.28,163.83,66.61Z"/><path class="cls-1" d="M191.85,66.72,181.07,37.81a10.49,10.49,0,0,1-.62-3.36c0-3.06,2.43-5.07,5.64-5.07,2.74,0,4.56,1.47,5.41,4.53l8.39,27.79h.23l8.39-27.91c.77-3,2.67-4.41,5.29-4.41,3.14,0,5.49,2.17,5.49,5a10.07,10.07,0,0,1-.61,3.17L207.89,66.72c-1.43,4-3.79,5.76-7.88,5.76C195.68,72.48,193.36,70.74,191.85,66.72Z"/><path class="cls-1" d="M221.73,51.15c0-13.34,7.77-21.8,20-21.8,11.75,0,19.64,8,19.64,19.28,0,3.13-1.78,4.91-4.91,4.91H232.82V54c0,6.15,3.71,10.17,9.43,10.17,4.14,0,6.85-1.39,9.9-5a4.61,4.61,0,0,1,3.67-1.66,4.09,4.09,0,0,1,4.41,4.14,5.72,5.72,0,0,1-.78,2.74c-2.74,5.1-9.16,8.12-17.16,8.12C229.34,72.56,221.73,64.56,221.73,51.15Zm28.8-4.53c-.24-5.41-3.72-8.93-8.66-8.93s-8.55,3.64-8.93,8.93Z"/><path class="cls-1" d="M267.46,66.61V20.84c0-3.63,2.08-5.8,5.56-5.8s5.53,2.17,5.53,5.8V37.62h.23c2.2-5.22,6.73-8.16,13-8.16,9.2,0,14.45,5.95,14.45,15.54V66.61c0,3.86-2.32,5.87-5.64,5.87s-5.64-2-5.64-5.87V47.4c0-5.34-2.63-8.58-7.77-8.58-5.34,0-8.47,3.74-8.47,9.19v18.6c0,3.86-2.32,5.87-5.64,5.87S267.46,70.47,267.46,66.61Z"/><path class="cls-1" d="M313.26,56.94V35.3c0-3.87,2.36-5.92,5.64-5.92s5.65,2.05,5.65,5.92V54.59c0,5.52,2.74,8.46,7.73,8.46s8.15-3.59,8.15-9.08V35.3c0-3.87,2.36-5.92,5.65-5.92s5.64,2.05,5.64,5.92V66.76c0,3.75-2.2,5.72-5.45,5.72s-5.45-2-5.45-5.72V64.21h-.23c-2,5.22-6.15,8.23-12.41,8.23C319.21,72.44,313.26,66.61,313.26,56.94Z"/><path class="cls-1" d="M359.33,66.76V21c0-3.87,2.36-5.92,5.65-5.92s5.64,2.05,5.64,5.92V37.42h.23c2.28-4.91,6.92-7.84,12.8-7.84,10.47,0,16.85,8,16.85,21.37s-6.34,21.38-16.81,21.38c-6.07,0-10.67-2.94-13-7.77h-.23v2.2c0,3.75-2.32,5.72-5.61,5.72S359.33,70.55,359.33,66.76ZM388.94,51c0-7.54-3.51-12.33-9.12-12.33s-9.24,4.91-9.24,12.33,3.75,12.29,9.24,12.29S388.94,58.53,388.94,51Z"/></g></g></svg>