<svg xmlns="http://www.w3.org/2000/svg" viewBox="0 0 400 99.67"><defs><style>.cls-1{fill:#fff;}</style></defs><g id="Layer_2" data-name="Layer 2"><g id="Layer_1-2" data-name="Layer 1"><g id="Layer_2-2" data-name="Layer 2"><g id="Layer_1-2-2" data-name="Layer 1-2"><g id="Layer_2-2-2" data-name="Layer 2-2"><g id="Layer_1-2-2-2" data-name="Layer 1-2-2"><path class="cls-1" d="M50.94,9.61c-10.07.1-18.28,2.36-25.68,7.24A31.9,31.9,0,0,0,11.53,34.33a35.85,35.85,0,0,0-.68,18.36,42.26,42.26,0,0,0,8.68,18.18c1.18,1.37,2.46,2.64,3.77,3.9l.68.67a4.52,4.52,0,0,1,1.39,5c-.68,2.36-1.39,4.68-2,7V88a.82.82,0,0,0,.5-.11,29.2,29.2,0,0,0,9.57-5,4.62,4.62,0,0,1,6.44.49,6.84,6.84,0,0,1,.89,1.48,4.14,4.14,0,0,1-1.39,4.5,34.8,34.8,0,0,1-9.11,5.27,55,55,0,0,1-12.44,3.63,13.29,13.29,0,0,1-3.56.1,2.62,2.62,0,0,1-2.38-2.74.87.87,0,0,1,.1-.49c.68-2.85,1.57-5.66,2.39-8.51.49-1.87,1-3.73,1.56-5.56a.89.89,0,0,0-.21-.88A50.05,50.05,0,0,1,2,53.57a47.09,47.09,0,0,1-.78-11.82A39.78,39.78,0,0,1,11.28,17.42,47.74,47.74,0,0,1,31.52,4.12,53.82,53.82,0,0,1,51.08,1c12.16.39,23.12,4.12,32.4,11.82a39.46,39.46,0,0,1,14,22.26c2.66,12.31,0,23.45-8.29,33.13A35.84,35.84,0,0,1,66.77,80.5a42.93,42.93,0,0,1-33.29-7.91,34.29,34.29,0,0,1-13.73-21,28.91,28.91,0,0,1,.1-14,20.76,20.76,0,0,1,10-13.09c6.61-3.72,13.12-3,19.27,1.38.5.38.79.28,1.28,0a17.38,17.38,0,0,1,22.13.66,20.7,20.7,0,0,1,7.61,14.07c.78,7.24-1.28,13.47-6.83,18.46a21.21,21.21,0,0,1-9.67,5.17c-3.06.67-5.73-1.37-5.55-4.29a4.23,4.23,0,0,1,2.56-3.73,28.32,28.32,0,0,0,6.22-3.9,12.58,12.58,0,0,0,1.18-18l-.89-.88a8.68,8.68,0,0,0-6.9-2.64,10.82,10.82,0,0,0-5.73,2.64l-2.88,2.53a2.88,2.88,0,0,1-3.77.11C46.39,35,45,33.91,43.54,32.85a8.06,8.06,0,0,0-8.89-1,11.19,11.19,0,0,0-4.34,4.29A15.75,15.75,0,0,0,28.14,46.5c1.1,10.44,6.72,17.69,16,22.47A32.64,32.64,0,0,0,60.36,72.7c10-.28,18.07-4.19,23.9-12.31A27.35,27.35,0,0,0,89.32,46.6c1-10.83-3.06-19.62-11.17-26.86A40.32,40.32,0,0,0,57.3,10.28C54.71,9.93,52.15,9.82,50.94,9.61Z"/><path class="cls-1" d="M15.59,99.67A7.36,7.36,0,0,1,14,99.56a3.65,3.65,0,0,1-3.34-4,1.18,1.18,0,0,1,.21-.66c.5-2,1.1-4.12,1.67-6,.22-.78.5-1.55.68-2.36l.39-1.37L14.8,81C7.58,73.75,3,65,.86,54a49.88,49.88,0,0,1-.78-12.2,40.7,40.7,0,0,1,10.38-25A49.84,49.84,0,0,1,31.2,3.17,52.18,52.18,0,0,1,51.26,0a53.45,53.45,0,0,1,33.11,12.1c7.61,6.37,12.45,14,14.33,23,2.67,12.8-.21,24.23-8.5,34.08A37.54,37.54,0,0,1,67.09,82,43.42,43.42,0,0,1,33,73.79a35.28,35.28,0,0,1-14.12-21.7c-1.17-5.49-1.17-10.16.11-14.56,1.78-6.26,5.33-10.94,10.46-13.78,6.9-3.8,13.72-3.31,20.45,1.37a18.41,18.41,0,0,1,23.51.77,22,22,0,0,1,8.11,14.84c.89,7.81-1.57,14.35-7.22,19.34a24.38,24.38,0,0,1-10.18,5.49,5.78,5.78,0,0,1-5-1.09,5.45,5.45,0,0,1,1.28-9.07,26.6,26.6,0,0,0,5.94-3.73,11.48,11.48,0,0,0,.29-17.27c-2-1.76-3.84-2.53-6-2.25a9.27,9.27,0,0,0-5,2.36c-.5.49-1.11,1-1.57,1.37s-.89.77-1.28,1.16a3.93,3.93,0,0,1-5.12.1c-.5-.38-1.1-.87-1.57-1.26-.88-.67-1.77-1.37-2.66-2A7.11,7.11,0,0,0,35.54,33a9.35,9.35,0,0,0-3.84,3.8,15.07,15.07,0,0,0-2.07,9.67c1,9.67,6,16.81,15.33,21.59a31.13,31.13,0,0,0,15.72,3.52c9.89-.29,17.57-4.29,22.91-11.82a26.85,26.85,0,0,0,4.84-13.19c.89-10.26-2.67-18.74-10.78-25.88a40.31,40.31,0,0,0-20.24-9.28c-1.78-.28-3.56-.39-4.84-.49-.49,0-.88-.11-1.17-.11-10.14.21-18,2.46-25.25,7.14-6.83,4.5-11.17,10-13.34,17a33.67,33.67,0,0,0-.6,17.79A40.66,40.66,0,0,0,20.6,70.41,22.71,22.71,0,0,0,23,72.94l1.28,1.27a5.92,5.92,0,0,0,.68.6A5.51,5.51,0,0,1,26.61,81c-.5,1.86-1.1,3.8-1.56,5.66a25.49,25.49,0,0,0,7.78-4.29,5.77,5.77,0,0,1,8,.6h0a5.23,5.23,0,0,1,1.1,1.86,5.3,5.3,0,0,1-1.78,5.77,37.76,37.76,0,0,1-9.39,5.38,58,58,0,0,1-12.66,3.73C17.08,99.6,16.37,99.67,15.59,99.67Zm1.17-18.25c-.39,1.37-.78,2.85-1.17,4.18L15.19,87l-.67,2.43c-.61,2-1.18,4-1.67,6a.29.29,0,0,1-.11.28A2.35,2.35,0,0,0,13,96.82a1.45,1.45,0,0,0,1,.49,11.77,11.77,0,0,0,3.34-.1,52.68,52.68,0,0,0,12.17-3.52,33.46,33.46,0,0,0,8.78-5.06,3,3,0,0,0,1-3.31,3.07,3.07,0,0,0-.68-1.09,3.43,3.43,0,0,0-4.73-.39h0a31.93,31.93,0,0,1-10,5.17H23.8c-.21,0-.39.11-.67.11l-1.18.1V88.06a1.87,1.87,0,0,1,.11-.77v-.11l.39-1.37C23,84,23.55,82,24.12,80.05a3.23,3.23,0,0,0-1-3.8,4.69,4.69,0,0,0-.79-.67c-.39-.39-.78-.88-1.17-1.27-.89-.87-1.67-1.75-2.56-2.63A42.5,42.5,0,0,1,9.72,53a37.34,37.34,0,0,1,.67-19c2.28-7.31,7.12-13.47,14.23-18.18,7.47-5,15.86-7.32,26.25-7.42H51c.29,0,.79.1,1.18.1,1.38.11,3.16.22,5.05.5a42.41,42.41,0,0,1,21.45,9.77c8.6,7.53,12.44,16.92,11.55,27.85A28.33,28.33,0,0,1,84.87,61C79,69.22,70.75,73.54,60.08,73.82A33.44,33.44,0,0,1,43.29,70q-15-7.76-16.61-23.35a17.29,17.29,0,0,1,2.38-11A11.28,11.28,0,0,1,33.8,31c3.55-1.76,6.9-1.38,10.17,1.09.89.66,1.88,1.47,2.77,2.14.5.39,1.1.88,1.57,1.27h0a1.78,1.78,0,0,0,2.17,0c.39-.39.89-.67,1.28-1.09s1.1-1,1.67-1.48A12,12,0,0,1,59.76,30a9.66,9.66,0,0,1,7.79,2.85A13.45,13.45,0,0,1,72,43.16,13.82,13.82,0,0,1,67.26,53.5a31.29,31.29,0,0,1-6.43,4.11,2.85,2.85,0,0,0-1.89,2.74A2.81,2.81,0,0,0,60,62.89a3.47,3.47,0,0,0,3.06.66,20.41,20.41,0,0,0,9.18-5c5-4.5,7.22-10.44,6.44-17.48a20,20,0,0,0-7.22-13.4C65.27,22.52,57.06,22.2,50.76,27a1.9,1.9,0,0,1-2.56,0q-8.91-6.28-18.07-1.27a20,20,0,0,0-9.49,12.48c-1.18,4-1.18,8.3-.11,13.4A33,33,0,0,0,33.87,72a41.12,41.12,0,0,0,32.4,7.7A35,35,0,0,0,88,67.63c7.89-9.28,10.56-20.11,8-32.14-1.78-8.4-6.44-15.72-13.62-21.7C73.59,6.48,62.92,2.65,50.65,2.26A51,51,0,0,0,31.48,5.39,47.2,47.2,0,0,0,11.64,18.3,37.93,37.93,0,0,0,1.86,42,46.76,46.76,0,0,0,2.53,53.5C4.59,64.05,9,72.56,16,79.48A1.42,1.42,0,0,1,16.76,81.42Z"/></g></g></g></g><path class="cls-1" d="M117.25,79.13A5.94,5.94,0,0,1,116.4,76c0-2.36,1.78-4.13,4.6-4.13a5.38,5.38,0,0,1,3.9,1.62c3.06,2.9,6,4.48,9.75,4.52,6.18,0,9.81-3.36,9.81-8.54V62.86h-.23c-1.93,4.45-6.76,7.42-12.75,7.42-10.32,0-16.82-7.88-16.82-20.52,0-13,6.34-20.68,17-20.68a13.43,13.43,0,0,1,12.64,7.81h.23V34.6c0-3.82,2.44-5.72,5.68-5.72s5.61,1.9,5.61,5.72V69.55c0,10.78-7.81,17.28-21.15,17.2C126.22,86.71,119.92,83.5,117.25,79.13Zm27.33-29.22c0-7.46-3.63-12.25-9.28-12.25s-9.08,4.71-9.08,12.21,3.48,12,9.08,12S144.58,57.41,144.58,49.91Z"/><path class="cls-1" d="M162.94,18.76a6,6,0,1,1,6,5.83A5.85,5.85,0,0,1,162.94,18.76Zm.39,47.35V34.8c0-3.67,2.12-5.92,5.64-5.92s5.64,2.25,5.64,5.92V66.11c0,3.67-2.16,5.87-5.64,5.87S163.33,69.78,163.33,66.11Z"/><path class="cls-1" d="M191.35,66.22,180.57,37.31A10.49,10.49,0,0,1,180,34c0-3.06,2.43-5.07,5.64-5.07,2.74,0,4.56,1.47,5.41,4.53l8.39,27.79h.23L208,33.29c.77-3,2.67-4.41,5.29-4.41,3.14,0,5.49,2.17,5.49,5a10.07,10.07,0,0,1-.61,3.17L207.39,66.22C206,70.2,203.6,72,199.51,72,195.18,72,192.86,70.24,191.35,66.22Z"/><path class="cls-1" d="M221.23,50.65c0-13.34,7.77-21.8,20-21.8,11.75,0,19.64,8,19.64,19.28,0,3.13-1.78,4.91-4.91,4.91H232.32v.5c0,6.15,3.71,10.17,9.43,10.17,4.14,0,6.85-1.39,9.9-5a4.61,4.61,0,0,1,3.67-1.66,4.09,4.09,0,0,1,4.41,4.14,5.72,5.72,0,0,1-.78,2.74c-2.74,5.1-9.16,8.12-17.16,8.12C228.84,72.06,221.23,64.06,221.23,50.65ZM250,46.12c-.24-5.41-3.72-8.93-8.66-8.93s-8.55,3.64-8.93,8.93Z"/><path class="cls-1" d="M267,66.11V20.34c0-3.63,2.08-5.8,5.56-5.8s5.53,2.17,5.53,5.8V37.12h.23c2.2-5.22,6.73-8.16,13-8.16,9.2,0,14.45,5.95,14.45,15.54V66.11c0,3.86-2.32,5.87-5.64,5.87s-5.64-2-5.64-5.87V46.9c0-5.34-2.63-8.58-7.77-8.58-5.34,0-8.47,3.74-8.47,9.19v18.6c0,3.86-2.32,5.87-5.64,5.87S267,70,267,66.11Z"/><path class="cls-1" d="M312.76,56.44V34.8c0-3.87,2.36-5.92,5.64-5.92s5.65,2.05,5.65,5.92V54.09c0,5.52,2.74,8.46,7.73,8.46s8.15-3.59,8.15-9.08V34.8c0-3.87,2.36-5.92,5.65-5.92s5.64,2.05,5.64,5.92V66.26c0,3.75-2.2,5.72-5.45,5.72s-5.45-2-5.45-5.72V63.71h-.23c-2,5.22-6.15,8.23-12.41,8.23C318.71,71.94,312.76,66.11,312.76,56.44Z"/><path class="cls-1" d="M358.83,66.26V20.46c0-3.87,2.36-5.92,5.65-5.92s5.64,2.05,5.64,5.92V36.92h.23c2.28-4.91,6.92-7.84,12.8-7.84,10.47,0,16.85,8,16.85,21.37s-6.34,21.38-16.81,21.38c-6.07,0-10.67-2.94-13-7.77H370v2.2C370,70,367.65,72,364.36,72S358.83,70.05,358.83,66.26Zm29.61-15.81c0-7.54-3.51-12.33-9.12-12.33s-9.24,4.91-9.24,12.33,3.75,12.29,9.24,12.29S388.44,58,388.44,50.45Z"/></g></g></svg>