<svg xmlns="http://www.w3.org/2000/svg" viewBox="0 0 400 142.06"><defs><style>.cls-1{fill:#181818;}</style></defs><g id="Layer_2" data-name="Layer 2"><g id="Layer_1-2" data-name="Layer 1"><g id="g33"><g id="g69"><g id="g81"><path id="path37" class="cls-1" d="M60.13,141.89C43.93,140.45,29.76,134,19,123.27,8.83,113.11,2.59,100.21.47,85a97.5,97.5,0,0,1-.22-16.5A64.73,64.73,0,0,1,14.17,34.32a81.25,81.25,0,0,1,9.08-9.27C36.73,13.87,53.74,8.43,72.15,9.4c8.68.46,14.65,1.53,21.32,3.82,4.63,1.58,11.29,5,13.34,6.73l.52.45-.06,5.06-.06,5.05L105,29.15C94.94,23,82.15,19.67,68.1,19.67A57.94,57.94,0,0,0,35.85,29,55.1,55.1,0,0,0,14.72,55.12C9,69.71,9.86,87.55,17.06,102c8.2,16.42,23.31,27,42.05,29.4a67.81,67.81,0,0,0,19.43-.78c18.91-3.8,30.77-16.73,33.3-36.29a81.12,81.12,0,0,0,.37-9.84l0-7.11-22.34,0-22.34-.06v-10h54.62v9c0,10.21-.23,15.55-.83,19.82-1.82,12.9-6.62,23.17-14.55,31.1s-18.31,12.74-31.5,14.44a116.42,116.42,0,0,1-15.17.3Z"/><path id="path57" class="cls-1" d="M314.93,22V0h10.25V37.19l-.89.4c-1.83.82-4.43,2.59-9.1,6.21-.21.16-.26-4.23-.26-21.8Z"/><path id="path55" class="cls-1" d="M299.44,30V0h10.25V48l-1.6,1.71c-1.64,1.74-4.59,5.21-7,8.19-.73.92-1.41,1.76-1.51,1.87S299.44,46.45,299.44,30Z"/><path id="path53" class="cls-1" d="M62.85,126.28c-12.88-1-23.72-6-32.26-14.79a44.17,44.17,0,0,1-5.88-7.3,53,53,0,0,1-7.49-38.14A50.09,50.09,0,0,1,48.29,28.68a54.21,54.21,0,0,1,14.13-3.37,96.47,96.47,0,0,1,15,.32c10.77,1.47,20.39,4.8,28.1,9.72l1.83,1.17v5c0,4.53,0,5-.37,5.16s-.94-.16-3-1.46a62.34,62.34,0,0,0-26.79-9.31,86.69,86.69,0,0,0-15.07-.11c-18.49,2.66-31.67,16-34,34.35a51.13,51.13,0,0,0,1,17c2.78,10.93,9.51,19.81,18.51,24.45a37.52,37.52,0,0,0,18.65,4.43c10,0,18.11-2.85,23.65-8.36a20.55,20.55,0,0,0,6.17-12.72l.15-1.52H67.56V82.67H106.9v4.26c0,6.59-.53,10.5-2,14.92a34.31,34.31,0,0,1-18.09,20.24,45.28,45.28,0,0,1-19.22,4.19c-2,0-4.17,0-4.74,0Z"/><path id="path51" class="cls-1" d="M347.72,126.39c-8.14-.72-15.3-4.31-21.42-10.73A35.25,35.25,0,0,1,317.46,100c-.78-3.21-1-2.58,3.44-8.75,2.18-3,4-5.47,4.1-5.47a9.14,9.14,0,0,1,.28,2.24,35.53,35.53,0,0,0,1.1,7.48c2.79,10.8,10.64,18.61,20.43,20.32a27.81,27.81,0,0,0,9.55-.35c9-2.32,15-9.14,17.3-19.66a47.63,47.63,0,0,0,0-12.51,26.33,26.33,0,0,0-6.48-12.73,23.26,23.26,0,0,0-17.52-7.2c-9.08,0-15.69,3.69-24.4,13.61-8.52,9.7-22.67,27.68-29.78,37.84L293,118.49V101.61l3.62-4.92c2-2.71,5.47-7.32,7.74-10.26s5.43-7,7-9.1c7.26-9.52,11.95-14.29,17.9-18.24,12.28-8.15,28.44-8.36,40.16-.51,12,8,17.71,23.66,14.5,39.5-2.59,12.77-10.77,22.63-22.09,26.61a34,34,0,0,1-8.25,1.7,23.61,23.61,0,0,1-5.82,0Z"/><path id="path49" class="cls-1" d="M262,112.78c0-22.76-.05-26.7-.33-28.58-1-6.9-4.21-12.65-9-16.25a23.8,23.8,0,0,0-10.73-4.46,28.43,28.43,0,0,0-10.18.44c-9.31,2.46-16,10-18,20.41a36.73,36.73,0,0,0,.1,11.51c2.07,9.77,8.27,16.82,17,19.32,7.67,2.21,18.23.56,24.76-3.87l1.2-.82-.05,5.39-.06,5.4-2.09,1.09a41.76,41.76,0,0,1-19.47,4.15c-11.23-.75-20.27-5.85-26.29-14.84-6.41-9.56-8-23.43-4.15-35.14,5.15-15.46,19.58-24.9,36-23.58,8.93.72,15.63,3.71,21.51,9.61C267.63,68,270.55,73.9,272,82.25c.33,2,.37,4.63.44,29.56l.07,27.36H262Z"/><path id="path47" class="cls-1" d="M144.57,112.12c0-27.74.09-31.46.83-35.08a29.14,29.14,0,0,1,15.47-20.73,36.85,36.85,0,0,1,8.19-2.62c7-1.17,14.24-.11,19.4,2.84l1.09.62-.86,1.41c-.48.77-1.52,2.74-2.31,4.38s-1.46,3-1.48,3-.94-.32-2-.71a22.24,22.24,0,0,0-13.33-.84A18.69,18.69,0,0,0,159.31,71a26,26,0,0,0-3.6,7.58l-.57,2.09-.06,29.24L155,139.17H144.57Z"/><path id="path45" class="cls-1" d="M129.29,110.34c0-28.81.05-31.13.76-35.42,2.17-13.2,9.07-24,19.38-30.23,9.81-5.95,22.81-8,35.32-5.53a43.52,43.52,0,0,1,13.42,5.22l1.38.89-2.45,2.42c-1.35,1.34-2.88,2.93-3.39,3.55l-1,1.11-1.23-.62a41.56,41.56,0,0,0-16.42-3.6c-16.84,0-30,9.78-34.08,25.38-1.42,5.35-1.35,3.69-1.43,36.21l-.07,29.45H129.29Z"/><path id="path43" class="cls-1" d="M346.11,142c-15.71-1.43-28.72-9-36.72-21.27a47.58,47.58,0,0,1-3.89-7.83l-.26-.87,3.64-5,3.64-5,.18.7a38.38,38.38,0,0,0,14.8,21.56,48.42,48.42,0,0,0,9.1,4.83,40,40,0,0,0,21.8,1.8,40.6,40.6,0,0,0,14.5-6.2,51.09,51.09,0,0,0,8.66-8.6,45.65,45.65,0,0,0,7.79-19.85,61.37,61.37,0,0,0,0-13.48c-1.7-11.62-7-21-15.52-27.44-7.18-5.44-17.3-8.27-26.95-7.52-14.61,1.12-24.68,7.77-39.17,25.85-1.48,1.85-5.38,7-8.66,11.32l-6,8s-.08-3.34-.08-7.54V78L296.46,73c7.44-10.41,10.66-14.39,15.74-19.45a53.85,53.85,0,0,1,15.18-11.2,48.78,48.78,0,0,1,15-4.64,73,73,0,0,1,15.07,0c11.54,1.77,20.72,6.45,28.46,14.5C393.46,60.12,398,69.89,399.72,82a102.44,102.44,0,0,1,0,15.07A55.54,55.54,0,0,1,391.44,120a47.89,47.89,0,0,1-33.51,21.56,91.56,91.56,0,0,1-11.82.39Z"/><path id="path41" class="cls-1" d="M232.47,141.86c-22.68-2.07-40.19-18-44.56-40.57a47.1,47.1,0,0,1-1-11.51,49.77,49.77,0,0,1,2.1-16.12,50.74,50.74,0,0,1,29.08-32.72,55.19,55.19,0,0,1,38.93-.44,45.45,45.45,0,0,1,16.86,11.12C281.17,59,285.49,68,287.36,79.41c.44,2.68.45,3.31.52,31.25l.07,28.51H277.46V113c0-16.27-.08-27.17-.22-28.72-.89-10.35-5.11-19.47-12-26A40,40,0,0,0,234.93,47.9c-19.17,1.54-33.41,14.68-36.78,33.93a53.87,53.87,0,0,0,.42,18.47,46.94,46.94,0,0,0,5.22,13.44,36.68,36.68,0,0,0,19.33,15.57,42.31,42.31,0,0,0,21.81,1.7,34.25,34.25,0,0,0,10.86-4.18l1-.65v10.39l-1.21.79a32.58,32.58,0,0,1-13.76,4.52,56.74,56.74,0,0,1-9.31,0Z"/></g></g></g></g></g></svg>