<svg xmlns="http://www.w3.org/2000/svg" viewBox="0 0 348.52 391.6"><defs><style>.cls-1{fill:#fff;}</style></defs><g id="Layer_2" data-name="Layer 2"><g id="Layer_1-2" data-name="Layer 1"><rect class="cls-1" x="-55.53" y="147.32" width="320.29" height="16.6" transform="translate(-82.46 168.41) rotate(-60)"/><rect class="cls-1" x="14.06" y="268" width="320.3" height="16.6"/><rect class="cls-1" x="96.35" y="223.89" width="16.6" height="185" transform="translate(-221.67 248.82) rotate(-60)"/><rect class="cls-1" x="235.53" y="-17.19" width="16.6" height="185" transform="translate(56.69 248.81) rotate(-60)"/><rect class="cls-1" x="12.2" y="66.95" width="185" height="16.6" transform="translate(-23.6 62.43) rotate(-30)"/><rect class="cls-1" x="235.64" y="-4.52" width="16.6" height="320.29" transform="translate(-45.13 142.82) rotate(-30)"/><rect class="cls-1" x="26.76" y="103.3" width="16.6" height="185"/><rect class="cls-1" x="305.16" y="103.3" width="16.6" height="185"/><rect class="cls-1" x="163.38" y="309.05" width="160.9" height="14.5" transform="translate(-125.48 164.29) rotate(-30)"/><path class="cls-1" d="M343.76,293.7A34.92,34.92,0,1,1,331,246a35,35,0,0,1,12.8,47.7"/><path class="cls-1" d="M65.16,132.8a34.92,34.92,0,1,1-12.8-47.7,35,35,0,0,1,12.8,47.7"/><path class="cls-1" d="M4.76,293.7a34.92,34.92,0,1,1,47.7,12.8,35,35,0,0,1-47.7-12.8"/><path class="cls-1" d="M283.36,132.8a34.92,34.92,0,1,1,47.7,12.8,35,35,0,0,1-47.7-12.8"/><path class="cls-1" d="M174.26,391.6a34.9,34.9,0,1,1,34.9-34.9,34.87,34.87,0,0,1-34.9,34.9"/><path class="cls-1" d="M174.26,69.8a34.9,34.9,0,1,1,34.9-34.9,34.87,34.87,0,0,1-34.9,34.9"/></g></g></svg>