<svg xmlns="http://www.w3.org/2000/svg" viewBox="0 0 391.73 400"><g id="Layer_2" data-name="Layer 2"><g id="Layer_1-2" data-name="Layer 1"><path d="M114.71,138.29H66.22c0,.94-.16,1.86-.16,2.79q0,28.36,0,56.72c0,.69,0,1.38,0,2.06-.18,2.31-1.26,3.35-3.54,3.35H3.69c-2.36,0-3.51-1.11-3.67-3.47,0-.48,0-1,0-1.45V25.45c0-.49,0-1,0-1.45.15-2.57,1.34-3.74,3.88-3.8,1.44,0,2.89,0,4.33,0H61c.55,0,1.11,0,1.65,0A3.21,3.21,0,0,1,66,23.26a18.54,18.54,0,0,1,.09,2.47v57h48.66V80.32q0-27.75,0-55.49c0-3.59,1-4.63,4.66-4.64q28.47,0,56.93,0a7.81,7.81,0,0,1,2.41.34A2.46,2.46,0,0,1,180.55,23c0,.48,0,1,0,1.45V199c0,.55,0,1.11,0,1.65a2.86,2.86,0,0,1-2.51,2.6,15.11,15.11,0,0,1-1.65,0H119c-3.41,0-4.32-.92-4.32-4.42q0-29,0-58Z"/><path d="M260.88,355.51c-.06,1.14-.14,2-.14,2.9q0,18.66,0,37.32c0,3.42-.83,4.24-4.24,4.24H199.57c-.48,0-1,0-1.44,0a3.09,3.09,0,0,1-3.11-3.17c0-.61,0-1.23,0-1.85v-173a20.23,20.23,0,0,1,0-2.06A3.05,3.05,0,0,1,198,217c.55,0,1.1,0,1.65,0,27.57,0,55.13-.09,82.7,0a126.16,126.16,0,0,1,31.78,3.69c13,3.41,24.6,9.32,34.24,18.8,8.49,8.36,13.81,18.5,16.65,30a72.55,72.55,0,0,1,1.87,21.66c-.83,14-5.05,26.75-14.22,37.64a68.25,68.25,0,0,1-15.58,13.33l-2,1.24c.7,1,1.35,1.93,2,2.87l29.62,43.62c1.08,1.6,2.15,3.19,3.28,4.75a3.18,3.18,0,0,1,.37,3.65,3.33,3.33,0,0,1-3.27,1.69q-13.2,0-26.4,0c-11.75,0-23.51,0-35.26,0a5.41,5.41,0,0,1-4.95-2.66c-8.84-13.17-17.76-26.28-26.59-39.46-1.14-1.71-2.31-2.59-4.47-2.42C266.68,355.67,263.92,355.51,260.88,355.51Zm0-51.49a3.1,3.1,0,0,0,.62.22c7.62-.07,15.27.31,22.84-.33,10-.85,16.06-6.34,16.28-16.64.14-6.31-2-11.77-7.65-15.23a20.57,20.57,0,0,0-10.42-2.73c-6.46-.14-12.91-.14-19.36-.19h-2.31Z"/><path d="M115,304.73l11,9.43c.54-1.45,1.1-2.66,1.43-3.93,1.12-4.24,2.32-8.48,3.18-12.77.52-2.62,2.25-3.5,4.66-2.86,2.92.76,5.79,1.69,8.68,2.55q16.56,4.92,33.12,9.85c3.31,1,4,2.25,3.22,5.65a122.9,122.9,0,0,1-13.61,33.87c-.27.46-.5,1-.82,1.54l9.27,7.91c1.35,1.16,2.72,2.3,4.07,3.47,1.78,1.55,2,3.36.39,5.22-2.17,2.56-4.43,5-6.66,7.57q-10.77,12.16-21.56,24.34c-2,2.23-3.55,2.41-5.79.49q-7.09-6.1-14.17-12.24c-.41-.35-.86-.66-1.12-.86-4.6,2.25-9,4.56-13.48,6.54a97.84,97.84,0,0,1-30.52,7.89,131.47,131.47,0,0,1-15,.69c-14-.33-27.68-2.75-40.45-8.85C19.33,384.72,10,376.76,4.33,365.08.86,358-.15,350.41.36,342.63c1-15.58,8.07-28,20.15-37.68,2.78-2.22,5.79-4.16,8.69-6.23l1.9-1.33c-1.7-2.41-3.37-4.65-4.9-7a44,44,0,0,1-7.43-22.16c-.76-15.43,5-27.81,17.1-37.28,9.2-7.22,19.87-10.94,31.29-12.75A96.55,96.55,0,0,1,86.44,217c11.72.5,23.06,2.72,33.32,8.7,12.23,7.12,19.73,17.64,21.62,31.82,1.77,13.23-2.32,24.63-11.09,34.5a68.62,68.62,0,0,1-14.52,12.07A8.64,8.64,0,0,0,115,304.73ZM66.1,328.88a20.22,20.22,0,0,0-5.57,8.51c-1.19,3.78-.57,7.29,2.33,10a18.19,18.19,0,0,0,5.35,3.34c5.65,2.34,11.52,2,17.37.85,1.68-.33,3.32-.84,5.38-1.38Zm14.25-54.19c1.52-1,2.82-1.76,4-2.64a14.38,14.38,0,0,0,4.8-5.24c1.59-3.26.37-6.53-3-7.68a10.33,10.33,0,0,0-8.55.58A5.88,5.88,0,0,0,74.78,267,19.51,19.51,0,0,0,80.35,274.69Z"/><path d="M373.91,185.51c-.06,1-.14,1.77-.14,2.51,0,3.37,0,6.74,0,10.11-.06,3.58-1.84,5.27-5.38,5.27q-83.85,0-167.7.06a5.24,5.24,0,0,1-5.6-5.5q.12-87.26.06-174.51c0-3.87,1.61-5.49,5.51-5.5h12.29c.06-1,.15-1.71.15-2.44,0-3.37,0-6.74,0-10.11,0-3.79,1.65-5.4,5.39-5.4h167.3c4.43,0,6,1.5,6,5.88V59.1q0,60.12,0,120.26a11.07,11.07,0,0,1-.13,2.45c-.58,2.41-2.25,3.64-5,3.69-3.36.06-6.73,0-10.1,0ZM222.68,9.55V176H382.12V9.55Zm-9,175-9.13,9.13a2.54,2.54,0,0,0,1.47.46h12.36q22.86,0,45.73,0a4,4,0,0,0,3.25-1.31c1.86-2,3.87-3.9,5.8-5.85.35-.36.62-.79,1.18-1.52h-2.64c-17.37,0-34.75,0-52.12,0A41.84,41.84,0,0,1,213.69,184.54ZM345.05,186l-.17-.56H291.62c-2.61,0-5.52-.66-7.74.28s-3.94,3.51-5.85,5.37c-.85.83-1.68,1.69-2.52,2.54l.24.47h46.87c4.26,0,8.52,0,12.78,0a3.38,3.38,0,0,0,2.07-.56C340.05,191.11,342.53,188.55,345.05,186ZM213.05,44c-.39.13-.62.14-.74.26-2.44,2.41-4.9,4.81-7.27,7.29a3,3,0,0,0-.55,1.87q0,29.37,0,58.74a10.81,10.81,0,0,0,.31,1.67c2.53-2.52,4.76-4.82,7.09-7a4.08,4.08,0,0,0,1.34-3.25q0-28.76,0-57.5C213.19,45.36,213.11,44.7,213.05,44Zm.15,71-.54-.24c-2.36,2.36-4.7,4.75-7.1,7.08a3.44,3.44,0,0,0-1.11,2.72q0,29.08,0,58.16c0,.51.12,1,.22,1.86,2.48-2.46,4.65-4.72,6.94-6.86a4.66,4.66,0,0,0,1.6-3.78q-.07-28.45,0-56.92Zm133.09,78.59.28.42h17.74v-8.47c-3.18,0-6.18,0-9.19,0a1.74,1.74,0,0,0-1.09.44C351.43,188.44,348.87,191,346.29,193.52ZM204.59,42.85c3-2.94,5.63-5.5,8.23-8.1a1.73,1.73,0,0,0,.35-1.13c0-1.72.07-3.43,0-5.14,0-.42-.51-1.15-.81-1.16-2.57-.1-5.14-.06-7.75-.06Z"/><path d="M277.06,141.38a23.57,23.57,0,0,1,1.43-9c2.5-6.79,7.41-10.62,14.56-11.32A17.07,17.07,0,0,1,306,124.65a16.39,16.39,0,0,1,5.29,7.71c2.25,6.83,2.29,13.7-.78,20.28-2.94,6.31-8.13,9.43-15.1,9.56-7.46.13-13-2.95-16.25-9.74a22.84,22.84,0,0,1-2.09-9.17C277,142.74,277.06,142.19,277.06,141.38Zm12.91.78c.41,2.05.78,4.62,1.49,7.09a3.33,3.33,0,0,0,3.42,2.48,3.46,3.46,0,0,0,3.45-2.46,23,23,0,0,0,0-15.33,3.45,3.45,0,0,0-3.45-2.47c-1.76,0-2.75,1-3.45,2.46a5.5,5.5,0,0,0-.54,1.55C290.57,137.5,290.32,139.53,290,142.16Z"/><path d="M274,151.3v9.91H242.52c0-2.58-.08-5,.06-7.49,0-.61.72-1.26,1.24-1.74,4.5-4.23,9.07-8.38,13.53-12.64a9.67,9.67,0,0,0,2.26-3.36c1-2.55-.43-4.53-3.15-4.69s-4.87,1.11-6.49,3.56l-9.8-4.91a14.58,14.58,0,0,1,6.29-6.4,21.84,21.84,0,0,1,20-.58c6.35,2.9,8.23,9.74,5.45,16-1.33,3-3.76,5.2-6.13,7.39-1.64,1.52-3.29,3-4.93,4.52l.17.4Z"/><path d="M323.22,134.86l-9.81-4.93a16,16,0,0,1,8.21-7.36,22.58,22.58,0,0,1,16.51-.34c9.77,3.56,10,13.33,5.81,18.79-2.11,2.75-4.83,5-7.29,7.52a13.76,13.76,0,0,0-2.33,2.69h12.8v10H315.77c0-2.51,0-5,0-7.54a2.33,2.33,0,0,1,.83-1.35c4-3.73,8.08-7.43,12.11-11.16a25.77,25.77,0,0,0,2.87-2.95,8.37,8.37,0,0,0,1.36-2.72,3.13,3.13,0,0,0-2.89-4.22A6.93,6.93,0,0,0,323.22,134.86Z"/><path d="M355.68,131.78H349V122h19.62v39.28H355.68Z"/></g></g></svg>