<svg xmlns="http://www.w3.org/2000/svg" viewBox="0 0 283.44 400"><defs><style>.cls-1{fill:#181818;}.cls-2{fill:#fff;}</style></defs><g id="Layer_2" data-name="Layer 2"><g id="Layer_1-2" data-name="Layer 1"><path class="cls-1" d="M26.41,0h18V17.81H60.94V0h18V53.91h-18v-18H44.53v18H26.41M102.66,18H86.8V0h49.76V18H120.63V53.91h-18M144.45,0h18.83l11.56,19L186.41,0h18.82V53.91h-18V27.19L174.69,46.56,162.11,27.19V53.91H144.45M214.14,0h18V36.09h25.47V53.91H214.14"/><path class="cls-1" d="M25.78,368,0,78.59H283.44L257.66,367.81,141.48,400"/><path class="cls-1" d="M141.72,375.39v-273H257.58L235.47,349.22"/><path class="cls-2" d="M52.66,137.73h89.06V173.2H91.56l3.28,36.33h46.88v35.39H62.34m1.57,17.81H99.53l2.5,28.36,39.69,10.63v37L68.91,318.44"/><path class="cls-2" d="M230.47,137.73H141.56V173.2h85.63M224,209.53H141.56V245h43.75l-4.14,46.09-39.61,10.63v36.87l72.66-20.15"/></g></g></svg>