<svg xmlns="http://www.w3.org/2000/svg" viewBox="0 0 283.44 400"><defs><style>.cls-1{fill:#fff;}</style></defs><g id="Layer_2" data-name="Layer 2"><g id="Layer_1-2" data-name="Layer 1"><path class="cls-1" d="M26.41,0h18V17.81H60.94V0h18V53.91h-18v-18H44.53v18H26.41M102.66,18H86.8V0h49.76V18H120.63V53.91h-18M144.45,0h18.83l11.56,19L186.41,0h18.82V53.91h-18V27.19L174.69,46.56,162.11,27.19V53.91H144.45M214.14,0h18V36.09h25.47V53.91H214.14"/><path class="cls-1" d="M0,78.59,25.78,368l115.7,32,116.18-32.19L283.44,78.59ZM227.19,173.2H91.56l3.28,36.33H224l-9.76,108.91-72.5,20.11v.2L68.91,318.44l-5-55.71H99.53l2.5,28.36,39.61,10.61,39.53-10.61L185.31,245H141.56v-.08H62.34L52.66,137.73H230.47Z"/></g></g></svg>