<svg xmlns="http://www.w3.org/2000/svg" viewBox="0 0 410.26 400"><defs><style>.cls-1{fill:#181818;}.cls-2{fill:#fff;}</style></defs><g id="Layer_2" data-name="Layer 2"><g id="Layer_1-2" data-name="Layer 1"><g id="vlpb"><g id="vlpc"><g id="vlpd"><path class="cls-1" d="M72.65,0h265a72.59,72.59,0,0,1,72.65,72.65v254.7A72.59,72.59,0,0,1,337.61,400h-265A72.59,72.59,0,0,1,0,327.35V72.65A72.59,72.59,0,0,1,72.65,0Z"/></g></g></g><g id="vlpe"><g id="vlpf"><path class="cls-2" d="M198.29,239.32H134.7l-13,40.17a3,3,0,0,1-3.25,2.39H86.32c-1.88,0-2.39-1-1.88-3.08l55.05-158.46c.51-1.71,1-3.59,1.71-5.64a60,60,0,0,0,1-11.11,1.7,1.7,0,0,1,1.37-1.88h44.27c1.37,0,2,.51,2.23,1.37l62.39,176.07c.51,1.88,0,2.73-1.71,2.73H215a2.58,2.58,0,0,1-2.73-1.88l-14-40.68Zm-53.67-34.7H188c-1-3.59-2.39-7.87-3.93-12.31-1.54-4.62-3.07-9.57-4.61-14.7-1.71-5.3-3.25-10.43-5-15.73s-3.25-10.26-4.62-15.21c-1.36-4.79-2.56-9.23-3.76-13.34h-.34a211,211,0,0,1-5.81,22c-2.56,8.21-5.13,16.76-7.86,25.3C149.74,189.4,147.18,197.44,144.62,204.62Z"/><path class="cls-2" d="M290.6,131.62a21.19,21.19,0,0,1-15.22-6,22.21,22.21,0,0,1-5.81-15.73,20.09,20.09,0,0,1,6.16-15.21,21.88,21.88,0,0,1,15.21-6c6.67,0,11.8,2,15.56,6a21.58,21.58,0,0,1,5.64,15.21,21.6,21.6,0,0,1-6,15.73,20.07,20.07,0,0,1-15.55,6ZM271.45,280V148.38c0-1.71.69-2.4,2.23-2.4h33.84c1.54,0,2.22.86,2.22,2.4V280c0,1.88-.68,2.74-2.22,2.74H274C272.31,282.74,271.45,281.71,271.45,280Z"/></g></g></g></g></svg>