<svg xmlns="http://www.w3.org/2000/svg" viewBox="0 0 410.26 400"><defs><style>.cls-1{fill:#fff;}</style></defs><g id="Layer_2" data-name="Layer 2"><g id="Layer_1-2" data-name="Layer 1"><path class="cls-1" d="M337.61,0h-265A72.59,72.59,0,0,0,0,72.65v254.7A72.59,72.59,0,0,0,72.65,400h265a72.59,72.59,0,0,0,72.65-72.65V72.65A72.59,72.59,0,0,0,337.61,0ZM250.77,281.88H215a2.58,2.58,0,0,1-2.73-1.88l-14-40.68H134.7l-13,40.17a3,3,0,0,1-3.25,2.39H86.32c-1.88,0-2.39-1-1.88-3.08l55.05-158.46c.51-1.71,1-3.59,1.71-5.64a60,60,0,0,0,1-11.11,1.7,1.7,0,0,1,1.37-1.88h44.27c1.37,0,2,.51,2.23,1.37l62.39,176.07C253,281,252.48,281.88,250.77,281.88Zm59-1.88c0,1.88-.68,2.74-2.22,2.74H274c-1.71,0-2.57-1-2.57-2.74V148.38c0-1.71.69-2.4,2.23-2.4h33.84c1.54,0,2.22.86,2.22,2.4Zm-3.59-154.36a20.07,20.07,0,0,1-15.55,6,21.19,21.19,0,0,1-15.22-6,22.21,22.21,0,0,1-5.81-15.73,20.09,20.09,0,0,1,6.16-15.21,21.88,21.88,0,0,1,15.21-6c6.67,0,11.8,2,15.56,6a21.58,21.58,0,0,1,5.64,15.21A21.6,21.6,0,0,1,306.15,125.64Z"/><path class="cls-1" d="M179.49,177.61c-1.71-5.3-3.25-10.43-5-15.73s-3.25-10.26-4.62-15.21c-1.36-4.79-2.56-9.23-3.76-13.34h-.34a211,211,0,0,1-5.81,22c-2.56,8.21-5.13,16.76-7.86,25.3-2.4,8.72-5,16.76-7.52,23.94H188c-1-3.59-2.39-7.87-3.93-12.31C182.56,187.69,181,182.74,179.49,177.61Z"/></g></g></svg>