<svg xmlns="http://www.w3.org/2000/svg" xmlns:xlink="http://www.w3.org/1999/xlink" viewBox="0 0 400 100.88"><defs><style>.cls-1{fill:#fff;}.cls-2{clip-path:url(#clip-path);}.cls-3{clip-path:url(#clip-path-2);}.cls-4{clip-path:url(#clip-path-3);}.cls-5{clip-path:url(#clip-path-4);}.cls-6{clip-path:url(#clip-path-5);}.cls-7{clip-path:url(#clip-path-6);}.cls-8{clip-path:url(#clip-path-7);}.cls-9{clip-path:url(#clip-path-8);}.cls-10{clip-path:url(#clip-path-9);}.cls-11{clip-path:url(#clip-path-10);}.cls-12{clip-path:url(#clip-path-11);}.cls-13{clip-path:url(#clip-path-12);}.cls-14{clip-path:url(#clip-path-13);}.cls-15{clip-path:url(#clip-path-14);}.cls-16{clip-path:url(#clip-path-15);}.cls-17{clip-path:url(#clip-path-16);}.cls-18{clip-path:url(#clip-path-17);}.cls-19{clip-path:url(#clip-path-18);}.cls-20{clip-path:url(#clip-path-19);}.cls-21{clip-path:url(#clip-path-20);}.cls-22{clip-path:url(#clip-path-21);}.cls-23{clip-path:url(#clip-path-22);}.cls-24{clip-path:url(#clip-path-23);}.cls-25{clip-path:url(#clip-path-24);}.cls-26{clip-path:url(#clip-path-25);}.cls-27{clip-path:url(#clip-path-26);}.cls-28{clip-path:url(#clip-path-27);}.cls-29{clip-path:url(#clip-path-28);}.cls-30{clip-path:url(#clip-path-29);}.cls-31{clip-path:url(#clip-path-30);}.cls-32{clip-path:url(#clip-path-31);}.cls-33{clip-path:url(#clip-path-32);}.cls-34{clip-path:url(#clip-path-33);}.cls-35{clip-path:url(#clip-path-34);}.cls-36{clip-path:url(#clip-path-35);}.cls-37{clip-path:url(#clip-path-36);}.cls-38{clip-path:url(#clip-path-37);}.cls-39{clip-path:url(#clip-path-38);}</style><clipPath id="clip-path" transform="translate(0 0)"><rect class="cls-1" x="182.01" y="0.59" width="4.94" height="20.34"/></clipPath><clipPath id="clip-path-2" transform="translate(0 0)"><polygon class="cls-1" points="204.35 20.93 196.12 7.64 196 7.64 196.12 20.93 191.42 20.93 191.42 0.59 196.94 0.59 205.17 13.87 205.29 13.87 205.17 0.59 209.88 0.59 209.88 20.93 204.35 20.93"/></clipPath><clipPath id="clip-path-3" transform="translate(0 0)"><polygon class="cls-1" points="219.52 4.7 219.52 8.94 227.4 8.94 227.4 13.05 219.52 13.05 219.52 20.93 214.58 20.93 214.58 0.59 227.98 0.59 227.98 4.7 219.52 4.7"/></clipPath><clipPath id="clip-path-4" transform="translate(0 0)"><path class="cls-1" d="M238.8,16.46a6.71,6.71,0,0,1-1.88-1.29,5.76,5.76,0,0,1-1.18-2,9.37,9.37,0,0,1-.47-2.59,5.51,5.51,0,0,1,.47-2.47,5.76,5.76,0,0,1,1.18-2,5.48,5.48,0,0,1,1.88-1.29,5.32,5.32,0,0,1,2.35-.47,5.26,5.26,0,0,1,2.35.47,6.82,6.82,0,0,1,1.89,1.29,5.59,5.59,0,0,1,1.17,2,9.05,9.05,0,0,1,.47,2.47,6.38,6.38,0,0,1-.47,2.59,5.59,5.59,0,0,1-1.17,2,5.38,5.38,0,0,1-1.89,1.29,5.26,5.26,0,0,1-2.35.47,3.87,3.87,0,0,1-2.35-.47M236.68.71a10.87,10.87,0,0,0-3.52,2.11,10.25,10.25,0,0,0-2.35,3.41A10.77,10.77,0,0,0,230,10.7a11.16,11.16,0,0,0,.83,4.47,9.74,9.74,0,0,0,2.35,3.41,10.67,10.67,0,0,0,3.52,2.23,13.8,13.8,0,0,0,4.47.82,11.15,11.15,0,0,0,4.47-.82,9.08,9.08,0,0,0,3.53-2.23,11.83,11.83,0,0,0,2.35-3.41,10.8,10.8,0,0,0,.82-4.47,11.15,11.15,0,0,0-.82-4.47,9.87,9.87,0,0,0-2.35-3.41A8.86,8.86,0,0,0,245.62.71a14.43,14.43,0,0,0-8.94,0"/></clipPath><clipPath id="clip-path-5" transform="translate(0 0)"><path class="cls-1" d="M261.38.71a10.8,10.8,0,0,0-3.53,2.11,9.74,9.74,0,0,0-2.35,3.41,10.77,10.77,0,0,0-.83,4.47,10.21,10.21,0,0,0,.83,4.35,9.74,9.74,0,0,0,2.35,3.41,10.45,10.45,0,0,0,3.53,2.23,13,13,0,0,0,4.35.83,11.09,11.09,0,0,0,4.58-.94,8.69,8.69,0,0,0,3.29-2.47l-3.41-3.18a7.35,7.35,0,0,1-1.76,1.53,6.06,6.06,0,0,1-2.59.59,5.32,5.32,0,0,1-2.35-.47,6.93,6.93,0,0,1-1.88-1.29,5.59,5.59,0,0,1-1.17-2,8.27,8.27,0,0,1-.48-2.47,5.35,5.35,0,0,1,.48-2.47,6.73,6.73,0,0,1,1.17-2,5.34,5.34,0,0,1,1.88-1.29,5.18,5.18,0,0,1,2.35-.47,5.53,5.53,0,0,1,2.36.47A4.24,4.24,0,0,1,270,6.47l3.29-3.3A7.85,7.85,0,0,0,269.84.94,8.49,8.49,0,0,0,265.73,0a12.48,12.48,0,0,0-4.35.71"/></clipPath><clipPath id="clip-path-6" transform="translate(0 0)"><path class="cls-1" d="M283.13,16.46a4.83,4.83,0,0,1-1.77-1.29,5.59,5.59,0,0,1-1.17-2,9,9,0,0,1-.47-2.59,5.51,5.51,0,0,1,.47-2.47,5.59,5.59,0,0,1,1.17-2,5.42,5.42,0,0,1,1.89-1.29,5.26,5.26,0,0,1,2.35-.47,5.32,5.32,0,0,1,2.35.47,6.93,6.93,0,0,1,1.88,1.29,5.76,5.76,0,0,1,1.18,2,9.44,9.44,0,0,1,.47,2.47,6.38,6.38,0,0,1-.47,2.59,5.76,5.76,0,0,1-1.18,2,5.83,5.83,0,0,1-4.23,1.76,4.25,4.25,0,0,1-2.47-.47m-2-15.75a10.91,10.91,0,0,0-3.53,2.11,10.39,10.39,0,0,0-2.35,3.41,10.77,10.77,0,0,0-.82,4.47,11.15,11.15,0,0,0,.82,4.47,9.87,9.87,0,0,0,2.35,3.41,10.71,10.71,0,0,0,3.53,2.23,13.7,13.7,0,0,0,4.47.82,11.14,11.14,0,0,0,4.46-.82,9,9,0,0,0,3.53-2.23,11.64,11.64,0,0,0,2.35-3.41,10.8,10.8,0,0,0,.83-4.47,11.16,11.16,0,0,0-.83-4.47,9.74,9.74,0,0,0-2.35-3.41A8.79,8.79,0,0,0,290.06.71,13.67,13.67,0,0,0,285.6,0a13.18,13.18,0,0,0-4.47.71"/></clipPath><clipPath id="clip-path-7" transform="translate(0 0)"><polygon class="cls-1" points="315.58 0.59 311.11 13.64 310.99 13.64 306.29 0.59 299.35 0.59 299.35 20.93 303.94 20.93 303.82 6.47 303.94 6.47 309.11 20.93 312.52 20.93 317.81 6.47 317.93 6.47 317.81 20.93 322.63 20.93 322.63 0.59 315.58 0.59"/></clipPath><clipPath id="clip-path-8" transform="translate(0 0)"><polygon class="cls-1" points="343.33 0.59 338.86 13.64 338.74 13.64 334.16 0.59 327.1 0.59 327.1 20.93 331.69 20.93 331.57 6.47 331.69 6.47 336.86 20.93 340.27 20.93 345.56 6.47 345.68 6.47 345.56 20.93 350.38 20.93 350.38 0.59 343.33 0.59"/></clipPath><clipPath id="clip-path-9" transform="translate(0 0)"><polygon class="cls-1" points="198.24 26.93 193.77 39.98 193.65 39.98 189.06 26.93 182.01 26.93 182.01 47.27 186.71 47.27 186.6 32.92 191.77 47.27 195.3 47.27 200.59 32.92 200.47 47.27 205.41 47.27 205.41 26.93 198.24 26.93"/></clipPath><clipPath id="clip-path-10" transform="translate(0 0)"><polygon class="cls-1" points="209.05 26.93 209.05 47.27 223.28 47.27 223.28 43.15 213.76 43.15 213.76 38.92 222.22 38.92 222.22 34.92 213.76 34.92 213.76 31.04 222.69 31.04 222.69 26.93 209.05 26.93"/></clipPath><clipPath id="clip-path-11" transform="translate(0 0)"><path class="cls-1" d="M231,31.16h2.47a18.75,18.75,0,0,1,2.47.23,6,6,0,0,1,2.12.94,5.55,5.55,0,0,1,1.52,1.77,6.54,6.54,0,0,1,.59,2.82,6.16,6.16,0,0,1-.59,2.82,4,4,0,0,1-1.52,1.88,4.32,4.32,0,0,1-2.12.94,9,9,0,0,1-2.59.36H231V31.16Zm-4.82-4.23V47.27h7.64a16,16,0,0,0,4.12-.59,9.78,9.78,0,0,0,3.64-1.88,8.6,8.6,0,0,0,2.59-3.18,9.46,9.46,0,0,0,.94-4.58,10,10,0,0,0-1.06-4.82,8.8,8.8,0,0,0-2.7-3.18,9.91,9.91,0,0,0-3.77-1.64,16.94,16.94,0,0,0-4.23-.47Z"/></clipPath><clipPath id="clip-path-12" transform="translate(0 0)"><rect class="cls-1" x="247.97" y="26.93" width="4.94" height="20.34"/></clipPath><clipPath id="clip-path-13" transform="translate(0 0)"><path class="cls-1" d="M266,32.33l2.59,7.06h-5.18Zm-2.23-5.4-8.59,20.34h5.41l1.53-4H270l1.53,4H277l-8.46-20.34Z"/></clipPath><clipPath id="clip-path-14" transform="translate(0 0)"><path class="cls-1" d="M186.83,57.5h2.47a17.19,17.19,0,0,1,2.47.23,6,6,0,0,1,2.12.94,5.55,5.55,0,0,1,1.52,1.77,6.54,6.54,0,0,1,.59,2.82,5.06,5.06,0,0,1-.59,2.82A4,4,0,0,1,193.89,68a4.41,4.41,0,0,1-2.12.94,9,9,0,0,1-2.59.35h-2.35V57.5ZM182,53.38V73.72h7.64a15.59,15.59,0,0,0,4.12-.59,9.56,9.56,0,0,0,3.64-1.88A8.57,8.57,0,0,0,200,68.08a9.39,9.39,0,0,0,.94-4.59,10,10,0,0,0-1.06-4.82,8.85,8.85,0,0,0-2.7-3.17,9.79,9.79,0,0,0-3.76-1.65,17.56,17.56,0,0,0-4.24-.47Z"/></clipPath><clipPath id="clip-path-15" transform="translate(0 0)"><polygon class="cls-1" points="203.88 53.38 203.88 73.72 218.11 73.72 218.11 69.49 208.7 69.49 208.7 65.26 217.17 65.26 217.17 61.38 208.7 61.38 208.7 57.5 217.64 57.5 217.64 53.38 203.88 53.38"/></clipPath><clipPath id="clip-path-16" transform="translate(0 0)"><polygon class="cls-1" points="235.04 53.38 230.34 67.84 230.22 67.84 225.51 53.38 219.99 53.38 227.75 73.72 232.57 73.72 240.45 53.38 235.04 53.38"/></clipPath><clipPath id="clip-path-17" transform="translate(0 0)"><polygon class="cls-1" points="242.92 53.38 242.92 73.72 257.14 73.72 257.14 69.49 247.74 69.49 247.74 65.26 256.2 65.26 256.2 61.38 247.74 61.38 247.74 57.5 256.67 57.5 256.67 53.38 242.92 53.38"/></clipPath><clipPath id="clip-path-18" transform="translate(0 0)"><polygon class="cls-1" points="260.44 53.38 260.44 73.72 273.25 73.72 273.25 69.37 265.37 69.37 265.37 53.38 260.44 53.38"/></clipPath><clipPath id="clip-path-19" transform="translate(0 0)"><path class="cls-1" d="M283.6,69.25A6.43,6.43,0,0,1,281.72,68a5.76,5.76,0,0,1-1.18-2,9.3,9.3,0,0,1-.47-2.59,5.44,5.44,0,0,1,.47-2.46,6.85,6.85,0,0,1,1.18-2,5.41,5.41,0,0,1,1.88-1.3,6.11,6.11,0,0,1,4.7,0,6.81,6.81,0,0,1,1.88,1.3,5.58,5.58,0,0,1,1.18,2,9.3,9.3,0,0,1,.47,2.46,6.35,6.35,0,0,1-.47,2.59,5.76,5.76,0,0,1-1.18,2,5.25,5.25,0,0,1-1.88,1.29,5.15,5.15,0,0,1-2.35.47,4.85,4.85,0,0,1-2.35-.47M281.48,53.5A9.78,9.78,0,0,0,278,55.61,10.39,10.39,0,0,0,275.6,59a10.83,10.83,0,0,0-.82,4.47A11.15,11.15,0,0,0,275.6,68,10,10,0,0,0,278,71.37a10.55,10.55,0,0,0,3.53,2.23,13.13,13.13,0,0,0,4.47.83,11.16,11.16,0,0,0,4.47-.83,9,9,0,0,0,3.52-2.23A11.67,11.67,0,0,0,296.3,68a10.94,10.94,0,0,0,.82-4.47A11.39,11.39,0,0,0,296.3,59a9.9,9.9,0,0,0-2.36-3.41,8.82,8.82,0,0,0-3.52-2.11,14.43,14.43,0,0,0-8.94,0"/></clipPath><clipPath id="clip-path-20" transform="translate(0 0)"><path class="cls-1" d="M304.76,57.26h2.12a4.7,4.7,0,0,1,1.29.12,1.69,1.69,0,0,1,1.06.35,1.55,1.55,0,0,1,.82.71,1.88,1.88,0,0,1,.24,1.17,3.43,3.43,0,0,1-.24,1.18,2.67,2.67,0,0,1-.82.82,2,2,0,0,1-1.18.35,4.7,4.7,0,0,1-1.29.12h-2.12V57.26Zm-4.94-3.88V73.72h4.94V66.08h2.47a13.1,13.1,0,0,0,3.06-.35,8.58,8.58,0,0,0,2.58-1.06,5.88,5.88,0,0,0,2.47-5.06,7.36,7.36,0,0,0-.58-2.94,4.31,4.31,0,0,0-1.65-1.88,7.59,7.59,0,0,0-2.59-1.06,13.37,13.37,0,0,0-3.17-.35Z"/></clipPath><clipPath id="clip-path-21" transform="translate(0 0)"><polygon class="cls-1" points="333.69 53.38 329.22 66.43 329.1 66.43 324.51 53.38 317.46 53.38 317.46 73.72 322.16 73.72 322.05 59.26 327.22 73.72 330.75 73.72 336.04 59.26 335.92 73.72 340.86 73.72 340.86 53.38 333.69 53.38"/></clipPath><clipPath id="clip-path-22" transform="translate(0 0)"><polygon class="cls-1" points="345.09 53.38 345.09 73.72 359.32 73.72 359.32 69.49 349.91 69.49 349.91 65.26 358.38 65.26 358.38 61.38 349.91 61.38 349.91 57.5 358.85 57.5 358.85 53.38 345.09 53.38"/></clipPath><clipPath id="clip-path-23" transform="translate(0 0)"><polygon class="cls-1" points="376.37 53.38 376.48 66.67 376.37 66.67 368.14 53.38 362.61 53.38 362.61 73.72 367.31 73.72 367.2 60.44 367.31 60.44 375.54 73.72 381.07 73.72 381.07 53.38 376.37 53.38"/></clipPath><clipPath id="clip-path-24" transform="translate(0 0)"><polygon class="cls-1" points="383.54 53.38 383.54 57.5 389.3 57.5 389.3 73.72 394.24 73.72 394.24 57.5 400 57.5 400 53.38 383.54 53.38"/></clipPath><clipPath id="clip-path-25" transform="translate(0 0)"><path class="cls-1" d="M193,85.13l2.58,7.05h-5.17Zm-2.36-5.41L182,100.06h5.29l1.53-4h7.88l1.53,4h5.52L195.3,79.72Z"/></clipPath><clipPath id="clip-path-26" transform="translate(0 0)"><path class="cls-1" d="M217.17,79.72V92.06a5.84,5.84,0,0,1-.24,1.53,2.9,2.9,0,0,1-.7,1.3,4.94,4.94,0,0,1-1.18.94,4.63,4.63,0,0,1-3.53,0,3.21,3.21,0,0,1-1.17-.94,4.66,4.66,0,0,1-.71-1.3,6.75,6.75,0,0,1-.23-1.53V79.72h-4.82v12.7a11,11,0,0,0,.58,3.41,5.68,5.68,0,0,0,1.77,2.58,6.83,6.83,0,0,0,2.7,1.65,11.39,11.39,0,0,0,3.65.59,12.49,12.49,0,0,0,3.64-.59,8.32,8.32,0,0,0,2.82-1.65,5.68,5.68,0,0,0,1.77-2.58,10.45,10.45,0,0,0,.58-3.41V79.72Z"/></clipPath><clipPath id="clip-path-27" transform="translate(0 0)"><polygon class="cls-1" points="224.46 79.72 224.46 83.95 230.22 83.95 230.22 100.06 235.16 100.06 235.16 83.95 240.92 83.95 240.92 79.72 224.46 79.72"/></clipPath><clipPath id="clip-path-28" transform="translate(0 0)"><polygon class="cls-1" points="255.97 79.72 255.97 87.48 247.97 87.48 247.97 79.72 243.15 79.72 243.15 100.06 247.97 100.06 247.97 91.59 255.97 91.59 255.97 100.06 260.9 100.06 260.9 79.72 255.97 79.72"/></clipPath><clipPath id="clip-path-29" transform="translate(0 0)"><path class="cls-1" d="M272,95.71a6.63,6.63,0,0,1-1.88-1.29,5.76,5.76,0,0,1-1.18-2,9.43,9.43,0,0,1-.47-2.59,5.85,5.85,0,0,1,.47-2.47,5.76,5.76,0,0,1,1.18-2,6,6,0,0,1,6.58-1.29,6.57,6.57,0,0,1,1.88,1.29,5.76,5.76,0,0,1,1.18,2,9.37,9.37,0,0,1,.47,2.47,6.41,6.41,0,0,1-.47,2.59,5.76,5.76,0,0,1-1.18,2,5.38,5.38,0,0,1-1.88,1.29,6.11,6.11,0,0,1-4.7,0M270,80a9.8,9.8,0,0,0-3.53,2.12,10.39,10.39,0,0,0-2.35,3.41,10.77,10.77,0,0,0-.82,4.47,11.22,11.22,0,0,0,.82,4.47,9.83,9.83,0,0,0,2.35,3.4,10.57,10.57,0,0,0,3.53,2.24,13.13,13.13,0,0,0,4.47.82,11.14,11.14,0,0,0,4.46-.82,8.91,8.91,0,0,0,3.53-2.24,11.59,11.59,0,0,0,2.35-3.4A10.84,10.84,0,0,0,285.6,90a11.16,11.16,0,0,0-.83-4.47,9.74,9.74,0,0,0-2.35-3.41A8.81,8.81,0,0,0,278.89,80a13.67,13.67,0,0,0-4.46-.7A10.79,10.79,0,0,0,270,80"/></clipPath><clipPath id="clip-path-30" transform="translate(0 0)"><path class="cls-1" d="M292.89,83.72h2.58a4.71,4.71,0,0,1,1.18.11,3.8,3.8,0,0,1,1.06.36,1.53,1.53,0,0,1,.82.7,1.75,1.75,0,0,1,.35,1.18,2.31,2.31,0,0,1-.35,1.29,1.6,1.6,0,0,1-.82.71c-.36.11-.71.23-1.18.35a4.7,4.7,0,0,1-1.29.12h-2.35V83.72Zm-4.71-4v20.34H293V92h1.65l4.47,8.11h5.76l-5.29-8.7a5.64,5.64,0,0,0,3.06-2,6.17,6.17,0,0,0,.47-6.47A5.43,5.43,0,0,0,301.35,81,7.92,7.92,0,0,0,298.88,80a11.83,11.83,0,0,0-2.82-.35h-7.88Z"/></clipPath><clipPath id="clip-path-31" transform="translate(0 0)"><rect class="cls-1" x="307.23" y="79.72" width="4.94" height="20.34"/></clipPath><clipPath id="clip-path-32" transform="translate(0 0)"><polygon class="cls-1" points="314.4 79.72 314.4 83.95 320.17 83.95 320.17 100.06 325.1 100.06 325.1 83.95 330.86 83.95 330.86 79.72 314.4 79.72"/></clipPath><clipPath id="clip-path-33" transform="translate(0 0)"><polygon class="cls-1" points="347.09 79.72 342.74 87.24 338.39 79.72 332.39 79.72 340.04 91.48 340.04 100.06 344.97 100.06 344.97 91.48 352.85 79.72 347.09 79.72"/></clipPath><clipPath id="clip-path-34" transform="translate(0 0)"><polygon class="cls-1" points="46.91 12.46 46.91 88.54 68.9 100.06 68.9 0.59 46.91 12.46"/></clipPath><clipPath id="clip-path-35" transform="translate(0 0)"><polygon class="cls-1" points="0 100.06 21.99 88.54 21.99 12.46 0 0.59 0 100.06"/></clipPath><clipPath id="clip-path-36" transform="translate(0 0)"><polygon class="cls-1" points="93.83 100.06 119.34 100.06 93.83 36.21 93.83 100.06"/></clipPath><clipPath id="clip-path-37" transform="translate(0 0)"><polygon class="cls-1" points="131.45 100.06 156.97 100.06 156.97 36.21 131.45 100.06"/></clipPath><clipPath id="clip-path-38" transform="translate(0 0)"><polygon class="cls-1" points="103.23 0.59 125.46 50.32 147.68 0.59 103.23 0.59"/></clipPath></defs><g id="Layer_2" data-name="Layer 2"><g id="Layer_1-2" data-name="Layer 1"><rect class="cls-1" x="182.01" y="0.59" width="4.94" height="20.34"/><g class="cls-2"><path class="cls-1" d="M182,.59H187V20.93H182Z" transform="translate(0 0)"/></g><polygon class="cls-1" points="204.35 20.93 196.12 7.64 196 7.64 196.12 20.93 191.42 20.93 191.42 0.59 196.94 0.59 205.17 13.87 205.29 13.87 205.17 0.59 209.88 0.59 209.88 20.93 204.35 20.93"/><g class="cls-3"><path class="cls-1" d="M191.42.59H210V20.93H191.42Z" transform="translate(0 0)"/></g><polygon class="cls-1" points="219.52 4.7 219.52 8.94 227.4 8.94 227.4 13.05 219.52 13.05 219.52 20.93 214.58 20.93 214.58 0.59 227.98 0.59 227.98 4.7 219.52 4.7"/><g class="cls-4"><path class="cls-1" d="M214.58.59H228V20.93h-13.4Z" transform="translate(0 0)"/></g><path class="cls-1" d="M238.8,16.46a6.71,6.71,0,0,1-1.88-1.29,5.76,5.76,0,0,1-1.18-2,9.37,9.37,0,0,1-.47-2.59,5.51,5.51,0,0,1,.47-2.47,5.76,5.76,0,0,1,1.18-2,5.48,5.48,0,0,1,1.88-1.29,5.32,5.32,0,0,1,2.35-.47,5.26,5.26,0,0,1,2.35.47,6.82,6.82,0,0,1,1.89,1.29,5.59,5.59,0,0,1,1.17,2,9.05,9.05,0,0,1,.47,2.47,6.38,6.38,0,0,1-.47,2.59,5.59,5.59,0,0,1-1.17,2,5.38,5.38,0,0,1-1.89,1.29,5.26,5.26,0,0,1-2.35.47,3.87,3.87,0,0,1-2.35-.47M236.68.71a10.87,10.87,0,0,0-3.52,2.11,10.25,10.25,0,0,0-2.35,3.41A10.77,10.77,0,0,0,230,10.7a11.16,11.16,0,0,0,.83,4.47,9.74,9.74,0,0,0,2.35,3.41,10.67,10.67,0,0,0,3.52,2.23,13.8,13.8,0,0,0,4.47.82,11.15,11.15,0,0,0,4.47-.82,9.08,9.08,0,0,0,3.53-2.23,11.83,11.83,0,0,0,2.35-3.41,10.8,10.8,0,0,0,.82-4.47,11.15,11.15,0,0,0-.82-4.47,9.87,9.87,0,0,0-2.35-3.41A8.86,8.86,0,0,0,245.62.71a14.43,14.43,0,0,0-8.94,0" transform="translate(0 0)"/><g class="cls-5"><path class="cls-1" d="M230,0H252.2V21.52H230Z" transform="translate(0 0)"/></g><path class="cls-1" d="M261.38.71a10.8,10.8,0,0,0-3.53,2.11,9.74,9.74,0,0,0-2.35,3.41,10.77,10.77,0,0,0-.83,4.47,10.21,10.21,0,0,0,.83,4.35,9.74,9.74,0,0,0,2.35,3.41,10.45,10.45,0,0,0,3.53,2.23,13,13,0,0,0,4.35.83,11.09,11.09,0,0,0,4.58-.94,8.69,8.69,0,0,0,3.29-2.47l-3.41-3.18a7.35,7.35,0,0,1-1.76,1.53,6.06,6.06,0,0,1-2.59.59,5.32,5.32,0,0,1-2.35-.47,6.93,6.93,0,0,1-1.88-1.29,5.59,5.59,0,0,1-1.17-2,8.27,8.27,0,0,1-.48-2.47,5.35,5.35,0,0,1,.48-2.47,6.73,6.73,0,0,1,1.17-2,5.34,5.34,0,0,1,1.88-1.29,5.18,5.18,0,0,1,2.35-.47,5.53,5.53,0,0,1,2.36.47A4.24,4.24,0,0,1,270,6.47l3.29-3.3A7.85,7.85,0,0,0,269.84.94,8.49,8.49,0,0,0,265.73,0a12.48,12.48,0,0,0-4.35.71" transform="translate(0 0)"/><g class="cls-6"><path class="cls-1" d="M254.67,0H273.6V21.52H254.67Z" transform="translate(0 0)"/></g><path class="cls-1" d="M283.13,16.46a4.83,4.83,0,0,1-1.77-1.29,5.59,5.59,0,0,1-1.17-2,9,9,0,0,1-.47-2.59,5.51,5.51,0,0,1,.47-2.47,5.59,5.59,0,0,1,1.17-2,5.42,5.42,0,0,1,1.89-1.29,5.26,5.26,0,0,1,2.35-.47,5.32,5.32,0,0,1,2.35.47,6.93,6.93,0,0,1,1.88,1.29,5.76,5.76,0,0,1,1.18,2,9.44,9.44,0,0,1,.47,2.47,6.38,6.38,0,0,1-.47,2.59,5.76,5.76,0,0,1-1.18,2,5.83,5.83,0,0,1-4.23,1.76,4.25,4.25,0,0,1-2.47-.47m-2-15.75a10.91,10.91,0,0,0-3.53,2.11,10.39,10.39,0,0,0-2.35,3.41,10.77,10.77,0,0,0-.82,4.47,11.15,11.15,0,0,0,.82,4.47,9.87,9.87,0,0,0,2.35,3.41,10.71,10.71,0,0,0,3.53,2.23,13.7,13.7,0,0,0,4.47.82,11.14,11.14,0,0,0,4.46-.82,9,9,0,0,0,3.53-2.23,11.64,11.64,0,0,0,2.35-3.41,10.8,10.8,0,0,0,.83-4.47,11.16,11.16,0,0,0-.83-4.47,9.74,9.74,0,0,0-2.35-3.41A8.79,8.79,0,0,0,290.06.71,13.67,13.67,0,0,0,285.6,0a13.18,13.18,0,0,0-4.47.71" transform="translate(0 0)"/><g class="cls-7"><path class="cls-1" d="M274.43,0h22.22V21.52H274.43Z" transform="translate(0 0)"/></g><polygon class="cls-1" points="315.58 0.59 311.11 13.64 310.99 13.64 306.29 0.59 299.35 0.59 299.35 20.93 303.94 20.93 303.82 6.47 303.94 6.47 309.11 20.93 312.52 20.93 317.81 6.47 317.93 6.47 317.81 20.93 322.63 20.93 322.63 0.59 315.58 0.59"/><g class="cls-8"><path class="cls-1" d="M299.35.59h23.28V20.93H299.35Z" transform="translate(0 0)"/></g><polygon class="cls-1" points="343.33 0.59 338.86 13.64 338.74 13.64 334.16 0.59 327.1 0.59 327.1 20.93 331.69 20.93 331.57 6.47 331.69 6.47 336.86 20.93 340.27 20.93 345.56 6.47 345.68 6.47 345.56 20.93 350.38 20.93 350.38 0.59 343.33 0.59"/><g class="cls-9"><path class="cls-1" d="M327.1.59h23.28V20.93H327.1Z" transform="translate(0 0)"/></g><polygon class="cls-1" points="198.24 26.93 193.77 39.98 193.65 39.98 189.06 26.93 182.01 26.93 182.01 47.27 186.71 47.27 186.6 32.92 191.77 47.27 195.3 47.27 200.59 32.92 200.47 47.27 205.41 47.27 205.41 26.93 198.24 26.93"/><g class="cls-10"><path class="cls-1" d="M182,26.93h23.28V47.27H182Z" transform="translate(0 0)"/></g><polygon class="cls-1" points="209.05 26.93 209.05 47.27 223.28 47.27 223.28 43.15 213.76 43.15 213.76 38.92 222.22 38.92 222.22 34.92 213.76 34.92 213.76 31.04 222.69 31.04 222.69 26.93 209.05 26.93"/><g class="cls-11"><path class="cls-1" d="M209.05,26.93h14.23V47.27H209.05Z" transform="translate(0 0)"/></g><path class="cls-1" d="M231,31.16h2.47a18.75,18.75,0,0,1,2.47.23,6,6,0,0,1,2.12.94,5.55,5.55,0,0,1,1.52,1.77,6.54,6.54,0,0,1,.59,2.82,6.16,6.16,0,0,1-.59,2.82,4,4,0,0,1-1.52,1.88,4.32,4.32,0,0,1-2.12.94,9,9,0,0,1-2.59.36H231V31.16Zm-4.82-4.23V47.27h7.64a16,16,0,0,0,4.12-.59,9.78,9.78,0,0,0,3.64-1.88,8.6,8.6,0,0,0,2.59-3.18,9.46,9.46,0,0,0,.94-4.58,10,10,0,0,0-1.06-4.82,8.8,8.8,0,0,0-2.7-3.18,9.91,9.91,0,0,0-3.77-1.64,16.94,16.94,0,0,0-4.23-.47Z" transform="translate(0 0)"/><g class="cls-12"><path class="cls-1" d="M226.22,26.93h19.05V47.27H226.22Z" transform="translate(0 0)"/></g><rect class="cls-1" x="247.97" y="26.93" width="4.94" height="20.34"/><g class="cls-13"><path class="cls-1" d="M248,26.93h4.94V47.27H248Z" transform="translate(0 0)"/></g><path class="cls-1" d="M266,32.33l2.59,7.06h-5.18Zm-2.23-5.4-8.59,20.34h5.41l1.53-4H270l1.53,4H277l-8.46-20.34Z" transform="translate(0 0)"/><g class="cls-14"><path class="cls-1" d="M255.14,26.93H276.9V47.27H255.14Z" transform="translate(0 0)"/></g><path class="cls-1" d="M186.83,57.5h2.47a17.19,17.19,0,0,1,2.47.23,6,6,0,0,1,2.12.94,5.55,5.55,0,0,1,1.52,1.77,6.54,6.54,0,0,1,.59,2.82,5.06,5.06,0,0,1-.59,2.82A4,4,0,0,1,193.89,68a4.41,4.41,0,0,1-2.12.94,9,9,0,0,1-2.59.35h-2.35V57.5ZM182,53.38V73.72h7.64a15.59,15.59,0,0,0,4.12-.59,9.56,9.56,0,0,0,3.64-1.88A8.57,8.57,0,0,0,200,68.08a9.39,9.39,0,0,0,.94-4.59,10,10,0,0,0-1.06-4.82,8.85,8.85,0,0,0-2.7-3.17,9.79,9.79,0,0,0-3.76-1.65,17.56,17.56,0,0,0-4.24-.47Z" transform="translate(0 0)"/><g class="cls-15"><path class="cls-1" d="M182,53.38h19.05V73.72H182Z" transform="translate(0 0)"/></g><polygon class="cls-1" points="203.88 53.38 203.88 73.72 218.11 73.72 218.11 69.49 208.7 69.49 208.7 65.26 217.17 65.26 217.17 61.38 208.7 61.38 208.7 57.5 217.64 57.5 217.64 53.38 203.88 53.38"/><g class="cls-16"><path class="cls-1" d="M203.88,53.38h14.23V73.72H203.88Z" transform="translate(0 0)"/></g><polygon class="cls-1" points="235.04 53.38 230.34 67.84 230.22 67.84 225.51 53.38 219.99 53.38 227.75 73.72 232.57 73.72 240.45 53.38 235.04 53.38"/><g class="cls-17"><path class="cls-1" d="M220,53.38h20.46V73.72H220Z" transform="translate(0 0)"/></g><polygon class="cls-1" points="242.92 53.38 242.92 73.72 257.14 73.72 257.14 69.49 247.74 69.49 247.74 65.26 256.2 65.26 256.2 61.38 247.74 61.38 247.74 57.5 256.67 57.5 256.67 53.38 242.92 53.38"/><g class="cls-18"><path class="cls-1" d="M242.92,53.38h14.22V73.72H242.92Z" transform="translate(0 0)"/></g><polygon class="cls-1" points="260.44 53.38 260.44 73.72 273.25 73.72 273.25 69.37 265.37 69.37 265.37 53.38 260.44 53.38"/><g class="cls-19"><path class="cls-1" d="M260.44,53.38h12.81V73.72H260.44Z" transform="translate(0 0)"/></g><path class="cls-1" d="M283.6,69.25A6.43,6.43,0,0,1,281.72,68a5.76,5.76,0,0,1-1.18-2,9.3,9.3,0,0,1-.47-2.59,5.44,5.44,0,0,1,.47-2.46,6.85,6.85,0,0,1,1.18-2,5.41,5.41,0,0,1,1.88-1.3,6.11,6.11,0,0,1,4.7,0,6.81,6.81,0,0,1,1.88,1.3,5.58,5.58,0,0,1,1.18,2,9.3,9.3,0,0,1,.47,2.46,6.35,6.35,0,0,1-.47,2.59,5.76,5.76,0,0,1-1.18,2,5.25,5.25,0,0,1-1.88,1.29,5.15,5.15,0,0,1-2.35.47,4.85,4.85,0,0,1-2.35-.47M281.48,53.5A9.78,9.78,0,0,0,278,55.61,10.39,10.39,0,0,0,275.6,59a10.83,10.83,0,0,0-.82,4.47A11.15,11.15,0,0,0,275.6,68,10,10,0,0,0,278,71.37a10.55,10.55,0,0,0,3.53,2.23,13.13,13.13,0,0,0,4.47.83,11.16,11.16,0,0,0,4.47-.83,9,9,0,0,0,3.52-2.23A11.67,11.67,0,0,0,296.3,68a10.94,10.94,0,0,0,.82-4.47A11.39,11.39,0,0,0,296.3,59a9.9,9.9,0,0,0-2.36-3.41,8.82,8.82,0,0,0-3.52-2.11,14.43,14.43,0,0,0-8.94,0" transform="translate(0 0)"/><g class="cls-20"><path class="cls-1" d="M274.78,52.79H297V74.31H274.78Z" transform="translate(0 0)"/></g><path class="cls-1" d="M304.76,57.26h2.12a4.7,4.7,0,0,1,1.29.12,1.69,1.69,0,0,1,1.06.35,1.55,1.55,0,0,1,.82.71,1.88,1.88,0,0,1,.24,1.17,3.43,3.43,0,0,1-.24,1.18,2.67,2.67,0,0,1-.82.82,2,2,0,0,1-1.18.35,4.7,4.7,0,0,1-1.29.12h-2.12V57.26Zm-4.94-3.88V73.72h4.94V66.08h2.47a13.1,13.1,0,0,0,3.06-.35,8.58,8.58,0,0,0,2.58-1.06,5.88,5.88,0,0,0,2.47-5.06,7.36,7.36,0,0,0-.58-2.94,4.31,4.31,0,0,0-1.65-1.88,7.59,7.59,0,0,0-2.59-1.06,13.37,13.37,0,0,0-3.17-.35Z" transform="translate(0 0)"/><g class="cls-21"><path class="cls-1" d="M299.82,53.38h15.52V73.72H299.82Z" transform="translate(0 0)"/></g><polygon class="cls-1" points="333.69 53.38 329.22 66.43 329.1 66.43 324.51 53.38 317.46 53.38 317.46 73.72 322.16 73.72 322.05 59.26 327.22 73.72 330.75 73.72 336.04 59.26 335.92 73.72 340.86 73.72 340.86 53.38 333.69 53.38"/><g class="cls-22"><path class="cls-1" d="M317.46,53.38h23.28V73.72H317.46Z" transform="translate(0 0)"/></g><polygon class="cls-1" points="345.09 53.38 345.09 73.72 359.32 73.72 359.32 69.49 349.91 69.49 349.91 65.26 358.38 65.26 358.38 61.38 349.91 61.38 349.91 57.5 358.85 57.5 358.85 53.38 345.09 53.38"/><g class="cls-23"><path class="cls-1" d="M345.09,53.38h14.23V73.72H345.09Z" transform="translate(0 0)"/></g><polygon class="cls-1" points="376.37 53.38 376.48 66.67 376.37 66.67 368.14 53.38 362.61 53.38 362.61 73.72 367.31 73.72 367.2 60.44 367.31 60.44 375.54 73.72 381.07 73.72 381.07 53.38 376.37 53.38"/><g class="cls-24"><path class="cls-1" d="M362.61,53.38h18.58V73.72H362.61Z" transform="translate(0 0)"/></g><polygon class="cls-1" points="383.54 53.38 383.54 57.5 389.3 57.5 389.3 73.72 394.24 73.72 394.24 57.5 400 57.5 400 53.38 383.54 53.38"/><g class="cls-25"><path class="cls-1" d="M383.54,53.38H400V73.72H383.54Z" transform="translate(0 0)"/></g><path class="cls-1" d="M193,85.13l2.58,7.05h-5.17Zm-2.36-5.41L182,100.06h5.29l1.53-4h7.88l1.53,4h5.52L195.3,79.72Z" transform="translate(0 0)"/><g class="cls-26"><path class="cls-1" d="M182,79.72h21.75v20.34H182Z" transform="translate(0 0)"/></g><path class="cls-1" d="M217.17,79.72V92.06a5.84,5.84,0,0,1-.24,1.53,2.9,2.9,0,0,1-.7,1.3,4.94,4.94,0,0,1-1.18.94,4.63,4.63,0,0,1-3.53,0,3.21,3.21,0,0,1-1.17-.94,4.66,4.66,0,0,1-.71-1.3,6.75,6.75,0,0,1-.23-1.53V79.72h-4.82v12.7a11,11,0,0,0,.58,3.41,5.68,5.68,0,0,0,1.77,2.58,6.83,6.83,0,0,0,2.7,1.65,11.39,11.39,0,0,0,3.65.59,12.49,12.49,0,0,0,3.64-.59,8.32,8.32,0,0,0,2.82-1.65,5.68,5.68,0,0,0,1.77-2.58,10.45,10.45,0,0,0,.58-3.41V79.72Z" transform="translate(0 0)"/><g class="cls-27"><path class="cls-1" d="M204.59,79.72H222.1v20.93H204.59Z" transform="translate(0 0)"/></g><polygon class="cls-1" points="224.46 79.72 224.46 83.95 230.22 83.95 230.22 100.06 235.16 100.06 235.16 83.95 240.92 83.95 240.92 79.72 224.46 79.72"/><g class="cls-28"><path class="cls-1" d="M224.46,79.72h16.46v20.34H224.46Z" transform="translate(0 0)"/></g><polygon class="cls-1" points="255.97 79.72 255.97 87.48 247.97 87.48 247.97 79.72 243.15 79.72 243.15 100.06 247.97 100.06 247.97 91.59 255.97 91.59 255.97 100.06 260.9 100.06 260.9 79.72 255.97 79.72"/><g class="cls-29"><path class="cls-1" d="M243.15,79.72h17.76v20.34H243.15Z" transform="translate(0 0)"/></g><path class="cls-1" d="M272,95.71a6.63,6.63,0,0,1-1.88-1.29,5.76,5.76,0,0,1-1.18-2,9.43,9.43,0,0,1-.47-2.59,5.85,5.85,0,0,1,.47-2.47,5.76,5.76,0,0,1,1.18-2,6,6,0,0,1,6.58-1.29,6.57,6.57,0,0,1,1.88,1.29,5.76,5.76,0,0,1,1.18,2,9.37,9.37,0,0,1,.47,2.47,6.41,6.41,0,0,1-.47,2.59,5.76,5.76,0,0,1-1.18,2,5.38,5.38,0,0,1-1.88,1.29,6.11,6.11,0,0,1-4.7,0M270,80a9.8,9.8,0,0,0-3.53,2.12,10.39,10.39,0,0,0-2.35,3.41,10.77,10.77,0,0,0-.82,4.47,11.22,11.22,0,0,0,.82,4.47,9.83,9.83,0,0,0,2.35,3.4,10.57,10.57,0,0,0,3.53,2.24,13.13,13.13,0,0,0,4.47.82,11.14,11.14,0,0,0,4.46-.82,8.91,8.91,0,0,0,3.53-2.24,11.59,11.59,0,0,0,2.35-3.4A10.84,10.84,0,0,0,285.6,90a11.16,11.16,0,0,0-.83-4.47,9.74,9.74,0,0,0-2.35-3.41A8.81,8.81,0,0,0,278.89,80a13.67,13.67,0,0,0-4.46-.7A10.79,10.79,0,0,0,270,80" transform="translate(0 0)"/><g class="cls-30"><path class="cls-1" d="M263.26,79.13h22.22v21.52H263.26Z" transform="translate(0 0)"/></g><path class="cls-1" d="M292.89,83.72h2.58a4.71,4.71,0,0,1,1.18.11,3.8,3.8,0,0,1,1.06.36,1.53,1.53,0,0,1,.82.7,1.75,1.75,0,0,1,.35,1.18,2.31,2.31,0,0,1-.35,1.29,1.6,1.6,0,0,1-.82.71c-.36.11-.71.23-1.18.35a4.7,4.7,0,0,1-1.29.12h-2.35V83.72Zm-4.71-4v20.34H293V92h1.65l4.47,8.11h5.76l-5.29-8.7a5.64,5.64,0,0,0,3.06-2,6.17,6.17,0,0,0,.47-6.47A5.43,5.43,0,0,0,301.35,81,7.92,7.92,0,0,0,298.88,80a11.83,11.83,0,0,0-2.82-.35h-7.88Z" transform="translate(0 0)"/><g class="cls-31"><path class="cls-1" d="M288.18,79.72h16.7v20.34h-16.7Z" transform="translate(0 0)"/></g><rect class="cls-1" x="307.23" y="79.72" width="4.94" height="20.34"/><g class="cls-32"><path class="cls-1" d="M307.23,79.72h4.94v20.34h-4.94Z" transform="translate(0 0)"/></g><polygon class="cls-1" points="314.4 79.72 314.4 83.95 320.17 83.95 320.17 100.06 325.1 100.06 325.1 83.95 330.86 83.95 330.86 79.72 314.4 79.72"/><g class="cls-33"><path class="cls-1" d="M314.4,79.72h16.46v20.34H314.4Z" transform="translate(0 0)"/></g><polygon class="cls-1" points="347.09 79.72 342.74 87.24 338.39 79.72 332.39 79.72 340.04 91.48 340.04 100.06 344.97 100.06 344.97 91.48 352.85 79.72 347.09 79.72"/><g class="cls-34"><path class="cls-1" d="M332.39,79.72h20.46v20.34H332.39Z" transform="translate(0 0)"/></g><polygon class="cls-1" points="46.91 12.46 46.91 88.54 68.9 100.06 68.9 0.59 46.91 12.46"/><g class="cls-35"><path class="cls-1" d="M46.91.59h22v99.59h-22Z" transform="translate(0 0)"/></g><polygon class="cls-1" points="0 100.06 21.99 88.54 21.99 12.46 0 0.59 0 100.06"/><g class="cls-36"><path class="cls-1" d="M0,.59H22v99.59H0Z" transform="translate(0 0)"/></g><polygon class="cls-1" points="93.83 100.06 119.34 100.06 93.83 36.21 93.83 100.06"/><g class="cls-37"><path class="cls-1" d="M93.83,36.21h25.51v64H93.83Z" transform="translate(0 0)"/></g><polygon class="cls-1" points="131.45 100.06 156.97 100.06 156.97 36.21 131.45 100.06"/><g class="cls-38"><path class="cls-1" d="M131.45,36.21H157v64H131.45Z" transform="translate(0 0)"/></g><polygon class="cls-1" points="103.23 0.59 125.46 50.32 147.68 0.59 103.23 0.59"/><g class="cls-39"><path class="cls-1" d="M103.23.59h44.45V50.32H103.23Z" transform="translate(0 0)"/></g></g></g></svg>