<svg xmlns="http://www.w3.org/2000/svg" viewBox="0 0 295.01 400"><defs><style>.cls-1{fill:#fdfeff;fill-rule:evenodd;}</style></defs><g id="Layer_2" data-name="Layer 2"><g id="Layer_1-2" data-name="Layer 1"><path class="cls-1" d="M95,309.34s-15.27,8.89,10.89,11.89c31.7,3.62,47.89,3.1,82.82-3.51a143.82,143.82,0,0,0,22,10.74C132.42,362,33.5,326.52,95,309.34Zm-9.57-43.79s-17.14,12.68,9,15.39c33.86,3.5,60.59,3.78,106.88-5.12a47.4,47.4,0,0,0,16.45,10C123.13,313.54,17.7,288,85.43,265.55Z"/><path class="cls-1" d="M166.1,191.26c19.3,22.22-5.07,42.2-5.07,42.2s49-25.28,26.5-57c-21-29.53-37.13-44.2,50.11-94.79C237.63,81.71,100.7,115.9,166.1,191.26Z"/><path class="cls-1" d="M269.67,341.73s11.3,9.32-12.46,16.53C212,372,69.09,376.08,29.39,358.81,15.13,352.6,41.88,344,50.3,342.17c8.78-1.9,13.79-1.56,13.79-1.56-15.87-11.17-102.58,21.95-44,31.46,159.65,25.88,291-11.66,249.62-30.34ZM102.35,220.17s-72.69,17.27-25.74,23.55c19.84,2.65,59.34,2,96.17-1.05,30.09-2.52,60.29-7.93,60.29-7.93a128.39,128.39,0,0,0-18.28,9.79C141,264-1.65,254.91,39.41,235.05c34.71-16.79,62.94-14.88,62.94-14.88Zm130.42,72.89c75-39,40.35-76.46,16.12-71.41a56.58,56.58,0,0,0-8.58,2.3,13.7,13.7,0,0,1,6.41-4.94c47.92-16.84,84.77,49.68-15.45,76A6.47,6.47,0,0,0,232.77,293.06Z"/><path class="cls-1" d="M187.53,0s41.55,41.58-39.43,105.5c-64.94,51.29-14.8,80.53,0,113.94-37.91-34.2-65.72-64.31-47.06-92.33C128.4,86,204.29,66,187.53,0Z"/><path class="cls-1" d="M109.74,398.74c72,4.61,182.64-2.55,185.27-36.64,0,0-5,12.92-59.53,23.17C174,396.84,98.15,395.5,53.18,388.07,53.18,388.07,62.4,395.7,109.74,398.74Z"/></g></g></svg>