<svg xmlns="http://www.w3.org/2000/svg" viewBox="0 0 400 400"><defs><style>.cls-1{fill:#fff;}</style></defs><g id="Layer_2" data-name="Layer 2"><g id="Layer_1-2" data-name="Layer 1"><path class="cls-1" d="M0,0V400H400V0ZM217.83,312c0,38.92-22.81,56.64-56.12,56.64-30.1,0-47.53-15.58-56.39-34.34l30.6-18.52c5.9,10.47,11.27,19.33,24.19,19.33,12.35,0,20.14-4.83,20.14-23.62V183.66h37.58Zm88.82,56.71c-34.91,0-57.46-16.64-68.5-38.44L268.7,312.5c8.06,13.16,18.54,22.83,37.08,22.83,15.57,0,25.52-7.79,25.52-18.54,0-12.89-10.22-17.46-27.36-25l-9.4-4c-27.12-11.55-45.14-26-45.14-56.63,0-28.19,21.48-49.65,55-49.65,23.9,0,41.08,8.31,53.46,30.09l-29.26,18.8c-6.45-11.56-13.4-16.11-24.2-16.11-11,0-18,7-18,16.11,0,11.27,7,15.84,23.11,22.82l9.4,4c31.93,13.69,50,27.65,50,59C368.93,350.15,342.35,368.69,306.65,368.69Z"/></g></g></svg>