<svg xmlns="http://www.w3.org/2000/svg" viewBox="0 0 400 55.81"><defs><style>.cls-1{fill:#fff;}</style></defs><g id="Layer_2" data-name="Layer 2"><g id="Layer_1-2" data-name="Layer 1"><path class="cls-1" d="M27.9,41.87a11.05,11.05,0,0,1-3.75,8.46,13.78,13.78,0,0,1-9.64,3.48A17.34,17.34,0,0,1,6,51.66c-2.65-1.44-4-2.89-4-4.32A1.93,1.93,0,0,1,2.52,46a1.81,1.81,0,0,1,1.35-.55,3.37,3.37,0,0,1,1.85.71,18.12,18.12,0,0,1,1.93,1.57,8.34,8.34,0,0,0,2.75,1.56,11.22,11.22,0,0,0,4.11.7,9.6,9.6,0,0,0,6.42-2.21,7.31,7.31,0,0,0,2.56-5.84,6.41,6.41,0,0,0-2.07-4.53,22.43,22.43,0,0,0-5-3.77c-2-1.11-3.93-2.25-5.9-3.42A19.28,19.28,0,0,1,5.5,26,8.29,8.29,0,0,1,3.43,20.5a8.63,8.63,0,0,1,3.39-6.78,12,12,0,0,1,7.91-2.9,17.74,17.74,0,0,1,7.71,1.5q3.19,1.52,3.2,3.44a1.84,1.84,0,0,1-.52,1.39,1.89,1.89,0,0,1-1.35.5,3.25,3.25,0,0,1-1.66-.45,10.33,10.33,0,0,1-1.51-1,6.42,6.42,0,0,0-2.12-1,12.58,12.58,0,0,0-3.83-.45A7.72,7.72,0,0,0,10,16.33a4.77,4.77,0,0,0-2.2,3.92,5.62,5.62,0,0,0,2.07,4.18,27.16,27.16,0,0,0,5,3.56c2,1.11,3.93,2.27,5.9,3.49a18.66,18.66,0,0,1,5,4.51A9.42,9.42,0,0,1,27.9,41.87Z"/><path class="cls-1" d="M14.42,55.81A19.47,19.47,0,0,1,5,53.42c-3.37-1.85-5-3.83-5-6.08a3.9,3.9,0,0,1,1.07-2.75,3.77,3.77,0,0,1,2.8-1.18h0a5.23,5.23,0,0,1,3,1.08A19.6,19.6,0,0,1,9,46.23a6.78,6.78,0,0,0,2.11,1.16A9.5,9.5,0,0,0,14.5,48a7.63,7.63,0,0,0,5.13-1.73,5.37,5.37,0,0,0,1.86-4.32A4.48,4.48,0,0,0,20,38.77a20.6,20.6,0,0,0-4.57-3.43c-2-1.12-4-2.28-5.94-3.44A21.64,21.64,0,0,1,4,27.24,10.32,10.32,0,0,1,1.43,20.5a10.61,10.61,0,0,1,4.1-8.31,14,14,0,0,1,9.19-3.37,19.81,19.81,0,0,1,8.58,1.69c2.88,1.37,4.34,3.14,4.34,5.25a3.77,3.77,0,0,1-1.14,2.83,3.89,3.89,0,0,1-2.72,1.06,5.34,5.34,0,0,1-2.64-.71,11.66,11.66,0,0,1-1.82-1.24A4.6,4.6,0,0,0,17.87,17a10.48,10.48,0,0,0-3.21-.35,5.78,5.78,0,0,0-3.43,1.25,2.77,2.77,0,0,0-1.39,2.32A3.65,3.65,0,0,0,11.26,23a24.88,24.88,0,0,0,4.65,3.3c2,1.13,4,2.32,6,3.53a20.88,20.88,0,0,1,5.55,5,11.45,11.45,0,0,1,2.48,7.1,13,13,0,0,1-4.39,9.93,15.79,15.79,0,0,1-11,4ZM4,47.44c.1.29.54,1.16,2.93,2.47a15.36,15.36,0,0,0,2.31,1,9.87,9.87,0,0,1-3-1.79,15.05,15.05,0,0,0-1.71-1.39A2.56,2.56,0,0,0,4,47.44Zm6.23-33.6a10.36,10.36,0,0,0-2.12,1.4A6.7,6.7,0,0,0,5.43,20.5,6.35,6.35,0,0,0,7,24.67a17.45,17.45,0,0,0,4.51,3.8c1.92,1.14,3.89,2.28,5.85,3.39A24.55,24.55,0,0,1,22.85,36a8.36,8.36,0,0,1,2.64,5.93,9.24,9.24,0,0,1-3.26,7.35,10.54,10.54,0,0,1-1.9,1.31,10.35,10.35,0,0,0,2.47-1.7,9.05,9.05,0,0,0,3.1-7,7.4,7.4,0,0,0-1.65-4.66,16.64,16.64,0,0,0-4.48-4c-1.92-1.19-3.88-2.35-5.83-3.45A29.09,29.09,0,0,1,8.56,25.9a7.51,7.51,0,0,1-2.72-5.66,6.7,6.7,0,0,1,3-5.52A10.9,10.9,0,0,1,10.23,13.84Zm9.33-.45a7.83,7.83,0,0,1,2.32,1.23,7,7,0,0,0,1.21.83,1.42,1.42,0,0,0,.5.19,4.09,4.09,0,0,0-2-1.52A12.14,12.14,0,0,0,19.56,13.39Z"/><path class="cls-1" d="M57.55,35.13c-.11,3.47-.17,5.2-.28,8.66q0,1.55,0,2.34a5.62,5.62,0,0,0,.33,1.65,1.61,1.61,0,0,0,.74,1,3.31,3.31,0,0,0,.91.24,1.89,1.89,0,0,1,.67.15.48.48,0,0,1,.19.44,3.44,3.44,0,0,1-.91,2.41,3.12,3.12,0,0,1-5-.6,11.51,11.51,0,0,1-.8-4.84c.09-4.06.14-6.09.23-10.14a10.4,10.4,0,0,0-1.6-6,5,5,0,0,0-4.44-2.25q-2.84,0-5.48,3.22a18.14,18.14,0,0,0-3.69,7.16c.06,4.78.09,7.17.16,11.95,0,1.88-.7,2.82-2.09,2.84Q34,53.38,34,49.49c0-2.59.76-6.54,1.1-10.89.18-2.3-.16-7.21-.49-14.13s-.5-10.66-.5-11.21a2.59,2.59,0,0,1,.58-1.58,1.92,1.92,0,0,1,1.57-.76,1.83,1.83,0,0,1,1.57.73,3.11,3.11,0,0,1,.58,2v18q4-7.05,9.92-7.13a8,8,0,0,1,6.83,3A11.89,11.89,0,0,1,57.55,35.13Z"/><path class="cls-1" d="M36.46,55.35a4.12,4.12,0,0,1-3-1.17c-1-1-1.52-2.54-1.52-4.69a48.56,48.56,0,0,1,.52-5.66c.21-1.64.44-3.5.59-5.39.13-1.63,0-5-.27-9.34-.07-1.4-.15-2.91-.23-4.54-.45-9.34-.5-10.92-.5-11.3a4.53,4.53,0,0,1,1-2.8,4,4,0,0,1,6.29-.05,5.1,5.1,0,0,1,1,3.24V25.82a11.56,11.56,0,0,1,7.89-3.28,10,10,0,0,1,8.44,3.8,13.92,13.92,0,0,1,2.85,8.79v.07l-.28,8.65c0,.94,0,1.7,0,2.21a3.17,3.17,0,0,0,.2,1,3.57,3.57,0,0,1,1.42.39,2.46,2.46,0,0,1,1.22,2.19,5.42,5.42,0,0,1-1.45,3.77,4.86,4.86,0,0,1-3.55,1.64,4.76,4.76,0,0,1-4.72-2.73,13.05,13.05,0,0,1-1-5.71l.22-10.19a8.45,8.45,0,0,0-1.24-4.85,3,3,0,0,0-2.77-1.39c-1.27,0-2.61.86-4,2.5a16.51,16.51,0,0,0-3.22,6.13l.16,11.68c0,3.55-2.1,4.84-4.07,4.86Zm-.16-4h.19a2.74,2.74,0,0,0,.1-.84l-.09-6.6c0,.14,0,.28,0,.42A47.32,47.32,0,0,0,36,49.49c0,1.5.33,1.85.34,1.85Zm19.12-4.08A8.33,8.33,0,0,0,56,50.57c.11.22.23.47,1.06.48a.85.85,0,0,0,.67-.34l-.14-.05a3.49,3.49,0,0,1-1.85-2.21A8.8,8.8,0,0,1,55.42,47.26ZM51.07,27a7.22,7.22,0,0,1,2.61,2.33,11.26,11.26,0,0,1,1.86,5.35,9.67,9.67,0,0,0-2-5.84A5.55,5.55,0,0,0,51.07,27Zm-14.82-14h-.07a.64.64,0,0,0-.11.34c0,.24,0,1.53.3,7V13.65A1.74,1.74,0,0,0,36.25,12.92Z"/><path class="cls-1" d="M79.12,23.68A10.27,10.27,0,0,1,86.34,26a8,8,0,0,1,2.78,6.38,6.8,6.8,0,0,1-3.44,6.11,16.31,16.31,0,0,1-8.46,2.26,35.86,35.86,0,0,1-7-.67,10.68,10.68,0,0,0,2.9,6.58,7.44,7.44,0,0,0,5.7,2.66,11.07,11.07,0,0,0,3.47-.61,8.77,8.77,0,0,0,2.42-1.18c1.47-1.17,2.44-1.77,2.9-1.78a1.46,1.46,0,0,1,1.1.39,1.33,1.33,0,0,1,.41,1c0,1-1.05,2.23-3.17,3.6a12.84,12.84,0,0,1-6.86,2.14A10.94,10.94,0,0,1,70,49.06c-2.24-2.63-2.73-8.48-3.64-9.62-.52-.66-2.92-1.49-2.92-2.81a1.79,1.79,0,0,1,.47-1.31A1.57,1.57,0,0,1,65,34.83a3.8,3.8,0,0,1,1.65.47,16.63,16.63,0,0,1,4.61-8.25A11.33,11.33,0,0,1,79.12,23.68ZM77,37.29a12.24,12.24,0,0,0,6-1.4,3.94,3.94,0,0,0,2.23-3.47,5.18,5.18,0,0,0-1.46-3.69,5.3,5.3,0,0,0-4.16-1.47,8.12,8.12,0,0,0-6.12,2.86,13.26,13.26,0,0,0-3.19,6.43A24.22,24.22,0,0,0,77,37.29Z"/><path class="cls-1" d="M78.73,54.89a12.84,12.84,0,0,1-10.25-4.53c-1.68-2-2.45-5-3.07-7.47a22.48,22.48,0,0,0-.61-2.18l-.48-.31c-1.08-.66-2.88-1.78-2.88-3.77a3.79,3.79,0,0,1,1-2.71A3.62,3.62,0,0,1,65,32.83h.33a18.29,18.29,0,0,1,4.58-7.23,13.27,13.27,0,0,1,9.17-3.92h0a12.18,12.18,0,0,1,8.57,2.8,10,10,0,0,1,3.47,7.89,8.83,8.83,0,0,1-4.38,7.81,18.44,18.44,0,0,1-9.48,2.56,31.93,31.93,0,0,1-4.47-.26,8.7,8.7,0,0,0,1.78,2.8,5.49,5.49,0,0,0,4.2,2,9.51,9.51,0,0,0,2.86-.49,7.12,7.12,0,0,0,1.88-.9c2.23-1.78,3.21-2.16,4-2.18a3.48,3.48,0,0,1,2.55,1,3.34,3.34,0,0,1,1,2.44c0,2.35-2.32,4.14-4.08,5.28a14.91,14.91,0,0,1-7.9,2.46ZM67.81,38.05l.12.14.14.19,0-.21Zm5-3a24.67,24.67,0,0,0,4.21.26h0a10.35,10.35,0,0,0,5-1.13c1.1-.65,1.25-1.24,1.25-1.74a3.17,3.17,0,0,0-.91-2.31,3.37,3.37,0,0,0-2.66-.86A6.15,6.15,0,0,0,75,31.45,11.33,11.33,0,0,0,72.77,35Z"/><path class="cls-1" d="M135.58,33.16l-.28,8.66q0,1.55,0,2.34a5.56,5.56,0,0,0,.33,1.65,1.59,1.59,0,0,0,.75,1,3.11,3.11,0,0,0,.91.22,1.93,1.93,0,0,1,.66.14.46.46,0,0,1,.19.44,3.44,3.44,0,0,1-.91,2.42,2.93,2.93,0,0,1-2.12,1,2.82,2.82,0,0,1-2.89-1.57,11.19,11.19,0,0,1-.8-4.82c.08-4.06.13-6.09.22-10.15a11,11,0,0,0-1.46-6,4.45,4.45,0,0,0-4.08-2.19q-2.62.09-5.1,3.3a19.31,19.31,0,0,0-3.47,7.21c.07,4.78.1,7.17.16,11.95,0,1.88-.69,2.83-2.09,2.87q-2.53.07-2.53-3.81c0-2.59.76-6.55,1.1-10.91.49-6.29-1.88-10.2-5.62-10.09-1.73,0-3.42,1.14-5.07,3.28a19.14,19.14,0,0,0-3.48,7.2c.07,4.78.1,7.17.17,11.95,0,1.87-.7,2.83-2.09,2.87q-2.53.06-2.54-3.82a76.24,76.24,0,0,1,1.1-10.92A57.41,57.41,0,0,0,96.2,31c-.31-2.71-.46-4.38-.46-5a2.75,2.75,0,0,1,.58-1.72,1.88,1.88,0,0,1,1.57-.78,1.82,1.82,0,0,1,1.57.7,2.61,2.61,0,0,1,.57,1.66c0,.63,0,1.39,0,2.29s0,1.67,0,2.29q3.75-7.1,9.37-7.25A7.36,7.36,0,0,1,114.67,25a9.54,9.54,0,0,1,2.83,5q3.75-7.11,9.37-7.28a7.24,7.24,0,0,1,6.42,2.95A12.21,12.21,0,0,1,135.58,33.16Z"/><path class="cls-1" d="M98,54.16A4.06,4.06,0,0,1,95.1,53c-1-1-1.53-2.53-1.53-4.68a77,77,0,0,1,1.1-11.07,60.12,60.12,0,0,0-.45-6c-.43-3.74-.48-4.79-.48-5.26a4.71,4.71,0,0,1,1-2.93,3.86,3.86,0,0,1,3.1-1.57A3.82,3.82,0,0,1,101,23a4.61,4.61,0,0,1,.81,1.53,10.87,10.87,0,0,1,7.46-3.3A9.28,9.28,0,0,1,116,23.46a10.29,10.29,0,0,1,1.87,2.22c2.49-3.21,5.49-4.89,8.94-5a9.3,9.3,0,0,1,8.09,3.74,14.29,14.29,0,0,1,2.68,8.73v.06l-.28,8.67c0,.93,0,1.69,0,2.2a3.26,3.26,0,0,0,.19,1,3.71,3.71,0,0,1,1.4.37,2.46,2.46,0,0,1,1.25,2.2,5.46,5.46,0,0,1-1.44,3.77,4.9,4.9,0,0,1-3.53,1.68,4.76,4.76,0,0,1-4.75-2.68,13.12,13.12,0,0,1-1-5.7l.22-10.19a9,9,0,0,0-1.15-4.89,2.42,2.42,0,0,0-2.33-1.28c-1.11,0-2.31.88-3.58,2.52a17.42,17.42,0,0,0-3,6.23l.16,11.69c0,4.43-3.09,4.87-4,4.89a4.08,4.08,0,0,1-3.06-1.12c-1-1-1.53-2.54-1.53-4.69a50.56,50.56,0,0,1,.51-5.66c.21-1.65.45-3.51.59-5.41.26-3.21-.31-5.8-1.55-7.1a2.66,2.66,0,0,0-2-.84c-1.09,0-2.28.88-3.54,2.51a17.17,17.17,0,0,0-3,6.21l.16,11.69c0,4.45-3.09,4.87-4,4.9Zm-.13-4h.21a2.84,2.84,0,0,0,.1-.87l-.11-7.68a57.59,57.59,0,0,0-.52,6.73c0,1.35.27,1.76.32,1.81Zm17.53-.48h.2a2.6,2.6,0,0,0,.11-.87l-.1-6.53c0,.14,0,.29,0,.43a47.32,47.32,0,0,0-.49,5.16,3.15,3.15,0,0,0,.32,1.81Zm18-4.39a8.33,8.33,0,0,0,.59,3.36c.11.22.23.47,1,.45a1,1,0,0,0,.69-.36l-.12,0a3.44,3.44,0,0,1-1.87-2.2A8.93,8.93,0,0,1,133.45,45.28ZM116,32.21a17.44,17.44,0,0,1,.24,2.11l.17-.45ZM129.12,25a6.67,6.67,0,0,1,2.77,2.5,11.75,11.75,0,0,1,1.68,5.21,10,10,0,0,0-1.88-5.84A5,5,0,0,0,129.12,25Zm-17.73.45a6.82,6.82,0,0,1,2.16,1.53,9.33,9.33,0,0,1,2,3.65l0-.14a7.56,7.56,0,0,0-2.22-4A4.78,4.78,0,0,0,111.39,25.4Zm-13.46.11h-.06a.91.91,0,0,0-.13.5c0,.26,0,1,.25,3,0-.29,0-.6,0-.92q0-1.32,0-2.25A.57.57,0,0,0,97.93,25.51Z"/><path class="cls-1" d="M158.94,29.26,158.67,11a3.14,3.14,0,0,1,.63-2.14,2.45,2.45,0,0,1,1.85-.75q1.22,0,2,1.86,4.45,9.93,5.65,12.4t3.61,7.59c1.61,3.41,2.7,5.66,3.25,6.75q5.4-10.6,9.92-21.84c1.17-2.91,2-4.92,2.53-6a2.55,2.55,0,0,1,2.26-1.73c1.51-.06,2.26.85,2.26,2.73,0,.29,0,1.29-.08,3s-.1,4-.14,6.76,0,5.64,0,8.54,0,5.74,0,8.51.08,5,.14,6.72.08,2.84.08,3.39a2.64,2.64,0,0,1-.66,1.65,2.07,2.07,0,0,1-1.6.85,1.91,1.91,0,0,1-1.6-.74,2.46,2.46,0,0,1-.66-1.6c0-.55,0-1.7.06-3.42.17-6.21.33-11.33.33-15.22V17.55c-4.26,9.49-6.38,14.24-10.64,23.73-.51,1.16-1.22,1.75-2.12,1.79s-1.61-.57-2.12-1.8Q167,26.62,162.91,18.21V29.12c.11,7.3.17,10.94.28,18.23a3.16,3.16,0,0,1-.66,2,2.08,2.08,0,0,1-1.6.85,2,2,0,0,1-1.6-.74,3,3,0,0,1-.66-2Z"/><path class="cls-1" d="M160.85,52.24a3.91,3.91,0,0,1-3-1.45,4.87,4.87,0,0,1-1.14-3.28L157,29.26,156.67,11a5.07,5.07,0,0,1,1.14-3.5,4.4,4.4,0,0,1,3.27-1.42c1.17,0,2.81.46,3.94,3.06,2.94,6.55,4.84,10.7,5.62,12.33s2,4.18,3.61,7.6l1.47,3.09c2.88-5.87,5.57-11.93,8-18.07,1.2-3,2-5,2.58-6.13a4.47,4.47,0,0,1,4-2.89,4,4,0,0,1,3,1.06,4.92,4.92,0,0,1,1.3,3.67c0,.3,0,1.32-.08,3.07s-.1,3.94-.14,6.72-.06,5.62-.06,8.51,0,5.73.06,8.49.08,5,.14,6.68.08,2.89.08,3.45a4.57,4.57,0,0,1-1.1,2.9,4.06,4.06,0,0,1-3.09,1.6,3.91,3.91,0,0,1-3.19-1.44,4.51,4.51,0,0,1-1.14-2.9c0-.56,0-1.73.06-3.48l0-1.32c.15-5.5.29-10.26.29-13.84V26.9l-6.81,15.2a4.37,4.37,0,0,1-3.88,3c-1,0-2.9-.31-4-3-2.58-5.67-4.88-10.68-6.9-15v2.05l.28,18.2a5.06,5.06,0,0,1-1.11,3.32,4,4,0,0,1-3.08,1.6Zm.08-22-.26,17.3a1,1,0,0,0,.18.66s.05,0,.12-.07a1.14,1.14,0,0,0,.22-.78Zm29.5,4.92c-.05,2.16-.12,4.52-.19,7l0,1.33c-.05,1.68-.06,2.82-.06,3.36a.65.65,0,0,0,.18.3s0,0,.12-.07a.79.79,0,0,0,.22-.39c0-.54,0-1.65-.08-3.32s-.1-4-.14-6.76C190.45,36.15,190.44,35.66,190.43,35.16ZM175.75,41l0,0a1.94,1.94,0,0,0,.3-.53l.5-1.1Zm-15-30.81a1.91,1.91,0,0,0-.12.81l.24,16.21V10.11l-.12.05Zm29.75-1.1v5.62c0-.71,0-1.36.05-1.94,0-1.67.08-2.65.08-2.94a2.46,2.46,0,0,0-.08-.74Z"/><path class="cls-1" d="M223.31,34.19a22.3,22.3,0,0,0,.61,6.72c.4,1.74.88,2.7,1.43,2.9a2.29,2.29,0,0,0,.8.2,1.72,1.72,0,0,1,.66.14.44.44,0,0,1,.19.43,3.71,3.71,0,0,1-.8,2.46,3.09,3.09,0,0,1-2.39,1c-1.07,0-1.9-.62-2.48-2a13,13,0,0,1-.89-5.2,14,14,0,0,1-4.05,5.32,9.79,9.79,0,0,1-6,2.3,8,8,0,0,1-5.76-2q-4.41-3.87-4.41-11.36a17.11,17.11,0,0,1,3.47-10.6,11.28,11.28,0,0,1,8.93-4.77,9.85,9.85,0,0,1,7.16,2.56c0-1.87.7-2.84,2.1-2.88q2.53-.09,2.53,3.79C224.41,25.85,223.65,29.82,223.31,34.19Zm-3.2.6c-.11-3.39-.16-5.08-.27-8.48a9.6,9.6,0,0,0-6.92-2.95,8,8,0,0,0-6.2,3.47,12.55,12.55,0,0,0-2.59,7.89,14.62,14.62,0,0,0,1.68,7.43,5,5,0,0,0,4.77,2.78,7.8,7.8,0,0,0,5.62-3A19.3,19.3,0,0,0,220.11,34.79Z"/><path class="cls-1" d="M210,50.53A9.9,9.9,0,0,1,203.31,48c-3.38-3-5.09-7.29-5.09-12.86a19.13,19.13,0,0,1,3.88-11.8,13.2,13.2,0,0,1,10.45-5.57,12,12,0,0,1,6.08,1.33,4,4,0,0,1,3.18-1.65,4,4,0,0,1,3.06,1.11c1,1,1.54,2.53,1.54,4.68a50.56,50.56,0,0,1-.51,5.66c-.21,1.65-.45,3.52-.6,5.42h0a20.93,20.93,0,0,0,.56,6.12,9.39,9.39,0,0,0,.49,1.56,3.49,3.49,0,0,1,1.41.37A2.42,2.42,0,0,1,229,44.58a5.65,5.65,0,0,1-1.26,3.73,5,5,0,0,1-3.86,1.74c-1.09,0-3.14-.32-4.38-3.14-.09-.2-.17-.41-.25-.63a16.09,16.09,0,0,1-1.59,1.49,11.8,11.8,0,0,1-7.2,2.75Zm12.61-7a7.81,7.81,0,0,0,.51,1.76c.05.13.36.81.58.76a1.26,1.26,0,0,0,.92-.3l0,0-.12-.05A3.74,3.74,0,0,1,222.65,43.54Zm-9.44-18.19H213a6.08,6.08,0,0,0-4.69,2.69,10.49,10.49,0,0,0-2.17,6.67,12.85,12.85,0,0,0,1.41,6.43,3.05,3.05,0,0,0,3,1.79,5.9,5.9,0,0,0,4.2-2.29,17.4,17.4,0,0,0,3.39-6.14l-.23-7.27A7.27,7.27,0,0,0,213.21,25.35Zm8.57,0,0,0,.1,3.14s0-.09,0-.14a46.71,46.71,0,0,0,.48-5.16,3.13,3.13,0,0,0-.31-1.79h-.21a2.63,2.63,0,0,0-.11.88Z"/><path class="cls-1" d="M237,26.38c.11,7.39.17,11.08.28,18.46,0,1.83-.7,2.78-2.1,2.82s-2.09-.84-2.09-2.68c.11-7.39.17-11.08.28-18.47-.11-7.38-.17-11.07-.28-18.45,0-1.84.7-2.78,2.09-2.83s2.1.85,2.1,2.68C237.2,15.3,237.14,19,237,26.38Z"/><path class="cls-1" d="M235.11,49.66a3.74,3.74,0,0,1-2.7-1A4.83,4.83,0,0,1,231.12,45l.28-18.5-.28-18.39c0-4.38,3.08-4.83,4-4.86a3.77,3.77,0,0,1,2.87,1,4.87,4.87,0,0,1,1.29,3.65L239,26.38l.28,18.43c0,4.38-3.08,4.82-4,4.85Zm.11-11.08-.1,6.43a2.8,2.8,0,0,0,.06.65h0a2.52,2.52,0,0,0,.1-.82Zm0-31.35a2.55,2.55,0,0,0-.1.83l.09,6.26.1-6.44a2.8,2.8,0,0,0-.06-.65Z"/><path class="cls-1" d="M258.39,18a10.22,10.22,0,0,1,7.22,2.25,8,8,0,0,1,2.78,6.36,6.88,6.88,0,0,1-3.45,6.15,16.56,16.56,0,0,1-8.46,2.33,36.52,36.52,0,0,1-7-.6A10.52,10.52,0,0,0,252.38,41a7.37,7.37,0,0,0,5.7,2.6,11,11,0,0,0,3.47-.64,9.11,9.11,0,0,0,2.43-1.2c1.47-1.19,2.43-1.79,2.89-1.8a1.44,1.44,0,0,1,1.11.38,1.34,1.34,0,0,1,.41,1q0,1.54-3.17,3.63a13,13,0,0,1-6.86,2.2,10.87,10.87,0,0,1-9.09-3.73c-2.25-2.6-2.74-8.45-3.64-9.57-.52-.65-2.92-1.45-2.92-2.77a1.77,1.77,0,0,1,.47-1.31,1.59,1.59,0,0,1,1.13-.51,3.83,3.83,0,0,1,1.65.44,16.94,16.94,0,0,1,4.6-8.31A11.48,11.48,0,0,1,258.39,18Zm-2.1,13.63a12.29,12.29,0,0,0,5.95-1.46,4,4,0,0,0,2.24-3.49A5.12,5.12,0,0,0,263,23a5.24,5.24,0,0,0-4.16-1.44,8.2,8.2,0,0,0-6.12,2.93,13.5,13.5,0,0,0-3.2,6.47A24,24,0,0,0,256.29,31.59Z"/><path class="cls-1" d="M257.85,49.18a12.71,12.71,0,0,1-10.1-4.43c-1.68-2-2.46-5-3.08-7.45a21.52,21.52,0,0,0-.6-2.15l-.47-.28c-1.08-.66-2.89-1.77-2.89-3.77a3.76,3.76,0,0,1,1-2.7,3.61,3.61,0,0,1,2.5-1.12h.35A18.5,18.5,0,0,1,249.17,20a13.45,13.45,0,0,1,9.15-4,12.11,12.11,0,0,1,8.59,2.74,9.9,9.9,0,0,1,3.48,7.87A8.92,8.92,0,0,1,266,34.41a18.66,18.66,0,0,1-9.46,2.64,31.81,31.81,0,0,1-4.5-.22,8.29,8.29,0,0,0,1.78,2.79,5.34,5.34,0,0,0,4.19,2,9.2,9.2,0,0,0,2.86-.52,7.17,7.17,0,0,0,1.88-.91C265,38.37,266,38,266.81,38a3.37,3.37,0,0,1,3.58,3.38c0,2.35-2.32,4.15-4.07,5.3a15.05,15.05,0,0,1-7.9,2.53ZM247,32.42l.17.19.15.21,0-.26Zm5-3a23.45,23.45,0,0,0,4.18.21h0a10.51,10.51,0,0,0,5-1.18c1.11-.66,1.26-1.27,1.26-1.77a3.12,3.12,0,0,0-.91-2.29,3.36,3.36,0,0,0-2.65-.82,6.21,6.21,0,0,0-4.68,2.25A11.31,11.31,0,0,0,252.05,29.38Z"/><path class="cls-1" d="M279.3,33.08c.06,4.14.1,6.21.16,10.35,0,1.88-.69,2.83-2.09,2.88q-2.53.07-2.53-3.81a74.8,74.8,0,0,1,1.1-10.92,58.35,58.35,0,0,0-.47-6.32c-.31-2.68-.47-4.34-.47-5a2.93,2.93,0,0,1,.58-1.79,1.92,1.92,0,0,1,1.57-.81,1.81,1.81,0,0,1,1.57.72A2.64,2.64,0,0,1,279.3,20c0,.61,0,1.38,0,2.32s0,1.72,0,2.34a13.93,13.93,0,0,1,3.45-5.06,7.35,7.35,0,0,1,4.82-2.29,6.14,6.14,0,0,1,3.83.92,2.7,2.7,0,0,1,1.35,2.14,2.61,2.61,0,0,1-.61,1.83,2.09,2.09,0,0,1-1.57.71,3.21,3.21,0,0,1-2.09-1,3,3,0,0,0-1.79-1c-1.21,0-2.63,1.38-4.25,4A22.46,22.46,0,0,0,279.3,33.08Z"/><path class="cls-1" d="M277.27,48.31a4.06,4.06,0,0,1-2.9-1.13c-1-1-1.53-2.53-1.53-4.68a76,76,0,0,1,1.1-11.07,58.89,58.89,0,0,0-.46-5.94c-.43-3.69-.48-4.76-.48-5.23a4.94,4.94,0,0,1,1-3,3.94,3.94,0,0,1,3.12-1.63,3.8,3.8,0,0,1,3.22,1.5,5.1,5.1,0,0,1,.72,1.31l.28-.28a9.28,9.28,0,0,1,6.14-2.83,8,8,0,0,1,5.07,1.29,4.6,4.6,0,0,1,1.05,6.92,4,4,0,0,1-3,1.37,5,5,0,0,1-3.47-1.45,5,5,0,0,0-.53-.42,8.84,8.84,0,0,0-2.48,3,20.57,20.57,0,0,0-2.79,7.14l.16,10.17c0,4.44-3.08,4.88-4,4.9Zm-.12-4h.21a2.73,2.73,0,0,0,.1-.87l-.12-7.55a55.35,55.35,0,0,0-.51,6.62,3.12,3.12,0,0,0,.32,1.8Zm.06-24.6a.74.74,0,0,0-.21.56c0,.26,0,1,.26,3,0-.3,0-.61,0-.95q0-1.38,0-2.28A.64.64,0,0,0,277.21,19.7Zm10.87-.35a7.05,7.05,0,0,1,1.65,1.13,2.09,2.09,0,0,0,.74.47l.1,0a.77.77,0,0,0,.12-.52h0s-.08-.2-.53-.53A3.85,3.85,0,0,0,288.08,19.35Z"/><path class="cls-1" d="M300,5.16a2,2,0,0,1,1.71.7,3.06,3.06,0,0,1,.55,1.86,4.08,4.08,0,0,1-.77,2.28,2.35,2.35,0,0,1-1.93,1.18,2,2,0,0,1-1.74-.72,3.31,3.31,0,0,1-.58-2,3.5,3.5,0,0,1,.8-2.25A2.52,2.52,0,0,1,300,5.16Zm1.54,26.14.28,11.56c0,1.84-.7,2.78-2.1,2.81s-2.09-.86-2.09-2.7c.11-4.63.16-6.94.27-11.58l-.27-11.56c0-1.84.7-2.77,2.09-2.81s2.1.86,2.1,2.7C301.73,24.35,301.67,26.67,301.56,31.3Z"/><path class="cls-1" d="M299.66,47.67a3.78,3.78,0,0,1-2.73-1A4.91,4.91,0,0,1,295.65,43l.28-11.62-.28-11.47c0-3.52,2.09-4.81,4-4.86a4,4,0,0,1,2.87,1,4.91,4.91,0,0,1,1.28,3.66l-.28,11.58.28,11.52c0,3.51-2.09,4.8-4,4.85Zm.08-8.71L299.65,43a2.91,2.91,0,0,0,.06.66h0a2.44,2.44,0,0,0,.1-.81Zm0-19.94a3,3,0,0,0-.09.81l.09,3.92.1-4.08a2.65,2.65,0,0,0-.07-.65Zm-.25-5.84a4,4,0,0,1-3.24-1.51,5.25,5.25,0,0,1-1-3.24,5.43,5.43,0,0,1,1.25-3.51A4.54,4.54,0,0,1,300,3.16a3.84,3.84,0,0,1,3.35,1.5,4.92,4.92,0,0,1,1,3.06,6.11,6.11,0,0,1-1.11,3.4,4.32,4.32,0,0,1-3.54,2.06Zm-.1-4h.13s.13,0,.33-.29a2.22,2.22,0,0,0,.43-1.17,1.56,1.56,0,0,0-.09-.56h-.12c-.11,0-.24,0-.45.28a1.46,1.46,0,0,0-.36,1A1.77,1.77,0,0,0,299.39,9.18Z"/><path class="cls-1" d="M331.65,31a22.41,22.41,0,0,0,.61,6.74c.4,1.74.88,2.71,1.43,2.92a2.29,2.29,0,0,0,.8.21,1.89,1.89,0,0,1,.66.15.46.46,0,0,1,.19.44,3.64,3.64,0,0,1-.8,2.44,3,3,0,0,1-2.39,1c-1.07,0-1.9-.64-2.48-2a13.06,13.06,0,0,1-.88-5.21A13.83,13.83,0,0,1,324.73,43a9.65,9.65,0,0,1-6,2.23A8.11,8.11,0,0,1,313,43.14q-4.41-3.91-4.41-11.41A16.94,16.94,0,0,1,312,21.17,11.1,11.1,0,0,1,321,16.5a10,10,0,0,1,7.16,2.66c0-1.88.7-2.83,2.1-2.86q2.53,0,2.53,3.84C332.75,22.73,332,26.69,331.65,31Zm-3.2.57-.27-8.49a9.68,9.68,0,0,0-6.92-3,7.91,7.91,0,0,0-6.2,3.39,12.43,12.43,0,0,0-2.59,7.86,14.75,14.75,0,0,0,1.68,7.45,5.1,5.1,0,0,0,4.77,2.84,7.71,7.71,0,0,0,5.62-2.88A19,19,0,0,0,328.45,31.61Z"/><path class="cls-1" d="M318.5,47.21a10.08,10.08,0,0,1-6.86-2.58c-3.37-3-5.08-7.33-5.08-12.9A19,19,0,0,1,310.44,20a13.07,13.07,0,0,1,10.47-5.46A12.07,12.07,0,0,1,327,15.92a3.89,3.89,0,0,1,3.18-1.61,4.1,4.1,0,0,1,3,1.14c1,1,1.53,2.54,1.53,4.69a50.56,50.56,0,0,1-.51,5.66c-.21,1.65-.45,3.51-.6,5.4h0a21,21,0,0,0,.56,6.13,7.52,7.52,0,0,0,.51,1.59,3.52,3.52,0,0,1,1.41.39,2.44,2.44,0,0,1,1.22,2.19,5.61,5.61,0,0,1-1.26,3.72,5,5,0,0,1-3.89,1.7c-1.1,0-3.12-.36-4.36-3.19-.09-.21-.17-.43-.25-.65A17.1,17.1,0,0,1,326,44.54a11.71,11.71,0,0,1-7.22,2.67ZM331,40.45a7.26,7.26,0,0,0,.49,1.68c.06.14.36.79.61.79h0a1.2,1.2,0,0,0,.9-.27l0,0-.16-.07A3.74,3.74,0,0,1,331,40.45Zm-9.57-18.38h-.13a5.93,5.93,0,0,0-4.67,2.62,10.32,10.32,0,0,0-2.17,6.63,13,13,0,0,0,1.41,6.45,3.15,3.15,0,0,0,3,1.84,5.78,5.78,0,0,0,4.18-2.22,17,17,0,0,0,3.38-6.08L326.21,24A7.37,7.37,0,0,0,321.44,22.07Zm8.68.14,0,0,.1,3.17,0-.11a46.92,46.92,0,0,0,.48-5.16,3.19,3.19,0,0,0-.32-1.83s-.06,0-.15,0h-.06a2.8,2.8,0,0,0-.1.86Z"/><path class="cls-1" d="M366.37,40.31c.86.08,1.43.27,1.43.82a3.92,3.92,0,0,1-.74,2.15,2.66,2.66,0,0,1-2.34,1.13,2.72,2.72,0,0,1-2.51-1.73,16.48,16.48,0,0,1-1.3-5.61c-2.68,5-6.08,7.46-10.19,7.53a8.87,8.87,0,0,1-6.17-2.22,12.82,12.82,0,0,1-3.7-5.28,17.58,17.58,0,0,1-1.1-6,16.31,16.31,0,0,1,3.64-10.54,11.69,11.69,0,0,1,9.31-4.61,12.85,12.85,0,0,1,7.83,2.6q.11-7.67.11-11.22c0-2.37.17-3.84.52-4.42A1.88,1.88,0,0,1,362.87,2a2.29,2.29,0,0,1,1.93.94,4.6,4.6,0,0,1,.74,2.83c0,1.25-.07,2.78-.22,4.6s-.37,4.23-.66,7.23-.63,5.8-.72,8.14a63.52,63.52,0,0,0,.5,10.52C364.77,38.79,365.49,40.24,366.37,40.31Zm-5.84-9V22.58a10.77,10.77,0,0,0-7.83-3.09,8,8,0,0,0-6.2,3.35,11.85,11.85,0,0,0-2.67,7.68A13.74,13.74,0,0,0,345.76,38,5.81,5.81,0,0,0,351,41Q356.78,40.92,360.53,31.35Z"/><path class="cls-1" d="M350.55,46.6a10.8,10.8,0,0,1-7.32-2.72A14.74,14.74,0,0,1,339,37.79a19.4,19.4,0,0,1-1.23-6.73,18.33,18.33,0,0,1,4.08-11.79,13.65,13.65,0,0,1,10.84-5.36,14.09,14.09,0,0,1,5.9,1.19c.05-3.38.07-6,.07-7.81,0-3.62.39-4.76.81-5.46A3.89,3.89,0,0,1,362.85,0a4.36,4.36,0,0,1,3.53,1.71,6.51,6.51,0,0,1,1.16,4.06c0,1.31-.07,2.87-.23,4.77s-.37,4.25-.66,7.26l-.21,2.07c-.22,2.17-.43,4.21-.5,5.94A62.43,62.43,0,0,0,366.42,36a7.73,7.73,0,0,0,.6,2.38c2.5.39,2.78,2,2.78,2.75a5.87,5.87,0,0,1-1.08,3.27,4.62,4.62,0,0,1-4,2,4.74,4.74,0,0,1-4.31-2.81,9.49,9.49,0,0,1-.59-1.45,12.1,12.1,0,0,1-9.09,4.45Zm12.87-6.49a7.4,7.4,0,0,0,.56,1.65c.34.66.59.65.71.65.55,0,.65-.16.71-.24s0,0,0,0A3.68,3.68,0,0,1,363.42,40.11ZM352.89,21.49h-.16a6.06,6.06,0,0,0-4.67,2.61,9.79,9.79,0,0,0-2.23,6.42,11.88,11.88,0,0,0,1.62,6.4A3.82,3.82,0,0,0,351,39c2.89,0,5.43-2.75,7.57-8V23.48A8.61,8.61,0,0,0,352.89,21.49Zm13.65,16.83ZM342.06,27.85a15.89,15.89,0,0,0-.31,3.21,15.58,15.58,0,0,0,1,5.35,10.06,10.06,0,0,0,.8,1.69,16.25,16.25,0,0,1-1.7-7.58A15.51,15.51,0,0,1,342.06,27.85ZM362.85,4a16.08,16.08,0,0,0-.21,3.29c0,2.39,0,6.17-.11,11.24v.34l.15-1.46c.29-3,.51-5.38.66-7.2s.21-3.26.21-4.44a2.65,2.65,0,0,0-.32-1.6.33.33,0,0,0-.33-.17Z"/><path class="cls-1" d="M385.08,15.31a11.63,11.63,0,0,1,9.28,4.19A15.21,15.21,0,0,1,398,29.82a15.39,15.39,0,0,1-3.69,10.4,11.87,11.87,0,0,1-9.31,4.3,11.6,11.6,0,0,1-9.26-4.16,15.12,15.12,0,0,1-3.64-10.3,15.54,15.54,0,0,1,3.66-10.42A11.83,11.83,0,0,1,385.08,15.31Zm6.33,22.35a11.9,11.9,0,0,0,2.68-7.83,12.07,12.07,0,0,0-2.56-7.77,7.84,7.84,0,0,0-6.37-3.17,8.17,8.17,0,0,0-6.47,3.29A12,12,0,0,0,376,30a12,12,0,0,0,2.57,7.75,7.81,7.81,0,0,0,6.36,3.16A8.15,8.15,0,0,0,391.41,37.66Z"/><path class="cls-1" d="M384.92,46.52a13.61,13.61,0,0,1-10.69-4.84,17.18,17.18,0,0,1-4.13-11.62,17.5,17.5,0,0,1,4.14-11.71,13.76,13.76,0,0,1,10.83-5h.08a13.61,13.61,0,0,1,10.73,4.88A17.27,17.27,0,0,1,400,29.82a17.39,17.39,0,0,1-4.18,11.7,13.81,13.81,0,0,1-10.82,5Zm.28-25.63h0a6.22,6.22,0,0,0-4.94,2.56A10,10,0,0,0,378,30a9.93,9.93,0,0,0,2.12,6.5,5.88,5.88,0,0,0,4.77,2.41h0a6.19,6.19,0,0,0,4.94-2.55h0a10,10,0,0,0,2.22-6.56A10,10,0,0,0,390,23.32,5.87,5.87,0,0,0,385.2,20.89Z"/></g></g></svg>