<svg xmlns="http://www.w3.org/2000/svg" viewBox="0 0 400.17 55.83"><defs><style>.cls-1{fill:#181818;stroke:#181818;stroke-miterlimit:10;stroke-width:4px;}</style></defs><g id="Layer_2" data-name="Layer 2"><g id="Layer_1-2" data-name="Layer 1"><path class="cls-1" d="M27.91,41.88a11.06,11.06,0,0,1-3.75,8.47,13.79,13.79,0,0,1-9.65,3.48A17.26,17.26,0,0,1,6,51.68c-2.65-1.44-4-2.89-4-4.32A1.93,1.93,0,0,1,2.52,46a1.77,1.77,0,0,1,1.35-.55,3.35,3.35,0,0,1,1.85.71,18.12,18.12,0,0,1,1.93,1.57,8.5,8.5,0,0,0,2.76,1.56,11,11,0,0,0,4.1.7,9.61,9.61,0,0,0,6.43-2.21,7.31,7.31,0,0,0,2.56-5.84,6.37,6.37,0,0,0-2.07-4.53,22.35,22.35,0,0,0-5-3.77q-3-1.66-5.9-3.42A19.36,19.36,0,0,1,5.5,26a8.34,8.34,0,0,1-2.07-5.46,8.66,8.66,0,0,1,3.39-6.79,12,12,0,0,1,7.92-2.89,17.6,17.6,0,0,1,7.71,1.49q3.19,1.53,3.2,3.45a1.8,1.8,0,0,1-.52,1.38,1.86,1.86,0,0,1-1.35.51,3.35,3.35,0,0,1-1.66-.45,10.33,10.33,0,0,1-1.51-1,6.57,6.57,0,0,0-2.13-1,12.85,12.85,0,0,0-3.83-.44,7.68,7.68,0,0,0-4.6,1.64,4.79,4.79,0,0,0-2.21,3.92,5.62,5.62,0,0,0,2.07,4.19,27.25,27.25,0,0,0,5,3.56c2,1.11,3.93,2.28,5.9,3.49a18.66,18.66,0,0,1,5,4.51A9.42,9.42,0,0,1,27.91,41.88Z"/><path class="cls-1" d="M57.57,35.15c-.11,3.46-.16,5.2-.27,8.66,0,1,0,1.81,0,2.34a5.62,5.62,0,0,0,.33,1.65,1.65,1.65,0,0,0,.75,1,2.92,2.92,0,0,0,.91.24,1.89,1.89,0,0,1,.66.15.46.46,0,0,1,.19.44,3.39,3.39,0,0,1-.91,2.41,3.11,3.11,0,0,1-5-.6,11.32,11.32,0,0,1-.8-4.84c.09-4.06.13-6.09.22-10.15a10.4,10.4,0,0,0-1.6-6,5,5,0,0,0-4.44-2.24c-1.89,0-3.72,1.1-5.48,3.22a18.25,18.25,0,0,0-3.7,7.15c.07,4.79.1,7.18.17,12,0,1.87-.7,2.82-2.1,2.83-1.69,0-2.53-1.26-2.53-3.86s.76-6.54,1.1-10.9c.18-2.29-.17-7.21-.5-14.13s-.49-10.66-.49-11.22a2.51,2.51,0,0,1,.58-1.57,2,2,0,0,1,3.14,0,3.2,3.2,0,0,1,.58,2v18q4-7,9.92-7.13a8,8,0,0,1,6.84,3A12,12,0,0,1,57.57,35.15Z"/><path class="cls-1" d="M79.16,23.69A10.3,10.3,0,0,1,86.38,26a8.05,8.05,0,0,1,2.78,6.38,6.82,6.82,0,0,1-3.44,6.12,16.41,16.41,0,0,1-8.47,2.26,36,36,0,0,1-7-.68,10.68,10.68,0,0,0,2.9,6.59,7.46,7.46,0,0,0,5.7,2.66,11.14,11.14,0,0,0,3.48-.61,8.92,8.92,0,0,0,2.42-1.18c1.47-1.17,2.44-1.77,2.9-1.78a1.47,1.47,0,0,1,1.1.39,1.36,1.36,0,0,1,.41,1q0,1.55-3.17,3.6a12.79,12.79,0,0,1-6.86,2.14A11,11,0,0,1,70,49.08c-2.24-2.63-2.73-8.48-3.64-9.63-.52-.66-2.92-1.49-2.92-2.81a1.79,1.79,0,0,1,.47-1.3,1.57,1.57,0,0,1,1.13-.49,3.76,3.76,0,0,1,1.65.46,16.67,16.67,0,0,1,4.61-8.25A11.35,11.35,0,0,1,79.16,23.69ZM77.06,37.3a12.1,12.1,0,0,0,6-1.4,4,4,0,0,0,2.24-3.47,5.2,5.2,0,0,0-1.46-3.69,5.34,5.34,0,0,0-4.17-1.47,8.16,8.16,0,0,0-6.12,2.86,13.31,13.31,0,0,0-3.19,6.43A23.49,23.49,0,0,0,77.06,37.3Z"/><path class="cls-1" d="M135.64,33.18l-.28,8.66q0,1.54,0,2.34a5.56,5.56,0,0,0,.33,1.65,1.61,1.61,0,0,0,.74,1,3.27,3.27,0,0,0,.91.22,1.94,1.94,0,0,1,.67.14.48.48,0,0,1,.19.44,3.48,3.48,0,0,1-.91,2.43,3,3,0,0,1-2.12,1,2.83,2.83,0,0,1-2.9-1.57,11.35,11.35,0,0,1-.8-4.82c.09-4.06.13-6.09.22-10.15a10.93,10.93,0,0,0-1.46-6,4.39,4.39,0,0,0-4.08-2.19q-2.61.08-5.1,3.29a19.35,19.35,0,0,0-3.47,7.22c.07,4.78.1,7.17.16,12,0,1.88-.69,2.84-2.09,2.88-1.69,0-2.54-1.23-2.54-3.82s.77-6.55,1.11-10.92c.49-6.28-1.88-10.2-5.63-10.09q-2.59.07-5.07,3.28a19.26,19.26,0,0,0-3.47,7.2c.06,4.79.1,7.18.16,12,0,1.88-.7,2.83-2.09,2.87q-2.54.06-2.54-3.82a76.24,76.24,0,0,1,1.1-10.92,59.47,59.47,0,0,0-.46-6.38c-.32-2.71-.47-4.39-.47-5a2.75,2.75,0,0,1,.58-1.72,1.9,1.9,0,0,1,1.57-.78,1.82,1.82,0,0,1,1.57.7,2.65,2.65,0,0,1,.58,1.67q0,.93,0,2.28c0,.91,0,1.67,0,2.29q3.75-7.09,9.38-7.25A7.34,7.34,0,0,1,114.71,25a9.48,9.48,0,0,1,2.84,5q3.75-7.11,9.38-7.29a7.26,7.26,0,0,1,6.42,2.95A12.3,12.3,0,0,1,135.64,33.18Z"/><path class="cls-1" d="M159,29.27,158.74,11a3.17,3.17,0,0,1,.63-2.15,2.49,2.49,0,0,1,1.85-.75q1.22,0,2,1.86,4.45,9.94,5.65,12.41t3.61,7.59q2.43,5.13,3.25,6.75,5.4-10.6,9.93-21.84c1.17-2.91,2-4.93,2.53-6a2.55,2.55,0,0,1,2.26-1.73c1.51-.05,2.26.86,2.26,2.73,0,.3,0,1.3-.08,3s-.1,4-.14,6.76-.05,5.64-.05,8.55,0,5.74.05,8.51.09,5,.14,6.72.08,2.84.08,3.39a2.64,2.64,0,0,1-.66,1.65,2.11,2.11,0,0,1-1.6.86,2,2,0,0,1-1.6-.75,2.46,2.46,0,0,1-.66-1.6c0-.55,0-1.7.06-3.42.17-6.22.33-11.33.33-15.23V17.55c-4.26,9.5-6.39,14.25-10.64,23.75-.52,1.16-1.22,1.75-2.12,1.78s-1.61-.56-2.13-1.8Q167.07,26.63,163,18.22V29.14c.11,7.29.17,10.94.28,18.24a3.15,3.15,0,0,1-.66,2,2.1,2.1,0,0,1-1.6.85,1.9,1.9,0,0,1-1.6-.74,3,3,0,0,1-.66-2Z"/><path class="cls-1" d="M223.41,34.2a22.73,22.73,0,0,0,.6,6.73c.41,1.73.89,2.7,1.44,2.9a2.23,2.23,0,0,0,.8.2,1.72,1.72,0,0,1,.66.14.46.46,0,0,1,.19.43,3.77,3.77,0,0,1-.8,2.46,3.1,3.1,0,0,1-2.4,1c-1.06,0-1.89-.62-2.48-2a13,13,0,0,1-.88-5.21,14.14,14.14,0,0,1-4,5.33,9.78,9.78,0,0,1-6,2.3,8,8,0,0,1-5.76-2q-4.41-3.87-4.41-11.37a17,17,0,0,1,3.47-10.59,11.22,11.22,0,0,1,8.93-4.78,9.82,9.82,0,0,1,7.17,2.56c0-1.88.7-2.84,2.09-2.89,1.69,0,2.54,1.21,2.54,3.8S223.75,29.83,223.41,34.2Zm-3.2.61c-.11-3.4-.17-5.09-.28-8.48a9.56,9.56,0,0,0-6.92-3,8,8,0,0,0-6.2,3.47,12.49,12.49,0,0,0-2.59,7.89,14.69,14.69,0,0,0,1.68,7.44A5,5,0,0,0,210.67,45a7.8,7.8,0,0,0,5.62-3A19.53,19.53,0,0,0,220.21,34.81Z"/><path class="cls-1" d="M237.13,26.4c.11,7.38.17,11.07.28,18.46,0,1.83-.7,2.78-2.09,2.82s-2.1-.84-2.1-2.68c.11-7.39.17-11.09.28-18.48-.11-7.38-.17-11.08-.28-18.46,0-1.84.7-2.78,2.1-2.83s2.09.85,2.09,2.69C237.3,15.31,237.24,19,237.13,26.4Z"/><path class="cls-1" d="M258.5,18a10.21,10.21,0,0,1,7.22,2.25,8,8,0,0,1,2.78,6.37,6.88,6.88,0,0,1-3.44,6.14,16.63,16.63,0,0,1-8.47,2.34,36.68,36.68,0,0,1-7-.6,10.53,10.53,0,0,0,2.9,6.55,7.4,7.4,0,0,0,5.7,2.6,11.14,11.14,0,0,0,3.48-.64,9.18,9.18,0,0,0,2.42-1.2c1.47-1.19,2.44-1.79,2.9-1.8a1.45,1.45,0,0,1,1.1.37,1.34,1.34,0,0,1,.41,1c0,1-1.05,2.24-3.17,3.63a13,13,0,0,1-6.86,2.2,10.89,10.89,0,0,1-9.1-3.73c-2.24-2.61-2.73-8.46-3.64-9.58-.52-.64-2.92-1.45-2.92-2.77a1.81,1.81,0,0,1,.47-1.31,1.63,1.63,0,0,1,1.13-.51,4,4,0,0,1,1.65.44,17,17,0,0,1,4.61-8.31A11.48,11.48,0,0,1,258.5,18ZM256.4,31.6a12.25,12.25,0,0,0,6-1.46,4,4,0,0,0,2.23-3.49A5.12,5.12,0,0,0,263.13,23,5.23,5.23,0,0,0,259,21.54a8.2,8.2,0,0,0-6.12,2.93,13.5,13.5,0,0,0-3.2,6.47A24,24,0,0,0,256.4,31.6Z"/><path class="cls-1" d="M279.42,33.09c.06,4.15.1,6.22.16,10.36,0,1.88-.69,2.83-2.09,2.88q-2.53.08-2.54-3.82a75.09,75.09,0,0,1,1.11-10.92,58.35,58.35,0,0,0-.47-6.32c-.32-2.68-.47-4.34-.47-5a2.92,2.92,0,0,1,.58-1.78,1.93,1.93,0,0,1,1.57-.82,1.82,1.82,0,0,1,1.57.73,2.64,2.64,0,0,1,.58,1.66c0,.61,0,1.38,0,2.32s0,1.72,0,2.34a13.93,13.93,0,0,1,3.45-5.06,7.35,7.35,0,0,1,4.82-2.29,6.12,6.12,0,0,1,3.83.91,2.74,2.74,0,0,1,1.36,2.14,2.67,2.67,0,0,1-.61,1.84,2.12,2.12,0,0,1-1.57.71,3.23,3.23,0,0,1-2.1-1,3,3,0,0,0-1.79-1c-1.21,0-2.63,1.38-4.24,4A22.37,22.37,0,0,0,279.42,33.09Z"/><path class="cls-1" d="M300.15,5.17a1.93,1.93,0,0,1,1.71.69,3.07,3.07,0,0,1,.55,1.87,4.13,4.13,0,0,1-.77,2.28,2.38,2.38,0,0,1-1.93,1.18,2,2,0,0,1-1.74-.73,3.21,3.21,0,0,1-.58-2,3.51,3.51,0,0,1,.8-2.26A2.54,2.54,0,0,1,300.15,5.17Zm1.54,26.14L302,42.88c0,1.84-.7,2.78-2.1,2.81s-2.09-.86-2.09-2.7c.11-4.63.16-7,.27-11.58l-.27-11.57c0-1.84.69-2.78,2.09-2.81s2.1.86,2.1,2.7C301.86,24.36,301.8,26.68,301.69,31.31Z"/><path class="cls-1" d="M331.79,31.06a23.15,23.15,0,0,0,.61,6.74c.4,1.74.88,2.71,1.43,2.92a2.29,2.29,0,0,0,.8.21,1.83,1.83,0,0,1,.66.15.46.46,0,0,1,.2.44,3.69,3.69,0,0,1-.8,2.44,3.06,3.06,0,0,1-2.4,1c-1.07,0-1.89-.64-2.48-2a13.15,13.15,0,0,1-.88-5.22A13.86,13.86,0,0,1,324.87,43a9.71,9.71,0,0,1-6,2.23,8.13,8.13,0,0,1-5.77-2.07q-4.41-3.93-4.41-11.42a16.9,16.9,0,0,1,3.48-10.56,11.08,11.08,0,0,1,8.93-4.67,9.94,9.94,0,0,1,7.16,2.66c0-1.88.7-2.83,2.1-2.86q2.53,0,2.54,3.84C332.9,22.74,332.13,26.7,331.79,31.06Zm-3.19.56-.28-8.49a9.68,9.68,0,0,0-6.92-3,7.89,7.89,0,0,0-6.2,3.39,12.37,12.37,0,0,0-2.59,7.86,14.79,14.79,0,0,0,1.68,7.46,5.1,5.1,0,0,0,4.77,2.84,7.74,7.74,0,0,0,5.62-2.88A19.3,19.3,0,0,0,328.6,31.62Z"/><path class="cls-1" d="M366.53,40.33c.86.07,1.43.26,1.43.81a3.87,3.87,0,0,1-.75,2.16,2.64,2.64,0,0,1-2.34,1.13,2.76,2.76,0,0,1-2.51-1.73,16.52,16.52,0,0,1-1.29-5.61c-2.69,5-6.09,7.46-10.2,7.53a8.91,8.91,0,0,1-6.18-2.22A12.9,12.9,0,0,1,341,37.11a17.54,17.54,0,0,1-1.1-6,16.31,16.31,0,0,1,3.64-10.54,11.63,11.63,0,0,1,9.31-4.61,12.84,12.84,0,0,1,7.83,2.59c.08-5.11.11-8.85.11-11.22s.18-3.84.53-4.41A1.84,1.84,0,0,1,363,2a2.31,2.31,0,0,1,1.93.94,4.53,4.53,0,0,1,.75,2.83c0,1.25-.08,2.79-.22,4.61s-.37,4.23-.66,7.23-.63,5.8-.72,8.14a63.52,63.52,0,0,0,.5,10.52C364.93,38.81,365.65,40.26,366.53,40.33Zm-5.85-9V22.59a10.74,10.74,0,0,0-7.83-3.09,8,8,0,0,0-6.2,3.35A11.85,11.85,0,0,0,344,30.53,13.79,13.79,0,0,0,345.91,38a5.81,5.81,0,0,0,5.23,3Q356.93,40.94,360.68,31.36Z"/><path class="cls-1" d="M385.24,15.32a11.65,11.65,0,0,1,9.29,4.18,15.26,15.26,0,0,1,3.64,10.34,15.35,15.35,0,0,1-3.69,10.39,11.87,11.87,0,0,1-9.32,4.31,11.63,11.63,0,0,1-9.26-4.16,15.12,15.12,0,0,1-3.64-10.3,15.52,15.52,0,0,1,3.67-10.43A11.78,11.78,0,0,1,385.24,15.32Zm6.34,22.36a12,12,0,0,0,2.68-7.84,12,12,0,0,0-2.57-7.77,7.83,7.83,0,0,0-6.36-3.17,8.15,8.15,0,0,0-6.48,3.29A12,12,0,0,0,376.17,30a12,12,0,0,0,2.57,7.76A7.82,7.82,0,0,0,385.1,41,8.19,8.19,0,0,0,391.58,37.68Z"/></g></g></svg>