<svg xmlns="http://www.w3.org/2000/svg" viewBox="0 0 51.27 77.24"><defs><style>.cls-1{fill:#404040;}</style></defs><g id="Layer_2" data-name="Layer 2"><g id="Layer_1-2" data-name="Layer 1"><path class="cls-1" d="M1.86,55l9.71-5.76,12.29,7c1.45.82,2.87,1.71,4.36,2.43,4.68,2.26,9.67.79,12.06-3.49a8.57,8.57,0,0,0-3.07-11.79c-5.77-3.63-11.77-6.89-17.66-10.31a35.71,35.71,0,0,1-3.43-2c-2.43-1.82-3-4.22-1.7-6.54a4.56,4.56,0,0,1,6.5-1.78c8,4.46,16.14,8.73,23.6,14,7.23,5.07,8.67,15.66,4.25,23.44-4.54,8-14.4,12-22.76,8.16C17.91,64.54,10.34,59.69,1.86,55Z"/><path class="cls-1" d="M35.91,47.66c1.32,2.46,1.68,4.62-.48,6.73-2.28,1.38-4.57.91-6.89-.43-6.61-3.83-13.36-7.44-19.85-11.45A18.5,18.5,0,0,1,26.32,10.05c3.59,1.67,6.93,3.87,10.43,5.85V26.4c-2.24-1.13-3.8-1.85-5.3-2.68-2.75-1.54-5.4-3.29-8.22-4.69-5.18-2.58-10.29-1-12.81,3.79-2.24,4.24-.81,9.17,3.83,12C20.36,38.54,26.61,42,32.79,45.59,33.93,46.26,35,47.05,35.91,47.66Z"/><path class="cls-1" d="M28.92,73.87C21.59,79.16,13.19,78.63.17,69.42V59.26C10.19,63.41,18.29,70.78,28.92,73.87Z"/><path class="cls-1" d="M48.71,7l-8.93,5.3L22.44,3.57C29.14-2.57,39.4-.37,48.71,7Z"/><path class="cls-1" d="M50.71,11V21.6L42,26.8V16Z"/></g></g></svg>