<svg xmlns="http://www.w3.org/2000/svg" viewBox="0 0 179.67 400"><defs><style>.cls-1{fill:#fdfeff;}</style></defs><g id="Layer_2" data-name="Layer 2"><g id="Layer_1-2" data-name="Layer 1"><path class="cls-1" d="M88.58,1.09,99.26,21.14a60.05,60.05,0,0,0,8.06,10,279.54,279.54,0,0,1,25.05,28.32c18.08,23.75,30.28,50.12,39,78.64a193.52,193.52,0,0,1,8.28,53.37c.87,54-17.65,100.43-55,139A158.43,158.43,0,0,1,105,347.27c-3.7,0-5.45-2.84-7-5.45a45.19,45.19,0,0,1-5.45-15.69,76.09,76.09,0,0,1-1.75-19.82v-3.05c-.3-.65-3.56-300.63-2.26-302.17Z"/><path class="cls-1" d="M88.58.43c-.44-.87-.87-.21-1.31.21.21,4.38-1.31,8.28-3.7,12-2.63,3.7-6.1,6.54-9.59,9.59C54.61,39,39.36,59.26,27.15,81.92c-16.25,30.5-24.62,63.19-27,97.6C-.94,191.93,4.08,235.72,8,248.36,18.66,281.91,37.84,310,62.67,334.42A242.11,242.11,0,0,0,82,351c2,0,2.18-1.75,2.63-3.05a58.83,58.83,0,0,0,2-8.5L91,306.76Z"/><path class="cls-1" d="M99.26,360.54c.43-5,2.83-9.15,5.45-13.29a13.67,13.67,0,0,1-6.1-5.66,39.4,39.4,0,0,1-3.25-7.19c-3-9.14-3.7-18.74-4.58-28.09v-5.67c-1.09.88-1.31,8.28-1.31,9.38a217.31,217.31,0,0,1-3.93,29.41c-.65,3.92-1.08,7.84-3.5,11.32a4.22,4.22,0,0,0,.22,1.53c3.92,11.55,5,23.31,5.66,35.3V392c0,5.23-.21,4.13,4.12,5.88,1.75.65,3.7.87,5.45,2.17,1.32,0,1.53-1.09,1.53-2l-.65-7.19V370.8a53.86,53.86,0,0,1,.87-10.25Z"/></g></g></svg>