<svg xmlns="http://www.w3.org/2000/svg" viewBox="0 0 400 400"><defs><style>.cls-1{fill:#fff;}</style></defs><g id="Layer_2" data-name="Layer 2"><g id="Layer_1-2" data-name="Layer 1"><path class="cls-1" d="M186.9.11c-.86.08-3.6.35-6.06.55C124,5.78,70.81,36.43,37.11,83.54A197.83,197.83,0,0,0,1.8,170.91C.2,181.9,0,185.14,0,200s.2,18.14,1.8,29.12c10.87,75.11,64.32,138.21,136.81,161.58a211,211,0,0,0,42.23,8.76c6.06.67,32.26.67,38.32,0,26.86-3,49.62-9.62,72.06-21.07,3.44-1.76,4.11-2.23,3.64-2.62-.31-.23-15-19.9-32.57-43.67l-32-43.2-40.08-59.31C168.17,197,150,170.37,149.87,170.37s-.31,26.31-.39,58.48c-.12,56.34-.15,58.61-.86,59.93a7.07,7.07,0,0,1-3.44,3.56c-1.25.63-2.35.75-8.25.75h-6.76l-1.8-1.14a7.21,7.21,0,0,1-2.62-2.85l-.82-1.76L125,209l.12-78.42,1.21-1.53a10.83,10.83,0,0,1,2.9-2.38c1.6-.78,2.23-.86,9-.86,8,0,9.31.31,11.38,2.58.59.62,22.29,33.31,48.25,72.68s61.47,93.12,78.9,119.51l31.68,48,1.6-1.06a205.07,205.07,0,0,0,41.09-36A199,199,0,0,0,398.2,229.16c1.6-11,1.8-14.23,1.8-29.12s-.2-18.14-1.8-29.13C387.33,95.81,333.88,32.71,261.39,9.33A210.32,210.32,0,0,0,219.75.62C216,.22,190.15-.21,186.9.11Zm81.88,121a7.91,7.91,0,0,1,4,4.61c.31,1,.39,22.75.31,71.74l-.12,70.29-12.39-19-12.44-19V178.62c0-33,.16-51.61.39-52.51a8,8,0,0,1,3.88-4.93c1.6-.82,2.19-.89,8.32-.89,5.79,0,6.81.07,8.1.78Z"/></g></g></svg>