<svg xmlns="http://www.w3.org/2000/svg" viewBox="0 0 362.98 400"><defs><style>.cls-1{fill:#181818;}</style></defs><g id="Layer_2" data-name="Layer 2"><g id="Layer_1-2" data-name="Layer 1"><path class="cls-1" d="M165.11,4.27a33.52,33.52,0,0,1,32.75,0q74.77,42.26,149.57,84.48A30.78,30.78,0,0,1,363,115.27V284.75c.07,11.25-6.82,21.94-16.71,27.1q-74.53,42-149,84.08a32.62,32.62,0,0,1-33.11-.92q-22.34-13-44.71-25.86c-3-1.82-6.48-3.26-8.63-6.21,1.9-2.56,5.3-2.88,8.06-4,6.22-2,11.93-5.15,17.64-8.23a4.12,4.12,0,0,1,4.59.27c12.74,7.31,25.37,14.82,38.15,22.06,2.73,1.57,5.49-.52,7.82-1.82q73.14-41.34,146.34-82.58a4.84,4.84,0,0,0,2.65-4.77q.06-83.85,0-167.73a5.23,5.23,0,0,0-3.12-5.23Q258.65,69.07,184.41,27.2a5.15,5.15,0,0,0-5.83,0Q104.31,69,30.07,110.93a5.19,5.19,0,0,0-3.14,5.21q0,83.87,0,167.74a4.76,4.76,0,0,0,2.69,4.71Q49.45,299.83,69.29,311c7.44,4,16.59,6.39,24.79,3.32a18.8,18.8,0,0,0,12.18-17.68c.07-55.58,0-111.17,0-166.75a4.19,4.19,0,0,1,4.56-4.27c6.35,0,12.71-.09,19.06,0,2.65-.06,4.47,2.59,4.14,5.08,0,55.93.07,111.87,0,167.8,0,14.91-6.11,31.13-19.9,38.43-17,8.8-38,6.93-54.76-1.51C44.84,328.18,31,319.62,16.7,311.85,6.79,306.72-.07,296,0,284.75V115.27A30.84,30.84,0,0,1,16.09,88.42Q90.61,46.36,165.11,4.27Z"/><path class="cls-1" d="M208.46,121.67c21.66-1.39,44.86-.83,64.36,9.85,15.1,8.18,23.47,25.35,23.73,42.12-.42,2.26-2.78,3.51-4.94,3.35-6.29,0-12.58.09-18.87,0-2.66.1-4.21-2.36-4.55-4.71-1.8-8-6.18-16-13.73-19.85-11.6-5.8-25-5.51-37.69-5.39-9.23.49-19.15,1.29-27,6.72-6,4.11-7.83,12.41-5.68,19.09,2,4.8,7.56,6.35,12.09,7.78,26.11,6.83,53.78,6.15,79.4,15.14,10.6,3.66,21,10.78,24.61,21.89,4.75,14.88,2.66,32.67-7.92,44.61-8.59,9.83-21.1,15.19-33.57,18.09-16.59,3.7-33.81,3.8-50.66,2.15-15.84-1.8-32.33-6-44.56-16.76-10.46-9.08-15.57-23.23-15.07-36.89a4.23,4.23,0,0,1,4.63-3.73c6.33-.05,12.66-.07,19,0a4.45,4.45,0,0,1,4.54,4.39c1.17,7.64,4,15.67,10.71,20.2,12.86,8.3,29,7.74,43.74,8,12.21-.54,25.91-.71,35.87-8.77,5.26-4.61,6.81-12.31,5.39-18.93-1.54-5.59-7.38-8.2-12.41-9.9-25.78-8.15-53.76-5.19-79.29-14.42-10.36-3.66-20.38-10.58-24.36-21.23-5.56-15.07-3-33.71,8.68-45.25,11.41-11.49,27.87-15.91,43.53-17.49Z"/></g></g></svg>