<svg xmlns="http://www.w3.org/2000/svg" viewBox="0 0 313.04 400"><defs><style>.cls-1{fill:#111827;}.cls-2{fill:#fff;}.cls-3{fill:#f19320;}</style></defs><g id="Layer_2" data-name="Layer 2"><g id="Layer_1-2" data-name="Layer 1"><path class="cls-1" d="M313,192.13V0H0V192.28c0,.16,0,.66,0,1.47,0,9.08,2,57.12,40.59,118,42.19,66.57,111.82,87.15,114.75,88l1.06.29,1-.29c2.95-.85,72.79-21.42,115-88,42.1-66.33,40.65-117.44,40.57-119.58"/><path class="cls-2" d="M146.58,23.1a176.61,176.61,0,0,0-28.48-2.35c-12.06,0-22.94,3.63-27.72,5.47-4.79-1.84-15.66-5.47-27.71-5.47A176.66,176.66,0,0,0,34.18,23.1l-1.72.31v81l2.52-.55a137.28,137.28,0,0,1,26.17-2.28,95.17,95.17,0,0,1,28.52,5l.71.26.71-.26a95.18,95.18,0,0,1,28.53-5,137.06,137.06,0,0,1,26.15,2.28l2.53.55v-81Z"/><path class="cls-1" d="M88.38,30a76.25,76.25,0,0,0-25.63-5,181.57,181.57,0,0,0-26,2V88.28a148.2,148.2,0,0,1,24.54-1.92,97.85,97.85,0,0,1,27.13,4.3V30Z"/><path class="cls-1" d="M118.19,25a76.59,76.59,0,0,0-25.82,5V90.73a97.48,97.48,0,0,1,27.34-4.36,148.72,148.72,0,0,1,24.53,1.9V27a180.25,180.25,0,0,0-26.05-2"/><path class="cls-2" d="M48.25,35.23a2.43,2.43,0,0,0-1.87,3.09A3,3,0,0,0,49.94,40a94.94,94.94,0,0,1,14.48-1.4c6,0,12.77,2.73,12.84,2.76a3,3,0,0,0,3.66-1.44,2.41,2.41,0,0,0-1.67-3.19c-.33-.11-7.76-3-14.83-3a100.4,100.4,0,0,0-16.17,1.6"/><path class="cls-2" d="M48.25,47.4a2.43,2.43,0,0,0-1.87,3.09,3,3,0,0,0,3.56,1.62,97,97,0,0,1,14.48-1.39c6,0,12.77,2.73,12.84,2.76A3,3,0,0,0,80.92,52a2.38,2.38,0,0,0-1.67-3.17c-.33-.11-7.76-3.07-14.83-3.07A98.63,98.63,0,0,0,48.25,47.4"/><path class="cls-2" d="M48.25,59.57a2.43,2.43,0,0,0-1.87,3.09,3,3,0,0,0,3.56,1.62,96.39,96.39,0,0,1,14.48-1.4c6,0,12.77,2.74,12.84,2.76a3,3,0,0,0,3.66-1.44A2.38,2.38,0,0,0,79.25,61c-.33-.1-7.76-3.07-14.83-3.07a97.42,97.42,0,0,0-16.17,1.61"/><path class="cls-2" d="M48.25,71.74a2.43,2.43,0,0,0-1.87,3.09,3,3,0,0,0,3.56,1.62,96.39,96.39,0,0,1,14.48-1.4c6,0,12.77,2.74,12.84,2.76a3,3,0,0,0,3.66-1.44,2.38,2.38,0,0,0-1.67-3.17c-.33-.11-7.76-3.08-14.83-3.08a98.11,98.11,0,0,0-16.17,1.62"/><path class="cls-2" d="M132.92,35.23a2.43,2.43,0,0,1,1.88,3.09A3,3,0,0,1,131.24,40a95.15,95.15,0,0,0-14.49-1.4c-6,0-12.75,2.73-12.82,2.76a3,3,0,0,1-3.66-1.44,2.39,2.39,0,0,1,1.66-3.19c.32-.11,7.76-3,14.82-3a100.08,100.08,0,0,1,16.17,1.6"/><path class="cls-2" d="M132.92,47.4a2.43,2.43,0,0,1,1.88,3.09,3,3,0,0,1-3.56,1.62,97.25,97.25,0,0,0-14.49-1.39c-6,0-12.75,2.73-12.82,2.76A3,3,0,0,1,100.27,52a2.37,2.37,0,0,1,1.66-3.17c.32-.11,7.76-3.07,14.82-3.07a98.32,98.32,0,0,1,16.17,1.61"/><path class="cls-2" d="M132.92,59.57a2.43,2.43,0,0,1,1.88,3.09,3,3,0,0,1-3.56,1.62,96.6,96.6,0,0,0-14.49-1.4c-6,0-12.75,2.74-12.82,2.76a3,3,0,0,1-3.66-1.44A2.36,2.36,0,0,1,101.93,61c.32-.1,7.76-3.07,14.82-3.07a97.12,97.12,0,0,1,16.17,1.61"/><path class="cls-2" d="M132.92,71.74a2.43,2.43,0,0,1,1.88,3.09,3,3,0,0,1-3.56,1.62,96.6,96.6,0,0,0-14.49-1.4c-6,0-12.75,2.74-12.82,2.76a3,3,0,0,1-3.66-1.44,2.37,2.37,0,0,1,1.66-3.17c.32-.11,7.76-3.08,14.82-3.08a97.8,97.8,0,0,1,16.17,1.62"/><path class="cls-2" d="M266.21,307.28C228.29,367.1,165.35,388.9,156.6,391.69c-8.71-2.8-71.45-24.59-109.35-84.41S7.85,199.38,7.85,192.84c0-.47,0-.73,0-.77v-68H305.58v67.87s0,.31,0,.8c0,6.72-1.4,54.7-39.39,114.55"/><path class="cls-1" d="M291.55,179.16a14.67,14.67,0,0,0-8.12-10.08c-10.38-5.5-23.94-1.64-35.83,2.4-9,3.06-11.67,4-21.84,5.54-7.68,1.18-33.36,4.51-41.48-2.21a8,8,0,0,1-2.45-4.42,11.58,11.58,0,0,1,2-7.2c2-2.25,6.84-3.33,14.63-3.33l19.88.31c1.24,1.6,4.42,4.17,12.5,5.9,12.84,2.74,27-1.72,27-1.72a11.81,11.81,0,0,1-4.28-1.92,3.9,3.9,0,0,1-1.56-3.21,16.29,16.29,0,0,0,7,1.24c5.13-.15,7.52-2.59,12.31-3.81a26.93,26.93,0,0,1,10.13-.21s-4.84-5.18-9.65-6.1-10.76.32-10.76.32a14.39,14.39,0,0,0,3.28-2.28,6.33,6.33,0,0,0,1.72-3.49,32.19,32.19,0,0,1-11.56,1.91c-5.82-.3-5.39-2.41-16.69-2.71-8.57-.23-15.65,4.86-18.58,7.34-9.16-.6-16.37-.92-20.6-.92-11.64,0-18.36,1.91-22.48,6.37-3.43,3.73-4.92,8.57-4.43,14.37a15.89,15.89,0,0,0,6,11.26c10.86,9,40,6.24,50.33,4.41,11.55-2,15-2.93,21.69-5.14l.38-.13c5.18-1.74,20.93-7,27.53-3.49a6,6,0,0,1,2.83,4.06,9.45,9.45,0,0,1,.37,2.49,5.32,5.32,0,0,1-1.27,3.55c-6,7.36-28.64,8.62-38.46,9.14a76.38,76.38,0,0,0-16.37-1.78c-5.84,0-10.73.34-15.9.72a164.66,164.66,0,0,1-35.41-.4,122.42,122.42,0,0,1-19.89-3.8,11.24,11.24,0,0,0-3.2-6.2c3.88,1.26,8.94-3,10.36-5.15,0-.21-6.9-2-7.32-6.51,0-.14,4.88.41,6.92-6.3-4.88-2.64-3.35-3.62-5.7-6.91a9.9,9.9,0,0,0-8.75-4.27A6.7,6.7,0,0,0,149,156c2.12-1.07,3.59-4,5.7-3.86-4.25-6.65-15.66-7.52-20.4-6.12,1.22-1.51,3.09-3.19,3.12-5.27-6.31,1.74-12.49-1.53-18.86-.34-5.27,1-8.28,3.13-9.93,8.14h-.23c-1.66-5-4.66-7.15-10-8.14-6.35-1.19-12.54,2.08-18.84.34,0,2.08,1.89,3.76,3.1,5.27-4.72-1.4-16.13-.53-20.39,6.12,2.12-.12,3.58,2.79,5.7,3.86a5.74,5.74,0,0,0,3.25.82,9.92,9.92,0,0,0-8.74,4.27c-2.36,3.29-.82,4.27-5.7,6.91,2,6.71,6.93,6.16,6.92,6.3-.42,4.48-7.3,6.3-7.33,6.51,1.43,2.13,6.48,6.41,10.38,5.15-3.2,3.58-3.73,6.31-3,9.91-5-3.76-9.86-7.92-12.46-11.37-.61-.88-2.56-7.29-3.85-11.53l-1-3.45-.52-1.84c-1.55-5.71-3-10.49-5.65-11.12a13,13,0,0,0-3.84-.35,7.59,7.59,0,0,0-3.6-3.33c-3-.92-4.47-.26-4.47-.26a11.68,11.68,0,0,1,3.26,3.55,5.91,5.91,0,0,1,.42,1.3,9.77,9.77,0,0,0-1.44,1l-.23.17c-.31.25-.73.6-1.18,1a3.25,3.25,0,0,0-.62-.13c-3.12-.41-4.45.49-4.45.49a14.39,14.39,0,0,1,2.95,2,9.93,9.93,0,0,0-2,5.85c0,.23,0,.47.05.73-3,.22-4.09,1.3-4.09,1.3A12,12,0,0,1,25.36,172a4.24,4.24,0,0,1,.41.46l-.23.27a5.67,5.67,0,0,0-.87,3.13,10.44,10.44,0,0,0,3.46,7.25L34,188c2.12,4.73,4.46,8.88,6,10.63.48.6,3.75,6.23,7.22,12.2l1.41,2.43c.74,3.65,1.59,8.21,2,11.79a80.15,80.15,0,0,1,0,13.62s4.18-.2,6.07-2.92A27.68,27.68,0,0,1,58,245.27a77.24,77.24,0,0,1-1.18,9A42.65,42.65,0,0,0,64,249.4a26.2,26.2,0,0,0,4-5.07c3.36,2.14,13-1.29,17.79-3.21a41.11,41.11,0,0,0,4,6.4c.71-2.87,3.78-4.32,5.21-6.62h1.3c.18,3.15-.73,6.12,2.24,12a69.69,69.69,0,0,0,8,11c-1.13,5.34-3.3,15.08-5.53,23-2.57,9.13-4.64,13.66-5.82,15.76-3.44.17-9.71.38-11.71.29-4.77-.23-8.31.78-10.5,3a6.48,6.48,0,0,0-.44.49c-1.66.23-3.57.76-4.61,1.92-2.08,2.36-2.09,4-2.09,4a11.62,11.62,0,0,1,4.57-1.5c.15,0,.29,0,.42,0v.4a6.5,6.5,0,0,0,.74,2.12,4,4,0,0,0-.85.79c-1.91,2.49-1.81,4.1-1.81,4.1a11.7,11.7,0,0,1,4.4-1.8c.61,1,1.3,2,2,3a2.34,2.34,0,0,0-.25.3c-1.72,2.64-1.49,4.23-1.49,4.23a12.86,12.86,0,0,1,3.76-2,19,19,0,0,0,1.82,1.86c2.87,2.53,10,.89,19-1.51l5.6-1.39c4-.73,6.41-2.32,8.22-5.28a19.55,19.55,0,0,0,1.44-3.69l.52-1.57a43.72,43.72,0,0,1,4.7-9.73c.09-.12,2.51-4,5.81-9.39,2.92-2.43,6.44-5.25,9-7,3.91-2.63,11.7-6.61,11.7-6.61s-2.08-3.37-5.18-3.84c-.06,0,3.95-4.07,7.31-5.52a46.13,46.13,0,0,1,8.66-2.54,15.42,15.42,0,0,0-4.53-5.41,15,15,0,0,0,3.49-1.9c6.57-4.29,11.42-4.13,16-2.85.18-3-.57-4.79-3.13-6.5a42.59,42.59,0,0,1,6.76-2.27c1.5,2.57,3.19,5.42,4,6.51a134.42,134.42,0,0,0,12.61,15.55.77.77,0,0,1,.15.57c0,1.72-2.1,6.5-3.31,9.23l-1,2.37-5.36,12.6c-2.42.14-9.43.53-11.88.4-4.65-.22-8.1.76-10.24,2.89a6.67,6.67,0,0,0-.71.83c-1.73.31-3.81.94-4.84,2.25-1.95,2.49-1.87,4.07-1.87,4.07a11.79,11.79,0,0,1,4.48-1.75,6.26,6.26,0,0,1,.87,0,7.88,7.88,0,0,0,.81,2.15,4.19,4.19,0,0,0-1.15,1.15c-1.73,2.63-1.5,4.21-1.5,4.21a11.66,11.66,0,0,1,4.31-2.14l.22,0c.46.72,1,1.46,1.5,2.18a4.8,4.8,0,0,0-.51.59c-1.72,2.64-1.5,4.24-1.5,4.24a11.65,11.65,0,0,1,4.18-2.12,18.55,18.55,0,0,0,1.73,1.78c2.75,2.42,8.62,1,16.62-1.32l5.7-1.49c3.86-.72,6.26-2.26,8-5.16l1.5-3.23a39.64,39.64,0,0,1,2.12-4.45c.93-1.45,1.9-3.21,2.89-5.11,1.34-1.14,2.58-2.19,3.47-2.87,2.55-1.95,9-5.52,9-5.52s-1.3-2.84-3.94-3.11a25.43,25.43,0,0,1,5.7-4.71,25.9,25.9,0,0,1,6.62-2.05,28.68,28.68,0,0,0-5.34-3.58,16.11,16.11,0,0,0-3.29-.87,11.59,11.59,0,0,0-2.11-4.74c-2.27-3.52,1.06-11.07,3.44-15.35a96.82,96.82,0,0,0,6.95,8.5S234.42,272,237,274.75A150.13,150.13,0,0,1,232.3,290a122,122,0,0,1-5.83,12.91c-2.78.15-9.08.48-11.39.37-4.64-.23-8.09.75-10.23,2.88a6.61,6.61,0,0,0-.89,1.1,7.38,7.38,0,0,0-4.15,2.2c-1.9,2.51-1.79,4.12-1.79,4.12a7.44,7.44,0,0,1,4.44-1.84h.34a10,10,0,0,0,.86,2.12,4.46,4.46,0,0,0-1.13,1.12c-1.72,2.64-1.5,4.23-1.5,4.23a11.46,11.46,0,0,1,4.31-2.15l.2,0c.61.92,1.27,1.86,1.94,2.75l0,0c-1.73,2.62-1.49,4.23-1.49,4.23a13.08,13.08,0,0,1,3.46-1.94,18.23,18.23,0,0,0,1.45,1.46c2.76,2.43,8.66,1,16.68-1.32l5.64-1.49c3.87-.71,6.27-2.26,8-5.16.79-1.29,4.3-9.46,5.26-11.82,1.73-4.24,3.68-8.62,5.58-12.63.95-.81,1.83-1.53,2.55-2,3.16-2.19,9.91-6,9.91-6s-1.35-2.89-3.94-3.11a37.32,37.32,0,0,1,5.32-4.28c2.48-1.59,7-2.48,7-2.48a34.93,34.93,0,0,0-5.56-3.47,21,21,0,0,0-4.63-1.17c-.4-1.91-1.36-2.56-2.82-3.29a16.53,16.53,0,0,1-5.76-4.73c-3.46-4.08-4-11.87-4-19.64,0-1.71,0-3.42.05-5.1v-7.46a71.34,71.34,0,0,0-2.72-18.93c11.44-1,32.4-3.35,41-13.85a16.86,16.86,0,0,0,3.88-10.87,21.69,21.69,0,0,0-.79-5.57"/><path class="cls-2" d="M209.5,274.56c1.52-1.41,2.28-2.18,2.28-3.18s-.56-1.89-1.69-3.65a8.32,8.32,0,0,1-1.21-4.6c0-5.63,3.75-12.41,5.23-14.87-.42-.53-1-1.3-1.76-2.31l-.95-.64a27.84,27.84,0,0,1-5-4.77c-.21-.28-.42-.64-.65-1a56.83,56.83,0,0,0-18.2,2c2.35,1.35,2.9,3.1,3,5.35a35.86,35.86,0,0,0-13.05-.61c1.33,2.27,2.69,4.54,3.32,5.45a134.4,134.4,0,0,0,12.3,15.17,3.45,3.45,0,0,1,.94,2.56c0,2.48-1.57,6-3.51,10.42l-1,2.34-6,14.22-.88.05c-.41,0-9.95.61-13.07.46-3.4-.17-6,.41-7.61,1.66a4.07,4.07,0,0,1,.08,2.31,2.91,2.91,0,0,1-1.52,1.87,5,5,0,0,0,.26.51,18.66,18.66,0,0,1,3.65-.81,3.91,3.91,0,0,1,.61,3.06,4,4,0,0,1-1.4,2.32l.39.55a17.65,17.65,0,0,1,4.43-1.09,5.21,5.21,0,0,1,.73,3.44,2.88,2.88,0,0,1-1.13,1.84c2.55.81,9.15-1.08,13.26-2.27l6-1.55c3.06-.57,4.77-1.65,6.1-3.83l1.33-2.87a38.39,38.39,0,0,1,2.34-4.86c1.83-2.89,3.91-7.11,5.91-11.21,2.62-5.31,4.88-9.91,6.54-11.45"/><path class="cls-3" d="M95.66,237.86c0,.06,0,.11,0,.17h0a1.15,1.15,0,0,1-.06-.17"/><path class="cls-2" d="M83.37,221.44c-1.85,2.78-5.2,4.08-9.54,4.61a16,16,0,0,0-1.52-10.71c-1.4-3-5.21-9-6.34-12.32-.32-1-.62-1.83-.91-2.67-6-4.39-12.66-9.73-16-14.14-.78-1.05-2-4.77-4.31-12.43l-1-3.44-.54-1.92c-1.54-5.64-2.75-8.7-3.6-9.1a8.29,8.29,0,0,0-1.63-.25h0s-.27,1.73-3.16,1.59a3.63,3.63,0,0,1-1.69-.51,6.68,6.68,0,0,0-.68.5l-.25.18-.42.36a18.34,18.34,0,0,1,2.92,3.54,3.75,3.75,0,0,1-2.86,2.16A3.65,3.65,0,0,1,29,166a4.86,4.86,0,0,0-.2-1.34,6.84,6.84,0,0,0-.64,4.57,18.12,18.12,0,0,1,4.19,3.25s0,1.67-2.36,2.83a2.61,2.61,0,0,1-2.35-.09A7.1,7.1,0,0,0,30.07,181l6.24,5.17.15.31c2,4.48,4.31,8.68,5.67,10.23.52.57,2.38,3.74,7.55,12.65C56.53,221.16,66.9,239,69.57,242c1,1,8.1-.69,15.07-3.47-2.48-6.9-.32-11.12-1.27-17.05"/><path class="cls-2" d="M288.81,179.9a11.77,11.77,0,0,0-6.71-8.31c-9.36-5-22.23-1.28-33.55,2.58-9.64,3.29-12.3,4.12-22.33,5.66-10.22,1.57-34.94,4.44-43.73-2.84a10.64,10.64,0,0,1-3.49-6.37c-.28-3.51,1.2-7.68,2.75-9.38,2.7-3,7.86-4.26,16.74-4.26l20.69.32,1.56-1.39-1.52-1.63c-9.21-.61-16.46-.94-20.66-.94-10.76,0-16.86,1.64-20.38,5.47-2.87,3.11-4.1,7.21-3.69,12.18a13.18,13.18,0,0,0,5,9.3c9.24,7.65,36.34,5.87,48,3.79,11.37-2,14.76-2.87,21.3-5l.38-.13c6-2,22.08-7.39,29.78-3.3a8.76,8.76,0,0,1,4.22,5.84c.95,3.45.49,6.26-1.43,8.6-6.84,8.37-28.85,9.55-40.68,10.19h-.26l-.2-.05a76.08,76.08,0,0,0-15.93-1.75c-5.71,0-10.54.34-15.66.72a167.12,167.12,0,0,1-36-.4,128.14,128.14,0,0,1-19.63-3.72,52.09,52.09,0,0,1-2.32,8c-1.13,3.36-4.93,9.29-6.33,12.31a16.06,16.06,0,0,0-1.54,10.72c-4.33-.54-7.68-1.83-9.53-4.61-1.3,8.14,3.3,13-6.37,26.07-1-3.94-6.39-5.19-5.92-9.65-1.69,4.64,1,7.33-2.85,15-1,1.94-6.39,9.93-9.33,12.26-1.19,5.55-3.29,14.88-5.43,22.57-3,10.48-5.35,15.22-6.52,17.13l-.39.64-.75,0c-3.11.16-10.43.43-12.75.32-3.22-.15-5.74.34-7.41,1.41a4.12,4.12,0,0,1-.26,2.77,3.71,3.71,0,0,1-1.8,1.6,3.69,3.69,0,0,0,.27.59,19.06,19.06,0,0,1,4.18-.64,4.9,4.9,0,0,1,0,3.86A3,3,0,0,1,77.07,317c.2.29.41.57.62.85a18.3,18.3,0,0,1,4.8-1.23s1,1.31.35,4a2.19,2.19,0,0,1-1,1.47c2.91.9,11.1-1.27,15.7-2.5l5.81-1.43c3.16-.59,5-1.69,6.32-4a22.54,22.54,0,0,0,1.15-3.09l.55-1.62a45.1,45.1,0,0,1,5-10.3c6-9.52,23.54-38.3,24.25-40.62a1.36,1.36,0,0,0,0-.42,36,36,0,0,0-1.35-7l-.38-1.36,60.3-17.63L195.65,226l2.07-1.87a72.57,72.57,0,0,1,7,5.72c2.12,2.11,4.17,5.38,6.32,8.84l1.1,1.75a65.45,65.45,0,0,0,4.87,6.76l.09.11.06.11s1.92,3.35,7.89,10l15.1,16.51-.17.74A155.38,155.38,0,0,1,235,291a125.49,125.49,0,0,1-6.35,14l-.38.72-.8,0c-2.91.17-9.91.54-12.49.43-3.2-.16-5.68.34-7.31,1.42a4.08,4.08,0,0,1,0,2.82,4.56,4.56,0,0,1-1.63,1.83l.22.41a18.64,18.64,0,0,1,3.69-.82,5.49,5.49,0,0,1,.62,3.38,2.73,2.73,0,0,1-1.36,2.1l.55.75a17.68,17.68,0,0,1,5.1-1.37,4.71,4.71,0,0,1,.62,3.34,3,3,0,0,1-1.29,1.95c2.93.35,8.8-1.34,12.59-2.44l5.91-1.53c3.06-.57,4.77-1.65,6.11-3.84.58-.94,3.83-8.43,5.05-11.41a251,251,0,0,1,12.27-25.8l1.9-3c1.12-1.67,2.09-3.1,2-4.09-.11-1.34-.19-1.38-1.4-2a19.21,19.21,0,0,1-6.65-5.43c-4.92-5.79-4.77-16.86-4.62-26.62v-7.35c-.25-9.65-1.81-16.1-3.08-19.81l-.59-1.71,1.82-.16c10.55-1,32.51-2.9,40.77-13,3.1-3.83,4-8.62,2.54-13.88"/><path class="cls-2" d="M231.86,66.24a22.3,22.3,0,0,1,3,5.3,21.75,21.75,0,0,1-3,.23,23.55,23.55,0,0,1-3.05-.21,22.61,22.61,0,0,1,3.05-5.32"/><path class="cls-2" d="M219.2,65.58a21.09,21.09,0,0,1-5.59-6.41h.11a21.18,21.18,0,0,1,8.22,1.67,33.09,33.09,0,0,0-2.74,4.74m-18.12-2.13A33.87,33.87,0,0,0,216,79c0,.38,0,.75,0,1.12a33.79,33.79,0,0,0,6,19.26,20.92,20.92,0,0,1-20.85-35.93M250,59.16h.11a21,21,0,0,1-5.59,6.39,34.64,34.64,0,0,0-2.68-4.72A21.08,21.08,0,0,1,250,59.16m-36.28-13.1c-.88,0-1.77.07-2.65.13a20.95,20.95,0,0,1,41.55.06L250,46.06a34,34,0,0,0-18.1,5.22,34,34,0,0,0-18.17-5.22m34,33a34.2,34.2,0,0,0,14.87-15.58,21,21,0,0,1-20.84,36,33.7,33.7,0,0,0,6-19.29Zm-18.53,3.77,2.63.19c.89,0,1.76-.06,2.63-.13a20.26,20.26,0,0,1-2.63,7.75,20.71,20.71,0,0,1-2.63-7.81M265.87,50c0-.36.06-.73.06-1.09a34.07,34.07,0,1,0-68.14,0l0,1.1a34.05,34.05,0,1,0,34,58.92,34,34,0,0,0,52.18-28.81A34.28,34.28,0,0,0,265.87,50"/><path class="cls-1" d="M238.33,82.49a33.9,33.9,0,0,0,5.57-1.61,29.89,29.89,0,0,1-5.54,16.85,20.79,20.79,0,0,1-4.14-3.63,24.68,24.68,0,0,0,4.11-11.61"/><path class="cls-1" d="M231.86,18.85a30.25,30.25,0,0,1,0,60.5l-2.77-.2a19.91,19.91,0,0,1,1-5.39l1.77.12a24.78,24.78,0,1,0-24.64-27,33.57,33.57,0,0,0-5.59,1.61,30.28,30.28,0,0,1,30.23-29.66"/><path class="cls-1" d="M250,50.06l2.76.21a20.49,20.49,0,0,1-1,5.39L250,55.55A24.76,24.76,0,0,0,239.44,58a34,34,0,0,0-4.17-4.06A30.07,30.07,0,0,1,250,50.06"/><path class="cls-1" d="M213.72,110.58a30.26,30.26,0,1,1,27.54-42.77,20.84,20.84,0,0,1-5.2,1.82,24.85,24.85,0,1,0-11.73,33,35.35,35.35,0,0,0,4.15,4.06,30,30,0,0,1-14.76,3.87"/><path class="cls-1" d="M209.52,59.79a25.1,25.1,0,0,0,8.19,9.63,32.79,32.79,0,0,0-1.37,5.65,30.21,30.21,0,0,1-12-13.46,20.63,20.63,0,0,1,5.19-1.82"/><path class="cls-1" d="M250,110.58a30.29,30.29,0,0,1-30.25-30.26,29.86,29.86,0,0,1,5.58-17.48,20.76,20.76,0,0,1,4.14,3.64A24.78,24.78,0,1,0,264.09,60a34.13,34.13,0,0,0,1.38-5.68A30.25,30.25,0,0,1,250,110.58"/><path class="cls-2" d="M130.94,170.43c1.79-1.25,6.07-4.8,3.79-9.1-2.43-4.55-8-2.7-9.65-2-.23-.24-12.56-5.6-12.73-5.51.12-.07-4.81,5.71-4.81,5.71s-4.9-5.78-4.8-5.71c-.18-.09-12.5,5.27-12.73,5.51-1.65-.68-7.22-2.53-9.64,2-2.3,4.3,2,7.85,3.78,9.1l0,.1-4,7c.07-.12,11.62,14,11.62,14s0,9.08,0,9.12,4.6,3.09,4.94,3.18c.74,3.46,1,5.25,1.77,7.13.26.6,4.66,1.88,8.95,1.95h.34c4.27-.07,8.68-1.35,8.93-1.95.82-1.88,1-3.67,1.77-7.13.36-.09,4.92-3.18,4.92-3.18s0-9.1,0-9.12,11.55-14.11,11.61-14l-4-7a.69.69,0,0,1-.05-.1"/><path class="cls-1" d="M101.72,171l-.38,6L91,171.13Z"/><path class="cls-1" d="M115.1,177.16c.05.47,1.64,14.38,1.64,14.38l-7.92,4.3c0,.4,0,4.79,0,5.13a15.47,15.47,0,0,0,3.12,1.88,8.91,8.91,0,0,0,5.13.44l.64-.16-.54,1.91-.24,0a13.1,13.1,0,0,1-5.33-.17,10.45,10.45,0,0,1-3.37-1.61H107a11.46,11.46,0,0,1-3.45,1.61,13.06,13.06,0,0,1-5.32.17l-.24,0-.54-1.91.63.16a8.94,8.94,0,0,0,5.14-.44,15.17,15.17,0,0,0,3.12-1.88c0-.34,0-4.84,0-5.19-.31-.21-7.9-5.61-7.9-5.61l14.13,0V171.33l11.17-.09h1.41s-9.58,5.68-10,5.93"/></g></g></svg>