<svg xmlns="http://www.w3.org/2000/svg" viewBox="0 0 410.26 400"><defs><style>.cls-1{fill:#fff;}</style></defs><g id="Layer_2" data-name="Layer 2"><g id="Layer_1-2" data-name="Layer 1"><path class="cls-1" d="M168.38,138.8a50.28,50.28,0,0,0-20.17-3.42c-4.45,0-8.38,0-11.63.18a38.41,38.41,0,0,0-7,.17v57.43c2.4.17,4.62.34,6.67.34h9.06A63.91,63.91,0,0,0,165,190.43a29.41,29.41,0,0,0,14-9.06c3.59-4.28,5.3-10.09,5.3-17.61a28.07,28.07,0,0,0-3.93-15.21A24.76,24.76,0,0,0,168.38,138.8Z"/><path class="cls-1" d="M337.61,0h-265A72.59,72.59,0,0,0,0,72.65v254.7A72.59,72.59,0,0,0,72.65,400h265a72.59,72.59,0,0,0,72.65-72.65V72.65A72.59,72.59,0,0,0,337.61,0ZM211.28,199.15A58.57,58.57,0,0,1,183.76,220c-11.62,4.27-24.44,5.81-38.46,5.81-4.1,0-6.84,0-8.55-.17s-4.1-.17-7.35-.17v54.87a2.12,2.12,0,0,1-1.88,2.39H94.36c-1.37,0-2-.68-2-2.22V104.62c0-1.2.51-1.88,1.71-1.88,2.9,0,5.64,0,9.57-.18,4.1-.17,8.38-.17,13-.34s9.57-.17,14.87-.34,10.43-.17,15.56-.17c14,0,25.64,1.71,35.21,5.3a60.93,60.93,0,0,1,22.91,14,54.47,54.47,0,0,1,12.48,19.48,65.54,65.54,0,0,1,3.93,22.23Q221.54,184.79,211.28,199.15Zm121.2,66.49a42.76,42.76,0,0,1-19.15,15.21c-8.37,3.59-18.63,5.47-30.94,5.47a117.56,117.56,0,0,1-23.24-2.22,68.43,68.43,0,0,1-17.44-5.47,3.35,3.35,0,0,1-1.88-3.25V245.64a1.86,1.86,0,0,1,.68-1.54,1.31,1.31,0,0,1,1.54.17,73,73,0,0,0,21.2,8.38,79.5,79.5,0,0,0,20.17,2.56c6.49,0,11.11-.85,14.19-2.39a8,8,0,0,0,4.61-7.18c0-2.39-1.37-4.61-4.1-6.84s-8.38-4.78-16.75-8a104.82,104.82,0,0,1-24.28-12.31,44.28,44.28,0,0,1-13-14.53,36.73,36.73,0,0,1-3.93-17.43A40.25,40.25,0,0,1,246,165.81a42.09,42.09,0,0,1,18-15.72c8-4.11,18.12-6,30.26-6a148,148,0,0,1,21.19,1.54,60.1,60.1,0,0,1,14.71,3.93,3,3,0,0,1,1.7,1.54,8.16,8.16,0,0,1,.35,2V181a2.13,2.13,0,0,1-.86,1.71c-1.54.34-2.39.34-3.07,0a60.46,60.46,0,0,0-16.42-5.82,90.48,90.48,0,0,0-19.14-2.22,34.31,34.31,0,0,0-10.26,1.2,8.78,8.78,0,0,0-5.3,3.42,9.05,9.05,0,0,0-1.36,4.61,7.59,7.59,0,0,0,1.71,4.45,19.25,19.25,0,0,0,5.81,4.61c3.93,2,8,3.93,12.13,5.64a123.82,123.82,0,0,1,26.33,12.48,39.73,39.73,0,0,1,13.5,14.19,36.86,36.86,0,0,1,3.94,17.61A39.82,39.82,0,0,1,332.48,265.64Z"/></g></g></svg>