<svg xmlns="http://www.w3.org/2000/svg" viewBox="0 0 387.98 400"><defs><style>.cls-1{fill:#fff;}</style></defs><g id="Layer_2" data-name="Layer 2"><g id="Layer_1-2" data-name="Layer 1"><path class="cls-1" d="M187.33,254.72c-1-3.4-3.37-6.48-5.83-7.51-3-1.26-4.71-2-8.38,2.15h0c-2.46,2.75-4.24,5-5.8,7-6.84,8.67-10,11.61-30.23,15.79a36.09,36.09,0,0,0-8,2.37,24.91,24.91,0,0,0,7.47,3.21c14.93,3.74,35.73,4,50-16C188.31,259.37,187.79,256.32,187.33,254.72Z"/><path class="cls-1" d="M168.84,217l.83-2.22c1.07-2.89,2.32-5.67,3.65-8.62,6.44-14.3,14.45-32.09,5.21-74.78-1.78-8.25-6.07-13-13.11-14.66-15.43-3.53-37.06,8.06-41.73,12.2,0,.94.11,2.12.19,3.47.57,9.67,1.64,27.65-1.25,48.3A47.13,47.13,0,0,0,135,220.15a39.85,39.85,0,0,0,28.59,12.67A145.73,145.73,0,0,1,168.84,217Zm-14.52-86.24c-.73-1-1.9-2.82-1.67-4.5a3.51,3.51,0,0,1,1.46-2.34c1.87-1.42,5.56-1.94,9.63-1.37,5,.69,10.14,3.06,9.65,6.61-.26,1.84-2,3.64-3.62,4.71a11,11,0,0,1-6.14,2,9.91,9.91,0,0,1-1.33-.09A12.56,12.56,0,0,1,154.32,130.74Z"/><path class="cls-1" d="M274.61,122.27c-11.66,16.66,11.11,57.49,20.83,74.92,2.5,4.48,4.3,7.72,5.13,9.73a54.88,54.88,0,0,0,3,6.09c6.68-14.23,5-28.65,3.27-42.65-.83-6.94-1.69-14.11-1.47-21a147,147,0,0,1,2-18.57A113.14,113.14,0,0,0,309,115C286.88,112.22,278.08,117.31,274.61,122.27Zm24,.37h0c.17,1.25-.78,3.17-2.42,4.9a11.44,11.44,0,0,1-6.44,3.52,8,8,0,0,1-1.19.09c-4.63,0-8.55-3.71-8.85-5.87-.38-2.79,4.17-4.91,8.86-5.56S298.23,119.86,298.62,122.64Z"/><path class="cls-1" d="M293,56.79c17.84,20.76,26.59,43.7,27.31,51.37a8.87,8.87,0,0,1-.19,3c.29,8-.74,14.77-1.75,21.32a138.15,138.15,0,0,0-1.87,17.23c-.19,6,.58,12.49,1.4,19.31,2,16.62,4.24,35.36-7.23,54.3l.56.7,1.35,1.69C357,155.88,372.32,74.92,358.4,57.13c-18.16-23.19-43.79-35.32-76.2-36a146.13,146.13,0,0,0-32.58,3.06A123.05,123.05,0,0,1,293,56.79Z"/><path class="cls-1" d="M111.55,179.12c2.73-19.55,1.7-36.81,1.16-46.08-.16-2.54-.26-4.39-.26-5.69-.08-3.43-.82-58.52,31.12-90.78.28-.28.57-.54.85-.81C124.94,29.41,76.48,16.9,47,37.81,28.89,50.65,20.57,74.56,22.29,108.86c.54,10.84,7.4,49.52,19.14,88,13.57,44.45,29,72.48,42.22,76.91,2,.68,8.22,2.74,17.19-8,12.67-15.24,24.56-28.21,30-34.07q-2.06-1.77-4-3.75A58.26,58.26,0,0,1,111.55,179.12Z"/><path class="cls-1" d="M313.37,245.83c-.57-.37-1.09-.76-1.57-1.14-.77.26-1.56.48-2.37.71-5.17,1.46-10.06,2.83-9.42,16,1.36,1.11,7.13,2.92,18.51,2.38,10.28-.48,21.11-2.73,27.59-5.74A61.78,61.78,0,0,0,362,247.71l-.25,0C338.79,252.51,322.5,251.86,313.37,245.83Z"/><path class="cls-1" d="M305.5,234.88c-.81-1.16-1.88-2.49-3-3.87a77.57,77.57,0,0,1-12.3-19.82c-.58-1.4-2.42-4.71-4.56-8.55-11.65-20.89-35.9-64.38-20.23-86.78,7.21-10.3,21.43-14.43,42.32-12.3C305,95.3,298,80,285.15,64.8,270.23,47.17,243.79,26,202.56,25.33c-21-.34-38.11,6.08-51,19.09-20.48,20.65-26,53.3-27.41,70.78,1-.54,2-1.08,3.09-1.65,5.2-2.63,15.61-7.22,27-8.4,19-2,31.5,6.5,35.25,23.84,10,46.29.78,66.79-5.95,81.75-1.25,2.77-2.43,5.39-3.36,7.91l-.84,2.24a137.22,137.22,0,0,0-4.88,14.61c5-1.27,9.09.44,11.34,1.37,5.65,2.35,10.37,8,12.31,14.77a24.59,24.59,0,0,1,.69,3.28,5.51,5.51,0,0,1,.24,1.78c-1.3,46.48.53,88.57,4.27,97.91,5.78,14.46,14.55,27.11,39.34,21.79,23.91-5.12,32.41-13.73,36.4-36.84,3-17.49,9-67,9.8-77.57C287.8,240.92,299.17,236.71,305.5,234.88Z"/><path class="cls-1" d="M387,239.61c-2.33-7.06-8.44-12-16.34-13.16a37.34,37.34,0,0,0-13,.72,118.2,118.2,0,0,1-20.09,2.64c18-30.36,32.61-65,41-97.58,13.62-52.7,6.34-76.7-2.16-87.56C353.85,15.93,321,.48,281.44,0A167.78,167.78,0,0,0,232.1,6.92a184.35,184.35,0,0,0-28.85-2.64C184.23,4,167.38,8.13,153,16.66a229.42,229.42,0,0,0-35.49-8.9C82.81,2.06,54.84,6.5,34.38,21,9.61,38.45-1.87,68.85.25,111.31c.67,13.48,8.21,54.5,20.09,93.4,6.82,22.36,14.1,40.93,21.63,55.19,10.67,20.23,22.1,32.14,34.92,36.42,7.19,2.4,20.24,4.07,34-7.37A29.41,29.41,0,0,0,118,295.1a47.28,47.28,0,0,0,13.48,5.68c17.23,4.31,33.37,3.23,47.13-2.8.09,2.45.15,4.79.21,6.81.09,3.28.18,6.49.3,9.49.82,20.32,2.2,36.12,6.29,47.17.23.61.53,1.54.85,2.52,2.05,6.25,5.46,16.73,14.15,24.93,9,8.49,19.89,11.1,29.87,11.1a67.43,67.43,0,0,0,13.95-1.55c14.92-3.2,31.87-8.07,44.12-25.52,11.59-16.5,17.22-41.35,18.24-80.5.13-1.11.26-2.17.38-3.18q.11-1,.24-2.07l2.73.24.7.05c15.2.69,33.78-2.53,45.19-7.83C364.86,275.46,393.76,260.2,387,239.61Zm-18,17a75.76,75.76,0,0,1-18.11,11.57c-9.05,4.2-23.48,6.85-36,6.85A55.39,55.39,0,0,1,299,273.06c-2,18.76-6.38,53.75-8.91,68.41-4.73,27.41-16.94,39.85-45.08,45.88a63.07,63.07,0,0,1-13.1,1.49c-27,0-35.5-21.34-39-30.07-4.26-10.67-5.75-45.68-5.44-81.21-9.73,8.8-21.9,13.34-35.73,13.34a73.45,73.45,0,0,1-17.84-2.31c-1.78-.45-17.37-4.63-17.16-14.6.19-9.12,13.21-11.8,18.1-12.81,17.23-3.55,18.34-5,23.69-11.75,1.09-1.38,2.36-3,3.92-4.84,0-.2-.05-.39-.07-.59a49.6,49.6,0,0,1-22.14-6c-4.65,5-17.27,18.58-30.78,34.83-8.14,9.78-16,12.66-22.33,12.66a22.12,22.12,0,0,1-7-1.16c-17.49-5.83-34.1-34.18-49.39-84.26-11.61-38.05-19-77.78-19.61-90.7C9.19,71,19.09,43.86,40.55,28.66c18-12.74,43.18-16.61,74.88-11.5a214.63,214.63,0,0,1,39.14,10.26c13.36-9.12,29.49-13.59,48.17-13.28a124.9,124.9,0,0,1,28.11,3.61c4.07-1.79,25.11-8.16,50-7.87,36.17.38,66.05,14.33,86.41,40.35,5.05,6.45,7.5,17,7.28,31.4-.2,13.09-2.67,29.16-7.14,46.47-9.44,36.53-26.93,75.68-48.19,108.07,3.22,2.36,13,6.28,40.37.63,9.21-1.9,14.75-.23,16.48,5C377.44,246.12,375.06,251.1,368.93,256.59Z"/></g></g></svg>