<svg xmlns="http://www.w3.org/2000/svg" viewBox="0 0 417.59 430.64"><defs><style>.cls-1,.cls-2{fill:#181818;}.cls-1{stroke:#181818;stroke-width:36.16px;}.cls-3,.cls-4{fill:none;stroke-linecap:round;stroke-width:12.05px;}.cls-3,.cls-4,.cls-5,.cls-6{stroke:#fff;}.cls-3{stroke-linejoin:round;}.cls-4{stroke-linejoin:bevel;}.cls-5,.cls-6{fill:#fff;}.cls-5{stroke-width:4.02px;}.cls-6{stroke-width:2.01px;}</style></defs><g id="Layer_2" data-name="Layer 2"><g id="Layer_1-2" data-name="Layer 1"><path class="cls-1" d="M312,313.49c2.74-22.82,1.92-26.16,18.91-22.47l4.32.38c13.07.6,30.16-2.1,40.21-6.77,21.62-10,34.44-26.78,13.12-22.38-48.63,10-52-6.43-52-6.43C388,179.62,409.42,82.9,390.9,59.23c-50.54-64.58-138-34-139.49-33.25l-.47.09a172.28,172.28,0,0,0-32.44-3.38c-22-.37-38.71,5.76-51.37,15.37,0,0-156.07-64.29-148.81,80.86,1.55,30.88,44.27,233.65,95.21,172.41,18.63-22.4,36.62-41.34,36.62-41.34A47.22,47.22,0,0,0,181,257.87l.86-.74a33.86,33.86,0,0,0,.35,8.72c-13.12,14.67-9.27,17.24-35.51,22.64-26.54,5.48-11,15.22-.77,17.76,12.35,3.09,40.91,7.46,60.21-19.55l-.77,3.08c5.15,4.12,4.8,29.61,5.53,47.81s2,35.21,5.66,45.23,8.09,35.82,42.58,28.43C288,405.07,310,396.18,312,313.49"/><path class="cls-2" d="M388.59,262.25c-48.64,10-52-6.44-52-6.44C388,179.62,409.42,82.89,390.9,59.22c-50.54-64.57-138-34-139.49-33.24l-.47.08a174,174,0,0,0-32.44-3.38c-22-.36-38.71,5.77-51.37,15.38,0,0-156.07-64.29-148.81,80.86,1.54,30.88,44.26,233.65,95.21,172.41,18.62-22.4,36.61-41.34,36.61-41.34A47.22,47.22,0,0,0,181,257.87l.87-.74a33.86,33.86,0,0,0,.35,8.72c-13.13,14.67-9.27,17.24-35.51,22.64-26.55,5.48-11,15.22-.77,17.76,12.35,3.09,40.91,7.46,60.2-19.55l-.77,3.08c5.15,4.12,8.76,26.79,8.15,47.35s-1,34.66,3,45.69,8.09,35.82,42.58,28.43c28.82-6.18,43.76-22.18,45.84-48.88,1.47-19,4.81-16.18,5-33.15l2.67-8c3.09-25.73.49-34,18.25-30.17l4.32.38c13.07.59,30.17-2.1,40.21-6.77,21.62-10,34.44-26.78,13.12-22.38Z"/><path class="cls-3" d="M208.23,277c-1.34,47.87.34,96.08,5,107.8s14.72,34.51,49.22,27.12c28.82-6.18,39.3-18.14,43.85-44.53C309.67,348,316.14,294.05,317,283"/><path class="cls-3" d="M166.89,37S10.71-26.84,18,118.31C19.52,149.19,62.24,352,113.19,290.73c18.62-22.4,35.45-40,35.45-40"/><path class="cls-3" d="M251.24,25.34C245.84,27,338.12-8.39,390.56,58.62c18.52,23.67-2.94,120.39-54.29,196.59"/><path class="cls-4" d="M336.26,255.21s3.35,16.48,52,6.44c21.31-4.41,8.48,12.35-13.13,22.38-17.74,8.24-57.5,10.35-58.15-1-1.68-29.35,20.93-20.43,19.3-27.79-1.48-6.62-11.59-13.12-18.27-29.33-5.84-14.15-80.06-122.65,20.58-106.53,3.69-.77-26.25-95.73-120.43-97.27s-91.07,115.79-91.07,115.79"/><path class="cls-3" d="M181.87,265.25c-13.12,14.66-9.26,17.24-35.5,22.64-26.55,5.47-11,15.21-.77,17.76,12.34,3.09,40.9,7.46,60.2-19.56,5.88-8.23,0-21.35-8.11-24.7-3.9-1.62-9.11-3.64-15.82,3.86Z"/><path class="cls-3" d="M181,265c-1.32-8.62,2.84-18.88,7.29-30.88,6.69-18,22.14-36,9.78-93.15-9.21-42.57-71-8.86-71-3.09s2.79,29.26-1,56.61c-5,35.69,22.71,65.88,54.61,62.79"/><path class="cls-5" d="M166.32,137c-.28,2,3.61,7.23,8.68,7.93s9.39-3.4,9.66-5.37-3.6-4.14-8.67-4.85-9.4.32-9.67,2.29Z"/><path class="cls-6" d="M320.46,133c.28,2-3.6,7.23-8.67,7.93s-9.4-3.4-9.68-5.37,3.62-4.14,8.68-4.85,9.4.32,9.67,2.29Z"/><path class="cls-3" d="M338.58,119.35c.83,15.46-3.33,26-3.86,42.45-.77,23.93,11.41,51.32-7,78.74"/></g></g></svg>