<svg xmlns="http://www.w3.org/2000/svg" viewBox="0 0 400 400"><defs><style>.cls-1{fill:#181818;}.cls-2{fill:#fff;}.cls-3{fill:none;stroke:#fff;stroke-width:10px;}</style></defs><g id="Layer_2" data-name="Layer 2"><g id="Layer_1-2" data-name="Layer 1"><path class="cls-1" d="M200,0h0c55.23,0,100,22.39,100,50V350c0,27.61-44.77,50-100,50h0c-55.23,0-100-22.39-100-50V50C100,22.39,144.77,0,200,0Z"/><path class="cls-1" d="M50,100H350c27.61,0,50,44.77,50,100h0c0,55.23-22.39,100-50,100H50C22.39,300,0,255.23,0,200H0C0,144.77,22.39,100,50,100Z"/><circle class="cls-2" cx="145" cy="50" r="18.5"/><circle class="cls-2" cx="255" cy="350" r="18.5"/><line class="cls-3" x1="100" y1="95" x2="200" y2="95"/><line class="cls-3" x1="200" y1="305" x2="300" y2="305"/><path class="cls-3" d="M95,300c0-100,25-100,100-100,85,0,110,0,110-100"/></g></g></svg>