<svg xmlns="http://www.w3.org/2000/svg" viewBox="0 0 400 355.89"><defs><style>.cls-1{fill:#181818;}</style></defs><g id="Layer_2" data-name="Layer 2"><g id="Layer_1-2" data-name="Layer 1"><path class="cls-1" d="M328.88,115.35h0q-6.39-2.19-12.88-4.06c.72-2.91,1.39-5.84,2-8.78,9.75-47.32,3.38-85.43-18.38-98-20.87-12-55,.51-89.46,30.51q-5.1,4.44-10,9.14c-2.18-2.09-4.38-4.13-6.63-6.13C157.44,6,121.23-7.53,99.49,5.05,78.64,17.12,72.47,53,81.24,97.8q1.32,6.66,3,13.24c-5.12,1.46-10.07,3-14.81,4.66C27.05,130.46,0,153.6,0,177.61c0,24.79,29,49.65,73.14,64.73q5.37,1.82,10.82,3.38-1.77,7.09-3.14,14.28c-8.37,44.06-1.83,79.05,19,91,21.47,12.38,57.51-.35,92.61-31q4.17-3.64,8.35-7.7,5.26,5.08,10.81,9.87c34,29.25,67.57,41.06,88.35,29,21.45-12.42,28.42-50,19.37-95.73q-1-5.25-2.4-10.7c2.53-.74,5-1.52,7.44-2.32C370.17,227.29,400,202.73,400,177.61,400,153.52,372.08,130.22,328.88,115.35ZM221.36,47.93c29.53-25.7,57.13-35.85,69.71-28.6h0c13.39,7.73,18.6,38.88,10.19,79.73q-.83,4-1.8,8A411.2,411.2,0,0,0,246,98.56a403.35,403.35,0,0,0-33.81-42.2C215.16,53.48,218.23,50.66,221.36,47.93ZM118.11,198.11q5.42,10.48,11.34,20.7,6,10.41,12.55,20.54a361.62,361.62,0,0,1-36.86-5.93C108.67,222,113,210.16,118.11,198.11Zm0-40.19c-5-11.8-9.24-23.41-12.71-34.61,11.41-2.56,23.58-4.64,36.26-6.23q-6.36,9.93-12.26,20.16T118.09,157.92Zm9.08,20.1q7.9-16.44,17-32.25h0q9.12-15.79,19.4-30.87c11.89-.9,24.09-1.37,36.42-1.37s24.6.47,36.49,1.38q10.19,15,19.27,30.77T273,177.77q-8,16.5-17.19,32.38h0q-9.09,15.79-19.19,31c-11.87.85-24.13,1.29-36.63,1.29s-24.56-.39-36.22-1.14q-10.35-15.13-19.54-31T127.17,178Zm143.45,40.67q6-10.47,11.6-21.2h0a363,363,0,0,1,13.44,35.19A362.59,362.59,0,0,1,258.34,239q6.35-10,12.28-20.35Zm11.44-60.76q-5.55-10.52-11.51-20.81h0q-5.87-10.14-12.16-20c12.76,1.62,25,3.76,36.47,6.38A364,364,0,0,1,282.06,157.93ZM200.19,68.58A365.36,365.36,0,0,1,223.73,97q-23.62-1.11-47.28,0C184.23,86.74,192.19,77.22,200.19,68.58ZM108.05,19.84c13.38-7.75,43,3.3,74.16,31,2,1.77,4,3.63,6,5.54a409.12,409.12,0,0,0-34.07,42.17,416.8,416.8,0,0,0-53.38,8.3Q99.23,100.71,98,94.51h0C90.49,56.09,95.49,27.11,108.05,19.84ZM88.54,229.26q-5-1.42-9.87-3.09A144.63,144.63,0,0,1,32,201.38a35.29,35.29,0,0,1-14.93-23.77C17.09,163,38.8,144.46,75,131.84q6.83-2.37,13.77-4.34A411,411,0,0,0,108.28,178,417.09,417.09,0,0,0,88.54,229.26Zm92.61,77.89a144.81,144.81,0,0,1-44.78,28h0a35.34,35.34,0,0,1-28.06,1.06C95.7,329,90.45,300.87,97.61,263.19q1.27-6.69,2.92-13.28a403.17,403.17,0,0,0,53.9,7.8,416.24,416.24,0,0,0,34.34,42.42C186.29,302.53,183.74,304.87,181.15,307.15Zm19.51-19.32c-8.1-8.73-16.17-18.4-24.06-28.8q11.49.45,23.4.46,12.23,0,24.15-.54a363.17,363.17,0,0,1-23.49,28.88Zm103.77,23.78a35.32,35.32,0,0,1-13.1,24.83c-12.6,7.3-39.56-2.19-68.63-27.21q-5-4.29-10.06-9.17a402.47,402.47,0,0,0,33.53-42.57,399.35,399.35,0,0,0,54.17-8.35q1.23,4.94,2.17,9.68h0a144.88,144.88,0,0,1,1.92,52.79Zm14.51-85.35h0c-2.18.73-4.43,1.43-6.71,2.1A401.18,401.18,0,0,0,292,177.69a400.4,400.4,0,0,0,19.47-49.93q6.13,1.77,11.89,3.75c37,12.74,59.59,31.58,59.59,46.1,0,15.46-24.38,35.53-64,48.65Z"/><path class="cls-1" d="M200,141.89a35.72,35.72,0,1,1-35.72,35.72h0A35.72,35.72,0,0,1,200,141.89h0"/></g></g></svg>