<svg xmlns="http://www.w3.org/2000/svg" viewBox="0 0 288.02 400"><defs><style>.cls-1{fill:#fff;}</style></defs><g id="Layer_2" data-name="Layer 2"><g id="Layer_1-2" data-name="Layer 1"><path class="cls-1" d="M176,.7c.27,4.39.72,8.29.73,12.18.07,21.54,0,43.08,0,64.62a84.85,84.85,0,0,0,.29,9.84c1.95,16.32,10.38,24,26.82,24.15,23.73.17,47.46.05,71.19.05H288c0,5.13,0,9,0,12.94q-.12,123.21-.3,246.42a55.78,55.78,0,0,1-1.11,11.91q-3.71,16.67-20.81,17.05c-11.31.25-22.64.09-34,.09q-103,0-205.91,0c-17.92,0-25.91-8-25.92-26Q0,199.79,0,25.65C0,8.37,8.21.07,25.29,0q70.1-.11,140.19,0C168.68,0,171.87.43,176,.7ZM67.41,196c-.29,4.17-.69,7.39-.7,10.6q-.06,55.28,0,110.56c0,11.31.35,11.63,11.73,11.65q65.13.07,130.26,0c12.14,0,12.45-.27,12.47-12.16q.12-53.62,0-107.27c0-14.42-.28-14.75-14.63-14.77q-62.38-.09-124.78,0C77.17,194.7,72.56,195.54,67.41,196Z"/><path class="cls-1" d="M131.53,237.13h-43V217.86h43Z"/><path class="cls-1" d="M156.38,217.42H197.6V237H156.38Z"/><path class="cls-1" d="M131.83,255.09v17H88.48v-17Z"/><path class="cls-1" d="M88.54,289.85h43.17v16.88H88.54Z"/><path class="cls-1" d="M156.28,254.67h41.25v17.42H156.28Z"/><path class="cls-1" d="M197.94,290.09v16.4H156.13v-16.4Z"/></g></g></svg>