<svg xmlns="http://www.w3.org/2000/svg" viewBox="0 0 308.22 400"><defs><style>.cls-1{fill:#181818;}</style></defs><g id="Layer_2" data-name="Layer 2"><g id="Layer_1-2" data-name="Layer 1"><path class="cls-1" d="M158.08,0c1.47,3.14,4.1,5.2,6.77,7.19a4.28,4.28,0,0,1,2.05,3.75c-.07,2.06-.73,2.78-2.81,3.07l-1.46.21c-.06.83-.18,1.63-.17,2.43a2.38,2.38,0,0,0,1.63,2.53,2.89,2.89,0,0,0,3.4-.8c.22-.25.41-.53.61-.79,1.78-2.34,3.49-2.92,6-1.43a16.53,16.53,0,0,1,4.39,3.95,5.22,5.22,0,0,1,.86,3.5c-.26,2.62-2.19,3.82-4.82,3.32-3.68-.69-4.92.2-5.42,3.94A6.8,6.8,0,0,0,172.24,38c4.06,2.68,10.76,1.86,14.07-1.7a6.44,6.44,0,0,0,1.95-4.72c-.08-3-1.67-4.59-4.66-4.66h-1.47c.3-5.39,5.41-9.85,10.53-9.32,2.34.23,3.35,1.69,2.56,3.71-1,2.52-.81,3.23.9,3.79a3.75,3.75,0,0,0,4.94-2.14c.8-2.43-.06-4.11-2.7-5.28,2.3-7.1,15.53-9.93,22.48-4.78a40.43,40.43,0,0,0-5.14,2.72,33.32,33.32,0,0,0-13,19.29A103.21,103.21,0,0,0,201,45.73a3,3,0,0,0,.47,2c2.25,2.88,2.05,4-1.29,5.78V64c2.38.42,2.9,2.1,2.5,4.38a43.06,43.06,0,0,1,13.33.22,21.58,21.58,0,0,1,3.89.92c5.69,1.9,7.83,6.44,5.73,12l-.49,1.3h3.12c14.51,0,29,0,43.53,0a4.74,4.74,0,0,1,4.23,2C280,90,284.26,95.09,288.41,100.2c.52.64,1,1.3,1.61,2.09-2.24.43-4.34.72-6.35,1.28a29.32,29.32,0,0,0-5.11,2,6.28,6.28,0,0,0-3.73,6.24c.06,7.26,0,14.52,0,21.77q0,42.93,0,85.85c0,20.19.17,40.38.15,60.56a75.32,75.32,0,0,1-2.8,21.73,30.56,30.56,0,0,1-5.08,10.23,12.63,12.63,0,0,0-.87,1.47l0,0c4.31-1.23,8.57-2.67,12.93-3.62a40.81,40.81,0,0,1,17.87-.26,22.77,22.77,0,0,1,5.58,2.09c3.34,1.79,4.5,4.24,3.58,7.91-1.51,6-1.66,12-2,18.11a28.35,28.35,0,0,0,2.31,12.68,27.85,27.85,0,0,1,1.67,6,4.32,4.32,0,0,1-2.72,4.85c-1.42.69-2.91,1.2-4.54,1.86-.44,4.71-3.56,7.8-7.16,10.48-6.55,4.89-14.05,7.92-21.7,10.58a256.6,256.6,0,0,1-42.39,10.47A427.6,427.6,0,0,1,158.16,400a326.23,326.23,0,0,1-35-1.61,300.63,300.63,0,0,1-48.72-9.65c-14.6-4.12-29.08-8.55-43-14.75-3.41-1.52-6.74-3.27-10-5.08a19.23,19.23,0,0,1-7.63-6.76c-3.41,1.44-6.75.94-10-.2S-.62,358.61.3,355.3a33.56,33.56,0,0,1,2.29-6.06,24.75,24.75,0,0,0,2.29-14.11Q4,327.42,3.16,319.72c-.07-.67-.13-1.33-.15-2-.15-5.55,2.22-8.62,7.64-9.74,5.12-1.06,10.29-.79,15.44-.27,7.53.75,15,1.83,22,4.57-1.52-3.31-3.29-6.51-4.47-9.91a60.92,60.92,0,0,1-3-19.92c-.06-16.36.09-32.71.14-49.06,0-18.85.12-37.71.1-56.56,0-21.36-.23-42.71-.18-64.07,0-5.29-2.08-7.24-6.29-8.62a88.29,88.29,0,0,0-8.86-2L32,94.1c2.53-3.11,5.11-6.17,7.56-9.33a4.48,4.48,0,0,1,4-1.89c15.51.06,31,0,46.54,0h2.64l.38-.47C90,80.33,89.6,77.3,90,74a6.55,6.55,0,0,1,4.38-5.89c5.29-1.88,10.54-2.33,15.62.87a11.68,11.68,0,0,0,3.21.84c-.18-1.45-.66-2.66-.35-3.62s1.42-1.64,2.46-2.75V53.63c-.48-.3-1-.55-1.45-.89-1.55-1.18-1.88-3-.4-4.27a3.44,3.44,0,0,0,1.11-3.33c-.79-10.47-4-19.91-11.91-27.25-2.28-2.11-4.73-4-7.89-4.63,1.47-2.09,5.77-3.47,9.68-3.14,5.74.48,10.92,3.43,12.71,7.37a14.17,14.17,0,0,0-1.42.79,3.91,3.91,0,0,0,4.32,6.51,1.87,1.87,0,0,0,.69-2.59c-1.36-3.38,0-5,3.6-4.59a10.29,10.29,0,0,1,9.11,9.3c-.5,0-1,0-1.47,0-3.49,0-5.5,2.59-4.64,6,.77,3.13,3,5,5.88,6a12.52,12.52,0,0,0,8.11,0c4.28-1.39,7-6.06,3.77-11.37a3.26,3.26,0,0,0-2-1,6,6,0,0,0-1.94.37c-3.39.68-6-2.07-4.83-5.36a9.21,9.21,0,0,1,6.61-5.95,3.41,3.41,0,0,1,4.28,1.67,5.72,5.72,0,0,0,1.09,1.37,2.78,2.78,0,0,0,3,.59,2.47,2.47,0,0,0,1.8-2.43c.05-.73,0-1.48,0-2.29a6.3,6.3,0,0,0-1.51-.46c-1.27,0-2.38-.35-2.75-1.69-.44-1.58-.46-3.18.91-4.39C150.8,7,152.06,6.3,153,5.28c1.6-1.67,3-3.51,4.55-5.28Zm56.07,124.18a7.24,7.24,0,0,1,1.24.12c9.05,2.56,17.79,1.43,26.33-2.18,1.76-.75,3.51-1.54,5.32-2.14a15.16,15.16,0,0,1,8.09-.79A6.19,6.19,0,0,1,260.3,124a7.2,7.2,0,0,1-1.88,7.14c-2,2.09-7.27,1.73-7.63-2.15-.08-.82-.25-1.71-1.16-1.57a2.78,2.78,0,0,0-1.88,1.32,3.92,3.92,0,0,0,.89,4.6,8.87,8.87,0,0,0,9.11,2.65c4.57-1.11,7.75-6.72,6.85-11.88-1.19-6.83-7.22-9.88-13.3-9.33-3.15.29-5.86,1.7-8.6,3.13a37.1,37.1,0,0,1-22.26,3.85c-6.54-.81-12.07-4.32-18.41-6.24,2.32-1.4,4.44-2.57,6.43-3.92s2.23-2.49,1.48-4.77l-4.11,1.74A6.3,6.3,0,0,1,208,106.8c3.63-1.47,4-4.64,4.71-8-3,0-4.92,1.76-7.11,2.84a6.26,6.26,0,0,0,2.08-7.8,3.17,3.17,0,0,0-3.5-2.31,7.84,7.84,0,0,1-1.89,6.1c-1.4,1.62-2.71,3.31-4.1,5-.32-1-.66-2-1.14-3.46a22.12,22.12,0,0,0-2.93,8.73,5.72,5.72,0,0,0,5,6.66,46.24,46.24,0,0,1,.81-6.81c.64-2.43,2.54-4,4.77-5.18-.82.83-1.63,1.66-2.45,2.48a7.48,7.48,0,0,0-1.91,7.59c.18.76.39,1.52.62,2.42a14,14,0,0,0-1.46-.06,44.19,44.19,0,0,0-5.16.51c-.56.1-1.41,1-1.34,1.48a2.52,2.52,0,0,0,1.44,1.69,7.26,7.26,0,0,0,3.15.17,9,9,0,0,1,6,.93c-1.24,1.55-1.23,1.55-.31,2.93a19,19,0,0,1,1.23,1.88,7.58,7.58,0,0,0,5.32,4.16,63.5,63.5,0,0,0,7.12,1.12,76.74,76.74,0,0,0,20.64-.74,9.94,9.94,0,0,0,4.11-2.07,2.45,2.45,0,0,0,.73-3.36c-.79-1.17-1.94-.45-2.95-.13l-.47.17A38.59,38.59,0,0,1,221.32,126c-2.41-.21-4.74-1.21-7.11-1.85Zm44.33,195a48.16,48.16,0,0,1-4.45,2.18c-3.5,1.32-7.09,2.4-10.56,3.77q-32.81,13-65.58,26c-.55.23-1.07.54-1.6.81,5.59,0,11.09-.13,16.56-.67,11.76-1.17,23.53-2.42,35.26-3.89a128.6,128.6,0,0,0,30-7.38c3-1.15,4.71-2.71,4.9-6a4.25,4.25,0,0,0-.59-3,23.37,23.37,0,0,1-1.26-2.16c-1.64-2.94-3.74-5.74-2.58-9.44,0-.05-.09-.13-.14-.2l.13,0ZM120,244.38c1.71,1.67,1.87,2.45.78,4.26-.72,1.22-1.63,2.34-2.26,3.6a6,6,0,0,0,.42,6.4,3.38,3.38,0,0,0,3.89,1.55,3.91,3.91,0,0,0,3.18-3.37l-1.16-.06c-2.52-.15-3.26-1.27-2.19-3.61a16.67,16.67,0,0,1,2-3.13c2.1-2.75,2.07-4.41-.21-7.06-.62-.73-1.17-1.52-1.76-2.28l-.06,0c1.19.37,2.36.82,3.57,1.1a2.18,2.18,0,0,0,2.91-2.18,5.14,5.14,0,0,0-1.82-4.17c-2.35,1.91-2.34,1.89-5.49,1.46-5.07-.67-9.49.3-12.36,5a11.72,11.72,0,0,0-1.71,9.1c.8,3.22,2,6.35,3,9.52.23.74.46,1.47.74,2.33-5-.92-6.75-.27-7.83,2.72,7.27-.53,9.45.55,11.09,5.65a22.21,22.21,0,0,0-10.58,2.24c2.93,3.42,5.91,3.83,9.58,1.45,2.25-1.45,3-1.39,4.66.57a12.87,12.87,0,0,1,3.31,6.89,4.82,4.82,0,0,1-2.17,5.12,4.93,4.93,0,0,1-.75-.4,28,28,0,0,0-14-6.08,17.23,17.23,0,0,1-6-2.09c-1.52-.89-2.53-2.62-3.9-3.83a11.15,11.15,0,0,0-3.25-2.07c-1.84-.71-3.79-1.13-5.89-1.72a4,4,0,0,0-2.34,4c-2.19.76-3.45-1.15-5.26-1.56-.19.38-.4.74-.55,1.11-.89,2.18-1.65,2.37-3.35.74-.82-.78-1.55-1.66-2.31-2.48-2.36,2.23-3.13,2.22-5.14.12l-2-2.11c-.19,1.78,0,3.18-.52,4.22-1.95,3.95-4.08,7.82-6.27,11.64-1.06,1.85-2.85,2.13-4.81,1.59a6,6,0,0,0-2.17-.47,2.62,2.62,0,0,0-1.7,1.13c-.18.3.32,1.19.73,1.59a22.37,22.37,0,0,0,2.63,1.85c-1.72.73-3.39,1.08-3.36,3.26l4.46-.66c-.3,1.9-2.74,2.45-2.09,4.56,3.83-1,7.16-2.46,9-6l3.12,1.46c.81-2.65-.36-5.55,2.28-7.59.84,1.68,1.59,3.17,2.41,4.78A4.68,4.68,0,0,0,70,288.49c-.08-1-.33-2-.42-3a2.65,2.65,0,0,1,1.93-3c1.22,4,2.43,4.9,6.53,4.82,1,0,2-.2,3-.25a6.18,6.18,0,0,0,5.54-3.65c.47-.92,1-1.78,1.72-2.92.75,3.56-2.52,4.82-3.42,7.5H79.47c0,.37,0,.56,0,.69a2.1,2.1,0,0,0,.47.57,10.38,10.38,0,0,0,7,2.81c5.25,0,10.5.19,15.74.41a8.23,8.23,0,0,1,3.32.94c2.17,1.11,2.35,2.9.64,4.64a28.28,28.28,0,0,0-3,3c-2.25,3.06-3,7.46.94,11,1.06.94,2.21,1.78,3.34,2.63,1.34,1,2.8,1.84,4,2.93,1.48,1.3,2.53,2.88,1.66,5a4.52,4.52,0,0,1-1,.29c-.58,0-1.16-.08-1.74-.12a10.56,10.56,0,0,0-2.23-.13c-1.45.23-1.84,1.13-1.18,2.5a1.5,1.5,0,0,0-1,2.34,2.19,2.19,0,0,0,2.72,1.23,13,13,0,0,0,2.65-1.35c.83-.49,1.62-.86,2.54.21-.94,1.08-2.4,1.87-2.32,3.75a5.75,5.75,0,0,0,4.65-2.16c1.68-2.17,3.39-4.29,6.42-4.52-.11-2.77-2.66-2-4.22-3.26l4.31-3.4c-.37-.18-.59-.38-.8-.38-2.15,0-3.3-1.1-3.91-3.08a3.82,3.82,0,0,0-3.41-2.87c-1.49-.2-1.87-1.26-1.22-2.56a2.09,2.09,0,0,1,2.72-1.13c.84.25,1.66.59,2.49.9,1.15-1.83-.13-4.14,1.68-5.5,2.15.19,1.76,2.45,3.14,3.7a8,8,0,0,0,1.67-1.53A3.64,3.64,0,0,0,125,301c-1.55-1.67-1.65-3.75-1.86-5.82s-.73-4.1,1.33-5.68a4,4,0,0,0,.88-2,11.48,11.48,0,0,0-.87-8c-1-2.2-2.08-4.37-3.2-6.51-1-1.87-.51-3.5.56-5.14a5.86,5.86,0,0,1,5.05-2.57c-2.56-3.09-5.06-4.32-9.08,2.37-.56-.91-1.11-1.71-1.55-2.57a42.7,42.7,0,0,1-4.44-13.72,13.42,13.42,0,0,1,.24-4.93c.64-2.63,2.36-3.39,5.27-2.6.73,2.48-1.65,4.12-2,6.33,3.76.2,4.79-.71,4.77-4.07,0-.58,0-1.17,0-1.75ZM43.31,177.65V222H137V348.3c.86.42,1.58.81,2.34,1.12,3.85,1.54,7.88,2.74,11.53,4.67,4.75,2.51,9.05,2.39,13.81,0,4.46-2.29,9.28-3.9,14.08-5.86V222H272.3c-.15-14.86.11-29.5-.55-44.38H178.57V85.31H137v92.34ZM33.66,322.93c-.47,1.32-.9,2.37-1.24,3.46q-2.27,7.26-4.49,14.56a29.81,29.81,0,0,1-9,14.12,15.49,15.49,0,0,0-2.94,3.37,3.5,3.5,0,0,0,.6,5,25.72,25.72,0,0,0,5.14,3.94c4.38,2.38,8.82,4.7,13.41,6.66,14,6,28.48,10.3,43.11,14.31A274.27,274.27,0,0,0,143,398.44c29.05.81,58-.4,86.73-5.38a265.09,265.09,0,0,0,42.37-10.54c6.61-2.32,13.15-4.88,18.91-8.95a34.4,34.4,0,0,0,6.75-6.22c2.39-2.92,2.06-5.25-.48-8-1.46-1.6-3-3.09-4.57-4.62a27.66,27.66,0,0,1-7.44-12.54c-.91-3.38-1.74-6.78-2.56-10.18-.5-2.07-.93-4.15-1.49-6.69a19.78,19.78,0,0,0-2.32,2A41.77,41.77,0,0,1,266,337.78c-9.94,5.4-20.7,8.28-31.75,10.11a441.52,441.52,0,0,1-56.69,5.63,28.7,28.7,0,0,0-12.27,2.74c-1.92,1-4,1.59-6,2.46a3.66,3.66,0,0,1-3.07,0c-4.67-1.93-9.36-3.84-14.09-5.64a20.81,20.81,0,0,0-4.81-1.14c-6-.77-12.1-1.29-18.13-2.14a450.24,450.24,0,0,1-58.35-12.43C50.82,334.56,41,331.42,33.66,322.93ZM157.75,2.21c-2.34,2.05-4.69,4.16-7.1,6.18a3.21,3.21,0,0,0-1,3.39C149.88,13.1,151,13,152,13.12a2.75,2.75,0,0,1,1.68.87c1.39,1.91,0,5.51-2.25,6.16-2.06.59-3.31.17-4.82-2.08-.92-1.38-2-2-3.56-1.55a8.51,8.51,0,0,0-5.79,5.11c-1,2.64,1,4.86,3.73,4.32.66-.13,1.3-.32,2-.41a2.6,2.6,0,0,1,2.82,1.13c3.66,5.8,1.11,11.6-4.5,13.26a13.27,13.27,0,0,1-7.89,0c-3.54-1.13-6.19-3.29-7-7.09A5.53,5.53,0,0,1,131.06,26a9.65,9.65,0,0,0,1.08-.33,9,9,0,0,0-7.94-7.07c-2.84-.34-3.68.71-2.57,3.31a2.69,2.69,0,0,1-.57,3.4,4.85,4.85,0,0,1-7.49-1.93,5.1,5.1,0,0,1,2.27-6.45c-4.08-5.51-14.48-7.72-18.38-4.25,2.4,2,5,3.78,7.23,6,6.1,6.05,9.11,13.63,10.31,22,.32,2.28.53,4.58.8,6.88h84c.74-14.56,5.3-27.08,18.69-34.81-5.87-3.25-14.83-1.24-18.83,4.2.31.26.63.5.93.78a5.35,5.35,0,0,1,.9,6.6,5,5,0,0,1-6.24,1.51c-1.82-.88-2.06-2-1-4.65.66-1.64.13-2.43-1.74-2.61-4.1-.4-8.32,2.91-9.19,7.26l1.21.19a5,5,0,0,1,4.63,4.76,7.39,7.39,0,0,1-1.93,6c-4.14,4.78-11.55,4.49-15.38,2.15a8,8,0,0,1-3.67-8.41c.75-4.25,2.2-5.26,6.46-4.48,2.71.49,4.63-1.62,3.58-4.2a8.76,8.76,0,0,0-2.65-3.51,10.75,10.75,0,0,0-4.24-1.8c-1.63-.34-2.09,1.35-2.93,2.33A3.94,3.94,0,0,1,163.46,20c-1.61-.72-2.24-2.45-2-5,.19-1.7,1.29-2,2.64-2a1.59,1.59,0,0,0,1.75-1.93,5.13,5.13,0,0,0-1.24-2.79C162.45,6.19,160.06,4.24,157.75,2.21ZM56.11,319a14.51,14.51,0,0,1-3,7.36,28.78,28.78,0,0,0-1.92,2.92c-1,1.86-.51,3.19,1.4,4.05a21.73,21.73,0,0,0,3.05,1.1,435.12,435.12,0,0,0,71.51,15c2,.23,4,.38,6,.57l.14-.55Q94.78,334.21,56.11,319Zm139.3-153c.8,1.6,1.91,1.21,2.79,1.21q25,0,50,0c6.49,0,7.12-1,7.33-7.75a6.8,6.8,0,0,0-1.07-4c-3.45-4.7-7.1-9.26-10.73-13.83a2.53,2.53,0,0,0-1.58-1c-4.16-.08-8.33-.1-12.5,0-1.46,0-1.81,1-.81,2.2.75.88,1.71,1.58,2.55,2.39,2.22,2.16,1.84,4.26-1.11,5.27a18.76,18.76,0,0,1-4.89.89A21.59,21.59,0,0,1,214,149.27c-1.07-.55-2-1.25-1.78-2.69a2.61,2.61,0,0,1,2.18-2.4,3.82,3.82,0,0,0,.48-.15c1.6-.45,2.28-1.48,2-3.4-3.44,0-6.84,0-10.24,0a2.76,2.76,0,0,0-1.64,1c-3.41,3.77-6.77,7.59-10.16,11.37a2.6,2.6,0,0,0-.37,3.32H248a8.52,8.52,0,0,1,2.48.11,4.58,4.58,0,0,1,2.49,1.41c1.3,2.09.75,4.39-.08,6.49-.7,1.76-2.46,1.36-3.94,1.36h-51A21.94,21.94,0,0,0,195.41,166ZM26,342.49c.86-2.64,1.71-5.23,2.53-7.84,1.17-3.72,2.24-7.49,3.5-11.19,1-3,3.14-4.84,6.53-4.66a41.48,41.48,0,0,1,5.46.48c2.77.51,5.51,1.27,8.27,1.86a10.22,10.22,0,0,0,2.07,0c.15-2.25-.1-2.93-1.65-4.37a18.69,18.69,0,0,0-8.35-4.31,105.62,105.62,0,0,0-13.92-2.82,157.28,157.28,0,0,0-16.68-.72,10.19,10.19,0,0,0-7.38,2.59c-2,1.94-1.88,3.35.48,4.75a29.51,29.51,0,0,0,3.3,1.46,5.13,5.13,0,0,0,.31-.72c.54-2.76,1.86-3.78,4.68-3.63,2.32.13,3.68,1.49,3.85,4.06a23.94,23.94,0,0,1-.14,4.23c-.71,6.12-1.48,12.22-2.19,18.34a18.54,18.54,0,0,0,0,2.47ZM189.29,59.23c2-1,3.52-1.74,5-2.59s3.33-1.16,4.6-2.94H116.68l-.19.52,9.65,5-9.51,4.67h81.55l.06-.32ZM298.58,321.56a7.2,7.2,0,0,0,5-3.33c1.52-2.28,1.38-3.56-.92-5a20.32,20.32,0,0,0-5.47-2.33c-6-1.57-12.07-1-18.08.16-4.5.86-9,1.9-13,4.22a29.15,29.15,0,0,0-5.54,4.52,3,3,0,0,0-.33,4c2.17-.65,4.39-1.28,6.58-2,5.61-1.79,10.77-.5,15.65,2,1.44,6.91,2.63,13.62,5,20.22h5.78a9.87,9.87,0,0,0-.22-1.46c-1.46-5.11-3-10.21-4.41-15.34a17,17,0,0,1-.78-4.39c-.06-5.5,5-8.74,10.26-6.71C298.21,317.9,298.39,319.62,298.58,321.56Zm-294.08-5c0,1.13-.08,2,0,2.79.51,4.88.93,9.78,1.61,14.64a26.93,26.93,0,0,1-2.36,16,34,34,0,0,0-2.14,5.58c-.71,2.5.06,4.19,2.51,4.89a31.36,31.36,0,0,0,6.84,1c1.5.08,2.49-.84,3.15-2.36a15.6,15.6,0,0,0,1.13-7.06,124,124,0,0,1,2.07-30,37.75,37.75,0,0,0,.34-4.31C12.73,321,8.72,319,4.5,316.59ZM61.62,123.51c-7.77,3.93-13.83,15.93-9.42,27.79a23.81,23.81,0,0,0,29.25,14.49c9.78-2.95,18.14-14.07,16.36-21.89a15.36,15.36,0,0,1-1.89.61c-2.14.4-3.21,1.51-3.9,3.75a18.47,18.47,0,0,1-27.6,10.06c-10.25-6.51-11.46-21-3.08-28.71.52-.47,1.21-1.19,1.17-1.75A30.55,30.55,0,0,0,61.62,123.51Zm27.87,40.71c7.61,4.56,20.58,3.45,28.39-5.78a23.79,23.79,0,0,0-.08-31c-7.64-8.86-20.47-10.54-28.93-5.39l3.91,3c8.65-2.38,16.22-.94,21.74,6.45,4.75,6.34,5.15,13.42,1.23,20.21-5.08,8.79-13.19,10.79-22.5,8.69ZM75.35,134.78c-7-6.43-9.11-14.16-5.09-22.83,3.33-7.15,9.43-10.8,17.34-10.39,10.51.55,16.08,6.92,18.14,16.78l4.78,1.68c1.24-9.56-7.64-20.54-18.33-22.86A24,24,0,0,0,64.43,113c-4,12.21,2.75,23.86,9.88,27.17ZM222,281.87a43.75,43.75,0,0,1,4.24-2.08,21.74,21.74,0,0,1,5.46-1.55c3.32-.32,6.35.6,8.17,3.69,1.71,2.9,2.24,6.1.35,9-1.56,2.38-.89,4.67-1.06,7.45,3.38-1.49,5.66-3.46,6.78-6.49a17.44,17.44,0,0,0,.47-11.28c-1.44-4.83-4.75-7.9-9.2-9.91-4.88-2.21-9.63-4.62-13.17-8.71-1.58,1.25-3.11,2.38-4.54,3.65a2.57,2.57,0,0,0-.73,1.7c-.07,3.17-.06,6.34,0,9.51a3.05,3.05,0,0,0,.53,1.6C220.07,279.61,221,280.67,222,281.87ZM289,322.07a34.44,34.44,0,0,0,.58,3.83c.57,2.08,1.27,4.13,1.93,6.19,2,6.13,3.82,12.32,3.94,18.77,0,3.2.51,5.83,3.13,7.89a12.9,12.9,0,0,1,2,2.6c.76-.2,1.49-.37,2.19-.59a12,12,0,0,0,1.62-.67c2.06-1,2.72-2.13,2.36-4.43a14.67,14.67,0,0,0-1.21-4.05c-2.77-5.77-3.2-11.84-2.59-18.08.45-4.6.89-9.19,1.34-13.81C300.13,324.53,294.84,323.88,289,322.07ZM89.79,313.75l3.94-5.46c-.23-1.12-1.61-2.56-.2-4.54l4.48,1c-.07-2.75,1.4-4,3.9-4.32a2.59,2.59,0,0,0,.72-.21,4.63,4.63,0,0,0,2.88-4.28,3.22,3.22,0,0,0-3.31-2.88,93.44,93.44,0,0,0-12,.07c-3.93.3-5.55,4.23-4.78,7.65,1.17,5.12.45,6.11-4.71,6.37-2.12.1-4.06-.08-5.46-2.18-1.06-1.58-2.38-1.54-4.61-.3l2.09,3.05c-1.76-.31-3.3-2.13-4.9-.27.64,2,.8,2.13,2.7,2.15h2.67c-1.42,1.17-3.71.14-4.34,2.71.52.27,1,.76,1.5.76,4.62.06,9.29.46,13.41-1.93l1.94,3.56,2.1-2.34ZM157.56,69.13h42.27c1.44,0,1.82-.89,1.91-2.1s-.69-1.75-1.83-1.81c-.58,0-1.17,0-1.75,0h-81a12.09,12.09,0,0,0-2,.07c-1.22.2-1.62,1-1.39,2.18.31,1.68,1.46,1.7,2.81,1.7Q137.06,69.11,157.56,69.13Zm-1.66,1.94v-.15c-4.07.18-8.14.37-12.21.54-1,0-2.06.05-2.34,1.34a2.29,2.29,0,0,0,1.25,2.5c3.2,2.1,6.32,4.34,9.65,6.2a11.94,11.94,0,0,0,5.21,1.29c4.91.17,9.82.06,14.73,0a9.17,9.17,0,0,0,2.23-.18c2.38-.61,3.27-2.92,1.55-4.51a84.47,84.47,0,0,0-8-6.38,5.82,5.82,0,0,0-3.09-.67C161.89,71,158.89,71.07,155.9,71.07ZM79.67,250.78l-.47.45A17.63,17.63,0,0,0,80.69,254a2,2,0,0,0,2.68.59c1.83-.94,3.75-1.73,5.54-2.74a13.78,13.78,0,0,0,2.64-2.2,11.69,11.69,0,0,0,1.26-1.68c4.17,1.63,5.44,1.13,7.66-2.67a8.82,8.82,0,0,1,2-2.11,22.4,22.4,0,0,1,2.42-1.51c-1.18-1.28-2-2.6-3.18-3.36-2.49-1.63-5.19-2.94-7.76-4.44-2.22-1.3-4.53-1.59-6.55,0-2.17,1.73-4.43,1.61-6.85,1.18-.55-.1-1.11-.15-1.62-.21a6,6,0,0,0-1,4.89c.26,1.56,1,2,2.67,1.83.41-.05.82-.13,1.23-.21a2.3,2.3,0,0,1,2.9,1.31,2.12,2.12,0,0,1-.7,2.88,2.8,2.8,0,0,1-3.49-.11A16,16,0,0,1,79.23,244c-1.44,2.4-1,3.51,1.39,4,1.3.24,3,0,3.82.73,1.32,1.23,2.47,1.12,3.93.65C86,252.88,82.78,251.57,79.67,250.78ZM106.21,82.72V82.5c3.32,0,6.65.11,10-.07a3.41,3.41,0,0,0,2.56-1.56c.25-.68-.49-2-1.17-2.69-2.9-2.87-5.92-5.61-8.95-8.34a4,4,0,0,0-2.19-1c-3.06-.23-6.13-.4-9.19-.37-3.73,0-6.31,4.28-6.18,7.56a6.7,6.7,0,0,0,6.66,6.72C100.54,82.83,103.38,82.72,106.21,82.72Zm51.6-34.17H115.57a1.76,1.76,0,0,0-2,1.77c-.06,1.37.84,1.89,2.1,1.9h83.24c.5,0,1.13.17,1.47-.07a3.45,3.45,0,0,0,1.48-1.69,1.56,1.56,0,0,0-1.55-1.87c-.66-.06-1.33,0-2,0ZM217.6,251.18c-1.79.29-3.35.45-4.87.8-2.53.6-2.6.74-2.62,3.37-.07,7.91-.1,15.83-.19,23.74,0,3.17-.24,6.33-.23,9.5a2.54,2.54,0,0,0,1,2c2.16,1,4.43,1.76,6.94,2.71Zm-21.35-179c.94,1.1,1.49,1.81,2.11,2.45,2.11,2.15,4.3,4.21,6.35,6.4a6.12,6.12,0,0,0,4.88,2c3.5-.06,7,0,10.51,0,3,0,4.23-1.09,4.58-4.06a6.6,6.6,0,0,0-3.37-7,14.42,14.42,0,0,0-3.45-1.42,35.34,35.34,0,0,0-18.54.19A22.26,22.26,0,0,0,196.25,72.15Zm42,198.15v-3c0-4.08.08-8.17-.06-12.25-.2-6-.2-11.91,4.7-16.29-1.78-2.6-3.07-3.2-5.37-1.85-2.49,1.46-4.66,3.46-7,5.16a3.1,3.1,0,0,0-1.35,3c.21,4.41.31,8.83.45,13.24.06,2,0,4,.21,6a3,3,0,0,0,1,2.09C233,267.75,235.42,268.86,238.24,270.3Zm-10-21.53a43.63,43.63,0,0,0-11.4-2,25.14,25.14,0,0,0-9.86,1c-3.86,1.41-6.52,4-7.51,8a26.82,26.82,0,0,0-.63,4.19c-.48,6.33,3.62,11.56,10.36,12.94,0-1.53,0-3,0-4.47a10.54,10.54,0,0,0-1.38-5.62c-2.36-4.33-2.08-10.16,4.72-11.56a39.21,39.21,0,0,1,12.42-.18l3.27.35Zm1.82,30.93c0,3.74,0,7.15,0,10.55s.22,6.7-.1,10-1.19,6.56-1.84,9.9c4,.68,4.89-2.42,6.55-4.54,1.39,1.3,2.13,3.15,4.42,3.75,0-.87,0-1.49,0-2.11-.26-3.06-.68-6.12-.79-9.19-.15-4.5-.09-9-.12-13.52,0-3.86-.49-4.42-4.34-4.82A36.22,36.22,0,0,0,230.06,279.7ZM62.91,262.64l5.46-3.2a12.68,12.68,0,0,1-.16-3.71,3.8,3.8,0,0,0-1-3.39c-1.71-2.36-3.41-4.74-5-7.2a8.76,8.76,0,0,1-1.4-7.37,3.32,3.32,0,0,0,0-2A8,8,0,0,0,59.54,234,9.13,9.13,0,0,0,57.93,236c-.24.54.08,1.3.06,2a5.47,5.47,0,0,1-.29,1.16,3.88,3.88,0,0,1-.78-1.89,6,6,0,0,0-.59-2.4A4.94,4.94,0,0,0,54,233.3a1.76,1.76,0,0,0-1.51.85,5.11,5.11,0,0,0,.27,2.77c.31.7,1.17,1.15,1.76,1.74a2.05,2.05,0,0,1,.34,2.92c-.48-.94-.65-1.72-1.14-2.13a4.59,4.59,0,0,0-2.32-1c-.4-.05-1.28.78-1.26,1.19A6.76,6.76,0,0,0,51,242c.08.18.41.26.64.35a2.76,2.76,0,0,1,1.86,2.95c-.08,1.53-.38,3.05-.6,4.74a16,16,0,0,0,2,.59,6.11,6.11,0,0,1,4.48,3.62c.58,1.2,1,2.45,1.54,3.68C61.59,259.5,62.26,261.09,62.91,262.64ZM209.5,297.71a9.75,9.75,0,0,0-.35,1.64c-.05,7.39-2.81,13.79-7.27,19.52a12.22,12.22,0,0,1-3,2.89c-1.8,1.09-3.11.45-3.8-1.55a13.94,13.94,0,0,0-.48-1.42c-.64-1.32-1.41-1.51-2.58-.66a3.08,3.08,0,0,0-.41,5,7.79,7.79,0,0,0,8.69,2.09c4.8-1.62,8.49-4.57,10.39-9.4,1.14-2.9,2.15-5.87,3.22-8.82,1.45,1,2.06,2.91,4.42,3.28-.26-3.88-.52-7.54-.78-11.36Zm-11.39-16.38-.65.31c0,5.58,2.37,10.86,2.18,16.77,1.27-.33,2.14-.56,3-.77,3.66-.91,7.32-1.5,11.07-.44,2.72.76,5.47,1.43,8.23,2,2.15.48,4.33.79,6.67,1.21v-4.31c-4-.79-7.87-1.44-11.66-2.32a26.11,26.11,0,0,1-10.41-4.62C203.54,286.82,200.91,284,198.11,281.33ZM104.58,126.49c-4.42,9.33-11.61,13.1-21.74,11.94l-.41,5.12c11.59,3.32,24.69-6,26.78-15.09-.54-.29-1.09-.66-1.69-.91C106.62,127.18,105.68,126.88,104.58,126.49Zm-22.44.76c-8.1,7.88-8.07,23.11-.56,30.66l4.18-2.62c-6.43-8.62-6.27-17,0-25.5ZM92,136.51l4.69-2.33c-4-10.6-17.12-17.48-26.88-14.2l.45,4.29C80.47,123.08,87.65,126.74,92,136.51ZM218.56,141c-.89,2.46-.89,2.46-3.62,3.61a2.16,2.16,0,0,0-.49,3.8,6.9,6.9,0,0,0,1.78.89,25.17,25.17,0,0,0,12.33.83,3.16,3.16,0,0,0,2.88-2.09c.43-1.46-.62-2.27-1.49-3.17-1.12-1.17-2.19-2.4-3.52-3.87ZM206.2,240.44l4.18,5.75h7.05a30.58,30.58,0,0,1,.86-5.62A26.11,26.11,0,0,1,221,236c-2-1.57-3.79-1.93-6.13-.71C212,236.73,209.29,238.56,206.2,240.44Zm-10.45-80.11-.05.6a24,24,0,0,0,2.54.26c4.25,0,8.49,0,12.74,0q18.51,0,37,0a18.8,18.8,0,0,0,2.67-.36V160a16.39,16.39,0,0,0-2-.34C232.15,159.1,197.24,159.53,195.75,160.33Zm-.11,1.95v.54a18.5,18.5,0,0,0,2.66.37q24.87,0,49.74,0a8.39,8.39,0,0,0,1.74-.09c.32-.07.59-.41,1.06-.76-.47-.29-.73-.58-1-.58q-26.73,0-53.48,0C196.13,161.78,195.89,162.11,195.64,162.28ZM251,164.8l-.38-.59c-.26-.16-.52-.45-.77-.45q-26.75,0-53.49,0c-.25,0-.49.33-.74.51v.54a16.7,16.7,0,0,0,2.41.36q25.13,0,50.25,0a12.74,12.74,0,0,0,1.74-.13A7.15,7.15,0,0,0,251,164.8Zm-.43-6,.06-.56c-.26-.16-.51-.48-.76-.48q-26.74,0-53.49,0c-.25,0-.5.32-.8.53.21.3.34.66.47.66q26.48.14,53,.22A6.83,6.83,0,0,0,250.59,158.81ZM16.57,355.1c4-3.22,6.86-6.52,8.55-10.8a8.43,8.43,0,0,0-8.55.77Zm68.07-96.93c-2.75-2.07-8.48-.89-10.44,2.15-1.39,2.17-.86,3.57,2,4.39.83-2.63,3.09-2.08,5.17-2a21.28,21.28,0,0,1,1.37-2.42A27,27,0,0,1,84.64,258.17Zm8.66,1a40.2,40.2,0,0,1-4.44,0c-3.35-.44-5.26.67-6.18,3.77-.48,1.65-.24,2.05,1.78,2.82.9-.92,1.62-1.92,3.41-1.77,1.38.11,3-.9,4.24-1.79C92.77,261.73,92.84,260.46,93.3,259.19Zm-12.06,5.36a6.54,6.54,0,0,0-1.15-.28c-2.86-.11-4.27,2.72-6.77,3.37-.11,0-.18.27-.24.42-1.29,2.9-.35,5.35,2.58,6.92C78.43,272,77.83,267.37,81.24,264.55ZM69.47,259l3.33,1.06c1.61-3,4.43-3.77,7.49-3.85.15-1.84-.8-2.06-2-2.05a34.79,34.79,0,0,1-5.21-.11c-3-.43-4,.34-3.84,3.38A15.74,15.74,0,0,0,69.47,259Zm170-7.13c0,1.64,0,3.13,0,4.61s1.19,2.17,2.25,2.73a2.09,2.09,0,0,0,1.88-.59,10.7,10.7,0,0,0,2.13-7.65Zm-174.74,18a10.59,10.59,0,0,0,.69-1.33c.91-2.56,2-4.88,5-5.77.43-.13.58-1.22,1-2.15-3.09.05-5.38.59-7,2.87a4.11,4.11,0,0,1-1.52,1.17,2.75,2.75,0,0,0-1.75,2.75c.06,1.37,1.15,1.91,2.33,2.23C63.83,269.76,64.23,269.79,64.73,269.88ZM101.9,246l-2.64,3.16.54.13c0,2.13.17,4.27,0,6.39-.07,1-.27,1.79.8,2.28a3,3,0,0,0,3.29-.2c.94-.73.49-1.62.25-2.51-.36-1.36-.64-2.73-1-4.1C102.8,249.59,102.42,248.08,101.9,246ZM73.76,264.72a11.65,11.65,0,0,0-3.27-.9c-1.51,0-3.29,2.46-3.57,4.4-.39,2.6.23,3.93,2.51,5.17C70.79,270.68,72.14,268,73.76,264.72Zm17.26-7c5.08,1.19,8.6-1.36,8.32-5.37-.1-1.54-.72-2.51-2-2.44Zm1.6,6.27c-2.52-.12-4,.68-4.73,2.44A4.58,4.58,0,0,0,89,271.21c1.18,1,3.26,1,5.15-.06C91.87,269.16,92.54,266.5,92.62,264Zm2.84-13.88c-2.36-1.2-2.41-1.24-3.69.5a7.13,7.13,0,0,1-4.8,3.26,1.47,1.47,0,0,0-.91.36,3.6,3.6,0,0,0-1,1.77c0,.41.77,1.13,1.27,1.19a4.39,4.39,0,0,0,2.86-.29C91.64,255.09,94.15,253.26,95.46,250.11Zm3.22,16v-7.75c-1.7-.22-3.54-.23-4.45,1.61a5.34,5.34,0,0,0,.32,5.5C95.51,266.85,96.92,266.69,98.68,266.09Zm-16.87,0c-3.38,3-3.15,6.75.44,8.08.5-2.44,2.77-3.25,4.91-4.72-.88-.58-1.36-1.15-1.88-1.19C83.73,268.12,82.43,267.69,81.81,266.1Zm211.87,79.83-5.78-.65a26.71,26.71,0,0,0,5.82,8.45l.59-.28C294.11,351.07,293.91,348.69,293.68,345.93Zm-177-290.45v7.3l7.44-3.58Zm74.71,3.74,7.17,3.34V55.64Zm-58,23.61c1.3-1.34.68-2.1-.14-2.92-2.49-2.46-4.94-5-7.43-7.43-.51-.5-1.11-.9-2-1.58-.09.83-.35,1.48-.15,1.7C126.78,76,130,79.35,133.3,82.83ZM36.56,321.77l-.24.88a6.17,6.17,0,0,0,1.54.47,29.18,29.18,0,0,1,3.48-.14c2.77.41,5.53.95,8.26,1.57,1.06.24,1.75.33,1.82-1.18C46.57,321.42,41.69,320.35,36.56,321.77ZM233.24,132.93c-.42-.62-.7-1.47-1.23-1.67a2.27,2.27,0,0,0-2,.39,10.36,10.36,0,0,0-1.89,2.84c-.48,1-.63,2.12.65,2.77a2.13,2.13,0,0,0,3-.78A25.17,25.17,0,0,0,233.24,132.93ZM128.74,71.65l-.45,1c3.08,3,6.15,6,9.28,9,.27.26.93.1,1.71.16a5.44,5.44,0,0,0-.57-1.25c-2.78-2.87-5.57-5.75-8.41-8.56C130,71.63,129.27,71.73,128.74,71.65Zm92.51,64.79c0-2.31-.52-3.28-2.45-4.87-.91-.76-1.85-1.4-3.25-.67a5.6,5.6,0,0,0,2.41,5.36C219,137.05,220.1,137.6,221.25,136.44ZM122.54,80.79l.66-.4c-.06-.53.08-1.25-.22-1.56q-3.11-3.24-6.37-6.29c-.64-.6-1.51-.74-2.09.58C117.08,75.74,119.43,78.68,122.54,80.79Zm153.25,243.6-.24-.84c-4.73-1.43-9,.11-13.24,2.15.34,1.58,1.1,1.39,2.05.95a18.13,18.13,0,0,1,9.68-1.71C274.6,325,275.21,324.58,275.79,324.39ZM195.32,82.82c-.21-.85-.18-1.44-.45-1.71-3.27-3.29-6.58-6.53-9.9-9.76-.22-.21-.72-.13-1.18-.2C184.4,73.14,192.55,81.47,195.32,82.82Zm31.89,52.71c-.89-1.58-1.53-2.89-2.36-4.07a1.63,1.63,0,0,0-1.51-.44,2,2,0,0,0-1,1.46,12.92,12.92,0,0,0,1,4,2.22,2.22,0,0,0,2,.8C226,137.14,226.45,136.27,227.21,135.53Zm-46.9-64.25c.08,2.14,1.72,3,2.86,4.27a50.73,50.73,0,0,0,3.88,3.88c1.22,1.09,2,2.75,4.45,3.22a9.62,9.62,0,0,0-1.18-2.28C187.07,77.25,184.22,73.69,180.31,71.28ZM175.59,71c.47,1.6,5.8,7.57,7.91,8.94.31.2.82.09,1.35.13C183.76,77.46,177.79,71.58,175.59,71Zm-56.95-.34c-1,.66-.62,1.37,0,2,2.21,2.24,4.42,4.47,6.69,6.65.33.32,1,.32,1.54.5C126.75,77.69,121.53,72,118.64,70.67Zm78.81,10.64C197,78,194,76.63,192.16,74.42c-.76-.91-1.55-2.21-3.75-1.56A51.49,51.49,0,0,0,197.45,81.31ZM38.79,324.52l-.32,1a7.71,7.71,0,0,0,1.74.74c2.77.43,5.55.83,8.34,1.12.45.05,1-.52,1.9-1.07A25.66,25.66,0,0,0,38.79,324.52ZM195.15,74.87c.5,2.23,4.62,6.53,6.93,7.39C202.31,79.91,198.19,75.38,195.15,74.87ZM273.5,327.8c.09-1.24.08-1.38-.67-1.35-3.15.1-6.28.36-9.62,2.42,1,.38,1.52.8,2,.72C267.94,329.06,270.69,328.42,273.5,327.8ZM235.13,135.38c1.67,0,4.12-3,3.67-4.13a2.1,2.1,0,0,0-1.64-1c-1.33,0-3.17,2.16-3,3.47C234.26,134.38,234.88,135,235.13,135.38Zm-25.9-5.6c-.31,3,2.63,5.57,5.26,4.59A6.17,6.17,0,0,0,209.23,129.78Zm-75.55-58c0,1.54,2.5,4.59,6,7.32a9.74,9.74,0,0,0,2.1.88C140.49,77.09,135.51,72.24,133.68,71.73Zm36.74-.5c1.61,1.49,2.23,3.56,4.69,3.42C174.81,71.91,173.31,70.7,170.42,71.23Zm47.92,68.1c2.66.84,7.56.7,8.95-.17C225.7,138.14,220.23,138.14,218.34,139.33Zm-175.29,188c.09,1.52.37,1.93,1.57,1.92.47,0,1-.52,1.43-.81l-.22-.6Zm224.83,4.08c2.38-.1,2.4-.12,2-1.8C267.72,329.91,267.72,329.91,267.88,331.37Z"/><path class="cls-1" d="M149,188.75l8.64-24,.51-.09,8.41,23.84h24.56l.13.56c-.75.63-1.48,1.28-2.25,1.86-5.12,3.87-10.23,7.76-15.39,11.57a2.69,2.69,0,0,0-1.21,3.31c1.81,7.42,3.41,14.89,5.07,22.35a16.68,16.68,0,0,1,.13,1.89L157.9,213.51c-6.14,5.47-12.21,10.88-18.27,16.3l-.46-.23,5-25.74-20.35-14.62.16-.47Zm24.16,35.51.29.26-.34-.21a8.43,8.43,0,0,0-.57-1.34q-6.36-9.84-12.76-19.66c-.25-.39-.55-.76-.82-1.14a63.9,63.9,0,0,0-.48,8.44,3.35,3.35,0,0,0,1.36,3c3.93,3.21,7.77,6.52,11.66,9.77A8.84,8.84,0,0,0,173.13,224.26Zm-31.62,0a6.23,6.23,0,0,0,1.14-1.09q6.45-10.4,12.84-20.81a14.79,14.79,0,0,0,.77-1.83c-3.61,1.12-6.75,2.12-9.92,3.06-1,.3-1.19,1-1.36,1.84-.6,3.27-1.31,6.52-1.91,9.79-.55,3-1,6-1.51,9.07-.1.14-.2.28-.06.09C141.47,224.6,141.49,224.42,141.51,224.25Zm15.54-26.74V170.85l-.36-.1q-3.27,9.18-6.52,18.31Zm-1.47.62.23-.37c-1.83-2.26-3.71-4.48-5.46-6.78a3,3,0,0,0-2.75-1.29c-5.25.06-10.5,0-15.74,0-.6,0-1.2.08-1.8.12l0,.38Zm4.69-.66.39.41L185,190.13l-.08-.31H166.34Z"/><path class="cls-1" d="M90.42,355.07c-3.2-.83-6.28-1.74-9.41-2.4a4.4,4.4,0,0,0-3.2.47c-.45.33,0,1.9.1,3.09-1.85,1.19-3.13,1.1-4-.48s-.28-3.28,1.59-4.39a7.86,7.86,0,0,1,5.83-.77c6,1.35,11.94,2.9,18.08,4.41-.28.94-.4,1.48-.59,2-2.38,6.25-4.58,12.52-4.75,19.32a2.47,2.47,0,0,1-2.58,2.5c-1.42,0-2.31-1-2.17-2.74a43.52,43.52,0,0,1,.9-5.16c.21-1.05.54-2.08.88-3.36-2-.14-3.85.06-5.5-.48s-3.07-1.82-4.86-2.94c-.72,1.63-1.36,2.88-1.83,4.19-1.22,3.39-.83,4.47,2.26,6.5a2.2,2.2,0,0,1-2.66,1.59A5,5,0,0,1,74.06,371a11.32,11.32,0,0,1,1.46-4.19c3.17-5.35,7.43-9.39,13.69-10.9a2.91,2.91,0,0,0,.69-.27C90,355.53,90.13,355.38,90.42,355.07ZM82,362.92c1.9.27,3.55.4,5.15.76s2.5,2.28,4.45,1.71c1-2.74,2-5.45,3-8.16,0-.06-.06-.15-.09-.22C90.84,356.16,84.05,359.23,82,362.92Z"/><path class="cls-1" d="M182.54,363.73c-3-.12-6.08-.28-9.12-.33a2.36,2.36,0,0,0-2.73,1.9l1.86,1.72a13.22,13.22,0,0,1-3.08,1.68,3.78,3.78,0,0,1-2.3-.77c-1.82-1.08-2.12-2.74-.54-4.08a15.06,15.06,0,0,1,4.12-2.19,7.4,7.4,0,0,1,2.7-.39c5.57,0,11.13,0,17,0,0,1.16,0,2,0,2.78.05,3.08-.11,6.18.22,9.24a60.71,60.71,0,0,0,1.75,8.26c.4,1.61.07,2.58-1.42,3.17s-2.81.21-3.23-1.32a46.64,46.64,0,0,1-1-6.13c-.13-1-.11-2-.18-3.27-2.55,1.29-4.88,1.47-7.12.14-2.4,4.21-1.24,7.81,3,9.69-.26,1.65-1.36,2.15-2.87,2.1-3.47-.11-5.68-2.55-5.2-6.19a23.89,23.89,0,0,1,7.41-14.89,3.64,3.64,0,0,1,1.11-.51Zm-2.67,8h6.62V364.6A8.17,8.17,0,0,0,179.87,371.69Z"/><path class="cls-1" d="M270.48,357.5c-1.6.95-3,2.14-4.56,2.59s-3.27.1-4.95.1c-1.41,4.29,1.18,8.19,5.55,8.08a3.53,3.53,0,0,1-2.42,3.4,3.62,3.62,0,0,1-4-.69,7.21,7.21,0,0,1-2.82-6.63,83.17,83.17,0,0,1,2.17-10c.51-1.92,1.39-3.74,2.16-5.77a7.09,7.09,0,0,0-5.08,1.61c-.51.41-.65,1.39-.81,2.13-.11.55.13,1.17,0,1.72a2.25,2.25,0,0,1-2.59,1.8,1.75,1.75,0,0,1-1.35-2.49,9.79,9.79,0,0,1,1.94-3.39,7.67,7.67,0,0,1,2.89-1.92c4.27-1.62,8.58-3.12,12.94-4.68,3.14,6.66,4.6,13.93,9.67,19.69a5.4,5.4,0,0,1-.56,1.27c-1.32,1.85-2.65,1.94-4,.13-1.09-1.47-2-3.09-2.92-4.66C271.37,359.12,271,358.4,270.48,357.5Zm-4.2-10.07a9.76,9.76,0,0,0-4.84,8.94c2.58-1.94,5.7,1.13,8.32-1.53Z"/><path class="cls-1" d="M194.72,361.75c2.33-1.62,2.33-1.62,5,.39a36.07,36.07,0,0,1,3.42-1.87,7.76,7.76,0,0,1,3.1-.72A3.92,3.92,0,0,1,209.8,365c-.28.77-.67,1.51-1.08,2.42a10.46,10.46,0,0,1,5.23,6,9,9,0,0,1-7.21,11.78,4.1,4.1,0,0,1-2.34-.58c-2.66-1.53-2.64-1.57-5.17.34a13.3,13.3,0,0,1-1.3.7C197.25,377.6,196.78,369.67,194.72,361.75ZM201,379.4c2.38.77,4.39,1.37,6.37,2.07,1,.36,2,1.08,3,.2a3.09,3.09,0,0,0,1-3.38,9.91,9.91,0,0,0-5.66-6.57c-1.68-.81-4.5.72-4.66,2.5S201,378,201,379.4Zm-.4-7.85a11.33,11.33,0,0,0,5.17-4.07c1.22-2.21.21-4.08-2.34-4.08a21.61,21.61,0,0,0-3.73.68C200.06,366.77,200.35,369.13,200.64,371.55Z"/><path class="cls-1" d="M70.9,372.37c-2.6,3-6.41,1-7-2.2-.47-2.53-.87-5.08-1.38-7.61-.24-1.19-.68-2.34-1-3.58l-4,.63c-1.33,2.75-2.49,5.41-3.89,7.94-1.12,2-2.16,2.42-4.74,2.31.4-.9.74-1.72,1.14-2.5a93.75,93.75,0,0,0,6.12-16.61c.55-1.94.77-3.78-.84-5.37,3.39-1.41,4.25-1.11,5.75,2,1.82-.19,3.7-.51,5.58-.55a8.19,8.19,0,0,1,3.63.58,3.6,3.6,0,0,1,1.16,5.69A14.64,14.64,0,0,1,69,355.35c-.84.66-1.78,1.21-2.89,1.94a48.12,48.12,0,0,0,1.63,12.17C68.07,370.64,69.8,371.41,70.9,372.37ZM57.52,357.59A10.93,10.93,0,0,0,67.26,354a2.72,2.72,0,0,0-1-4.38A8.89,8.89,0,0,0,62.9,349a3.09,3.09,0,0,0-3.46,2.51C59,353.44,58.26,355.29,57.52,357.59Z"/><path class="cls-1" d="M257,373.34c-.9,2.94-2.63,3.69-4.94,1.84a31.53,31.53,0,0,1-4.24-4.54c-1-1.21-1.83-2.57-2.73-3.85-3.24,1.85-3.26,1.94-2.7,5.49a33.05,33.05,0,0,1,.35,4,4,4,0,0,1-3.1,4.37c-.49-5.58-2-10.91-3-16.32-.51-2.68-1.35-5.17-3.55-6.95,2.27-2.62,3-2.74,5.36-.9,1-.94,2-2,3.14-2.83,2.33-1.76,4.94-2,6.47-.74,1.71,1.43,2.33,4.48,1.33,6.92-.44,1.07-1,2.08-1.71,3.39C250.41,366.88,252.25,371.4,257,373.34Zm-15.32-5.46a14.48,14.48,0,0,0,4.84-6.25c.71-1.9.27-3.77-.88-4.56s-5.09-.47-6.14.67a1.67,1.67,0,0,0-.41,1.31C239.9,361.91,240.77,364.74,241.7,367.88Z"/><path class="cls-1" d="M51.53,349.2a21.91,21.91,0,0,1-2.14,8.7c-2.71,5.45-7.82,7.23-13.39,6.24-3.37-.59-5.5-3-6-6.51A19.38,19.38,0,0,1,32,346c2.63-5.08,10.54-7.49,15.67-4.9a5.79,5.79,0,0,1,3.2,3.94C51.21,346.39,51.32,347.81,51.53,349.2Zm-4.27,2.45c-.24-2.4-.36-4.06-.57-5.71a4.26,4.26,0,0,0-2.41-3.3c-2.24-1.21-7.16-.65-8.47,2.95a24.32,24.32,0,0,0-1.68,9.53,9.42,9.42,0,0,0,1.39,4.2,5.59,5.59,0,0,0,6,2.78,5.21,5.21,0,0,0,4.58-4.05C46.68,355.73,47,353.33,47.26,351.65Z"/><path class="cls-1" d="M132.66,370a10.38,10.38,0,0,0-2.69,8.65,4.94,4.94,0,0,0,5.12,4.48c1.91-.07,2.81-.86,2.71-2.77-.08-1.58.08-2.87,1.83-3.32a2.06,2.06,0,0,1,2.5,1.16c.87,1.65-.16,2.73-1.24,3.66a22,22,0,0,1-4,2.95,8.61,8.61,0,0,1-10-1.48,5.12,5.12,0,0,1-1.43-5,17.35,17.35,0,0,1,4.07-7.64c.53-.64,1.08-1.25,1.65-1.92a2.51,2.51,0,0,0-2.83-1.59c-1.12.17-1.29,1.12-1.46,2.06a3.17,3.17,0,0,1-2.89,2.69,1.67,1.67,0,0,1-1.4-.65c-.63-1.48,0-2.74,1-3.84a9.53,9.53,0,0,1,12.67-1c.53.41,1.06.81,1.6,1.2a1.65,1.65,0,0,0,2.57-.45,7.86,7.86,0,0,1,1.62-1.86,2,2,0,0,1,2.75.15,1.79,1.79,0,0,1,0,2.51,7.23,7.23,0,0,1-7.13,3.2C136.09,370.94,134.49,370.44,132.66,370Z"/><path class="cls-1" d="M233.56,370.24c-.62,2.65-1.09,5.35-1.91,7.94-1.44,4.52-8.31,5.5-11.46,2.16-4.41-4.67-6.84-14.5-.68-21.2a6.84,6.84,0,0,1,11.3,1.41A26,26,0,0,1,233.56,370.24Zm-2.84,3.3a19.82,19.82,0,0,0-2.51-9.28,10.18,10.18,0,0,0-3.23-3.33c-3-1.8-6.24-.11-6.16,3.36a34.72,34.72,0,0,0,1.53,9,7.13,7.13,0,0,0,5.79,4.93,3.23,3.23,0,0,0,4.19-2.48A17.42,17.42,0,0,0,230.72,373.54Z"/><path class="cls-1" d="M154.2,362.86a18.26,18.26,0,0,1,1.87-1.19c2.35-1.07,3.78-.35,4,2.22.44,5.89.71,11.79,1.05,17.69.06,1.06.13,2.11.22,3.42l6.73-.47c0-1.06-.06-1.95,0-2.83a2.67,2.67,0,0,1,2.41-2.72c1.34-.09,2.32.8,2.68,2.43a3.34,3.34,0,0,1-1.83,4,21.86,21.86,0,0,1-5.6,1.93c-2.76.49-5.59.59-8.54.87C156.55,379.75,158.39,371,154.2,362.86Z"/><path class="cls-1" d="M120.73,379.57c-1.93,2.21-4.13,3.9-7.27,3.7-5.64-.36-9-4.82-7.82-10.39,1-4.68,6-8.9,10.76-9a5.17,5.17,0,0,1,2.81.77,2.79,2.79,0,0,1,1.2,2.16c-.11.65-1.09,1.4-1.85,1.65a3.24,3.24,0,0,1-3.61-1c-1.46-1.57-2.33-1.55-3.51.19a26.43,26.43,0,0,0-1.85,3.91l.45.46c.68-.16,1.36-.3,2-.48a11.7,11.7,0,0,1,2.14-.58,1.86,1.86,0,0,1,2.16,1.63c.17,1.17-.81,1.64-1.73,1.72-1.55.13-3.13,0-4.69,0a6,6,0,0,0,7.09,5.95c1.21-.19,2.41-.45,3.62-.69Z"/><path class="cls-1" d="M120.67,379.64l0-.17,0,.1Z"/><path class="cls-1" d="M88.26,288l3.62-4.17c.6,1.55-.2,2.68-1.06,3.91,2.4.68,3.25-1,4.52-2.66l.36,2.27c1.49.45,2.34-.48,3.28-1.49l1.25,1.49,2.36-.91,0,.42,6.08.74,0,.4Z"/><path class="cls-1" d="M122.72,240.68l-.41,0,.15,0a.73.73,0,0,1,.2,0Z"/><polygon class="cls-1" points="120.08 244.32 119.96 244.23 120.02 244.38 120.08 244.32"/><path class="cls-1" d="M209.1,122.16l-1.53-.43.13-.33,1.34.82Z"/><path class="cls-1" d="M212.62,123.71l1.53.47.06-.07-1.53-.46Z"/><path class="cls-1" d="M210.11,122.73l1.47.45.06-.06-1.47-.46Z"/><path class="cls-1" d="M212.68,123.65l-1-.53-.06.06,1,.53Z"/><path class="cls-1" d="M209,122.22l1.07.51.06-.07-1.07-.5Z"/><path class="cls-1" d="M205.09,102.17l.56-.57Z"/><path class="cls-1" d="M204.59,102.68l.57-.58Z"/><path class="cls-1" d="M146.74,58.68c3.41-1.21,6.81-2.45,10.25-3.6a3.21,3.21,0,0,1,1.91.1c3.3,1.13,6.57,2.33,10.42,3.72-4.06,1.21-7.59,2.28-11.13,3.32a1.88,1.88,0,0,1-1,0c-3.49-1-7-2.07-10.48-3.11Zm2.81,0c6.86,3,10.91,2.95,16.1-.09-2.36-.85-4.61-1.7-6.89-2.46a2.92,2.92,0,0,0-1.7-.09C154.62,56.86,152.22,57.75,149.55,58.7Z"/><path class="cls-1" d="M135.62,56.1a2.93,2.93,0,0,1,2.89,2.83,3,3,0,0,1-3,3,3.07,3.07,0,0,1-2.89-2.88A2.93,2.93,0,0,1,135.62,56.1ZM137.54,59A2,2,0,0,0,133.6,59a2,2,0,0,0,1.83,2A2,2,0,0,0,137.54,59Z"/><path class="cls-1" d="M177.05,59.08a2.84,2.84,0,0,1,2.91-3,2.9,2.9,0,0,1,2.85,2.83,3,3,0,0,1-2.95,3A2.92,2.92,0,0,1,177.05,59.08Zm4.8-.06a1.85,1.85,0,0,0-1.83-2,1.79,1.79,0,0,0-2,1.76A1.93,1.93,0,0,0,179.93,61,2,2,0,0,0,181.85,59Z"/><path class="cls-1" d="M90.63,240.22c-2.19-.45-2.46-.81-2.46-3.12a1.54,1.54,0,0,1,2.37.17A2.46,2.46,0,0,1,90.63,240.22Z"/></g></g></svg>