<svg xmlns="http://www.w3.org/2000/svg" viewBox="0 0 400 333.33"><defs><style>.cls-1{fill:#181818;fill-rule:evenodd;}</style></defs><g id="Layer_2" data-name="Layer 2"><g id="Layer_1-2" data-name="Layer 1"><path id="telegram-1" class="cls-1" d="M306.4,329.64a19.83,19.83,0,0,0,18.45,2.42,19.33,19.33,0,0,0,12.07-14C351.4,250,386.53,77.72,399.71,15.8a13,13,0,0,0-4.33-12.63A13.32,13.32,0,0,0,382.1.84C312.22,26.7,97,107.45,9,140a13.71,13.71,0,0,0,.85,26.05c39.45,11.8,91.23,28.21,91.23,28.21s24.2,73.09,36.82,110.25a14.57,14.57,0,0,0,10.05,9.6,14.41,14.41,0,0,0,13.51-3.45L213.1,262S272.63,305.6,306.4,329.64ZM122.9,185l28,92.3,6.21-58.45L326.85,65.78a4.62,4.62,0,0,0,.55-6.28,4.74,4.74,0,0,0-6.27-1.07Z"/></g></g></svg>