<svg xmlns="http://www.w3.org/2000/svg" viewBox="0 0 400 400"><defs><style>.cls-1{fill:#181818;}</style></defs><g id="Layer_2" data-name="Layer 2"><g id="Layer_1-2" data-name="Layer 1"><path class="cls-1" d="M0,361.91V38.09c.07-.38.17-.76.21-1.14.15-1.36.22-2.72.43-4.07a37.48,37.48,0,0,1,9.88-20.29A38.06,38.06,0,0,1,37.14.2,9.08,9.08,0,0,0,38.28,0H361.72c.51.07,1,.2,1.53.22a35,35,0,0,1,9.46,1.71,38.87,38.87,0,0,1,27.08,34.92,10.7,10.7,0,0,0,.21,1.24V361.91c-.07.38-.17.76-.21,1.14-.15,1.36-.22,2.72-.43,4.07a37.55,37.55,0,0,1-10,20.43,38,38,0,0,1-26.49,12.25,9.08,9.08,0,0,0-1.14.2H38.28a15,15,0,0,0-1.62-.22,36.08,36.08,0,0,1-9.92-1.9A38.25,38.25,0,0,1,9.55,386.32,38,38,0,0,1,.23,363.44C.2,362.93.08,362.42,0,361.91Zm247.64-42.36v-1.67l-1.49.34a3.4,3.4,0,0,0,1.51,1.31c0,.39-.07.78-.07,1.16q0,4.85,0,9.67,0,12.88,0,25.78a1.31,1.31,0,0,0,.87,1.42c1.56.66,3.07,1.42,4.64,2.05A106.45,106.45,0,0,0,280.8,366c3.38.37,6.79.63,10.2.75a139.92,139.92,0,0,0,20.57-.57c3.76-.44,7.52-1,11.25-1.71a64.9,64.9,0,0,0,22.52-8.41c7.35-4.48,13.1-10.4,16.41-18.51A61.21,61.21,0,0,0,366.41,319c.19-2.65.09-5.33.06-8a44.28,44.28,0,0,0-1.38-10.11,38.57,38.57,0,0,0-8.26-16.61,66.1,66.1,0,0,0-12-10.83,99.85,99.85,0,0,0-14.15-8c-6.58-3.12-13.25-6-19.91-9a67.15,67.15,0,0,1-14.47-8.21,25.78,25.78,0,0,1-6.19-6.44,13.66,13.66,0,0,1,.75-15.63,20.2,20.2,0,0,1,7.44-5.71,42.88,42.88,0,0,1,16.28-3.51,71.5,71.5,0,0,1,12.75.6,85.43,85.43,0,0,1,12.76,2.71c6.54,1.95,12.84,4.45,18.45,8.43a4.27,4.27,0,0,0,.66.29V192.18c-.31-.14-.6-.3-.9-.4-3-.93-5.93-1.95-8.94-2.75a92.38,92.38,0,0,0-16.1-2.78c-3.76-.3-7.52-.6-11.28-.74-3.41-.13-6.83-.12-10.25,0s-6.56.26-9.82.64c-3.57.42-7.13,1-10.66,1.71a65.49,65.49,0,0,0-15.4,4.84,53,53,0,0,0-15.56,10.44,45.21,45.21,0,0,0-13.62,30.14,59.22,59.22,0,0,0,.52,13A42.89,42.89,0,0,0,251.62,260,50.8,50.8,0,0,0,266,276.36a93.17,93.17,0,0,0,16.48,9.85c5.72,2.73,11.55,5.22,17.33,7.81a83.8,83.8,0,0,1,12.11,6.3,37.24,37.24,0,0,1,8.62,7.26,16.07,16.07,0,0,1,3.88,12.29,13.76,13.76,0,0,1-4.77,9.21,25.3,25.3,0,0,1-9.92,5A51.33,51.33,0,0,1,296,335.9a75.45,75.45,0,0,1-12.83-.85,74.67,74.67,0,0,1-13.82-3.65A75.63,75.63,0,0,1,248.47,320,6.07,6.07,0,0,0,247.64,319.55Zm-65.49,45.31v-143H232c.24-1.68.15-31.41-.08-32.07H92.2V222h50V364.86Z"/></g></g></svg>