<svg xmlns="http://www.w3.org/2000/svg" viewBox="0 0 400 319"><defs><style>.cls-1{fill:#1f2937;}</style></defs><g id="Layer_2" data-name="Layer 2"><g id="Layer_1-2" data-name="Layer 1"><g id="Layer_2-2" data-name="Layer 2"><g id="Layer_1-2-2" data-name="Layer 1-2"><path class="cls-1" d="M201.69,167H166v56h37.32c24.39,0,37.31-9.78,37.31-28.18S227.3,167,201.69,167Z"/><path class="cls-1" d="M362.87,111.52c-6.79-22-7.73-49-7-69.83C356.62,20,339.74,0,317,0H83.07C60.25,0,43.37,20,44.13,41.69c.72,20.83-.22,47.82-7,69.83S18.8,147.55,0,149.34v20.32c18.8,1.79,30.31,15.75,37.12,37.82s7.73,49,7,69.83C43.36,299,60.24,319,83.06,319H317c22.82,0,39.7-20,38.94-41.69-.72-20.83.22-47.82,7-69.83s18.29-36,37.09-37.82V149.34C381.16,147.55,369.67,133.59,362.87,111.52ZM208.37,245H139V75h69c30.68,0,50.78,16.73,50.78,42.41,0,18.05-13.54,34.16-30.81,37v.94c23.49,2.6,39.31,19,39.31,41.59C267.34,226.84,245.17,245,208.37,245Z"/><path class="cls-1" d="M232.88,120.61c0-15.86-11.17-24.61-30.81-24.61H166v51h30.43C219.9,147,232.88,137.53,232.88,120.61Z"/></g></g></g></g></svg>