<svg xmlns="http://www.w3.org/2000/svg" viewBox="0 0 400.22 360.57"><defs><style>.cls-1{fill:#1f2937;}</style></defs><g id="Layer_2" data-name="Layer 2"><g id="Layer_1-2" data-name="Layer 1"><g id="Layer_2-2" data-name="Layer 2"><g id="Layer_1-2-2" data-name="Layer 1-2"><path class="cls-1" d="M66,199.08c-19.6,4.15-37.94,2.42-53.71-11.23-4.55-3.93-8.17-8.62-9.12-15.51,3.9,1.52,7.26,2.89,10.66,4.13,10.14,3.7,20.47,7,31.4,6.2,6-.43,11.91-2.21,17.87-3.39l-.15-1c-4.3-1-8.62-1.82-12.89-2.91-12-3.05-23.13-8-32.53-16.27C6.73,149.47.67,137.51,0,123c-.15-3.72.17-7.54,2.61-11.38.69,1.44,1.21,2.44,1.66,3.47a91.5,91.5,0,0,0,15.48,25.07c11.56,13,26.42,18.32,43.41,18.67,2.59.06,5.17,0,8.22,0-.45-1.36-.83-2.42-1.15-3.5-2.82-9.27-2.83-18.07,4.28-25.72a4.78,4.78,0,0,0,.8-2.42c.47-2.84.64-5.75,1.32-8.54,1-3.9,3-7.15,6.45-8.9-.68-4.33-1.56-8.41-1.91-12.53a30.14,30.14,0,0,1,6-20.78,6.43,6.43,0,0,0,1-6.53c-4.23-13.18-5.06-26.45.86-39.36C95.71,16.2,107,6.89,121.83,1.84c.78-.27,1.62-.39,2.75-.65-3.41,4.21-6.7,7.94-9.62,12C105.74,25.81,101.11,40,102,55.71a68.68,68.68,0,0,0,5.5,23.43c1.91,4.39,1.61,8.47.89,13-2,12.37-4,24.76-5.11,37.22-1.13,13,5.68,22,16.79,28.22,14.45,8.07,28.76,2.06,37.27-9.31l-2.17-1.14c4.88-3.51,9-7.46,11.19-13.27l-1.47-.49c.8-2.76,1.58-5.51,2.37-8.25l-1.45.21c-.75-.86-1.93-1.61-2.17-2.6-1.09-4.54-3.82-7.27-8-9.31A90.24,90.24,0,0,0,132,105.61c-5.08-.9-7,0-9.6,4.17A8.42,8.42,0,0,1,122.92,99a46,46,0,0,1,7.35-6c4.1-2.93,8.48-5.5,12.49-8.54a74.89,74.89,0,0,1,35.43-14.78c3.79-.53,7.64-.73,12-1.13v20.3q.62,97.29,1.26,194.61c.15,23.65.23,47.3.45,71,0,2.31-.52,3.64-2.77,4.52-6.18,2.42-10.58,2.8-15.59-3.31-3.26,2.44-6.83,3.72-11,2.65-3.92-1-7.24-2.74-9.3-6.32-8.06,4-14.62-2.08-14.33-8.26a30.72,30.72,0,0,1-5.34-.05,6.92,6.92,0,0,1-5.48-8.11,6.82,6.82,0,0,1,1.38-3l29.13-36.85c.55-.7,1-1.42,2-2.78l-11.06,2.45.54,2.14-4.64.55c-3.34,4.39-7.49,6.57-13.33,4.69l-1.55,10.09-4.28-8.94c-1,3.63-1.49,6.39-2.56,8.9-.75,1.76-2.29,3.18-3.48,4.75-.62-1.8-1.37-3.56-1.81-5.4a30.83,30.83,0,0,1-.3-4.7l-9.74,10.69a10.09,10.09,0,0,1,1.48-10c-6.23.88-13.5,8.07-13.71,13.46a68.37,68.37,0,0,1,7.94.88,52.77,52.77,0,0,1,9.29,2.85c2.12.9,2.74,3,2.26,5.31-1.64-.81-3.24-1.62-4.86-2.38-.44-.2-1.11-.53-1.37-.35-2.85,1.88-5.73.71-8.62.28a2.37,2.37,0,0,0-1.73.21c-4.19,3.81-7.84,1.09-11.18-1.19-1.82-1.24-3.14-1.67-5.07-.68-7.52,3.86-15.1,7.63-22.6,11.54a5.91,5.91,0,0,0-2,2.4c-.93,1.6-1.69,3.31-2.75,5.41-2-2.79-3.21-4.94-1.36-7.94.89-1.45.49-3.89,1.57-5a24.37,24.37,0,0,1,7.16-5.16c4-1.85,8.34-3.07,12.57-5.12-3.18-.35-6.39-.56-9.54-1.1-2.62-.44-5.16-1.39-7.77-1.85a6.3,6.3,0,0,0-3.83.37c-1.55.83-2.7,2.37-4.19,3.34a30.2,30.2,0,0,1-4.6,1.88l-.4,3.16c-3.48-2.86-3.39-4.91-.63-7.73a130.17,130.17,0,0,0,10.3-11.84,9.22,9.22,0,0,1,11.1-3.32c4,1.49,8.11,2.58,12.18,3.81a12.2,12.2,0,0,1,2.6.64c5.38,3.14,10,1,14.38-2.1,9.8-7,17.36-16.11,24.45-25.68.09-.12,0-.36,0-1a32.94,32.94,0,0,1-23.34,6.08c7.45-5.75,12.71-12.23,14.58-21.87-7.47,8.81-16.21,14-27,15.45-10.57,1.41-20.81,1-30.88-5.5,3.24-.82,5.8-1.27,8.23-2.12,7.21-2.52,14.53-4.82,21.49-7.93A24.39,24.39,0,0,0,96,250.05c.73-2.24,1.64-4.41,2.21-5.93-6,3.6-12.15,8-18.85,11.11A50,50,0,0,1,21.78,243.8c-3.5-3.81-5-6.69-5.49-10.76,1.4.51,2.65.92,3.86,1.42,10,4.14,20.28,7,31.28,6.55,13.64-.52,24.2-6.56,32.14-17.43,1.85-2.54,3.39-5.31,5.08-8L88,215c-.75.64-1.51,1.26-2.26,1.91-8,7-16.81,12.36-27.41,14.47-18,3.58-39.67-6.51-48.28-22.77-1.21-2.31-1.65-5.07-2.45-7.61l.94-.53c1,.57,2,1.13,3,1.72,8.89,5.19,18.25,9,28.75,8.74C50.5,210.68,58.85,206.19,66,199.08Z"/><path class="cls-1" d="M275.83,4.18c5.89.56,10.93,3.11,15.65,6.26,15.6,10.44,24.34,24.85,23.68,43.9-.22,6.48-2.3,12.88-3.43,19.33-.2,1.15-.34,2.72.26,3.53,7.68,10.26,8.86,21.46,5.1,33.43-.12.37-.21.75-.35,1.25,6.66,3.79,7.36,10.38,8.15,17a8.66,8.66,0,0,0,1.77,4.11c5.58,7,5.94,14.73,3.87,22.92-.43,1.71-1.06,3.36-1.67,5.26,15.51.53,30.11-1.22,42.84-10.67,12.42-9.23,19.64-22.18,25.81-36.49,2.74,4.39,2.93,8.72,2.58,13-1.52,19-11.78,32.35-27.69,41.83-10.31,6.14-21.71,9.24-33.44,11.29l-1.69.33-.15.76c4.22,1.12,8.39,2.55,12.67,3.3,12.74,2.24,24.66-1.49,36.45-5.62,3.46-1.2,6.83-2.65,11.21-4.38-1,2.86-1.47,5.08-2.53,7-4.54,8.2-11.69,13.5-20.09,17.16-12.61,5.5-25.67,5.86-38.93,2.88-.48-.11-1-.19-1.44-.26-.07,0-.16.08-.49.27,18.91,17.61,38.2,13.15,57.7,1.24l.76.43c-.5,2.1-.64,4.37-1.56,6.26-4.6,9.46-12.2,15.93-21.51,20.38-17.71,8.46-34.05,5-49.39-6.12-1.37-1-2.68-2.08-4-3.16a30.69,30.69,0,0,0-4-3,44.92,44.92,0,0,0,12.69,16.94c9.91,8.13,21.54,10.37,33.75,8.3,7.86-1.33,15.43-4.37,23.13-6.64.72-.22,1.44-.48,2.15-.71l.8.55c-1.28,2.47-2.24,5.18-3.9,7.37-7.1,9.36-16.72,15-28,17.51-17.82,4-33.15-1.72-47-12.57-1.14-.89-2.24-1.83-3.3-2.7,2.41,14.33,11.89,22,24.81,26.26,5.56,1.83,11.26,3.26,16.89,4.87.92.26,1.85.48,3.49.91-9.86,6.47-20.07,6.9-30.61,5.54-10.86-1.4-19.68-6.53-26.8-15.05,0,8.46,11,22.74,20.94,27.48-9.65,1.91-24.81-.08-30.27-10.79-2.33,5.41,1.75,14.33,9.69,21.19-9.31,2.83-19.7-4.49-21.07-14.84-4.48,2.83-6,10.51.15,19.89-7.71-2.22-11.82-7.06-14-13.89-4.69,3.09-5.88,7.79-4.19,16.15-5.5.71-10-3.88-13.14-13.45-4.66,2.33-5.28,6.59-2,14.25-3.42.4-6.28-.91-8.86-2.83-5.7-4.22-9.18-10.16-12.16-16.41a7.44,7.44,0,0,1-.37-3.24q.66-29.94,1.36-59.85c0-1.52.22-2.47,2-3,21.83-7.1,38.82-20.72,52.33-39,4.68-6.34,9.82-12.36,14.12-18.93,8.67-13.26,13.81-27.82,12.37-43.83-1-10.88-3-21.68-5.08-32.42-.88-4.65-.92-8.8.92-13.27a70.16,70.16,0,0,0,5.5-29.13c-.49-16.15-6.94-29.85-17.08-42.06-.9-1.08-1.81-2.14-2.74-3.18S276.71,5.11,275.83,4.18Z"/><path class="cls-1" d="M216.22,316.92l-21.39,3.63c-.32-48.52-.64-96.53-1-144.9a229,229,0,0,0,68.95-8.4c-.2,3.77,0,7.13-.62,10.34-1.74,9-6.82,16.3-13,22.8C239,211,226.57,218.33,213.22,224.19c-6.16,2.7-4.94,1-5,7.4-.09,20.56-.17,41.11-.11,61.67a22.86,22.86,0,0,0,1.46,7.49C211.48,305.88,213.71,310.89,216.22,316.92Z"/><path class="cls-1" d="M215.75,170a50.65,50.65,0,0,1-19-1.92c-1.89-.56-2.89-1.5-2.89-3.81,0-13.27-.21-26.54-.25-39.81a13.64,13.64,0,0,1,1-4.89c5.32-13.62,6-27.07-.55-40.62-1.27-2.65-.75-6.16-1.07-9.36,16.44,1.09,29.85,17.47,28.56,34.25a56.72,56.72,0,0,1-9.18,27c-6.89,10.51-5.67,20.7-.83,31.22C212.72,164.56,214.22,167,215.75,170Z"/><path class="cls-1" d="M31.31,24.07c-1,17.38.05,34.31,8.28,50.11S60.66,100.7,75.32,108.8c-1.58,4.71-3,9.07-4.65,13.92a20.41,20.41,0,0,1-4-1.33C44,109.13,27,91.91,20.82,66.13,17.08,50.62,21.62,36.62,31.31,24.07Z"/><path class="cls-1" d="M329.76,125.05c-1.59-4.76-3-9-4.65-13.89C358.6,93.36,372.84,64.6,369,26.29A50.11,50.11,0,0,1,379.45,47a49.48,49.48,0,0,1-2.79,31.63c-8.44,19.74-22.7,34.19-41.37,44.46a34.79,34.79,0,0,1-4.7,1.91A1.46,1.46,0,0,1,329.76,125.05Z"/><path class="cls-1" d="M10.63,61.81c.95,4.34,1.84,8.69,2.88,13,6.79,28.14,24.06,46.5,51.61,55.27.82.27,1.62.61,2.72,1-3.33,5.76-5.43,11.69-4.36,19.08C48,147,35.9,139.22,26,128.09,8.88,109,5.76,86.27,10.63,61.81Z"/><path class="cls-1" d="M336.94,152.7c1-7.5-.92-13.45-4.51-19.34C367.58,123.3,385,98.82,389.88,64.05c4.57,23.24,2.09,44.93-13.11,63.76C366.62,140.38,353.77,149,336.94,152.7Z"/><path class="cls-1" d="M53.45,14.65c-.91,12-2.55,24,2.59,35.57C61.1,61.61,69.7,69.88,79.28,77c-1.08,3.66-2.47,7-3,10.51s-.06,6.94-.06,10.95a29.1,29.1,0,0,1-4.77-2.22C53.83,83.43,42.66,66.81,42,44.5,41.71,33.24,46.08,23.36,53.45,14.65Z"/><path class="cls-1" d="M347,17.08c8.52,10.19,12.8,21.79,11.23,35C356,70.38,346.49,84.6,332.6,96.14a35.47,35.47,0,0,1-8.05,4.54c1-7.5-.53-14.28-3.69-21,9.76-7.3,18.4-15.54,23.48-26.9C349.52,41.19,348,29.18,347,17.08Z"/><path class="cls-1" d="M238.07,352.07c-14,4.32-28.24,5.5-42.88,5.95V324.56c4.37-.34,8.61-.63,12.85-1a23.71,23.71,0,0,0,4.08-.87c5.4-1.57,5.39-1.58,8.59,3.22q7.78,11.7,15.59,23.38C236.85,350.08,237.35,350.92,238.07,352.07Z"/><path class="cls-1" d="M228.36,168c-3.79-6.11-6.69-11.85-7.28-18.48a12.51,12.51,0,0,1,3.83-10.58c3.28-3.2,6.52-6.46,9.62-9.84,4.51-4.91,7.59-10.49,7-17.59,7,5.13,14.16,17.73,12.13,26.84a18,18,0,0,1-9.72,12.3A30.74,30.74,0,0,0,228.36,168Z"/><path class="cls-1" d="M302.28,2.72c8-2.35,22.94,8.72,29.26,21.28,7.7,15.28,3.17,32.15-10.61,44.68C327.22,43.11,318.85,21.85,302.28,2.72Z"/><path class="cls-1" d="M79.52,66.27C65.75,53.78,61.22,36.89,68.9,21.6,75.22,9.06,90.12-2,98.15.31,81.65,19.35,73.22,40.66,79.52,66.27Z"/><path class="cls-1" d="M245.81,73.48c3,7.14,1,14.06-5.07,18.26-3.73,2.6-7.82,4.85-9.47,10.11-2.16-4.55-3.56-8.73-3-13.32a8.73,8.73,0,0,1,6.25-7.64C239,79.43,242.91,77.35,245.81,73.48Z"/></g></g></g></g></svg>