<svg xmlns="http://www.w3.org/2000/svg" viewBox="0 0 275.06 400.76"><defs><style>.cls-1{fill:#1f2937;}</style></defs><g id="Layer_2" data-name="Layer 2"><g id="Layer_1-2" data-name="Layer 1"><g id="Layer_2-2" data-name="Layer 2"><g id="Layer_1-2-2" data-name="Layer 1-2"><path class="cls-1" d="M200.07,274.78A74.4,74.4,0,1,1,252.66,253,74.4,74.4,0,0,1,200.07,274.78Zm0-125.62a51.25,51.25,0,1,0,36.23,15,51.26,51.26,0,0,0-36.23-15Z"/><path class="cls-1" d="M74.66,400.76A74.38,74.38,0,0,1,.32,323.81C1.67,283.6,35.33,252,75.56,252H149v74.38A74.41,74.41,0,0,1,74.66,400.76ZM74.8,275A51.24,51.24,0,1,0,126,326.24h0V275Z"/><path class="cls-1" d="M200.54,149H126V0h74.5a74.5,74.5,0,1,1,0,149ZM149,126h51a51,51,0,0,0,0-102H149Z"/><path class="cls-1" d="M149,149H74.54a74.5,74.5,0,1,1,0-149H149ZM75,24a51,51,0,1,0,0,102h51V24Z"/><path class="cls-1" d="M149,275H75.28C36.59,275,3.69,245.74.33,207.2A74.51,74.51,0,0,1,74.54,126H149ZM75,149a51,51,0,0,0,0,102h51V149Z"/></g></g></g></g></svg>