<svg xmlns="http://www.w3.org/2000/svg" viewBox="0 0 401.38 141.9"><defs><style>.cls-1{fill:#1f2937;}</style></defs><g id="Layer_2" data-name="Layer 2"><g id="Layer_1-2" data-name="Layer 1"><g id="Layer_2-2" data-name="Layer 2"><g id="Layer_1-2-2" data-name="Layer 1-2"><g id="g33"><g id="g69"><g id="g81"><path id="path37" class="cls-1" d="M60.86,141.57c-16.4-1.44-30.74-7.89-41.63-18.62C8.94,112.79,2.62,99.89.47,84.68a96.72,96.72,0,0,1-.22-16.5A64.35,64.35,0,0,1,14.34,34a81.26,81.26,0,0,1,9.19-9.27C37.17,13.55,54.39,8.11,73,9.08c8.79.46,14.83,1.53,21.58,3.82,4.69,1.58,11.43,5,13.51,6.73l.52.45,1,5.16v5.05l-3-1.36c-10.06-6.15-22.85-9.48-36.9-9.48a58,58,0,0,0-32.25,9.33A55.13,55.13,0,0,0,16.35,54.9c-5.72,14.59-4.86,32.43,2.34,46.88,8.2,16.42,23.31,27,42.05,29.4a67.71,67.71,0,0,0,19.43-.78c18.91-3.8,30.77-16.73,33.3-36.29.32-3.27.16-9.84.16-9.84V77H91.13l-22.5-.06V67h55v9c0,10.21-.23,15.55-.84,19.82-1.84,12.9-6.7,23.17-14.72,31.1s-18.54,12.74-31.89,14.44a119.12,119.12,0,0,1-15.35.3Z"/><path id="path57" class="cls-1" d="M316.63,22V0h10V37.19l-.87.4c-1.78.82-4.32,2.59-8.87,6.21-.21.16-.26-4.23-.26-21.8Z"/><path id="path55" class="cls-1" d="M301.63,30V0h10V48l-1.56,1.71c-1.6,1.74-4.48,5.21-6.83,8.19-.71.92-1.37,1.76-1.47,1.87S301.63,46.45,301.63,30Z"/><path id="path53" class="cls-1" d="M64.48,126c-12.88-.94-23.72-5.94-32.26-14.73a44.46,44.46,0,0,1-5.88-7.3,53,53,0,0,1-7.49-38.14A50.1,50.1,0,0,1,49.92,28.46a54.55,54.55,0,0,1,14.13-3.37,97.56,97.56,0,0,1,15,.32c10.77,1.47,20.39,4.8,28.1,9.72l1.48,1.17v3.63c0,4.63,0,5.11-.37,5.28s-.94-.17-3-1.5A61.9,61.9,0,0,0,78.31,34.2a85.17,85.17,0,0,0-15.15-.12C44.58,36.8,31.33,50.44,29,69.2a53.17,53.17,0,0,0,1,17.38c2.79,11.17,9.56,20.25,18.61,25a37.23,37.23,0,0,0,18.75,4.52c10.05,0,18.2-2.91,23.77-8.54a21.17,21.17,0,0,0,6.2-13L97.47,93H68.63V82h40v4.71c-.1,6.59-.63,10.5-2.1,14.92a34.28,34.28,0,0,1-18.09,20.24A44.28,44.28,0,0,1,69.22,126Z"/><path id="path51" class="cls-1" d="M349.35,126c-8.14-.72-15.3-4.31-21.42-10.73a35.32,35.32,0,0,1-8.84-15.66c-.78-3.21-1-2.58,3.44-8.75,2.18-3,4-5.47,4.1-5.47a8.87,8.87,0,0,1,.28,2.24,35.65,35.65,0,0,0,1.1,7.48c2.79,10.8,10.64,18.61,20.43,20.32a27.62,27.62,0,0,0,9.55-.35c9-2.32,15-9.14,17.3-19.66a47.63,47.63,0,0,0,0-12.51,26.31,26.31,0,0,0-6.48-12.73A23.25,23.25,0,0,0,351.29,63c-9.08,0-15.69,3.69-24.4,13.61-8.52,9.7-22.67,27.68-29.78,37.84l-2.48,3.67V101.22l3.62-4.92c2-2.71,5.47-7.32,7.74-10.26s5.43-7,7-9.1c7.26-9.52,11.95-14.29,17.9-18.24,12.28-8.15,28.44-8.36,40.16-.51,12,8,17.71,23.66,14.5,39.5-2.59,12.77-10.77,22.63-22.09,26.61a33.72,33.72,0,0,1-8.25,1.7,23.61,23.61,0,0,1-5.82,0Z"/><path id="path49" class="cls-1" d="M263.63,112.56c0-22.76-.05-26.7-.33-28.58-1-6.9-4.21-12.65-9-16.25a23.82,23.82,0,0,0-10.73-4.46,28.34,28.34,0,0,0-10.18.44c-9.31,2.46-16,10-18,20.41a36.72,36.72,0,0,0,.1,11.51c2.07,9.77,8.27,16.82,17,19.32,7.67,2.21,18.23.56,24.76-3.87l.38-.82,1,5.39-.06,5.45-2.13,1.09a43.39,43.39,0,0,1-19.88,4.15c-11.47-.75-20.7-5.85-26.85-14.84-6.54-9.56-8.17-23.43-4.23-35.14,5.25-15.46,20-24.9,36.75-23.58,9.12.72,16,3.71,22,9.61,5.52,5.44,8.5,11.34,10,19.69.34,2,.38,4.63.45,29.56L274.7,139H263.63Z"/><path id="path47" class="cls-1" d="M145.63,112c0-27.74.1-31.46.87-35.08a29.27,29.27,0,0,1,16.1-20.73,39.28,39.28,0,0,1,8.52-2.62c7.28-1.17,14.82-.11,20.19,2.84l1.13.62-.89,1.41c-.5.77-1.58,2.74-2.41,4.38s-1.52,3-1.54,3-1-.32-2.08-.71a24,24,0,0,0-13.87-.84A19.53,19.53,0,0,0,161,70.83a25.53,25.53,0,0,0-3.74,7.58l-.6,2.09,1,29.19V139h-12Z"/><path id="path45" class="cls-1" d="M130.63,110.17c0-28.81.05-31.13.74-35.42,2.12-13.2,8.84-24,18.89-30.23,9.56-6,22.23-8,34.43-5.53a41.84,41.84,0,0,1,13.08,5.22l1.34.89-2.39,2.42c-1.31,1.34-2.8,2.93-3.3,3.55l-1,1.11-1.19-.62a39.61,39.61,0,0,0-16-3.6C158.83,48,146,57.74,142,73.34c-1.39,5.35-1.32,3.69-1.4,36.21L140.56,139h-9.93Z"/><path id="path43" class="cls-1" d="M347.63,141.64c-15.67-1.42-28.64-9-36.62-21.21a47.34,47.34,0,0,1-3.88-7.81l-.26-.87,3.63-5,3.63-5,.18.7A38.31,38.31,0,0,0,329.07,124a48.74,48.74,0,0,0,9.08,4.82,39.89,39.89,0,0,0,21.74,1.79,40.3,40.3,0,0,0,14.46-6.18,50.83,50.83,0,0,0,8.64-8.58A45.6,45.6,0,0,0,390.76,96a61.62,61.62,0,0,0,0-13.44c-1.7-11.59-7-20.94-15.48-27.37C368.12,49.8,358,47,348.4,47.72c-14.57,1.12-24.62,7.75-39.07,25.78-1.47,1.85-5.36,7-8.63,11.29l-6,8s-.08-3.33-.08-7.52V77.81l3.48-5c7.42-10.39,10.63-14.36,15.7-19.4A53.61,53.61,0,0,1,329,42.26a48.62,48.62,0,0,1,15-4.63,72.6,72.6,0,0,1,15,0c11.51,1.76,20.67,6.43,28.39,14.46C394.86,60,399.39,69.72,401.1,81.8a101.9,101.9,0,0,1,0,15,55.24,55.24,0,0,1-8.26,22.87,47.75,47.75,0,0,1-33.42,21.5,89.24,89.24,0,0,1-11.79.39Z"/><path id="path41" class="cls-1" d="M234.38,141.69c-22.61-2.07-40.07-18-44.43-40.57a47.34,47.34,0,0,1-1-11.51,50,50,0,0,1,2.1-16.12,50.68,50.68,0,0,1,29-32.72,54.88,54.88,0,0,1,38.82-.44,45.36,45.36,0,0,1,16.81,11.12c7.27,7.38,11.58,16.38,13.44,27.79.44,2.68.45,3.31.52,31.25L289.7,139H279.63V112.83c0-16.27-.08-27.17-.22-28.72-.91-10.35-5.19-19.47-12.19-26a41.08,41.08,0,0,0-30.8-10.38C217,49.27,202.48,62.41,199.06,81.66a53.07,53.07,0,0,0,.42,18.47,46.67,46.67,0,0,0,5.31,13.44,37.14,37.14,0,0,0,19.63,15.57,43.58,43.58,0,0,0,22.16,1.7,35.09,35.09,0,0,0,11-4.18l1-.65V136.4l-1.2.79a32.52,32.52,0,0,1-13.72,4.52,55.42,55.42,0,0,1-9.29,0Z"/></g></g></g></g></g></g></g></svg>