<svg xmlns="http://www.w3.org/2000/svg" viewBox="0 0 283.44 399.41"><defs><style>.cls-1{fill:#1f2937;}</style></defs><g id="Layer_2" data-name="Layer 2"><g id="Layer_1-2" data-name="Layer 1"><g id="Layer_2-2" data-name="Layer 2"><g id="Layer_1-2-2" data-name="Layer 1-2"><path class="cls-1" d="M26,0H44V18H61V0H79V54H61V36H45V54H26m77-36H87V0h50V18H121V54H103M144,0h19l11.58,19L186.15,0H205V54H187V27.28L174.52,46.65,162,27.28V54H144M214,0h18V36h25V54H214"/><path class="cls-1" d="M0,78,25.78,367.41l115.7,32,116.18-32.19L283.44,78Zm227.17,95H91.28l3.25,36h128l-9.67,107.92L141,336.85v1.55L68.91,318.09l-5-55.09H99.53l2.5,27.74,39.61,10.61,39.53-10.61L185.31,245H142v-1H62.92L53.26,137H230.49Z"/></g></g></g></g></svg>