<svg xmlns="http://www.w3.org/2000/svg" xmlns:xlink="http://www.w3.org/1999/xlink" viewBox="0 0 400 102"><defs><style>.cls-1{fill:#1f2937;}.cls-2{clip-path:url(#clip-path);}.cls-3{clip-path:url(#clip-path-2);}.cls-4{clip-path:url(#clip-path-3);}.cls-5{clip-path:url(#clip-path-4);}.cls-6{clip-path:url(#clip-path-5);}.cls-7{clip-path:url(#clip-path-6);}.cls-8{clip-path:url(#clip-path-7);}.cls-9{clip-path:url(#clip-path-8);}.cls-10{clip-path:url(#clip-path-9);}.cls-11{clip-path:url(#clip-path-10);}.cls-12{clip-path:url(#clip-path-11);}.cls-13{clip-path:url(#clip-path-12);}.cls-14{clip-path:url(#clip-path-13);}.cls-15{clip-path:url(#clip-path-14);}.cls-16{clip-path:url(#clip-path-15);}.cls-17{clip-path:url(#clip-path-16);}.cls-18{clip-path:url(#clip-path-17);}.cls-19{clip-path:url(#clip-path-18);}.cls-20{clip-path:url(#clip-path-19);}.cls-21{clip-path:url(#clip-path-20);}.cls-22{clip-path:url(#clip-path-21);}.cls-23{clip-path:url(#clip-path-22);}.cls-24{clip-path:url(#clip-path-23);}.cls-25{clip-path:url(#clip-path-24);}.cls-26{clip-path:url(#clip-path-25);}.cls-27{clip-path:url(#clip-path-26);}.cls-28{clip-path:url(#clip-path-27);}.cls-29{clip-path:url(#clip-path-28);}.cls-30{clip-path:url(#clip-path-29);}.cls-31{clip-path:url(#clip-path-30);}.cls-32{clip-path:url(#clip-path-31);}.cls-33{clip-path:url(#clip-path-32);}.cls-34{clip-path:url(#clip-path-33);}.cls-35{clip-path:url(#clip-path-34);}.cls-36{clip-path:url(#clip-path-35);}.cls-37{clip-path:url(#clip-path-36);}.cls-38{clip-path:url(#clip-path-37);}.cls-39{clip-path:url(#clip-path-38);}</style><clipPath id="clip-path" transform="translate(0 0.65)"><rect class="cls-1" x="182" y="0.35" width="5" height="20"/></clipPath><clipPath id="clip-path-2" transform="translate(0 0.65)"><polygon class="cls-1" points="204.42 20.35 196.12 7.35 196 7.35 196.13 20.35 191 20.35 191 0.35 195.9 0.35 204.87 13.35 205 13.35 204.87 0.35 210 0.35 210 20.35 204.42 20.35"/></clipPath><clipPath id="clip-path-3" transform="translate(0 0.65)"><polygon class="cls-1" points="219 4.35 219 9.35 227 9.35 227 13.35 219 13.35 219 20.35 215 20.35 215 0.35 228 0.35 228 4.35 219 4.35"/></clipPath><clipPath id="clip-path-4" transform="translate(0 0.65)"><path class="cls-1" d="M238.8,16.46a6.56,6.56,0,0,1-1.88-1.29,5.63,5.63,0,0,1-1.18-2,9.11,9.11,0,0,1-.47-2.59,5.53,5.53,0,0,1,.47-2.47,5.63,5.63,0,0,1,1.18-2,5.68,5.68,0,0,1,1.88-1.29,6.11,6.11,0,0,1,4.7,0,6.81,6.81,0,0,1,1.89,1.29,5.61,5.61,0,0,1,1.17,2,9.07,9.07,0,0,1,.47,2.47,6.2,6.2,0,0,1-.47,2.59,5.53,5.53,0,0,1-1.17,2,5.35,5.35,0,0,1-1.89,1.29,5.15,5.15,0,0,1-2.35.47,3.85,3.85,0,0,1-2.35-.47M236.68.71a11,11,0,0,0-3.52,2.11,10.26,10.26,0,0,0-2.35,3.41A10.88,10.88,0,0,0,230,10.7a11.2,11.2,0,0,0,.83,4.47,9.7,9.7,0,0,0,2.35,3.41,10.58,10.58,0,0,0,3.52,2.23,13.6,13.6,0,0,0,4.47.82,11.05,11.05,0,0,0,4.47-.82,9.11,9.11,0,0,0,3.53-2.23,11.8,11.8,0,0,0,2.35-3.41,10.69,10.69,0,0,0,.82-4.47,11.05,11.05,0,0,0-.82-4.47,9.79,9.79,0,0,0-2.35-3.41A9,9,0,0,0,245.62.71a14.52,14.52,0,0,0-8.94,0"/></clipPath><clipPath id="clip-path-5" transform="translate(0 0.65)"><path class="cls-1" d="M261.38.71a10.84,10.84,0,0,0-3.53,2.11,9.79,9.79,0,0,0-2.35,3.41,10.89,10.89,0,0,0-.83,4.47,10.28,10.28,0,0,0,.83,4.35,9.7,9.7,0,0,0,2.35,3.41,10.37,10.37,0,0,0,3.53,2.23,12.68,12.68,0,0,0,4.35.83,10.93,10.93,0,0,0,4.58-.94,8.62,8.62,0,0,0,3.29-2.47l-3.41-3.18a7.35,7.35,0,0,1-1.76,1.53,6,6,0,0,1-2.59.59,5.15,5.15,0,0,1-2.35-.47,6.91,6.91,0,0,1-1.88-1.29,5.53,5.53,0,0,1-1.17-2,8,8,0,0,1-.48-2.47,5.4,5.4,0,0,1,.48-2.47,6.82,6.82,0,0,1,1.17-2,5.4,5.4,0,0,1,1.88-1.29,5.15,5.15,0,0,1,2.35-.47,5.47,5.47,0,0,1,2.36.47A4.3,4.3,0,0,1,270,6.47l3.29-3.3A7.94,7.94,0,0,0,269.84.94,8.61,8.61,0,0,0,265.73,0a12.64,12.64,0,0,0-4.35.71"/></clipPath><clipPath id="clip-path-6" transform="translate(0 0.65)"><path class="cls-1" d="M283.13,16.46a4.82,4.82,0,0,1-1.77-1.29,5.53,5.53,0,0,1-1.17-2,9.11,9.11,0,0,1-.47-2.59,5.53,5.53,0,0,1,.47-2.47,5.61,5.61,0,0,1,1.17-2A6,6,0,0,1,288,4.82a7.14,7.14,0,0,1,1.88,1.29,5.63,5.63,0,0,1,1.18,2,9.47,9.47,0,0,1,.47,2.47,6.2,6.2,0,0,1-.47,2.59,5.63,5.63,0,0,1-1.18,2,5.81,5.81,0,0,1-4.23,1.76,4.17,4.17,0,0,1-2.47-.47m-2-15.75a11,11,0,0,0-3.53,2.11,10.56,10.56,0,0,0-2.35,3.41,10.72,10.72,0,0,0-.82,4.47,11.05,11.05,0,0,0,.82,4.47,9.7,9.7,0,0,0,2.35,3.41,10.63,10.63,0,0,0,3.53,2.23,13.6,13.6,0,0,0,4.47.82,11,11,0,0,0,4.46-.82,8.92,8.92,0,0,0,3.53-2.23,11.48,11.48,0,0,0,2.35-3.41,10.86,10.86,0,0,0,.83-4.47,11.23,11.23,0,0,0-.83-4.47,9.79,9.79,0,0,0-2.35-3.41A8.84,8.84,0,0,0,290.06.71,13.79,13.79,0,0,0,285.6,0a13.32,13.32,0,0,0-4.47.71"/></clipPath><clipPath id="clip-path-7" transform="translate(0 0.65)"><polygon class="cls-1" points="315.04 0.35 310.62 13.35 310.5 13.35 305.86 0.35 299 0.35 299 20.35 304 20.35 303.87 6.35 303.94 6.35 309.11 20.35 312.52 20.35 317.81 6.35 318 6.35 318 20.35 322 20.35 322 0.35 315.04 0.35"/></clipPath><clipPath id="clip-path-8" transform="translate(0 0.65)"><polygon class="cls-1" points="343.73 0.35 339.12 13.35 339 13.35 334.28 0.35 327 0.35 327 20.35 332 20.35 331.87 6.35 331.12 6.35 336.62 20.35 340.25 20.35 345.87 6.35 346 6.35 345.87 20.35 351 20.35 351 0.35 343.73 0.35"/></clipPath><clipPath id="clip-path-9" transform="translate(0 0.65)"><polygon class="cls-1" points="198.86 27.35 194.41 40.35 194.28 40.35 189.71 27.35 182 27.35 182 47.35 187 47.35 186.88 33.24 192.38 47.35 195.51 47.35 201 33 200.88 47.35 206 47.35 206 27.35 198.86 27.35"/></clipPath><clipPath id="clip-path-10" transform="translate(0 0.65)"><polygon class="cls-1" points="209 27.35 209 47.35 223 47.35 223 43.35 214 43.35 214 39.35 222 39.35 222 35.35 214 35.35 214 31.35 223 31.35 223 27.35 209 27.35"/></clipPath><clipPath id="clip-path-11" transform="translate(0 0.65)"><path class="cls-1" d="M231,31.35h2.52a19.34,19.34,0,0,1,2.52.23,6.27,6.27,0,0,1,2.16,1,5.89,5.89,0,0,1,1.56,1.81,6.8,6.8,0,0,1,.6,2.88,6.37,6.37,0,0,1-.6,2.88A4.05,4.05,0,0,1,238.2,42,4.33,4.33,0,0,1,236,43a9.1,9.1,0,0,1-2.64.37H231Zm-5-4v20h7.51a15.85,15.85,0,0,0,4.05-.58,9.71,9.71,0,0,0,3.58-1.85,8.44,8.44,0,0,0,2.55-3.13,9.2,9.2,0,0,0,.92-4.5,9.75,9.75,0,0,0-1-4.74,8.71,8.71,0,0,0-2.65-3.13,9.76,9.76,0,0,0-3.71-1.61,16.64,16.64,0,0,0-4.16-.46Z"/></clipPath><clipPath id="clip-path-12" transform="translate(0 0.65)"><rect class="cls-1" x="248" y="27.35" width="5" height="20"/></clipPath><clipPath id="clip-path-13" transform="translate(0 0.65)"><path class="cls-1" d="M266,32.29l2.59,7.06h-5.18Zm-2.19-4.94-8.45,20h5.23l1.53-4H270l1.53,4h5.29l-8.32-20Z"/></clipPath><clipPath id="clip-path-14" transform="translate(0 0.65)"><path class="cls-1" d="M187,57.35h2.51a19.19,19.19,0,0,1,2.52.23,6.17,6.17,0,0,1,2.16,1,5.79,5.79,0,0,1,1.54,1.8,6.61,6.61,0,0,1,.6,2.87,5,5,0,0,1-.6,2.87,4.14,4.14,0,0,1-1.54,2A4.58,4.58,0,0,1,192,69a9.09,9.09,0,0,1-2.64.36H187Zm-5-4v20h7.51a15.36,15.36,0,0,0,4.05-.58,9.28,9.28,0,0,0,3.58-1.85,8.44,8.44,0,0,0,2.56-3.12,9.24,9.24,0,0,0,.92-4.51,9.75,9.75,0,0,0-1-4.74,8.76,8.76,0,0,0-2.65-3.12,9.9,9.9,0,0,0-3.7-1.62,17.26,17.26,0,0,0-4.17-.46Z"/></clipPath><clipPath id="clip-path-15" transform="translate(0 0.65)"><polygon class="cls-1" points="204 53.35 204 73.35 218 73.35 218 69.35 209 69.35 209 65.35 217 65.35 217 61.35 209 61.35 209 57.35 218 57.35 218 53.35 204 53.35"/></clipPath><clipPath id="clip-path-16" transform="translate(0 0.65)"><polygon class="cls-1" points="234.89 53.35 230.34 67.35 230.22 67.35 225.66 53.35 220.16 53.35 227.79 73.35 232.53 73.35 240.28 53.35 234.89 53.35"/></clipPath><clipPath id="clip-path-17" transform="translate(0 0.65)"><polygon class="cls-1" points="243 53.35 243 73.35 257 73.35 257 69.35 248 69.35 248 65.35 256 65.35 256 61.35 248 61.35 248 57.35 257 57.35 257 53.35 243 53.35"/></clipPath><clipPath id="clip-path-18" transform="translate(0 0.65)"><polygon class="cls-1" points="260 53.35 260 73.35 273 73.35 273 69.35 265 69.35 265 53.35 260 53.35"/></clipPath><clipPath id="clip-path-19" transform="translate(0 0.65)"><path class="cls-1" d="M283.6,69.25A6.24,6.24,0,0,1,281.72,68a5.63,5.63,0,0,1-1.18-2,9.11,9.11,0,0,1-.47-2.59,5.38,5.38,0,0,1,.47-2.46,7.08,7.08,0,0,1,1.18-2,5.57,5.57,0,0,1,1.88-1.3,6.17,6.17,0,0,1,4.7,0,7,7,0,0,1,1.88,1.3,5.63,5.63,0,0,1,1.18,2,9.47,9.47,0,0,1,.47,2.46,6.2,6.2,0,0,1-.47,2.59,5.63,5.63,0,0,1-1.18,2,5.06,5.06,0,0,1-1.88,1.29,5.15,5.15,0,0,1-2.35.47,4.77,4.77,0,0,1-2.35-.47M281.48,53.5A9.72,9.72,0,0,0,278,55.61,10.37,10.37,0,0,0,275.6,59a10.72,10.72,0,0,0-.82,4.47A11.14,11.14,0,0,0,275.6,68a9.94,9.94,0,0,0,2.4,3.37,10.63,10.63,0,0,0,3.53,2.23,12.88,12.88,0,0,0,4.47.83,11.06,11.06,0,0,0,4.47-.83A8.89,8.89,0,0,0,294,71.37,11.82,11.82,0,0,0,296.3,68a11,11,0,0,0,.82-4.47A11.34,11.34,0,0,0,296.3,59a10,10,0,0,0-2.36-3.41,8.87,8.87,0,0,0-3.52-2.11,14.52,14.52,0,0,0-8.94,0"/></clipPath><clipPath id="clip-path-20" transform="translate(0 0.65)"><path class="cls-1" d="M305.12,57.35h2.2a5,5,0,0,1,1.34.12,1.8,1.8,0,0,1,1.1.37,1.56,1.56,0,0,1,.85.73,2,2,0,0,1,.25,1.22,3.41,3.41,0,0,1-.25,1.22,2.87,2.87,0,0,1-.85.85,2.06,2.06,0,0,1-1.22.37,5,5,0,0,1-1.34.12H305v-5Zm-5.12-4v20h5v-7h2.5a13.53,13.53,0,0,0,3.1-.36,8.64,8.64,0,0,0,2.61-1.08,6.06,6.06,0,0,0,2.5-5.18,7.55,7.55,0,0,0-.59-3,4.35,4.35,0,0,0-1.67-1.93,7.61,7.61,0,0,0-2.62-1.08,13.34,13.34,0,0,0-3.21-.36Z"/></clipPath><clipPath id="clip-path-21" transform="translate(0 0.65)"><polygon class="cls-1" points="333.86 53.35 329.4 66.35 329.29 66.35 324.71 53.35 317 53.35 317 73.35 322 73.35 321.88 59.13 327.38 73.35 330.51 73.35 336 58.89 335.88 73.35 341 73.35 341 53.35 333.86 53.35"/></clipPath><clipPath id="clip-path-22" transform="translate(0 0.65)"><polygon class="cls-1" points="345 53.35 345 73.35 359 73.35 359 69.35 350 69.35 350 65.35 358 65.35 358 61.35 350 61.35 350 57.35 359 57.35 359 53.35 345 53.35"/></clipPath><clipPath id="clip-path-23" transform="translate(0 0.65)"><polygon class="cls-1" points="376 53.35 376.11 66.35 376 66.35 367.63 53.35 362 53.35 362 73.35 367 73.35 366.88 60.35 367 60.35 375.75 73.35 381 73.35 381 53.35 376 53.35"/></clipPath><clipPath id="clip-path-24" transform="translate(0 0.65)"><polygon class="cls-1" points="384 53.35 384 57.35 389 57.35 389 73.35 394 73.35 394 57.35 400 57.35 400 53.35 384 53.35"/></clipPath><clipPath id="clip-path-25" transform="translate(0 0.65)"><path class="cls-1" d="M193,85.3l2.58,7h-5.17Zm-2.32-5-8.5,20h5.11l1.53-4h7.88l1.53,4h5.34l-8.31-20Z"/></clipPath><clipPath id="clip-path-26" transform="translate(0 0.65)"><path class="cls-1" d="M217,79.35V91.69a5.69,5.69,0,0,1-.25,1.53,2.89,2.89,0,0,1-.72,1.3,4.91,4.91,0,0,1-1.22.94,4.85,4.85,0,0,1-3.63,0,3.3,3.3,0,0,1-1.21-.94,4.63,4.63,0,0,1-.73-1.3,6.59,6.59,0,0,1-.24-1.53V79.35h-5v12.7a10.46,10.46,0,0,0,.6,3.41A5.59,5.59,0,0,0,206.42,98a7.11,7.11,0,0,0,2.77,1.65,12.25,12.25,0,0,0,3.75.59,13.29,13.29,0,0,0,3.75-.59A8.66,8.66,0,0,0,219.58,98a5.59,5.59,0,0,0,1.82-2.58,10,10,0,0,0,.6-3.41V79.35Z"/></clipPath><clipPath id="clip-path-27" transform="translate(0 0.65)"><polygon class="cls-1" points="225 79.35 225 83.35 230 83.35 230 100.35 235 100.35 235 83.35 241 83.35 241 79.35 225 79.35"/></clipPath><clipPath id="clip-path-28" transform="translate(0 0.65)"><polygon class="cls-1" points="256 80.35 256 87.35 248 87.35 248 80.35 243 80.35 243 100.35 248 100.35 248 91.35 256 91.35 256 100.35 261 100.35 261 80.35 256 80.35"/></clipPath><clipPath id="clip-path-29" transform="translate(0 0.65)"><path class="cls-1" d="M272,95.71a6.56,6.56,0,0,1-1.88-1.29,5.63,5.63,0,0,1-1.18-2,9.11,9.11,0,0,1-.47-2.59,6,6,0,0,1,.47-2.47,5.63,5.63,0,0,1,1.18-2,6,6,0,0,1,6.58-1.29,6.76,6.76,0,0,1,1.88,1.29,5.63,5.63,0,0,1,1.18,2,9.47,9.47,0,0,1,.47,2.47,6.54,6.54,0,0,1-.47,2.59,5.63,5.63,0,0,1-1.18,2,5.4,5.4,0,0,1-1.88,1.29,6.08,6.08,0,0,1-4.7,0M270,80a9.8,9.8,0,0,0-3.53,2.12,10.56,10.56,0,0,0-2.35,3.41A10.72,10.72,0,0,0,263.3,90a11.22,11.22,0,0,0,.82,4.47,9.66,9.66,0,0,0,2.35,3.4,10.5,10.5,0,0,0,3.53,2.24,13.1,13.1,0,0,0,4.47.82,11,11,0,0,0,4.46-.82,8.77,8.77,0,0,0,3.53-2.24,11.43,11.43,0,0,0,2.35-3.4A10.67,10.67,0,0,0,285.6,90a11.23,11.23,0,0,0-.83-4.47,9.79,9.79,0,0,0-2.35-3.41A8.86,8.86,0,0,0,278.89,80a13.78,13.78,0,0,0-4.46-.7A10.79,10.79,0,0,0,270,80"/></clipPath><clipPath id="clip-path-30" transform="translate(0 0.65)"><path class="cls-1" d="M293,83.35h2.68a5,5,0,0,1,1.22.11,4,4,0,0,1,1.1.38,1.63,1.63,0,0,1,.85.72,1.81,1.81,0,0,1,.36,1.23,2.37,2.37,0,0,1-.71,1.77,1.48,1.48,0,0,1-.61.34c-.34.1-.67.21-1.11.33a5,5,0,0,1-1.34.12H293v-5Zm-5-2.93v19.93h5v-8h1.63l4.41,8h5.28l-5.17-8.5a5.52,5.52,0,0,0,3-2,6,6,0,0,0,.46-6.32,5.18,5.18,0,0,0-1.73-1.9,7.79,7.79,0,0,0-2.41-1,11.65,11.65,0,0,0-2.76-.34H288Z"/></clipPath><clipPath id="clip-path-31" transform="translate(0 0.65)"><rect class="cls-1" x="307" y="80.35" width="5" height="20"/></clipPath><clipPath id="clip-path-32" transform="translate(0 0.65)"><polygon class="cls-1" points="315 79.35 315 83.35 320 83.35 320 100.35 325 100.35 325 83.35 331 83.35 331 79.35 315 79.35"/></clipPath><clipPath id="clip-path-33" transform="translate(0 0.65)"><polygon class="cls-1" points="347.15 80.35 342.74 87.75 338.33 80.35 332.24 80.35 340 91.91 340 100.35 345 100.35 345 91.91 352.99 80.35 347.15 80.35"/></clipPath><clipPath id="clip-path-34" transform="translate(0 0.65)"><polygon class="cls-1" points="47 12.45 47 88.56 69 100.08 69 0.57 47 12.45"/></clipPath><clipPath id="clip-path-35" transform="translate(0 0.65)"><polygon class="cls-1" points="0 100.09 22 88.56 22 12.45 0 0.57 0 100.09"/></clipPath><clipPath id="clip-path-36" transform="translate(0 0.65)"><polygon class="cls-1" points="94 100.35 119.51 100.35 94 36.5 94 100.35"/></clipPath><clipPath id="clip-path-37" transform="translate(0 0.65)"><polygon class="cls-1" points="131.48 100.35 157 100.35 157 36.5 131.48 100.35"/></clipPath><clipPath id="clip-path-38" transform="translate(0 0.65)"><polygon class="cls-1" points="103.23 0.35 125.46 50.08 147.68 0.35 103.23 0.35"/></clipPath></defs><g id="Layer_2" data-name="Layer 2"><g id="Layer_1-2" data-name="Layer 1"><g id="Layer_2-2" data-name="Layer 2"><g id="Layer_1-2-2" data-name="Layer 1-2"><rect class="cls-1" x="182" y="1" width="5" height="20"/><rect class="cls-1" x="182" y="1" width="5" height="20"/><g class="cls-2"><path class="cls-1" d="M182,.35h5v20h-5Z" transform="translate(0 0.65)"/></g><polygon class="cls-1" points="204.42 21 196.12 8 196 8 196.13 21 191 21 191 1 195.9 1 204.87 14 205 14 204.87 1 210 1 210 21 204.42 21"/><polygon class="cls-1" points="204.42 21 196.12 8 196 8 196.13 21 191 21 191 1 195.9 1 204.87 14 205 14 204.87 1 210 1 210 21 204.42 21"/><g class="cls-3"><path class="cls-1" d="M191,.35h19v20H191Z" transform="translate(0 0.65)"/></g><polygon class="cls-1" points="219 5 219 10 227 10 227 14 219 14 219 21 215 21 215 1 228 1 228 5 219 5"/><polygon class="cls-1" points="219 5 219 10 227 10 227 14 219 14 219 21 215 21 215 1 228 1 228 5 219 5"/><g class="cls-4"><path class="cls-1" d="M215,.35h13v20H215Z" transform="translate(0 0.65)"/></g><path class="cls-1" d="M238.8,16.46a6.56,6.56,0,0,1-1.88-1.29,5.63,5.63,0,0,1-1.18-2,9.11,9.11,0,0,1-.47-2.59,5.53,5.53,0,0,1,.47-2.47,5.63,5.63,0,0,1,1.18-2,5.68,5.68,0,0,1,1.88-1.29,6.11,6.11,0,0,1,4.7,0,6.81,6.81,0,0,1,1.89,1.29,5.61,5.61,0,0,1,1.17,2,9.07,9.07,0,0,1,.47,2.47,6.2,6.2,0,0,1-.47,2.59,5.53,5.53,0,0,1-1.17,2,5.35,5.35,0,0,1-1.89,1.29,5.15,5.15,0,0,1-2.35.47,3.85,3.85,0,0,1-2.35-.47M236.68.71a11,11,0,0,0-3.52,2.11,10.26,10.26,0,0,0-2.35,3.41A10.88,10.88,0,0,0,230,10.7a11.2,11.2,0,0,0,.83,4.47,9.7,9.7,0,0,0,2.35,3.41,10.58,10.58,0,0,0,3.52,2.23,13.6,13.6,0,0,0,4.47.82,11.05,11.05,0,0,0,4.47-.82,9.11,9.11,0,0,0,3.53-2.23,11.8,11.8,0,0,0,2.35-3.41,10.69,10.69,0,0,0,.82-4.47,11.05,11.05,0,0,0-.82-4.47,9.79,9.79,0,0,0-2.35-3.41A9,9,0,0,0,245.62.71a14.52,14.52,0,0,0-8.94,0" transform="translate(0 0.65)"/><path class="cls-1" d="M238.8,16.46a6.56,6.56,0,0,1-1.88-1.29,5.63,5.63,0,0,1-1.18-2,9.11,9.11,0,0,1-.47-2.59,5.53,5.53,0,0,1,.47-2.47,5.63,5.63,0,0,1,1.18-2,5.68,5.68,0,0,1,1.88-1.29,6.11,6.11,0,0,1,4.7,0,6.81,6.81,0,0,1,1.89,1.29,5.61,5.61,0,0,1,1.17,2,9.07,9.07,0,0,1,.47,2.47,6.2,6.2,0,0,1-.47,2.59,5.53,5.53,0,0,1-1.17,2,5.35,5.35,0,0,1-1.89,1.29,5.15,5.15,0,0,1-2.35.47,3.85,3.85,0,0,1-2.35-.47M236.68.71a11,11,0,0,0-3.52,2.11,10.26,10.26,0,0,0-2.35,3.41A10.88,10.88,0,0,0,230,10.7a11.2,11.2,0,0,0,.83,4.47,9.7,9.7,0,0,0,2.35,3.41,10.58,10.58,0,0,0,3.52,2.23,13.6,13.6,0,0,0,4.47.82,11.05,11.05,0,0,0,4.47-.82,9.11,9.11,0,0,0,3.53-2.23,11.8,11.8,0,0,0,2.35-3.41,10.69,10.69,0,0,0,.82-4.47,11.05,11.05,0,0,0-.82-4.47,9.79,9.79,0,0,0-2.35-3.41A9,9,0,0,0,245.62.71a14.52,14.52,0,0,0-8.94,0" transform="translate(0 0.65)"/><g class="cls-5"><path class="cls-1" d="M230-.65h22v22H230Z" transform="translate(0 0.65)"/></g><path class="cls-1" d="M261.38.71a10.84,10.84,0,0,0-3.53,2.11,9.79,9.79,0,0,0-2.35,3.41,10.89,10.89,0,0,0-.83,4.47,10.28,10.28,0,0,0,.83,4.35,9.7,9.7,0,0,0,2.35,3.41,10.37,10.37,0,0,0,3.53,2.23,12.68,12.68,0,0,0,4.35.83,10.93,10.93,0,0,0,4.58-.94,8.62,8.62,0,0,0,3.29-2.47l-3.41-3.18a7.35,7.35,0,0,1-1.76,1.53,6,6,0,0,1-2.59.59,5.15,5.15,0,0,1-2.35-.47,6.91,6.91,0,0,1-1.88-1.29,5.53,5.53,0,0,1-1.17-2,8,8,0,0,1-.48-2.47,5.4,5.4,0,0,1,.48-2.47,6.82,6.82,0,0,1,1.17-2,5.4,5.4,0,0,1,1.88-1.29,5.15,5.15,0,0,1,2.35-.47,5.47,5.47,0,0,1,2.36.47A4.3,4.3,0,0,1,270,6.47l3.29-3.3A7.94,7.94,0,0,0,269.84.94,8.61,8.61,0,0,0,265.73,0a12.64,12.64,0,0,0-4.35.71" transform="translate(0 0.65)"/><path class="cls-1" d="M261.38.71a10.84,10.84,0,0,0-3.53,2.11,9.79,9.79,0,0,0-2.35,3.41,10.89,10.89,0,0,0-.83,4.47,10.28,10.28,0,0,0,.83,4.35,9.7,9.7,0,0,0,2.35,3.41,10.37,10.37,0,0,0,3.53,2.23,12.68,12.68,0,0,0,4.35.83,10.93,10.93,0,0,0,4.58-.94,8.62,8.62,0,0,0,3.29-2.47l-3.41-3.18a7.35,7.35,0,0,1-1.76,1.53,6,6,0,0,1-2.59.59,5.15,5.15,0,0,1-2.35-.47,6.91,6.91,0,0,1-1.88-1.29,5.53,5.53,0,0,1-1.17-2,8,8,0,0,1-.48-2.47,5.4,5.4,0,0,1,.48-2.47,6.82,6.82,0,0,1,1.17-2,5.4,5.4,0,0,1,1.88-1.29,5.15,5.15,0,0,1,2.35-.47,5.47,5.47,0,0,1,2.36.47A4.3,4.3,0,0,1,270,6.47l3.29-3.3A7.94,7.94,0,0,0,269.84.94,8.61,8.61,0,0,0,265.73,0a12.64,12.64,0,0,0-4.35.71" transform="translate(0 0.65)"/><g class="cls-6"><path class="cls-1" d="M255-.65h19v22H255Z" transform="translate(0 0.65)"/></g><path class="cls-1" d="M283.13,16.46a4.82,4.82,0,0,1-1.77-1.29,5.53,5.53,0,0,1-1.17-2,9.11,9.11,0,0,1-.47-2.59,5.53,5.53,0,0,1,.47-2.47,5.61,5.61,0,0,1,1.17-2A6,6,0,0,1,288,4.82a7.14,7.14,0,0,1,1.88,1.29,5.63,5.63,0,0,1,1.18,2,9.47,9.47,0,0,1,.47,2.47,6.2,6.2,0,0,1-.47,2.59,5.63,5.63,0,0,1-1.18,2,5.81,5.81,0,0,1-4.23,1.76,4.17,4.17,0,0,1-2.47-.47m-2-15.75a11,11,0,0,0-3.53,2.11,10.56,10.56,0,0,0-2.35,3.41,10.72,10.72,0,0,0-.82,4.47,11.05,11.05,0,0,0,.82,4.47,9.7,9.7,0,0,0,2.35,3.41,10.63,10.63,0,0,0,3.53,2.23,13.6,13.6,0,0,0,4.47.82,11,11,0,0,0,4.46-.82,8.92,8.92,0,0,0,3.53-2.23,11.48,11.48,0,0,0,2.35-3.41,10.86,10.86,0,0,0,.83-4.47,11.23,11.23,0,0,0-.83-4.47,9.79,9.79,0,0,0-2.35-3.41A8.84,8.84,0,0,0,290.06.71,13.79,13.79,0,0,0,285.6,0a13.32,13.32,0,0,0-4.47.71" transform="translate(0 0.65)"/><path class="cls-1" d="M283.13,16.46a4.82,4.82,0,0,1-1.77-1.29,5.53,5.53,0,0,1-1.17-2,9.11,9.11,0,0,1-.47-2.59,5.53,5.53,0,0,1,.47-2.47,5.61,5.61,0,0,1,1.17-2A6,6,0,0,1,288,4.82a7.14,7.14,0,0,1,1.88,1.29,5.63,5.63,0,0,1,1.18,2,9.47,9.47,0,0,1,.47,2.47,6.2,6.2,0,0,1-.47,2.59,5.63,5.63,0,0,1-1.18,2,5.81,5.81,0,0,1-4.23,1.76,4.17,4.17,0,0,1-2.47-.47m-2-15.75a11,11,0,0,0-3.53,2.11,10.56,10.56,0,0,0-2.35,3.41,10.72,10.72,0,0,0-.82,4.47,11.05,11.05,0,0,0,.82,4.47,9.7,9.7,0,0,0,2.35,3.41,10.63,10.63,0,0,0,3.53,2.23,13.6,13.6,0,0,0,4.47.82,11,11,0,0,0,4.46-.82,8.92,8.92,0,0,0,3.53-2.23,11.48,11.48,0,0,0,2.35-3.41,10.86,10.86,0,0,0,.83-4.47,11.23,11.23,0,0,0-.83-4.47,9.79,9.79,0,0,0-2.35-3.41A8.84,8.84,0,0,0,290.06.71,13.79,13.79,0,0,0,285.6,0a13.32,13.32,0,0,0-4.47.71" transform="translate(0 0.65)"/><g class="cls-7"><path class="cls-1" d="M275-.65h22v22H275Z" transform="translate(0 0.65)"/></g><polygon class="cls-1" points="315.04 1 310.62 14 310.5 14 305.86 1 299 1 299 21 304 21 303.87 7 303.94 7 309.11 21 312.52 21 317.81 7 318 7 318 21 322 21 322 1 315.04 1"/><polygon class="cls-1" points="315.04 1 310.62 14 310.5 14 305.86 1 299 1 299 21 304 21 303.87 7 303.94 7 309.11 21 312.52 21 317.81 7 318 7 318 21 322 21 322 1 315.04 1"/><g class="cls-8"><path class="cls-1" d="M299,.35h23v20H299Z" transform="translate(0 0.65)"/></g><polygon class="cls-1" points="343.73 1 339.12 14 339 14 334.28 1 327 1 327 21 332 21 331.87 7 331.12 7 336.62 21 340.25 21 345.87 7 346 7 345.87 21 351 21 351 1 343.73 1"/><polygon class="cls-1" points="343.73 1 339.12 14 339 14 334.28 1 327 1 327 21 332 21 331.87 7 331.12 7 336.62 21 340.25 21 345.87 7 346 7 345.87 21 351 21 351 1 343.73 1"/><g class="cls-9"><path class="cls-1" d="M327,.35h23v20H327Z" transform="translate(0 0.65)"/></g><polygon class="cls-1" points="198.86 28 194.41 41 194.28 41 189.71 28 182 28 182 48 187 48 186.88 33.89 192.38 48 195.51 48 201 33.65 200.88 48 206 48 206 28 198.86 28"/><polygon class="cls-1" points="198.86 28 194.41 41 194.28 41 189.71 28 182 28 182 48 187 48 186.88 33.89 192.38 48 195.51 48 201 33.65 200.88 48 206 48 206 28 198.86 28"/><g class="cls-10"><path class="cls-1" d="M182,27.35h23v20H182Z" transform="translate(0 0.65)"/></g><polygon class="cls-1" points="209 28 209 48 223 48 223 44 214 44 214 40 222 40 222 36 214 36 214 32 223 32 223 28 209 28"/><polygon class="cls-1" points="209 28 209 48 223 48 223 44 214 44 214 40 222 40 222 36 214 36 214 32 223 32 223 28 209 28"/><g class="cls-11"><path class="cls-1" d="M209,27.35h14v20H209Z" transform="translate(0 0.65)"/></g><path class="cls-1" d="M231,31.35h2.52a19.34,19.34,0,0,1,2.52.23,6.27,6.27,0,0,1,2.16,1,5.89,5.89,0,0,1,1.56,1.81,6.8,6.8,0,0,1,.6,2.88,6.37,6.37,0,0,1-.6,2.88A4.05,4.05,0,0,1,238.2,42,4.33,4.33,0,0,1,236,43a9.1,9.1,0,0,1-2.64.37H231Zm-5-4v20h7.51a15.85,15.85,0,0,0,4.05-.58,9.71,9.71,0,0,0,3.58-1.85,8.44,8.44,0,0,0,2.55-3.13,9.2,9.2,0,0,0,.92-4.5,9.75,9.75,0,0,0-1-4.74,8.71,8.71,0,0,0-2.65-3.13,9.76,9.76,0,0,0-3.71-1.61,16.64,16.64,0,0,0-4.16-.46Z" transform="translate(0 0.65)"/><path class="cls-1" d="M231,31.35h2.52a19.34,19.34,0,0,1,2.52.23,6.27,6.27,0,0,1,2.16,1,5.89,5.89,0,0,1,1.56,1.81,6.8,6.8,0,0,1,.6,2.88,6.37,6.37,0,0,1-.6,2.88A4.05,4.05,0,0,1,238.2,42,4.33,4.33,0,0,1,236,43a9.1,9.1,0,0,1-2.64.37H231Zm-5-4v20h7.51a15.85,15.85,0,0,0,4.05-.58,9.71,9.71,0,0,0,3.58-1.85,8.44,8.44,0,0,0,2.55-3.13,9.2,9.2,0,0,0,.92-4.5,9.75,9.75,0,0,0-1-4.74,8.71,8.71,0,0,0-2.65-3.13,9.76,9.76,0,0,0-3.71-1.61,16.64,16.64,0,0,0-4.16-.46Z" transform="translate(0 0.65)"/><g class="cls-12"><path class="cls-1" d="M226,27.35h19v20H226Z" transform="translate(0 0.65)"/></g><rect class="cls-1" x="248" y="28" width="5" height="20"/><rect class="cls-1" x="248" y="28" width="5" height="20"/><g class="cls-13"><path class="cls-1" d="M248,27.35h5v20h-5Z" transform="translate(0 0.65)"/></g><path class="cls-1" d="M266,32.29l2.59,7.06h-5.18Zm-2.19-4.94-8.45,20h5.23l1.53-4H270l1.53,4h5.29l-8.32-20Z" transform="translate(0 0.65)"/><path class="cls-1" d="M266,32.29l2.59,7.06h-5.18Zm-2.19-4.94-8.45,20h5.23l1.53-4H270l1.53,4h5.29l-8.32-20Z" transform="translate(0 0.65)"/><g class="cls-14"><path class="cls-1" d="M255,27.35h22v20H255Z" transform="translate(0 0.65)"/></g><path class="cls-1" d="M187,57.35h2.51a19.19,19.19,0,0,1,2.52.23,6.17,6.17,0,0,1,2.16,1,5.79,5.79,0,0,1,1.54,1.8,6.61,6.61,0,0,1,.6,2.87,5,5,0,0,1-.6,2.87,4.14,4.14,0,0,1-1.54,2A4.58,4.58,0,0,1,192,69a9.09,9.09,0,0,1-2.64.36H187Zm-5-4v20h7.51a15.36,15.36,0,0,0,4.05-.58,9.28,9.28,0,0,0,3.58-1.85,8.44,8.44,0,0,0,2.56-3.12,9.24,9.24,0,0,0,.92-4.51,9.75,9.75,0,0,0-1-4.74,8.76,8.76,0,0,0-2.65-3.12,9.9,9.9,0,0,0-3.7-1.62,17.26,17.26,0,0,0-4.17-.46Z" transform="translate(0 0.65)"/><path class="cls-1" d="M187,57.35h2.51a19.19,19.19,0,0,1,2.52.23,6.17,6.17,0,0,1,2.16,1,5.79,5.79,0,0,1,1.54,1.8,6.61,6.61,0,0,1,.6,2.87,5,5,0,0,1-.6,2.87,4.14,4.14,0,0,1-1.54,2A4.58,4.58,0,0,1,192,69a9.09,9.09,0,0,1-2.64.36H187Zm-5-4v20h7.51a15.36,15.36,0,0,0,4.05-.58,9.28,9.28,0,0,0,3.58-1.85,8.44,8.44,0,0,0,2.56-3.12,9.24,9.24,0,0,0,.92-4.51,9.75,9.75,0,0,0-1-4.74,8.76,8.76,0,0,0-2.65-3.12,9.9,9.9,0,0,0-3.7-1.62,17.26,17.26,0,0,0-4.17-.46Z" transform="translate(0 0.65)"/><g class="cls-15"><path class="cls-1" d="M182,53.35h19v20H182Z" transform="translate(0 0.65)"/></g><polygon class="cls-1" points="204 54 204 74 218 74 218 70 209 70 209 66 217 66 217 62 209 62 209 58 218 58 218 54 204 54"/><polygon class="cls-1" points="204 54 204 74 218 74 218 70 209 70 209 66 217 66 217 62 209 62 209 58 218 58 218 54 204 54"/><g class="cls-16"><path class="cls-1" d="M204,53.35h14v20H204Z" transform="translate(0 0.65)"/></g><polygon class="cls-1" points="234.89 54 230.34 68 230.22 68 225.66 54 220.16 54 227.79 74 232.53 74 240.28 54 234.89 54"/><polygon class="cls-1" points="234.89 54 230.34 68 230.22 68 225.66 54 220.16 54 227.79 74 232.53 74 240.28 54 234.89 54"/><g class="cls-17"><path class="cls-1" d="M220,53.35h20v20H220Z" transform="translate(0 0.65)"/></g><polygon class="cls-1" points="243 54 243 74 257 74 257 70 248 70 248 66 256 66 256 62 248 62 248 58 257 58 257 54 243 54"/><polygon class="cls-1" points="243 54 243 74 257 74 257 70 248 70 248 66 256 66 256 62 248 62 248 58 257 58 257 54 243 54"/><g class="cls-18"><path class="cls-1" d="M243,53.35h14v20H243Z" transform="translate(0 0.65)"/></g><polygon class="cls-1" points="260 54 260 74 273 74 273 70 265 70 265 54 260 54"/><polygon class="cls-1" points="260 54 260 74 273 74 273 70 265 70 265 54 260 54"/><g class="cls-19"><path class="cls-1" d="M260,53.35h13v20H260Z" transform="translate(0 0.65)"/></g><path class="cls-1" d="M283.6,69.25A6.24,6.24,0,0,1,281.72,68a5.63,5.63,0,0,1-1.18-2,9.11,9.11,0,0,1-.47-2.59,5.38,5.38,0,0,1,.47-2.46,7.08,7.08,0,0,1,1.18-2,5.57,5.57,0,0,1,1.88-1.3,6.17,6.17,0,0,1,4.7,0,7,7,0,0,1,1.88,1.3,5.63,5.63,0,0,1,1.18,2,9.47,9.47,0,0,1,.47,2.46,6.2,6.2,0,0,1-.47,2.59,5.63,5.63,0,0,1-1.18,2,5.06,5.06,0,0,1-1.88,1.29,5.15,5.15,0,0,1-2.35.47,4.77,4.77,0,0,1-2.35-.47M281.48,53.5A9.72,9.72,0,0,0,278,55.61,10.37,10.37,0,0,0,275.6,59a10.72,10.72,0,0,0-.82,4.47A11.14,11.14,0,0,0,275.6,68a9.94,9.94,0,0,0,2.4,3.37,10.63,10.63,0,0,0,3.53,2.23,12.88,12.88,0,0,0,4.47.83,11.06,11.06,0,0,0,4.47-.83A8.89,8.89,0,0,0,294,71.37,11.82,11.82,0,0,0,296.3,68a11,11,0,0,0,.82-4.47A11.34,11.34,0,0,0,296.3,59a10,10,0,0,0-2.36-3.41,8.87,8.87,0,0,0-3.52-2.11,14.52,14.52,0,0,0-8.94,0" transform="translate(0 0.65)"/><path class="cls-1" d="M283.6,69.25A6.24,6.24,0,0,1,281.72,68a5.63,5.63,0,0,1-1.18-2,9.11,9.11,0,0,1-.47-2.59,5.38,5.38,0,0,1,.47-2.46,7.08,7.08,0,0,1,1.18-2,5.57,5.57,0,0,1,1.88-1.3,6.17,6.17,0,0,1,4.7,0,7,7,0,0,1,1.88,1.3,5.63,5.63,0,0,1,1.18,2,9.47,9.47,0,0,1,.47,2.46,6.2,6.2,0,0,1-.47,2.59,5.63,5.63,0,0,1-1.18,2,5.06,5.06,0,0,1-1.88,1.29,5.15,5.15,0,0,1-2.35.47,4.77,4.77,0,0,1-2.35-.47M281.48,53.5A9.72,9.72,0,0,0,278,55.61,10.37,10.37,0,0,0,275.6,59a10.72,10.72,0,0,0-.82,4.47A11.14,11.14,0,0,0,275.6,68a9.94,9.94,0,0,0,2.4,3.37,10.63,10.63,0,0,0,3.53,2.23,12.88,12.88,0,0,0,4.47.83,11.06,11.06,0,0,0,4.47-.83A8.89,8.89,0,0,0,294,71.37,11.82,11.82,0,0,0,296.3,68a11,11,0,0,0,.82-4.47A11.34,11.34,0,0,0,296.3,59a10,10,0,0,0-2.36-3.41,8.87,8.87,0,0,0-3.52-2.11,14.52,14.52,0,0,0-8.94,0" transform="translate(0 0.65)"/><g class="cls-20"><path class="cls-1" d="M275,52.35h22v22H275Z" transform="translate(0 0.65)"/></g><path class="cls-1" d="M305.12,57.35h2.2a5,5,0,0,1,1.34.12,1.8,1.8,0,0,1,1.1.37,1.56,1.56,0,0,1,.85.73,2,2,0,0,1,.25,1.22,3.41,3.41,0,0,1-.25,1.22,2.87,2.87,0,0,1-.85.85,2.06,2.06,0,0,1-1.22.37,5,5,0,0,1-1.34.12H305v-5Zm-5.12-4v20h5v-7h2.5a13.53,13.53,0,0,0,3.1-.36,8.64,8.64,0,0,0,2.61-1.08,6.06,6.06,0,0,0,2.5-5.18,7.55,7.55,0,0,0-.59-3,4.35,4.35,0,0,0-1.67-1.93,7.61,7.61,0,0,0-2.62-1.08,13.34,13.34,0,0,0-3.21-.36Z" transform="translate(0 0.65)"/><path class="cls-1" d="M305.12,57.35h2.2a5,5,0,0,1,1.34.12,1.8,1.8,0,0,1,1.1.37,1.56,1.56,0,0,1,.85.73,2,2,0,0,1,.25,1.22,3.41,3.41,0,0,1-.25,1.22,2.87,2.87,0,0,1-.85.85,2.06,2.06,0,0,1-1.22.37,5,5,0,0,1-1.34.12H305v-5Zm-5.12-4v20h5v-7h2.5a13.53,13.53,0,0,0,3.1-.36,8.64,8.64,0,0,0,2.61-1.08,6.06,6.06,0,0,0,2.5-5.18,7.55,7.55,0,0,0-.59-3,4.35,4.35,0,0,0-1.67-1.93,7.61,7.61,0,0,0-2.62-1.08,13.34,13.34,0,0,0-3.21-.36Z" transform="translate(0 0.65)"/><g class="cls-21"><path class="cls-1" d="M300,53.35h16v20H300Z" transform="translate(0 0.65)"/></g><polygon class="cls-1" points="333.86 54 329.4 67 329.29 67 324.71 54 317 54 317 74 322 74 321.88 59.78 327.38 74 330.51 74 336 59.54 335.88 74 341 74 341 54 333.86 54"/><polygon class="cls-1" points="333.86 54 329.4 67 329.29 67 324.71 54 317 54 317 74 322 74 321.88 59.78 327.38 74 330.51 74 336 59.54 335.88 74 341 74 341 54 333.86 54"/><g class="cls-22"><path class="cls-1" d="M318,53.35h23v20H318Z" transform="translate(0 0.65)"/></g><polygon class="cls-1" points="345 54 345 74 359 74 359 70 350 70 350 66 358 66 358 62 350 62 350 58 359 58 359 54 345 54"/><polygon class="cls-1" points="345 54 345 74 359 74 359 70 350 70 350 66 358 66 358 62 350 62 350 58 359 58 359 54 345 54"/><g class="cls-23"><path class="cls-1" d="M345,53.35h14v20H345Z" transform="translate(0 0.65)"/></g><polygon class="cls-1" points="376 54 376.11 67 376 67 367.63 54 362 54 362 74 367 74 366.88 61 367 61 375.75 74 381 74 381 54 376 54"/><polygon class="cls-1" points="376 54 376.11 67 376 67 367.63 54 362 54 362 74 367 74 366.88 61 367 61 375.75 74 381 74 381 54 376 54"/><g class="cls-24"><path class="cls-1" d="M362,53.35h19v20H362Z" transform="translate(0 0.65)"/></g><polygon class="cls-1" points="384 54 384 58 389 58 389 74 394 74 394 58 400 58 400 54 384 54"/><polygon class="cls-1" points="384 54 384 58 389 58 389 74 394 74 394 58 400 58 400 54 384 54"/><g class="cls-25"><path class="cls-1" d="M384,53.35h16v20H384Z" transform="translate(0 0.65)"/></g><path class="cls-1" d="M193,85.3l2.58,7h-5.17Zm-2.32-5-8.5,20h5.11l1.53-4h7.88l1.53,4h5.34l-8.31-20Z" transform="translate(0 0.65)"/><path class="cls-1" d="M193,85.3l2.58,7h-5.17Zm-2.32-5-8.5,20h5.11l1.53-4h7.88l1.53,4h5.34l-8.31-20Z" transform="translate(0 0.65)"/><g class="cls-26"><path class="cls-1" d="M182,80.35h22v20H182Z" transform="translate(0 0.65)"/></g><path class="cls-1" d="M217,79.35V91.69a5.69,5.69,0,0,1-.25,1.53,2.89,2.89,0,0,1-.72,1.3,4.91,4.91,0,0,1-1.22.94,4.85,4.85,0,0,1-3.63,0,3.3,3.3,0,0,1-1.21-.94,4.63,4.63,0,0,1-.73-1.3,6.59,6.59,0,0,1-.24-1.53V79.35h-5v12.7a10.46,10.46,0,0,0,.6,3.41A5.59,5.59,0,0,0,206.42,98a7.11,7.11,0,0,0,2.77,1.65,12.25,12.25,0,0,0,3.75.59,13.29,13.29,0,0,0,3.75-.59A8.66,8.66,0,0,0,219.58,98a5.59,5.59,0,0,0,1.82-2.58,10,10,0,0,0,.6-3.41V79.35Z" transform="translate(0 0.65)"/><path class="cls-1" d="M217,79.35V91.69a5.69,5.69,0,0,1-.25,1.53,2.89,2.89,0,0,1-.72,1.3,4.91,4.91,0,0,1-1.22.94,4.85,4.85,0,0,1-3.63,0,3.3,3.3,0,0,1-1.21-.94,4.63,4.63,0,0,1-.73-1.3,6.59,6.59,0,0,1-.24-1.53V79.35h-5v12.7a10.46,10.46,0,0,0,.6,3.41A5.59,5.59,0,0,0,206.42,98a7.11,7.11,0,0,0,2.77,1.65,12.25,12.25,0,0,0,3.75.59,13.29,13.29,0,0,0,3.75-.59A8.66,8.66,0,0,0,219.58,98a5.59,5.59,0,0,0,1.82-2.58,10,10,0,0,0,.6-3.41V79.35Z" transform="translate(0 0.65)"/><g class="cls-27"><path class="cls-1" d="M204,79.35h18v21H204Z" transform="translate(0 0.65)"/></g><polygon class="cls-1" points="225 80 225 84 230 84 230 101 235 101 235 84 241 84 241 80 225 80"/><polygon class="cls-1" points="225 80 225 84 230 84 230 101 235 101 235 84 241 84 241 80 225 80"/><g class="cls-28"><path class="cls-1" d="M225,80.35h16v20H225Z" transform="translate(0 0.65)"/></g><polygon class="cls-1" points="256 81 256 88 248 88 248 81 243 81 243 101 248 101 248 92 256 92 256 101 261 101 261 81 256 81"/><polygon class="cls-1" points="256 81 256 88 248 88 248 81 243 81 243 101 248 101 248 92 256 92 256 101 261 101 261 81 256 81"/><g class="cls-29"><path class="cls-1" d="M243,80.35h18v20H243Z" transform="translate(0 0.65)"/></g><path class="cls-1" d="M272,95.71a6.56,6.56,0,0,1-1.88-1.29,5.63,5.63,0,0,1-1.18-2,9.11,9.11,0,0,1-.47-2.59,6,6,0,0,1,.47-2.47,5.63,5.63,0,0,1,1.18-2,6,6,0,0,1,6.58-1.29,6.76,6.76,0,0,1,1.88,1.29,5.63,5.63,0,0,1,1.18,2,9.47,9.47,0,0,1,.47,2.47,6.54,6.54,0,0,1-.47,2.59,5.63,5.63,0,0,1-1.18,2,5.4,5.4,0,0,1-1.88,1.29,6.08,6.08,0,0,1-4.7,0M270,80a9.8,9.8,0,0,0-3.53,2.12,10.56,10.56,0,0,0-2.35,3.41A10.72,10.72,0,0,0,263.3,90a11.22,11.22,0,0,0,.82,4.47,9.66,9.66,0,0,0,2.35,3.4,10.5,10.5,0,0,0,3.53,2.24,13.1,13.1,0,0,0,4.47.82,11,11,0,0,0,4.46-.82,8.77,8.77,0,0,0,3.53-2.24,11.43,11.43,0,0,0,2.35-3.4A10.67,10.67,0,0,0,285.6,90a11.23,11.23,0,0,0-.83-4.47,9.79,9.79,0,0,0-2.35-3.41A8.86,8.86,0,0,0,278.89,80a13.78,13.78,0,0,0-4.46-.7A10.79,10.79,0,0,0,270,80" transform="translate(0 0.65)"/><path class="cls-1" d="M272,95.71a6.56,6.56,0,0,1-1.88-1.29,5.63,5.63,0,0,1-1.18-2,9.11,9.11,0,0,1-.47-2.59,6,6,0,0,1,.47-2.47,5.63,5.63,0,0,1,1.18-2,6,6,0,0,1,6.58-1.29,6.76,6.76,0,0,1,1.88,1.29,5.63,5.63,0,0,1,1.18,2,9.47,9.47,0,0,1,.47,2.47,6.54,6.54,0,0,1-.47,2.59,5.63,5.63,0,0,1-1.18,2,5.4,5.4,0,0,1-1.88,1.29,6.08,6.08,0,0,1-4.7,0M270,80a9.8,9.8,0,0,0-3.53,2.12,10.56,10.56,0,0,0-2.35,3.41A10.72,10.72,0,0,0,263.3,90a11.22,11.22,0,0,0,.82,4.47,9.66,9.66,0,0,0,2.35,3.4,10.5,10.5,0,0,0,3.53,2.24,13.1,13.1,0,0,0,4.47.82,11,11,0,0,0,4.46-.82,8.77,8.77,0,0,0,3.53-2.24,11.43,11.43,0,0,0,2.35-3.4A10.67,10.67,0,0,0,285.6,90a11.23,11.23,0,0,0-.83-4.47,9.79,9.79,0,0,0-2.35-3.41A8.86,8.86,0,0,0,278.89,80a13.78,13.78,0,0,0-4.46-.7A10.79,10.79,0,0,0,270,80" transform="translate(0 0.65)"/><g class="cls-30"><path class="cls-1" d="M263,79.35h22v22H263Z" transform="translate(0 0.65)"/></g><path class="cls-1" d="M293,83.35h2.68a5,5,0,0,1,1.22.11,4,4,0,0,1,1.1.38,1.63,1.63,0,0,1,.85.72,1.81,1.81,0,0,1,.36,1.23,2.37,2.37,0,0,1-.71,1.77,1.48,1.48,0,0,1-.61.34c-.34.1-.67.21-1.11.33a5,5,0,0,1-1.34.12H293v-5Zm-5-2.93v19.93h5v-8h1.63l4.41,8h5.28l-5.17-8.5a5.52,5.52,0,0,0,3-2,6,6,0,0,0,.46-6.32,5.18,5.18,0,0,0-1.73-1.9,7.79,7.79,0,0,0-2.41-1,11.65,11.65,0,0,0-2.76-.34H288Z" transform="translate(0 0.65)"/><path class="cls-1" d="M293,83.35h2.68a5,5,0,0,1,1.22.11,4,4,0,0,1,1.1.38,1.63,1.63,0,0,1,.85.72,1.81,1.81,0,0,1,.36,1.23,2.37,2.37,0,0,1-.71,1.77,1.48,1.48,0,0,1-.61.34c-.34.1-.67.21-1.11.33a5,5,0,0,1-1.34.12H293v-5Zm-5-2.93v19.93h5v-8h1.63l4.41,8h5.28l-5.17-8.5a5.52,5.52,0,0,0,3-2,6,6,0,0,0,.46-6.32,5.18,5.18,0,0,0-1.73-1.9,7.79,7.79,0,0,0-2.41-1,11.65,11.65,0,0,0-2.76-.34H288Z" transform="translate(0 0.65)"/><g class="cls-31"><path class="cls-1" d="M288,80.35h17v20H288Z" transform="translate(0 0.65)"/></g><rect class="cls-1" x="307" y="81" width="5" height="20"/><rect class="cls-1" x="307" y="81" width="5" height="20"/><g class="cls-32"><path class="cls-1" d="M307,80.35h5v20h-5Z" transform="translate(0 0.65)"/></g><polygon class="cls-1" points="315 80 315 84 320 84 320 101 325 101 325 84 331 84 331 80 315 80"/><polygon class="cls-1" points="315 80 315 84 320 84 320 101 325 101 325 84 331 84 331 80 315 80"/><g class="cls-33"><path class="cls-1" d="M315,80.35h16v20H315Z" transform="translate(0 0.65)"/></g><polygon class="cls-1" points="347.15 81 342.74 88.39 338.33 81 332.24 81 340 92.56 340 101 345 101 345 92.56 352.99 81 347.15 81"/><polygon class="cls-1" points="347.15 81 342.74 88.39 338.33 81 332.24 81 340 92.56 340 101 345 101 345 92.56 352.99 81 347.15 81"/><g class="cls-34"><path class="cls-1" d="M333,80.35h20v20H333Z" transform="translate(0 0.65)"/></g><polygon class="cls-1" points="47 13.1 47 89.21 69 100.73 69 1.22 47 13.1"/><polygon class="cls-1" points="47 13.1 47 89.21 69 100.73 69 1.22 47 13.1"/><g class="cls-35"><path class="cls-1" d="M47,.35H69v100H47Z" transform="translate(0 0.65)"/></g><polygon class="cls-1" points="0 100.73 22 89.21 22 13.1 0 1.22 0 100.73"/><polygon class="cls-1" points="0 100.73 22 89.21 22 13.1 0 1.22 0 100.73"/><g class="cls-36"><path class="cls-1" d="M0,.35H22v100H0Z" transform="translate(0 0.65)"/></g><polygon class="cls-1" points="94 101 119.51 101 94 37.15 94 101"/><polygon class="cls-1" points="94 101 119.51 101 94 37.15 94 101"/><g class="cls-37"><path class="cls-1" d="M94,36.35h26v64H94Z" transform="translate(0 0.65)"/></g><polygon class="cls-1" points="131.48 101 157 101 157 37.15 131.48 101"/><polygon class="cls-1" points="131.48 101 157 101 157 37.15 131.48 101"/><g class="cls-38"><path class="cls-1" d="M131,36.35h26v64H131Z" transform="translate(0 0.65)"/></g><polygon class="cls-1" points="103.23 1 125.46 50.73 147.68 1 103.23 1"/><polygon class="cls-1" points="103.23 1 125.46 50.73 147.68 1 103.23 1"/><g class="cls-39"><path class="cls-1" d="M103,.35h44v50H103Z" transform="translate(0 0.65)"/></g></g></g></g></g></svg>