<svg xmlns="http://www.w3.org/2000/svg" viewBox="0 0 100 151.21"><defs><style>.cls-1{fill:#1f2937;}</style></defs><g id="Layer_2" data-name="Layer 2"><g id="Layer_1-2" data-name="Layer 1"><g id="Layer_2-2" data-name="Layer 2"><g id="Layer_1-2-2" data-name="Layer 1-2"><path class="cls-1" d="M3.27,107.66l19-11.27,24.06,13.7c2.83,1.6,5.61,3.35,8.53,4.76C64,119.27,73.8,116.39,78.48,108a16.77,16.77,0,0,0-5.86-23l-.15-.09c-11.3-7.1-23-13.48-34.57-20.18a70.38,70.38,0,0,1-6.72-3.91c-4.75-3.57-5.87-8.26-3.32-12.81a8.92,8.92,0,0,1,12-3.89c.25.13.49.26.72.41C56.24,53.28,72.17,61.64,86.78,72c14.15,9.92,17,30.65,8.32,45.88-8.89,15.66-28.19,23.49-44.56,16C34.69,126.34,19.87,116.84,3.27,107.66Z"/><path class="cls-1" d="M70.79,93.29c2.58,4.82,3.28,9-.94,13.18-4.47,2.7-8.95,1.78-13.49-.84C43.42,98.13,30.21,91.06,17.5,83.21A36.21,36.21,0,0,1,52,19.67c7,3.27,13.57,7.57,20.42,11.45V51.68C68,49.46,65,48.05,62.05,46.43,56.67,43.41,51.48,40,46,37.25c-10.14-5-20.14-2-25.07,7.42C16.5,53,19.3,62.62,28.38,68.16c12,7.28,24.2,14,36.3,21.08C66.91,90.55,69,92.1,70.79,93.29Z"/><path class="cls-1" d="M56.28,144.6C41.93,155,25.49,153.92,0,135.89V116C19.61,124.12,35.47,138.55,56.28,144.6Z"/><path class="cls-1" d="M95,13.7,77.5,24.07,43.56,7C56.67-5,76.76-.73,95,13.7Z"/><path class="cls-1" d="M99.84,21V42.45L82.22,53V31.13Z"/></g></g></g></g></svg>