<svg xmlns="http://www.w3.org/2000/svg" viewBox="0 0 400 399.96"><defs><style>.cls-1{fill:#1f2937;}</style></defs><g id="Layer_2" data-name="Layer 2"><g id="Layer_1-2" data-name="Layer 1"><g id="Layer_2-2" data-name="Layer 2"><g id="Layer_1-2-2" data-name="Layer 1-2"><path class="cls-1" d="M186.9.11c-.86.08-3.6.35-6.06.55C124,5.78,70.81,36.43,37.11,83.54A197.81,197.81,0,0,0,1.8,170.91C.2,181.9,0,185.14,0,200s.2,18.14,1.8,29.12C12.67,304.23,66.12,367.33,138.61,390.7a210.62,210.62,0,0,0,42.23,8.76c6.06.67,32.26.67,38.32,0,26.86-3,49.62-9.62,72.06-21.07,3.44-1.76,4.11-2.23,3.64-2.62-.31-.23-15-19.9-32.57-43.67l-32-43.2-40.08-59.31c-22-32.59-40.21-59.22-40.34-59.22s-.31,26.31-.39,58.48c-.12,56.34-.15,58.61-.86,59.93a7.06,7.06,0,0,1-3.44,3.56c-1.25.63-2.35.75-8.25.66h-6.76l-1.8-1.05a7.19,7.19,0,0,1-2.62-2.85l-1.25-1.76V130.58l1.83-1.53a10.92,10.92,0,0,1,2.9-2.38c1.6-.78,2.23-.86,9-.86,8,0,9.31.31,11.38,2.58.59.62,22.29,33.31,48.25,72.68s61.47,93.12,78.9,119.51l31.68,48,1.6-1.06a204.94,204.94,0,0,0,41.09-36A199,199,0,0,0,398.2,229.16c1.6-11,1.8-14.23,1.8-29.12s-.2-18.14-1.8-29.13C387.33,95.81,333.88,32.71,261.39,9.33A210.64,210.64,0,0,0,219.75.62C216,.22,190.15-.21,186.9.11ZM269.18,121a7.91,7.91,0,0,1,4,4.61c.31,1,.39,22.8.31,71.89l-.12,70.43-12.41-19-12.47-19V178.59c0-33.07.16-51.71.39-52.61a8,8,0,0,1,3.89-4.94c1.6-.83,2.19-.9,8.34-.9,5.8,0,6.82.07,8.11.79Z"/></g></g></g></g></svg>