<svg xmlns="http://www.w3.org/2000/svg" viewBox="0 0 363 399.96"><defs><style>.cls-1{fill:#1f2937;}</style></defs><g id="Layer_2" data-name="Layer 2"><g id="Layer_1-2" data-name="Layer 1"><g id="Layer_2-2" data-name="Layer 2"><g id="Layer_1-2-2" data-name="Layer 1-2"><path class="cls-1" d="M165.11,4.27a33.55,33.55,0,0,1,32.75,0q74.77,42.27,149.57,84.48A30.8,30.8,0,0,1,363,115.27V284.74c.07,11.24-6.82,21.93-16.71,27.09q-74.51,42-149,84.06a32.6,32.6,0,0,1-33.11-.92q-22.33-13-44.7-25.85c-3-1.82-6.48-3.26-8.63-6.21,1.9-2.56,5.3-2.88,8.06-4,6.22-2,11.93-5.15,17.64-8.23a4.13,4.13,0,0,1,4.59.27c12.73,7.31,25.36,14.82,38.14,22.06,2.73,1.57,5.49-.52,7.82-1.82q73.13-41.34,146.31-82.56a4.85,4.85,0,0,0,2.65-4.77q.06-83.84,0-167.7a5.25,5.25,0,0,0-3.12-5.23Q258.67,69.11,184.45,27.24a5.17,5.17,0,0,0-5.83,0Q104.37,69,30.14,111A5.19,5.19,0,0,0,27,116.16V284a4.77,4.77,0,0,0,2.7,4.72Q49.58,300,69.47,311.2c7.46,4,16.63,6.4,24.86,3.33a18.87,18.87,0,0,0,12.21-17.73q.1-83.58,0-167.18a4.19,4.19,0,0,1,4.1-4.3,3.7,3.7,0,0,1,.47,0c6.37,0,12.74-.09,19.11,0,2.66-.06,4.48,2.59,4.15,5.09q0,84.1,0,168.24c0,14.94-6.13,31.21-20,38.53-17,8.82-38.1,6.94-54.91-1.52C45,328.42,31.08,319.84,16.74,312.05,6.81,306.91-.07,296.16,0,284.88V115.27A30.86,30.86,0,0,1,16.09,88.42Q90.61,46.36,165.11,4.27Z"/><path class="cls-1" d="M208.69,121.67c21.66-1.39,44.86-.83,64.36,9.85,15.1,8.18,23.47,25.35,23.73,42.12-.42,2.26-2.78,3.51-4.94,3.35-6.29,0-12.58.09-18.87,0-2.66.1-4.21-2.36-4.55-4.71-1.8-8-6.18-16-13.73-19.85-11.6-5.8-25-5.51-37.69-5.39-9.23.49-19.15,1.29-27,6.72-6,4.11-7.83,12.41-5.68,19.09,2,4.8,7.56,6.35,12.09,7.78,26.11,6.83,53.78,6.15,79.4,15.14,10.6,3.66,21,10.78,24.61,21.89,4.75,14.88,2.66,32.67-7.92,44.61-8.59,9.83-21.1,15.19-33.57,18.09-16.59,3.7-33.81,3.8-50.66,2.15-15.84-1.8-32.33-6-44.56-16.76-10.46-9.08-15.57-23.23-15.07-36.89a4.24,4.24,0,0,1,4.63-3.73c6.33,0,12.66-.07,19,0a4.45,4.45,0,0,1,4.54,4.36v0c1.17,7.64,4,15.67,10.71,20.2,12.86,8.3,29,7.74,43.74,8,12.21-.54,25.91-.71,35.87-8.77,5.26-4.61,6.81-12.31,5.39-18.93-1.54-5.59-7.38-8.2-12.41-9.9-25.78-8.15-53.76-5.19-79.29-14.42-10.36-3.66-20.38-10.58-24.36-21.23-5.56-15.07-3-33.71,8.68-45.25,11.41-11.49,27.87-15.91,43.53-17.49Z"/></g></g></g></g></svg>