<svg xmlns="http://www.w3.org/2000/svg" viewBox="0 0 410 400"><defs><style>.cls-1{fill:#1f2937;}</style></defs><g id="Layer_2" data-name="Layer 2"><g id="Layer_1-2" data-name="Layer 1"><g id="Layer_2-2" data-name="Layer 2"><g id="Layer_1-2-2" data-name="Layer 1-2"><path class="cls-1" d="M167.8,138.3a50.35,50.35,0,0,0-20.17-3.42c-4.45,0-8.38,0-11.63.18a38.08,38.08,0,0,0-7,.17v57.43c2.4.17,4.62.34,6.67.34h9.06a63.89,63.89,0,0,0,19.69-3.07,29.41,29.41,0,0,0,14-9.06c3.59-4.28,5.3-10.09,5.3-17.61a28.11,28.11,0,0,0-3.93-15.21A24.75,24.75,0,0,0,167.8,138.3Z"/><path class="cls-1" d="M337.36,0H72.56A72.57,72.57,0,0,0,0,72.57V327.35A72.57,72.57,0,0,0,72.48,400H337.4A72.57,72.57,0,0,0,410,327.47V72.65A72.57,72.57,0,0,0,337.52,0ZM210.79,198.42a58.49,58.49,0,0,1-27.49,20.85c-11.61,4.27-24.41,5.81-38.42,5.81-4.09,0-6.83,0-8.54-.17s-4.09-.17-7.34-.17v54.87a2.11,2.11,0,0,1-1.82,2.38H94c-1.37,0-2-.68-2-2.22V103.89A1.88,1.88,0,0,1,93.88,102c2.84,0,5.54,0,9.39-.18,4.09-.17,8.37-.17,13-.34s9.56-.17,14.86-.34,10.42-.17,15.54-.17c14,0,25.61,1.71,35.17,5.3a61,61,0,0,1,22.89,14,54.39,54.39,0,0,1,12.46,19.48A65.35,65.35,0,0,1,221.1,162Q221,184.05,210.79,198.42ZM332.27,265a42.57,42.57,0,0,1-19.07,15.14c-8.34,3.58-18.56,5.45-30.82,5.45a117.52,117.52,0,0,1-23.14-2.21,67.87,67.87,0,0,1-17.37-5.45,3.32,3.32,0,0,1-1.87-3.23V245.06a1.84,1.84,0,0,1,.68-1.53,1.28,1.28,0,0,1,1.53.17A72.75,72.75,0,0,0,263.32,252a79.16,79.16,0,0,0,20.09,2.55c6.46,0,11.06-.85,14.13-2.38a8,8,0,0,0,4.59-7.15c0-2.38-1.36-4.59-4.08-6.81s-8.35-4.76-16.68-8A104.39,104.39,0,0,1,257.19,218a44,44,0,0,1-12.95-14.47,36.54,36.54,0,0,1-3.91-17.36,40.12,40.12,0,0,1,5.81-20.63,42,42,0,0,1,17.93-15.66c8-4.09,18.05-6,30.14-6a146.11,146.11,0,0,1,21.1,1.53A60,60,0,0,1,330,149.37a3,3,0,0,1,1.69,1.54,7.92,7.92,0,0,1,.35,2v27.79a2.12,2.12,0,0,1-.86,1.7c-1.53.34-2.38.34-3.05,0a60.23,60.23,0,0,0-16.36-5.8,90.45,90.45,0,0,0-19.06-2.21,34,34,0,0,0-10.22,1.2,8.69,8.69,0,0,0-5.27,3.4,9,9,0,0,0-1.36,4.59,7.59,7.59,0,0,0,1.71,4.44,19.09,19.09,0,0,0,5.78,4.59c3.91,2,8,3.91,12.08,5.61a123.46,123.46,0,0,1,26.22,12.43,39.6,39.6,0,0,1,13.45,14.13A36.67,36.67,0,0,1,339,242.31,39.67,39.67,0,0,1,332.27,265Z"/></g></g></g></g></svg>