<svg xmlns="http://www.w3.org/2000/svg" viewBox="0 0 400 400"><defs><style>.cls-1{fill:#1f2937;}</style></defs><g id="Layer_2" data-name="Layer 2"><g id="Layer_1-2" data-name="Layer 1"><g id="Layer_2-2" data-name="Layer 2"><g id="Layer_1-2-2" data-name="Layer 1-2"><path class="cls-1" d="M350,100H310c0,52.45-7.05,78.11-25.15,91.52S238.15,205,195,205c-36.58,0-60.75,0-75,11.4S100,252,100,300v50c0,27.61,44.77,50,100,50s100-22.39,100-50V310H200V300H350c27.61,0,50-44.77,50-100S377.61,100,350,100ZM254.56,331.69a18.5,18.5,0,1,1-18.5,18.5h0A18.5,18.5,0,0,1,254.56,331.69Z"/><path class="cls-1" d="M113.75,208.6C130.75,195,156.31,195,195,195c41.16,0,68.35,0,83.9-11.52C294.08,172.23,300,148.83,300,100V50c0-27.61-44.77-50-100-50S100,22.39,100,50V90H200v10H50C22.39,100,0,144.77,0,200S22.39,300,50,300H90C90,247.9,96.66,222.27,113.75,208.6ZM144.56,68.69a18.5,18.5,0,1,1,18.5-18.5A18.51,18.51,0,0,1,144.56,68.69Z"/></g></g></g></g></svg>