<svg xmlns="http://www.w3.org/2000/svg" viewBox="0 0 400 355.85"><defs><style>.cls-1{fill:#1f2937;}</style></defs><g id="Layer_2" data-name="Layer 2"><g id="Layer_1-2" data-name="Layer 1"><g id="Layer_2-2" data-name="Layer 2"><g id="Layer_1-2-2" data-name="Layer 1-2"><path class="cls-1" d="M328.88,115.36h0q-6.39-2.19-12.88-4.06,1.08-4.36,2-8.78c9.75-47.32,3.38-85.43-18.38-98-20.87-12-55,.51-89.46,30.51q-5.1,4.44-10,9.14C198,42.08,195.78,40,193.53,38c-36.09-32-72.3-45.56-94-33C78.64,17.13,72.47,53,81.24,97.81q1.32,6.66,3,13.24c-5.12,1.46-10.07,3-14.81,4.66C27.05,130.47,0,153.61,0,177.62c0,24.79,29,49.65,73.14,64.73q5.37,1.82,10.82,3.38-1.77,7.08-3.14,14.28c-8.37,44.06-1.83,79.05,19,91,21.47,12.38,57.51-.35,92.61-31q4.17-3.64,8.35-7.7,5.26,5.07,10.81,9.87c34,29.25,67.57,41.06,88.35,29,21.45-12.42,28.42-50,19.37-95.73q-1-5.25-2.4-10.7c2.53-.74,5-1.52,7.44-2.32C370.17,227.3,400,202.74,400,177.62,400,153.53,372.08,130.23,328.88,115.36ZM221.36,47.94c29.53-25.7,57.13-35.85,69.71-28.6h0c13.39,7.73,18.6,38.88,10.19,79.73q-.83,4-1.8,8A409.06,409.06,0,0,0,246,98.57a402.31,402.31,0,0,0-33.81-42.2C215.16,53.49,218.23,50.67,221.36,47.94ZM118.11,198.12q5.42,10.47,11.34,20.7,6,10.41,12.55,20.54a364.42,364.42,0,0,1-36.86-5.93A372.65,372.65,0,0,1,118.11,198.12Zm0-40.45a368.63,368.63,0,0,1-12.71-34.61c11.41-2.56,23.58-4.64,36.26-6.23Q135.3,126.76,129.4,137t-11.31,20.68ZM127.19,178q7.91-16.44,17-32.25h0q9.12-15.79,19.4-30.87c11.89-.9,24.09-1.37,36.42-1.37s24.6.47,36.49,1.38q10.19,15,19.27,30.77T273,177.78q-8,16.5-17.19,32.38h0q-9.09,15.78-19.19,31c-11.87.85-24.13,1.29-36.63,1.29s-24.56-.39-36.22-1.14q-10.35-15.13-19.54-31T127.17,178ZM270.64,218.7q6-10.47,11.6-21.2h0a361,361,0,0,1,13.44,35.19A365.57,365.57,0,0,1,258.34,239q6.35-10,12.28-20.35Zm11.44-61q-5.55-10.51-11.51-20.81h0q-5.86-10.14-12.16-20c12.76,1.62,25,3.76,36.47,6.38a362.89,362.89,0,0,1-12.82,34.43ZM200.19,68.59A363.49,363.49,0,0,1,223.73,97q-23.62-1.11-47.28,0C184.23,86.75,192.19,77.23,200.19,68.59ZM108.05,19.85c13.38-7.75,43,3.3,74.16,31,2,1.77,4,3.63,6,5.54a407,407,0,0,0-34.07,42.17,415.05,415.05,0,0,0-53.38,8.3Q99.23,100.71,98,94.52h0C90.49,56.1,95.49,27.12,108.05,19.85ZM88.54,229.27q-5-1.43-9.87-3.09A144.82,144.82,0,0,1,32,201.39a35.32,35.32,0,0,1-14.93-23.77C17.09,163,38.8,144.47,75,131.85q6.82-2.37,13.77-4.34A411.43,411.43,0,0,0,108.28,178,416.75,416.75,0,0,0,88.54,229.27Zm92.61,77.89a144.91,144.91,0,0,1-44.78,28h0a35.39,35.39,0,0,1-28.06,1.06c-12.61-7.21-17.86-35.34-10.7-73q1.27-6.69,2.92-13.28a404.8,404.8,0,0,0,53.9,7.8,418.44,418.44,0,0,0,34.34,42.42C186.29,302.54,183.74,304.88,181.15,307.16Zm19.51-19.32c-8.1-8.73-16.17-18.4-24.06-28.8q11.49.45,23.4.46,12.23,0,24.15-.54a363.17,363.17,0,0,1-23.49,28.88Zm103.77,23.78a35.34,35.34,0,0,1-13.1,24.83c-12.6,7.3-39.56-2.19-68.63-27.21q-5-4.29-10.06-9.17a404.52,404.52,0,0,0,33.53-42.57,399.35,399.35,0,0,0,54.17-8.35q1.23,4.93,2.17,9.68h0a144.88,144.88,0,0,1,1.92,52.79Zm14.51-85h0c-2.18.73-4.43,1.43-6.71,2.1A402.22,402.22,0,0,0,292,178.1a399.79,399.79,0,0,0,19.47-49.93q6.13,1.77,11.89,3.75C360.36,144.66,383,163.5,383,178c0,15.46-24.38,35.53-64,48.65Z"/><path class="cls-1" d="M200,141.9a35.72,35.72,0,1,1-35.72,35.72h0A35.72,35.72,0,0,1,200,141.9h0"/></g></g></g></g></svg>