<svg xmlns="http://www.w3.org/2000/svg" viewBox="0 0 154.24 35.8"><defs><style>.cls-1{fill:#1f2937;}</style></defs><g id="Layer_2" data-name="Layer 2"><g id="圖層_1" data-name="圖層 1"><path class="cls-1" d="M42.08,6.4S48.55,4.8,65.6,4.8c0,0,22.27.11,31,1.49,0,0-4,2.09-17,3.24,0,0-13,.45-13.81.33L59.08,35.8S54.82,32.23,56.65,24c0,0,2-9.42,3.29-14.21,0,0-12.84-.82-17.86-3.36"/><path class="cls-1" d="M65.11,30.41l3.89-15h4.43L72.12,20.5s2.33-6.23,6.27-5.46L77.47,19s-4.21-2.2-7.93,11.46Z"/><path class="cls-1" d="M89.17,17.52c0-.07-2.42-.88-4.25,1.76a15,15,0,0,0-2.49,5.9s-.55,2,.91,2.37c0,0,1.52.22,3-2.87a37.36,37.36,0,0,0,2.8-7.16M94,16.15,90.36,30.47,86,30.41l1.25-4.14c-3.08,5.35-6.85,4.46-6.85,4.46C77.05,29.63,77.79,26,77.79,26a12.92,12.92,0,0,1,6.64-10.07c4.58-2.37,9.55.22,9.55.22"/><path class="cls-1" d="M95.1,30.41,99,15.32h4.16l-1.09,3.91s2.65-5.18,7.39-4.08c0,0,2,.45,1.73,3.15l-2.91,12.11-4.53-.05,2.54-9.81s.87-2.42-.65-2.36c0,0-3-.56-6.16,12.17Z"/><path class="cls-1" d="M123.75,18s1-2.37,1-2.37-4-1.7-6.85-.17a5.33,5.33,0,0,0-3.18,3.86,4.53,4.53,0,0,0,1.5,3.58c1.78,1.82,2.11,2.2,2.11,2.2a1.81,1.81,0,0,1,0,2.46s-1.8,1.5-4.94-.49l-1.35,2.44s4,2.06,7.63.68c0,0,2.87-1.17,3.33-3.62a4.77,4.77,0,0,0-.61-3.6s-2.17-2.29-2.72-2.82a1.49,1.49,0,0,1,.07-2.48s1.32-.76,3.93.33"/><polygon class="cls-1" points="130.3 11.19 134.83 11.16 134.11 13.68 129.56 13.68 130.3 11.19"/><polygon class="cls-1" points="129.25 15.25 133.7 15.28 129.86 30.48 125.29 30.48 129.25 15.25"/><path class="cls-1" d="M138.26,17.8c.06,0,1.36-5,1.36-5l4.3,0-1.16,5s8.79-.19,11.48.75c0,0-3,1.54-12,1.5l-2.69,10.5H135l2.8-11a8.25,8.25,0,0,1-3.29-1.19s.6-.54,3.73-.54"/><path class="cls-1" d="M13.34,11.83s-1.18,2.94-1.18,2.94a4.42,4.42,0,0,0-3.7-.57s-2.64.87-.76,3.34c0,0,2.15,2.14,2.83,3a5.65,5.65,0,0,1,1.61,4.18,6.18,6.18,0,0,1-2.66,4.74A8.82,8.82,0,0,1,0,29.31l1.35-2.85a6.43,6.43,0,0,0,4.44,1s2.66-.79.9-3.54a16.53,16.53,0,0,0-1.57-1.68,12.08,12.08,0,0,1-2.53-3.12,5.9,5.9,0,0,1,.2-4.84A7,7,0,0,1,7.54,11s3.56-.44,5.8.81"/><path class="cls-1" d="M21.62,19H23.3a2.37,2.37,0,0,0,1.62-1,4.9,4.9,0,0,0,.56-2.3,1.56,1.56,0,0,0-1-1.49l-1.95-.1Zm-1.68,8.45,2.36-.07a3.08,3.08,0,0,0,2-1.38A5.29,5.29,0,0,0,24.79,23,1.91,1.91,0,0,0,23,21.8H21Zm-5.62,3.09L18.13,11.2l7.39-.07s4,0,4.87,2.5a5.11,5.11,0,0,1-.86,4.64,7.17,7.17,0,0,1-3.44,2.06s3.14.51,3.67,2.91a5.82,5.82,0,0,1-1.86,5.31,7.93,7.93,0,0,1-4.6,1.8Z"/><path class="cls-1" d="M45,11.78s-1.19,2.93-1.19,2.93a4.46,4.46,0,0,0-3.7-.57s-2.63.88-.75,3.35c0,0,2.15,2.14,2.83,3a5.7,5.7,0,0,1,1.61,4.18A6.18,6.18,0,0,1,41.1,29.4a8.83,8.83,0,0,1-9.48-.14L33,26.41a6.43,6.43,0,0,0,4.44,1s2.65-.79.9-3.54a17.27,17.27,0,0,0-1.58-1.68,11.91,11.91,0,0,1-2.52-3.12,5.85,5.85,0,0,1,.2-4.84A7,7,0,0,1,39.15,11s3.57-.45,5.81.8"/><path class="cls-1" d="M25.31,1.05a110.32,110.32,0,0,1,20.13-1S61.76.4,65.68,1.31c0,0-2.79,1.54-20.84,1.93,0,0-15.13,0-19.53-2.19"/></g></g></svg>