<svg xmlns="http://www.w3.org/2000/svg" viewBox="0 0 308.25 400.4"><defs><style>.cls-1{fill:#1f2937;}</style></defs><g id="Layer_2" data-name="Layer 2"><g id="Layer_1-2" data-name="Layer 1"><g id="Layer_2-2" data-name="Layer 2"><g id="Layer_1-2-2" data-name="Layer 1-2"><path class="cls-1" d="M158,0c1.47,3.15,4.11,5.22,6.79,7.21a4.29,4.29,0,0,1,2,3.76c-.07,2.07-.73,2.79-2.81,3.08l-1.47.21c-.06.83-.18,1.64-.17,2.44a2.39,2.39,0,0,0,1.64,2.54,2.9,2.9,0,0,0,3.41-.81c.22-.25.41-.53.61-.79,1.78-2.34,3.5-2.93,6-1.43a16.62,16.62,0,0,1,4.4,4,5.25,5.25,0,0,1,.86,3.51c-.26,2.63-2.2,3.83-4.83,3.33-3.69-.69-4.94.2-5.44,3.95a6.82,6.82,0,0,0,3.14,7.15c4.07,2.69,10.79,1.87,14.11-1.7a6.45,6.45,0,0,0,2-4.74c-.08-3-1.68-4.6-4.68-4.67h-1.21c.3-5.4,5.42-9.87,10.55-9.34,2.34.23,3.35,1.7,2.56,3.72-1,2.52-.81,3.24.9,3.8a3.76,3.76,0,0,0,4.91-2s0-.07,0-.11c.8-2.43-.06-4.11-2.7-5.29C201,10.63,214.23,7.8,221.2,13a41.54,41.54,0,0,0-5.15,2.73A33.42,33.42,0,0,0,203,35a107.14,107.14,0,0,0-1.7,10.84,3,3,0,0,0,.47,2c2.26,2.88,2.06,4-1.29,5.79V64.15c2.38.42,2.91,2.1,2.5,4.38a43.37,43.37,0,0,1,13.36.22,21.91,21.91,0,0,1,3.9.93c5.7,1.9,7.84,6.45,5.74,12l-.5,1.3h46.29A5.49,5.49,0,0,1,276,85.21c4,5.18,8.24,10.27,12.39,15.38.52.64,1,1.3,1.61,2.09-2.24.43-4.34.72-6.35,1.28a30.26,30.26,0,0,0-5.11,2,6.29,6.29,0,0,0-3.73,6.24c.06,7.26,0,14.52.67,21.77v85.85c-.67,20.19-.5,40.38-.52,60.56a75.27,75.27,0,0,1-2.8,21.73,30.47,30.47,0,0,1-5.08,10.23,13.52,13.52,0,0,0-.87,1.47h0c4.31-1.23,8.57-2.67,12.93-3.62a40.82,40.82,0,0,1,17.87-.26,22.62,22.62,0,0,1,5.58,2.09c3.34,1.79,4.5,4.24,3.58,7.91-1.51,6-1.66,12-2,18.11a28.43,28.43,0,0,0,2.31,12.68,27.69,27.69,0,0,1,1.67,6,4.31,4.31,0,0,1-2.72,4.85c-1.42.69-2.91,1.2-4.54,1.86-.44,4.71-3.56,7.8-7.16,10.48-6.55,4.89-14.05,7.92-21.7,10.58A256.35,256.35,0,0,1,229.66,395a426.89,426.89,0,0,1-71.5,5.43,327.34,327.34,0,0,1-35-1.61,301.49,301.49,0,0,1-48.72-9.65c-14.6-4.12-29.08-8.55-43-14.75-3.41-1.52-6.74-3.27-10-5.08a19.29,19.29,0,0,1-7.63-6.76c-3.41,1.44-6.75.94-10-.2S-.62,359,.3,355.69a34.32,34.32,0,0,1,2.29-6.06,24.71,24.71,0,0,0,2.29-14.11Q4,327.81,3.16,320.11c-.07-.67-.13-1.33-.15-2-.15-5.55,2.22-8.62,7.64-9.74,5.12-1.06,10.29-.79,15.44-.27,7.53.75,15,1.83,22,4.57-1.52-3.31-3.29-6.51-4.47-9.91a61,61,0,0,1-3-19.92c-.06-16.36.09-32.71.14-49.06,0-18.85.12-37.71.1-56.56,0-21.36-.23-42.71-.18-64.07,0-5.29-2.08-7.24-6.29-8.62a86,86,0,0,0-8.86-2l6.47-8c2.53-3.11,5.11-6.17,7.56-9.33a4.48,4.48,0,0,1,4-1.89c15.51.06,31,0,46.54.73h2.64l.38-1.2C90,80.72,89.6,77.69,90,74.39a6.56,6.56,0,0,1,4.38-5.89c5.29-1.88,10.54-2.33,15.62.87a12,12,0,0,0,3.21.84c-.18-1.45-.66-2.66-.35-3.62s2.64-2.75,2.64-2.75v-10c-.48-.3-1-.55-1.45-.89-1.56-1.19-1.89-3-.41-4.29a3.43,3.43,0,0,0,1.12-3.34c-.8-10.5-4-20-12-27.34-2.29-2.12-4.75-4-7.92-4.65,1.48-2.09,5.79-3.48,9.71-3.15,5.76.49,11,3.45,12.76,7.4a15.28,15.28,0,0,0-1.43.79,3.92,3.92,0,0,0,4.34,6.53,1.87,1.87,0,0,0,.71-2.55l0-.05c-1.37-3.39,0-5,3.61-4.6A10.31,10.31,0,0,1,133.71,27h-1.47c-3.51,0-5.52,2.6-4.66,6a8.43,8.43,0,0,0,5.9,6,12.61,12.61,0,0,0,8.14,0c4.29-1.39,7-6.08,3.78-11.41a3.28,3.28,0,0,0-2-1,5.86,5.86,0,0,0-1.94.37c-3.4.68-6-2.08-4.85-5.38a9.25,9.25,0,0,1,6.63-6,3.43,3.43,0,0,1,4.3,1.68,5.77,5.77,0,0,0,1.09,1.37,2.78,2.78,0,0,0,3,.59,2.47,2.47,0,0,0,1.81-2.43c.05-.74,0-1.49,0-2.3a6.34,6.34,0,0,0-1.52-.46c-1.27,0-2.39-.35-2.76-1.7-.44-1.58-.46-3.19.92-4.4,1-1,2.28-1.68,3.23-2.7,1.6-1.68,3-3.52,4.56-5.3Zm56.11,124.57a6.43,6.43,0,0,1,1.24.12c9.05,2.56,17.79,1.43,26.33-2.18,1.76-.75,3.51-1.54,5.32-2.14a15.19,15.19,0,0,1,8.09-.79,6.19,6.19,0,0,1,5.17,4.81,7.19,7.19,0,0,1-1.88,7.14c-2,2.09-7.27,1.73-7.63-2.15-.08-.82-.25-1.71-1.16-1.57a2.79,2.79,0,0,0-1.88,1.32,3.93,3.93,0,0,0,.89,4.6,8.87,8.87,0,0,0,9.11,2.65c4.57-1.11,7.75-6.72,6.85-11.88-1.19-6.83-7.22-9.88-13.3-9.33-3.15.29-5.86,1.7-8.6,3.13a37.09,37.09,0,0,1-22.26,3.85c-6.54-.81-12.07-4.32-18.41-6.24,2.32-1.4,4.44-2.57,6.43-3.92s2.23-2.49,1.48-4.77L205.83,109a6.3,6.3,0,0,1,2.17-1.77c3.63-1.47,4-4.64,4.71-8-3,0-4.92,1.76-7.11,2.84a6.26,6.26,0,0,0,2.08-7.8,3.18,3.18,0,0,0-3.5-2.31,7.8,7.8,0,0,1-1.89,6.1c-1.4,1.62-2.71,3.31-4.1,5-.32-1-.66-2-1.14-3.46a22.2,22.2,0,0,0-2.93,8.73,5.72,5.72,0,0,0,4.66,6.61l.34,0a45.86,45.86,0,0,1,.81-6.81c.64-2.43,2.54-4,4.77-5.18-.82.83-1.63,1.66-2.45,2.48a7.5,7.5,0,0,0-1.91,7.59c.18.76.39,1.52.62,2.42a11.8,11.8,0,0,0-1.46-.06,44.62,44.62,0,0,0-5.16.51c-.56.1-1.41,1-1.34,1.48a2.54,2.54,0,0,0,1.44,1.69,7.29,7.29,0,0,0,3.15.17,9,9,0,0,1,6,.93c-1.24,1.55-1.23,1.55-.31,2.93a17.86,17.86,0,0,1,1.23,1.88,7.63,7.63,0,0,0,5.32,4.16,63.5,63.5,0,0,0,7.12,1.12,76.74,76.74,0,0,0,20.64-.74,9.94,9.94,0,0,0,4.11-2.07,2.45,2.45,0,0,0,.73-3.36c-.79-1.17-1.94-.45-3-.13l-.47.17a38.63,38.63,0,0,1-17.69,2.26c-2.41-.21-4.74-1.21-7.11-1.85ZM258.48,320a48.21,48.21,0,0,1-4.45,2.18c-3.5,1.32-7.09,2.4-10.56,3.77l-65.58,26c-.55.23-1.07.54-1.6.81,5.59,0,11.09-.13,16.56-.67,11.76-1.17,23.53-2.42,35.26-3.89a128.57,128.57,0,0,0,30-7.38c3-1.15,4.71-2.71,4.9-6a4.27,4.27,0,0,0-.59-3,23.37,23.37,0,0,1-1.26-2.16c-1.64-2.94-3.74-5.74-2.58-9.44,0-.05-.09-.13-.14-.2h.13ZM120.4,244.68c1.72,1.65,1.89,2.43.79,4.23-.73,1.21-1.65,2.32-2.28,3.57a5.87,5.87,0,0,0,.42,6.36,3.43,3.43,0,0,0,3.92,1.54,3.9,3.9,0,0,0,3.21-3.35l-1.17-.06c-2.54-.14-3.29-1.26-2.21-3.58a16.75,16.75,0,0,1,2-3.11c2.12-2.73,2.09-4.38-.21-7-.63-.73-1.18-1.51-1.78-2.27h-.06c1.2.37,2.38.81,3.61,1.09a2.2,2.2,0,0,0,2.81-1.31,2,2,0,0,0,.12-.85,5.08,5.08,0,0,0-1.83-4.15c-2.38,1.9-2.37,1.88-5.54,1.45-5.12-.66-9.58.3-12.48,5a11.49,11.49,0,0,0-1.72,9c.8,3.2,2,6.31,3,9.46.24.74.47,1.46.75,2.31-5-.91-6.81-.26-7.9,2.71,7.34-.53,9.54.54,11.19,5.61a22.64,22.64,0,0,0-10.68,2.23c3,3.39,6,3.8,9.67,1.44,2.27-1.44,3-1.39,4.7.56a12.63,12.63,0,0,1,3.34,6.85,4.74,4.74,0,0,1-2.19,5.08,5.34,5.34,0,0,1-.75-.39,28.35,28.35,0,0,0-14.13-6A17.54,17.54,0,0,1,99,279c-1.54-.88-2.56-2.6-3.94-3.81a11.26,11.26,0,0,0-3.28-2.05c-1.86-.71-3.82-1.12-5.94-1.71a3.94,3.94,0,0,0-2.36,4c-2.21.76-3.49-1.14-5.31-1.55-.19.38-.41.74-.56,1.11-.9,2.16-1.66,2.35-3.38.73-.83-.77-1.56-1.65-2.33-2.46-2.38,2.21-3.16,2.2-5.19.12l-2-2.1c-.2,1.77,0,3.16-.53,4.19-2,3.93-4.12,7.77-6.33,11.57-1.07,1.83-2.87,2.11-4.85,1.58a6.1,6.1,0,0,0-2.19-.47,2.62,2.62,0,0,0-1.71,1.12c-.19.3.32,1.18.73,1.58a22.08,22.08,0,0,0,2.66,1.84c-1.74.72-3.42,1.07-3.39,3.24l4.5-.66c-.31,1.89-2.77,2.44-2.11,4.53,3.86-1,7.22-2.44,9.08-6l3.15,1.45c.81-2.63-.37-5.51,2.3-7.54.85,1.67,1.6,3.15,2.43,4.75a4.59,4.59,0,0,0,1.51-3.95c-.08-1-.33-2-.42-3a2.63,2.63,0,0,1,2-3c1.23,4,2.45,4.86,6.59,4.78,1,0,2-.19,3-.24a6.25,6.25,0,0,0,5.59-3.63c.48-.91,1-1.77,1.74-2.9.76,3.54-2.54,4.79-3.45,7.45H79.5v.69a2.09,2.09,0,0,0,.47.56A10.55,10.55,0,0,0,87,292c5.3,0,10.59.19,15.88.41a8.52,8.52,0,0,1,3.35.93c2.19,1.11,2.37,2.89.65,4.61a28.44,28.44,0,0,0-3,3c-2.27,3-3,7.42,1,10.93,1.07.94,2.23,1.77,3.37,2.62,1.35,1,2.82,1.82,4,2.91,1.49,1.29,2.55,2.86,1.67,5a4.34,4.34,0,0,1-1,.29c-.58,0-1.17-.08-1.75-.12a11.33,11.33,0,0,0-2.25-.13c-1.47.23-1.86,1.13-1.2,2.49a1.49,1.49,0,0,0-1.26,1.7,1.42,1.42,0,0,0,.26.62,2.21,2.21,0,0,0,2.74,1.22,12.59,12.59,0,0,0,2.67-1.34c.84-.48,1.64-.85,2.57.21-1,1.07-2.42,1.86-2.34,3.73a5.87,5.87,0,0,0,4.69-2.15c1.69-2.16,3.42-4.26,6.48-4.49-.11-2.75-2.69-2-4.26-3.24l4.35-3.38c-.38-.18-.6-.37-.81-.37a3.78,3.78,0,0,1-3.94-3.06,3.87,3.87,0,0,0-3.45-2.86c-1.5-.19-1.88-1.25-1.23-2.54a2.13,2.13,0,0,1,2.75-1.12c.85.25,1.67.59,2.51.89,1.16-1.81-.13-4.11,1.7-5.46,2.17.19,1.77,2.43,3.16,3.68a8.17,8.17,0,0,0,1.69-1.52,3.58,3.58,0,0,0-.55-4.52c-1.56-1.65-1.66-3.72-1.87-5.78s-.74-4.07,1.34-5.64a4,4,0,0,0,.89-2,11.21,11.21,0,0,0-.88-7.94c-1-2.19-2.1-4.35-3.23-6.47-1-1.86-.51-3.48.57-5.11a5.94,5.94,0,0,1,5.09-2.55c-2.58-3.07-5.1-4.29-9.16,2.35-.57-.9-1.12-1.7-1.56-2.55a42,42,0,0,1-4.49-13.63,13.26,13.26,0,0,1,.25-4.9c.64-2.61,2.38-3.37,5.31-2.58.74,2.46-1.66,4.09-2,6.29,3.79.2,4.83-.71,4.81-4v-1.73ZM43.5,178v44h93V347.22c.86.41,1.59.8,2.35,1.11,3.88,1.53,7.93,2.72,11.6,4.63,4.78,2.49,9.1,2.37,13.89,0,4.48-2.27,9.33-3.87,14.16-5.81V222h94.08c-.15-14.73.11-29.25-.56-44H178.5V86h-42v92ZM33.66,323.32c-.47,1.32-.9,2.37-1.24,3.46q-2.27,7.26-4.49,14.56a29.79,29.79,0,0,1-9,14.12A15.49,15.49,0,0,0,16,358.83a3.5,3.5,0,0,0,.51,4.92l.09.08a25.9,25.9,0,0,0,5.14,3.94c4.38,2.38,8.82,4.7,13.41,6.66,14,6,28.48,10.3,43.11,14.31A274.09,274.09,0,0,0,143,398.83c29.05.81,58-.4,86.73-5.38a265.09,265.09,0,0,0,42.37-10.54c6.61-2.32,13.15-4.88,18.91-9a34.07,34.07,0,0,0,6.75-6.22c2.39-2.92,2.06-5.25-.48-8-1.46-1.6-3-3.09-4.57-4.62a27.78,27.78,0,0,1-7.44-12.54c-.91-3.38-1.74-6.78-2.56-10.18-.5-2.07-.93-4.15-1.49-6.69a20.05,20.05,0,0,0-2.32,2A41.76,41.76,0,0,1,266,338.17c-9.94,5.4-20.7,8.28-31.75,10.11a439.74,439.74,0,0,1-56.69,5.63,28.77,28.77,0,0,0-12.27,2.74c-1.92,1-4,1.59-6,2.46a3.66,3.66,0,0,1-3.07,0c-4.67-1.93-9.36-3.84-14.09-5.64a20.81,20.81,0,0,0-4.81-1.14c-6-.77-12.1-1.29-18.13-2.14a450.59,450.59,0,0,1-58.35-12.43C50.82,335,41,331.81,33.66,323.32ZM157.75,2.65c-2.34,2.05-4.69,4.16-7.1,6.18a3.22,3.22,0,0,0-1,3.39c.23,1.32,1.35,1.22,2.35,1.34a2.73,2.73,0,0,1,1.68.87c1.39,1.91,0,5.51-2.25,6.16-2.06.59-3.31.17-4.82-2.08-.92-1.38-2-2-3.56-1.55a8.52,8.52,0,0,0-5.79,5.11A3.13,3.13,0,0,0,141,26.39c.66-.13,1.3-.32,2-.41a2.6,2.6,0,0,1,2.82,1.13c3.66,5.8,1.11,11.6-4.5,13.26a13.27,13.27,0,0,1-7.89,0c-3.54-1.13-6.19-3.29-7-7.09a5.54,5.54,0,0,1,4-6.72q.31-.07.63-.12a9.65,9.65,0,0,0,1.08-.33A9,9,0,0,0,124.2,19c-2.84-.34-3.68.71-2.57,3.31a2.68,2.68,0,0,1-.57,3.4,4.86,4.86,0,0,1-6.81-.78,4.77,4.77,0,0,1-.68-1.15,5.1,5.1,0,0,1,2.27-6.45c-4.08-5.51-14.48-7.72-18.38-4.25,2.4,2,5,3.78,7.23,6,6.1,6.05,9.11,13.63,10.31,22,.32,2.28.53,4.58.8,6.88h84c.74-14.56,5.3-27.08,18.69-34.81-5.87-3.25-14.83-1.24-18.83,4.2.31.26.63.5.93.78a5.34,5.34,0,0,1,.9,6.6,5,5,0,0,1-6.24,1.51c-1.82-.88-2.06-2-1-4.65.66-1.64.13-2.43-1.74-2.61-4.1-.4-8.32,2.91-9.19,7.26l1.21.19a5,5,0,0,1,4.63,4.76,7.36,7.36,0,0,1-1.93,6c-4.14,4.78-11.55,4.49-15.38,2.15A8,8,0,0,1,168.18,31c.75-4.25,2.2-5.26,6.46-4.48,2.71.49,4.63-1.62,3.58-4.2a8.74,8.74,0,0,0-2.65-3.51,10.73,10.73,0,0,0-4.24-1.8c-1.63-.34-2.09,1.35-2.93,2.33a3.94,3.94,0,0,1-4.94,1.13c-1.61-.72-2.24-2.45-2-5,.19-1.7,1.29-2,2.64-2a1.6,1.6,0,0,0,1.78-1.38,1.7,1.7,0,0,0,0-.55,5.11,5.11,0,0,0-1.24-2.79C162.45,6.63,160.06,4.68,157.75,2.65ZM56.11,319.39a14.45,14.45,0,0,1-3,7.36,28.25,28.25,0,0,0-1.92,2.92c-1,1.86-.51,3.19,1.4,4.05a22.2,22.2,0,0,0,3,1.1,435.34,435.34,0,0,0,71.51,15c2,.23,4,.38,6,.57l.14-.55Q94.79,334.6,56.11,319.39Zm139.3-153A3.32,3.32,0,0,0,198.2,168h50.23c6.59,0,7.23-1,7.45-7.87a7,7,0,0,0-1.09-4.07c-3.51-4.77-7.21-9.4-10.9-14a2.54,2.54,0,0,0-1.61-1c-4.22-.08-8.46-.1-12.69,0-1.49,0-1.84,1-.83,2.23.77.9,1.74,1.61,2.59,2.43,2.26,2.2,1.87,4.33-1.12,5.36a19.1,19.1,0,0,1-5,.9,22,22,0,0,1-11.57-2.14c-1.09-.56-2-1.27-1.81-2.74a2.65,2.65,0,0,1,2.22-2.43,3,3,0,0,0,.48-.16c1.63-.45,2.32-1.5,2-3.45h-9.88a2.82,2.82,0,0,0-1.68,1c-3.47,3.84-6.9,7.74-10.36,11.59a2.65,2.65,0,0,0-.37,3.39h53.8a7.94,7.94,0,0,1,2.38.11,4.33,4.33,0,0,1,2.39,1.35c1.25,2,.72,4.22-.08,6.23-.67,1.69-2.36,1.31-3.78,1.31H198S196.25,166.24,195.41,166.39ZM26,343c.86-2.64,1.71-5.23,2.53-7.84,1.17-3.72,2.24-7.49,3.5-11.19,1-3,3.14-4.84,6.53-4.66a41.48,41.48,0,0,1,5.46.48c2.77.51,5.51,1.27,8.27,1.86a10.23,10.23,0,0,0,2.07,0c.15-2.25-.1-2.93-1.65-4.37A18.68,18.68,0,0,0,44.36,313a106.26,106.26,0,0,0-13.92-2.82,154.78,154.78,0,0,0-16.68-.72A10.22,10.22,0,0,0,6.38,312c-2,1.94-1.88,3.35.48,4.75a30.35,30.35,0,0,0,3.3,1.46,4.6,4.6,0,0,0,.31-.72c.54-2.76,1.86-3.78,4.68-3.63,2.32.13,3.68,1.49,3.85,4.06a23.91,23.91,0,0,1-.14,4.23c-.71,6.12-1.48,12.22-2.19,18.34a20.36,20.36,0,0,0,0,2.47ZM188.7,59.43c2-1,3.46-1.71,4.91-2.54s3.27-1.14,4.51-2.89H117.45l-.19.51,9.47,4.91L117.4,64h80l.06-.31ZM298.58,321.54a7.19,7.19,0,0,0,5-3.33c1.52-2.28,1.38-3.56-.92-5a20.19,20.19,0,0,0-5.47-2.33c-6-1.57-12.07-1-18.08.16-4.5.86-9,1.9-13,4.22a29.29,29.29,0,0,0-5.54,4.52,3,3,0,0,0-.33,4c2.17-.65,4.39-1.28,6.58-2,5.61-1.79,10.77-.5,15.65,2,1.44,6.91,2.63,13.62,5,20.22h5.78a9,9,0,0,0-.22-1.46c-1.46-5.11-3-10.21-4.41-15.34a17.22,17.22,0,0,1-.78-4.39c-.06-5.5,5-8.74,10.26-6.71C298.21,317.88,298.39,319.6,298.58,321.54ZM4.5,317c0,1.13-.08,2,0,2.79.51,4.88.93,9.78,1.61,14.64a26.92,26.92,0,0,1-2.36,16A33.63,33.63,0,0,0,1.61,356c-.71,2.5.06,4.19,2.51,4.89a31.64,31.64,0,0,0,6.84,1c1.5.08,2.49-.84,3.15-2.36a15.63,15.63,0,0,0,1.13-7.06,124.2,124.2,0,0,1,2.07-30,36.63,36.63,0,0,0,.34-4.31c-4.92,3.27-8.93,1.27-13.15-1.14Zm57.12-193c-7.77,3.93-13.83,15.93-9.42,27.79a23.81,23.81,0,0,0,29.25,14.49c9.78-3,18.14-14.07,16.36-21.89a14.89,14.89,0,0,1-1.89.61c-2.14.4-3.21,1.51-3.9,3.75a18.49,18.49,0,0,1-27.6,10.06C54.17,152.2,53,137.71,61.34,130c.52-.47,1.21-1.19,1.17-1.75A30.78,30.78,0,0,0,61.62,123.9Zm27.87,40.71c7.61,4.56,20.58,3.45,28.39-5.78a23.78,23.78,0,0,0-.08-31c-7.64-8.86-20.47-10.54-28.93-5.39l3.91,3c8.65-2.38,16.22-.94,21.74,6.45,4.75,6.34,5.15,13.42,1.23,20.21-5.08,8.79-13.19,10.79-22.5,8.69ZM75.35,135.17c-7-6.43-9.11-14.16-5.09-22.83,3.33-7.15,9.43-10.8,17.34-10.39,10.51.55,16.08,6.92,18.14,16.78l4.78,1.68c1.24-9.56-7.64-20.54-18.33-22.86a24,24,0,0,0-27.76,15.84c-4,12.21,2.75,23.86,9.88,27.17ZM222,282.26a45,45,0,0,1,4.24-2.08,22.11,22.11,0,0,1,5.46-1.55c3.32-.32,6.35.6,8.17,3.69,1.71,2.9,2.24,6.1.35,9-1.56,2.38-.89,4.67-1.06,7.45,3.38-1.49,5.66-3.46,6.78-6.49a17.38,17.38,0,0,0,.47-11.28c-1.44-4.83-4.75-7.9-9.2-9.91-4.88-2.21-9.63-4.62-13.17-8.71-1.58,1.25-3.11,2.38-4.54,3.65a2.63,2.63,0,0,0-.73,1.7c-.07,3.17-.06,6.34,0,9.51a3.14,3.14,0,0,0,.53,1.6A40.63,40.63,0,0,0,222,282.26Zm67,40.2a35,35,0,0,0,.58,3.83c.57,2.08,1.27,4.13,1.93,6.19,2,6.13,3.82,12.32,3.94,18.77,0,3.2.51,5.83,3.13,7.89a12.6,12.6,0,0,1,2,2.6c.76-.2,1.49-.37,2.19-.59a11.5,11.5,0,0,0,1.62-.67c2.06-1,2.72-2.13,2.36-4.43a14.34,14.34,0,0,0-1.21-4.05c-2.77-5.77-3.2-11.84-2.59-18.08.45-4.6.89-9.19,1.34-13.81C300.13,324.92,294.84,324.27,289,322.46ZM89.79,314.15l3.94-5.46c-.23-1.12-1.61-2.56-.2-4.54l4.48,1c-.07-2.75,1.4-4,3.9-4.32a2.59,2.59,0,0,0,.72-.21,4.62,4.62,0,0,0,2.88-4.28,3.21,3.21,0,0,0-3.31-2.88,94.23,94.23,0,0,0-12,.07c-3.93.3-5.55,4.23-4.78,7.65,1.17,5.12.45,6.11-4.71,6.37-2.12.1-4.06-.08-5.46-2.18-1.06-1.58-2.38-1.54-4.61-.3l2.09,3.05c-1.76-.31-3.3-2.13-4.9-.27.64,2,.8,2.13,2.7,2.15H73.2c-1.42,1.17-3.71.14-4.34,2.71.52.27,1,.76,1.5.76,4.62.06,9.29.46,13.41-1.93l1.94,3.56,2.1-2.34ZM157.56,70H200.8c1.48,0,1.86-.91,2-2.15s-.71-1.79-1.88-1.85H116.23a12.78,12.78,0,0,0-2,.07c-1.24.21-1.65,1-1.42,2.23.32,1.72,1.5,1.74,2.88,1.74Q136.58,70,157.56,70Zm-2.06,1.46v-.15c-4.07.18-8.14.37-12.21.54-1,0-2.06.05-2.34,1.34a2.28,2.28,0,0,0,1.25,2.5c3.2,2.1,6.32,4.34,9.65,6.2a12,12,0,0,0,5.21,1.29c4.91.17,9.82.06,14.73,0A9.25,9.25,0,0,0,174,83c2.38-.61,3.27-2.92,1.55-4.51a84.41,84.41,0,0,0-8-6.38,5.83,5.83,0,0,0-3.09-.67C161.49,71.39,158.49,71.46,155.5,71.46ZM79.67,251.17l-.47.45a18,18,0,0,0,1.49,2.77,2,2,0,0,0,2.68.59c1.83-.94,3.75-1.73,5.54-2.74a13.6,13.6,0,0,0,2.64-2.2,11.51,11.51,0,0,0,1.26-1.68c4.17,1.63,5.44,1.13,7.66-2.67a8.91,8.91,0,0,1,2-2.11,23.28,23.28,0,0,1,2.42-1.51c-1.18-1.28-2-2.6-3.18-3.36-2.49-1.63-5.19-2.94-7.76-4.44-2.22-1.3-4.53-1.59-6.55,0-2.17,1.73-4.43,1.61-6.85,1.18-.55-.1-1.11-.15-1.62-.21a6,6,0,0,0-1,4.89c.26,1.56,1,2,2.67,1.83.41-.05.82-.13,1.23-.21a2.3,2.3,0,0,1,2.9,1.31,2.12,2.12,0,0,1-.7,2.88,2.8,2.8,0,0,1-3.49-.11,16.34,16.34,0,0,1-1.31-1.44c-1.44,2.4-1,3.51,1.39,4,1.3.24,3,0,3.82.73,1.32,1.23,2.47,1.12,3.93.65C86,253.27,82.78,252,79.67,251.17ZM106.5,83.11v-.22c3.32,0,6.65.11,10-.07a3.41,3.41,0,0,0,2.56-1.56c.25-.68-.49-2-1.17-2.69-2.9-2.87-5.92-5.61-9-8.34a4,4,0,0,0-2.19-1c-3.06-.23-6.13-.4-9.19-.37-3.73,0-6.31,4.28-6.18,7.56A6.7,6.7,0,0,0,98,83.14C100.83,83.22,103.67,83.11,106.5,83.11ZM157.81,49H115.66a1.92,1.92,0,0,0-2.16,1.64,2.64,2.64,0,0,0,0,.29c-.06,1.49.92,2.06,2.29,2.07h83.14a6,6,0,0,0,1.47-.46,3.44,3.44,0,0,0,1.48-1.69A1.56,1.56,0,0,0,200.64,49l-.33,0a6.74,6.74,0,0,1-2-1Zm59.66,202.57c-1.79.29-3.35.45-4.87.8-2.53.6-2.6.74-2.62,3.37-.07,7.91-.1,15.83-.19,23.74,0,3.17-.24,6.33-.23,9.5a2.56,2.56,0,0,0,1,2c2.16,1,4.43,1.76,6.94,2.71Zm-21-179c.94,1.1,1.49,1.81,2.11,2.45,2.11,2.15,4.3,4.21,6.35,6.4a6.12,6.12,0,0,0,4.88,2c3.5-.06,7,0,10.51,0,3,0,4.23-1.09,4.58-4.06a6.61,6.61,0,0,0-3.37-7,14.25,14.25,0,0,0-3.45-1.42,35.34,35.34,0,0,0-18.54.19,21.82,21.82,0,0,0-3.07,1.41Zm42,198.15v-3c0-4.08.08-8.17-.06-12.25-.2-6-.2-11.91,4.7-16.29-1.78-2.6-3.07-3.2-5.37-1.85-2.49,1.46-4.66,3.46-7,5.16a3.09,3.09,0,0,0-1.35,3c.21,4.41.31,8.83.45,13.24.06,2,0,4,.21,6a3,3,0,0,0,1,2.09c2.17,1.32,4.59,2.43,7.41,3.87Zm-10-21.51a43.64,43.64,0,0,0-11.38-2,25.25,25.25,0,0,0-9.85,1,11.07,11.07,0,0,0-7.49,8,26.69,26.69,0,0,0-.63,4.18c-.48,6.32,3.61,11.54,10.34,12.92v-4.46a10.47,10.47,0,0,0-1.38-5.61c-2.35-4.33-2.07-10.15,4.71-11.55a39.14,39.14,0,0,1,12.41-.18l3.26.35Zm2,31v10.52c0,3.39.22,6.67-.1,10s-1.19,6.54-1.83,9.87c4,.68,4.87-2.41,6.52-4.52,1.39,1.29,2.13,3.13,4.41,3.73v-2.1c-.26-3.05-.68-6.1-.79-9.16-.15-4.48-.09-9-.12-13.47,0-3.85-.49-4.41-4.32-4.81a36.67,36.67,0,0,0-3.78-.05ZM62.91,263l5.46-3.2a12.82,12.82,0,0,1-.16-3.71,3.79,3.79,0,0,0-1-3.39c-1.71-2.36-3.41-4.74-5-7.2a8.76,8.76,0,0,1-1.4-7.37,3.25,3.25,0,0,0,0-2,8,8,0,0,0-1.27-1.77,9.12,9.12,0,0,0-1.61,2c-.24.54.08,1.3.06,2a5.06,5.06,0,0,1-.29,1.16,4,4,0,0,1-.78-1.89,6.06,6.06,0,0,0-.59-2.4A5,5,0,0,0,54,233.69a1.76,1.76,0,0,0-1.51.85,5.13,5.13,0,0,0,.27,2.77c.31.7,1.17,1.15,1.76,1.74a2,2,0,0,1,.38,2.87l0,.05c-.48-.94-.65-1.72-1.14-2.13a4.61,4.61,0,0,0-2.32-1c-.4-.05-1.28.78-1.26,1.19a6.91,6.91,0,0,0,.86,2.36c.08.18.41.26.64.35a2.76,2.76,0,0,1,1.86,2.95c-.08,1.53-.38,3.05-.6,4.74a15.77,15.77,0,0,0,2,.59,6.08,6.08,0,0,1,4.48,3.62c.58,1.2,1,2.45,1.54,3.68C61.59,259.89,62.26,261.48,62.91,263ZM209.5,298.1a10.18,10.18,0,0,0-.35,1.64c-.05,7.39-2.81,13.79-7.27,19.52a12,12,0,0,1-3,2.89c-1.8,1.09-3.11.45-3.8-1.55a11.85,11.85,0,0,0-.48-1.42c-.64-1.32-1.41-1.51-2.58-.66a3.08,3.08,0,0,0-.41,5,7.8,7.8,0,0,0,8.69,2.09c4.8-1.62,8.49-4.57,10.39-9.4,1.14-2.9,2.15-5.87,3.22-8.82,1.45,1,2.06,2.91,4.42,3.28-.26-3.88-.52-7.54-.78-11.36ZM198,281.72l-.65.31c0,5.58,2.37,10.86,2.18,16.77,1.27-.33,2.14-.56,3-.77,3.66-.91,7.32-1.5,11.07-.44,2.72.76,5.47,1.43,8.23,2,2.15.48,4.33.79,6.67,1.21v-4.31c-4-.79-7.87-1.44-11.66-2.32a26.14,26.14,0,0,1-10.41-4.62C203.43,287.21,200.8,284.39,198,281.72ZM104.58,126.88C100.16,136.21,93,140,82.84,138.82l-.41,5.12c11.59,3.32,24.69-6,26.78-15.09-.54-.29-1.09-.66-1.69-.91C106.62,127.57,105.68,127.27,104.58,126.88Zm-22.44.76c-8.1,7.88-8.07,23.11-.56,30.66l4.18-2.62c-6.43-8.62-6.27-17,0-25.5ZM92,136.9l4.69-2.33c-4-10.6-17.12-17.48-26.88-14.2l.45,4.29C80.47,123.47,87.65,127.13,92,136.9ZM218.56,141c-.89,2.46-.89,2.46-3.62,3.61a2.16,2.16,0,0,0-1.28,2.77,2.13,2.13,0,0,0,.79,1,7.06,7.06,0,0,0,1.78.89,25.17,25.17,0,0,0,12.33.83,3.16,3.16,0,0,0,2.88-2.09c.43-1.46-.62-2.27-1.49-3.17-1.12-1.17-2.19-2.4-3.52-3.87ZM206.2,241.25l4.18,5.75h7.05a30.41,30.41,0,0,1,.86-5.62,27,27,0,0,1,2.71-4.57c-2-1.57-3.79-1.93-6.13-.71C212,237.54,209.29,239.37,206.2,241.25Zm-10.6-80.11,0,.6a24,24,0,0,0,2.54.26h49.74a19.92,19.92,0,0,0,2.67-.36v-.83a17,17,0,0,0-2-.34C232,159.91,197.09,160.34,195.6,161.14Zm-.1,1.53v.54a3.79,3.79,0,0,0,2.8-.21H248a1.74,1.74,0,0,0,1.74.49c.32-.07.59-.41,1.06-.76-.47-.29-.73-.58-1-.73H196.36A4,4,0,0,1,195.5,162.67Zm55.5,2.52-.38-.59c-.26-.16-.52-.45-.77-.6H196.36a7.91,7.91,0,0,1-.86.66v.54A3.26,3.26,0,0,0,198,165h50.25a1.84,1.84,0,0,0,1.74.43A8.24,8.24,0,0,0,251,165.19Zm-.43-6.15.06-.56c-.26-.16-.51-.48-.76-.48H196.38c-.25,0-.5.32-.8.53.21.3.34.66.47.66q26.49.13,53,.22a6.76,6.76,0,0,0,1.54-.36ZM16.5,355.49c4-3.22,6.86-6.52,8.55-10.8a8.43,8.43,0,0,0-8.55.77Zm68.14-96.93c-2.75-2.07-8.48-.89-10.44,2.15-1.39,2.17-.86,3.57,2,4.39.83-2.63,3.09-2.08,5.17-2a22.13,22.13,0,0,1,1.37-2.42A27.35,27.35,0,0,1,84.64,258.56Zm8.86,1a41.1,41.1,0,0,1-4.44,0c-3.35-.44-5.26.67-6.18,3.77-.48,1.65-.24,2.05,1.78,2.82.9-.92,1.62-1.92,3.41-1.77,1.38.11,3-.9,4.24-1.79.66-.47.73-1.74,1.19-3Zm-12,5.36a6.43,6.43,0,0,0-1.15-.28c-2.86-.11-4.27,2.72-6.77,3.37-.11,0-.18.27-.24.42-1.29,2.9-.35,5.35,2.58,6.92,2.77-3,2.17-7.59,5.58-10.41Zm-12-5.53,3.33,1.06c1.61-3,4.43-3.77,7.49-3.85.15-1.84-.8-2.06-2-2.05a34.87,34.87,0,0,1-5.21-.11c-3-.43-4,.34-3.84,3.38C69.29,258.35,69.37,258.87,69.47,259.39Zm170-7.13v4.61c0,1.48,1.19,2.17,2.25,2.73a2.08,2.08,0,0,0,1.88-.59,10.71,10.71,0,0,0,2.13-7.65Zm-175,18a11.17,11.17,0,0,0,.69-1.33c.91-2.56,2-4.88,5-5.77.43-.13.58-1.22,1-2.15-3.09.05-5.38.59-7,2.87a4.14,4.14,0,0,1-1.52,1.17,2.75,2.75,0,0,0-1.75,2.75c.06,1.37,1.15,1.91,2.33,2.23a9.3,9.3,0,0,0,1.25.24Zm37.4-23.87-2.64,3.16.54.13c0,2.13.17,4.27,0,6.39-.07,1-.27,1.79.8,2.28a3,3,0,0,0,3.29-.2c.94-.73.49-1.62.25-2.51-.36-1.36-.64-2.73-1-4.1C102.8,250,102.42,248.47,101.9,246.39ZM73.76,265.11a11.6,11.6,0,0,0-3.27-.9c-1.51,0-3.29,2.46-3.57,4.4-.39,2.6.23,3.93,2.51,5.17C70.79,271.07,72.14,268.39,73.76,265.11Zm17.26-7c5.08,1.19,8.6-1.36,8.32-5.37-.1-1.54-.72-2.51-2-2.44Zm1.48,6.27c-2.52-.12-4,.68-4.73,2.44a4.58,4.58,0,0,0,1.11,4.78c1.18,1,3.26,1,5.15-.06-2.28-2-1.61-4.65-1.53-7.15Zm3-13.88c-2.36-1.2-2.41-1.24-3.69.5a7.12,7.12,0,0,1-4.8,3.26,1.49,1.49,0,0,0-.91.36,3.69,3.69,0,0,0-1,1.77c0,.41.77,1.13,1.27,1.19a4.4,4.4,0,0,0,2.86-.29c2.45-1.81,5-3.64,6.27-6.79Zm3,16v-7.75c-1.7-.22-3.54-.23-4.45,1.61a5.33,5.33,0,0,0,.32,5.5c1,1.38,2.37,1.22,4.13.62Zm-17,0c-3.38,3-3.15,6.75.44,8.08.5-2.44,2.77-3.25,4.91-4.72-.88-.58-1.36-1.15-1.88-1.19-1.55-.16-2.85-.59-3.47-2.18Zm212,79.83-5.78-.65a26.66,26.66,0,0,0,5.82,8.45l.59-.28c-.2-2.39-.4-4.77-.63-7.53ZM116.5,55.88v7.3l7.44-3.58Zm74.83,3.74L198.5,63V56ZM133.39,83.23c1.3-1.34.68-2.1-.14-2.92-2.49-2.46-4.94-5-7.43-7.43a22.64,22.64,0,0,0-2-1.58c-.09.83-.35,1.48-.15,1.7,3.11,3.39,6.33,6.74,9.63,10.22ZM36.56,322.16l-.24.88a6.38,6.38,0,0,0,1.54.47,28.93,28.93,0,0,1,3.48-.14c2.77.41,5.53.95,8.26,1.57,1.06.24,1.75.33,1.82-1.18C46.57,321.81,41.69,320.74,36.56,322.16ZM233.24,133.32c-.42-.62-.7-1.47-1.23-1.67a2.28,2.28,0,0,0-2,.39,10.59,10.59,0,0,0-1.89,2.84c-.48,1-.63,2.12.65,2.77a2.14,2.14,0,0,0,2.94-.67l.06-.11A25,25,0,0,0,233.24,133.32ZM128.74,72l-.45,1c3.08,3,6.15,6,9.28,9,.27.26.93.1,1.71.16a5.23,5.23,0,0,0-.57-1.25c-2.78-2.87-5.57-5.75-8.41-8.56C130,72,129.27,72.12,128.74,72Zm92.51,64.79c0-2.31-.52-3.28-2.45-4.87-.91-.76-1.85-1.4-3.25-.67a5.61,5.61,0,0,0,2.41,5.36C219,137.44,220.1,138,221.25,136.83ZM122.54,81.18l.66-.4c-.06-.53.08-1.25-.22-1.56q-3.11-3.24-6.37-6.29c-.64-.6-1.51-.74-2.09.58C117.08,76.13,119.43,79.07,122.54,81.18Zm153.25,243.6-.24-.84c-4.73-1.43-9,.11-13.24,2.15.34,1.58,1.1,1.39,2.05,1a18.17,18.17,0,0,1,9.68-1.71C274.6,325.39,275.21,325,275.79,324.78ZM195.32,83.21c-.21-.85-.18-1.44-.45-1.71-3.27-3.29-6.58-6.53-9.9-9.76-.22-.21-.72-.13-1.18-.2C184.4,73.53,192.55,81.86,195.32,83.21Zm31.89,52.71c-.89-1.58-1.53-2.89-2.36-4.07a1.62,1.62,0,0,0-1.51-.44,2,2,0,0,0-1,1.46,13.13,13.13,0,0,0,1,4,2.23,2.23,0,0,0,2,.8C226,137.53,226.45,136.66,227.21,135.92Zm-46.9-64.25c.08,2.14,1.72,3,2.86,4.27a50.73,50.73,0,0,0,3.88,3.88c1.22,1.09,2,2.75,4.45,3.22a9.31,9.31,0,0,0-1.18-2.28C187.07,77.64,184.22,74.08,180.31,71.67Zm-4.72-.28c.47,1.6,5.8,7.57,7.91,8.94.31.2.82.09,1.35.13C183.76,77.85,177.79,72,175.59,71.39Zm-57.09-.34c-1,.66-.62,1.37,0,2,2.21,2.24,4.42,4.47,6.69,6.65.33.32,1,.32,1.54.5-.12-2.12-5.34-7.81-8.23-9.14Zm79,10.64c-.45-3.3-3.45-4.67-5.29-6.88-.76-.91-1.55-2.21-3.75-1.56a51.35,51.35,0,0,0,9,8.45ZM38.79,324.91l-.32,1a7.41,7.41,0,0,0,1.74.74c2.77.43,5.55.83,8.34,1.12.45.05,1-.52,1.9-1.07A25.65,25.65,0,0,0,38.79,324.91ZM195.15,75.26c.5,2.23,4.62,6.53,6.93,7.39C202.31,80.3,198.19,75.77,195.15,75.26ZM273.5,328.19c.09-1.24.08-1.38-.67-1.35-3.15.1-6.28.36-9.62,2.42,1,.38,1.52.8,2,.72C267.94,329.45,270.69,328.81,273.5,328.19ZM235.13,135.77c1.67,0,4.12-3,3.67-4.13a2.09,2.09,0,0,0-1.64-1c-1.33,0-3.17,2.16-3,3.47A4.58,4.58,0,0,0,235.13,135.77Zm-25.9-5.6c-.31,3,2.63,5.57,5.26,4.59a6.16,6.16,0,0,0-5.26-4.59Zm-75.73-58c0,1.54,2.5,4.59,6,7.32a9.93,9.93,0,0,0,2.1.88c-1.29-2.89-6.27-7.74-8.1-8.25Zm37-.5c1.61,1.49,2.23,3.56,4.69,3.42-.3-2.79-1.8-4-4.69-3.47Zm48,68.1c2.66.84,7.56.7,8.95-.17-1.59-1.07-7.06-1.07-8.95.12Zm-175.45,188c.09,1.52.37,1.93,1.57,1.92.47,0,1-.52,1.43-.81l-.22-.6Zm224.45,4.08c2.38-.1,2.4-.12,2-1.8-2.16.25-2.16.25-2,1.71Z"/><path class="cls-1" d="M149,190l8.64-24.86.51-.09L166.56,189h24.56l.13.45c-.75.63-1.48,1.28-2.25,1.86-5.12,3.87-10.23,7.76-15.39,11.57a2.7,2.7,0,0,0-1.21,3.31c1.81,7.42,3.41,14.89,5.07,22.35a15,15,0,0,1,.13,1.89L157.9,213.9c-6.14,5.47-12.21,10.88-18.27,16.3l-.46-.23,5-25.74-20.35-14.62.16.39Zm24.16,35,.29.26-.34-.21a8.3,8.3,0,0,0-.57-1.34q-6.36-9.84-12.76-19.66c-.25-.39-.55-.76-.82-1.14a66.14,66.14,0,0,0-.48,8.44,3.35,3.35,0,0,0,1.36,3c3.93,3.21,7.77,6.52,11.66,9.77a9.15,9.15,0,0,0,1.63.88Zm-31.62-.35a5.89,5.89,0,0,0,1.14-1.09q6.45-10.4,12.84-20.81a13.36,13.36,0,0,0,.77-1.83c-3.61,1.12-6.75,2.12-9.92,3.06-1,.3-1.19,1-1.36,1.84-.6,3.27-1.31,6.52-1.91,9.79-.55,3-1,6-1.51,9.07-.1.14-.2.28-.06.09-.06.22,0,0,0-.13Zm16-26.74V171.24l-.36-.1-6.52,18.31Zm-1.48.62.23-.37c-1.83-2.26-3.71-4.48-5.46-6.78a3,3,0,0,0-2.75-1.29c-5.25.06-10.5,0-15.74,0-.6,0-1.2.08-1.8.12v.38Zm4.28-.87.39.41L185,190.31l-.08-.31H166.34Z"/><path class="cls-1" d="M90.42,355.46c-3.2-.83-6.28-1.74-9.41-2.4a4.36,4.36,0,0,0-3.2.47c-.45.33,0,1.9.1,3.09-1.85,1.19-3.13,1.1-4-.48s-.28-3.28,1.59-4.39a7.85,7.85,0,0,1,5.83-.77c6,1.35,11.94,2.9,18.08,4.41-.28.94-.4,1.48-.59,2-2.38,6.25-4.58,12.52-4.75,19.32a2.47,2.47,0,0,1-2.43,2.5h-.15c-1.42,0-2.31-1-2.17-2.74a44.89,44.89,0,0,1,.9-5.16c.21-1.05.54-2.08.88-3.36-2-.14-3.85.06-5.5-.48s-3.07-1.82-4.86-2.94c-.72,1.63-1.36,2.88-1.83,4.19-1.22,3.39-.83,4.47,2.26,6.5a2.2,2.2,0,0,1-2.66,1.59,5,5,0,0,1-4.45-5.42,11.39,11.39,0,0,1,1.46-4.19c3.17-5.35,7.43-9.39,13.69-10.9a2.75,2.75,0,0,0,.69-.27ZM82,363.31c1.9.27,3.55.4,5.15.76s2.5,2.28,4.45,1.71c1-2.74,2-5.45,3-8.16a.79.79,0,0,0-.09-.22C90.84,356.55,84.05,359.62,82,363.31Z"/><path class="cls-1" d="M182.59,364.46c-3-.12-6.08-.28-9.12-.33a2.36,2.36,0,0,0-2.73,1.9l1.86,1.72a13.34,13.34,0,0,1-3.08,1.68,3.81,3.81,0,0,1-2.3-.77c-1.82-1.08-2.12-2.74-.54-4.08a15,15,0,0,1,4.12-2.19,7.28,7.28,0,0,1,2.7-.39h17v2.78c.05,3.08-.11,6.18.22,9.24a61.27,61.27,0,0,0,1.75,8.26c.4,1.61.07,2.58-1.42,3.17s-2.81.21-3.23-1.32a47.17,47.17,0,0,1-1-6.13c-.13-1-.11-2-.18-3.27-2.55,1.29-4.88,1.47-7.12.14-2.4,4.21-1.24,7.81,3,9.69-.26,1.65-1.36,2.15-2.87,2.1-3.47-.11-5.68-2.55-5.2-6.19a23.94,23.94,0,0,1,7.41-14.89,3.73,3.73,0,0,1,1.11-.51ZM179.5,372h7v-7.13a8.39,8.39,0,0,0-7,7.09Z"/><path class="cls-1" d="M270.48,357.89c-1.6.95-3,2.14-4.56,2.59s-3.27.1-4.95.1c-1.41,4.29,1.18,8.19,5.55,8.08a3.53,3.53,0,0,1-2.42,3.4,3.61,3.61,0,0,1-4-.69,7.23,7.23,0,0,1-2.82-6.63,83.65,83.65,0,0,1,2.17-10c.51-1.92,1.39-3.74,2.16-5.77a7.09,7.09,0,0,0-5.08,1.61c-.51.41-.65,1.39-.81,2.13-.11.55.13,1.17,0,1.72a2.25,2.25,0,0,1-2.59,1.8,1.74,1.74,0,0,1-1.5-2,1.61,1.61,0,0,1,.15-.53,9.72,9.72,0,0,1,1.94-3.39,7.79,7.79,0,0,1,2.89-1.92c4.27-1.62,8.58-3.12,12.94-4.68,3.14,6.66,4.6,13.93,9.67,19.69a5.34,5.34,0,0,1-.56,1.27c-1.32,1.85-2.65,1.94-4,.13a51.17,51.17,0,0,1-2.92-4.66C271.37,359.51,271,358.79,270.48,357.89Zm-4.2-10.07a9.76,9.76,0,0,0-4.84,8.94c2.58-1.94,5.7,1.13,8.32-1.53Z"/><path class="cls-1" d="M194.72,362.14c2.33-1.62,2.33-1.62,5,.39a37.8,37.8,0,0,1,3.42-1.87,7.77,7.77,0,0,1,3.1-.72,3.91,3.91,0,0,1,3.87,4,3.78,3.78,0,0,1-.31,1.48c-.28.77-.67,1.51-1.08,2.42a10.43,10.43,0,0,1,5.23,6,9,9,0,0,1-5.65,11.4,8.45,8.45,0,0,1-1.56.38,4.1,4.1,0,0,1-2.34-.58c-2.66-1.53-2.64-1.57-5.17.34a12.49,12.49,0,0,1-1.3.7C197.25,378,196.78,370.06,194.72,362.14ZM201,379.79c2.38.77,4.39,1.37,6.37,2.07,1,.36,2,1.08,3,.2a3.08,3.08,0,0,0,1-3.38,9.88,9.88,0,0,0-5.66-6.57c-1.68-.81-4.5.72-4.66,2.5S201,378.39,201,379.79Zm-.4-7.79a11.32,11.32,0,0,0,5.17-4.07c1.22-2.21.21-4.08-2.34-4.08a21.47,21.47,0,0,0-3.73.68c.36,2.69.65,5.05.94,7.47Z"/><path class="cls-1" d="M70.9,372.76c-2.6,3-6.41,1-7-2.2-.47-2.53-.87-5.08-1.38-7.61-.24-1.19-.68-2.34-1-3.58l-4,.63c-1.33,2.75-2.49,5.41-3.89,7.94-1.12,2-2.16,2.42-4.74,2.31.4-.9.74-1.72,1.14-2.5a93.46,93.46,0,0,0,6.12-16.61c.55-1.94.77-3.78-.84-5.37,3.39-1.41,4.25-1.11,5.75,2,1.82-.19,3.7-.51,5.58-.55a8.19,8.19,0,0,1,3.63.58A3.6,3.6,0,0,1,72,352.58a3.72,3.72,0,0,1-.61.91A14.42,14.42,0,0,1,69,355.74c-.84.66-1.78,1.21-2.89,1.94a48.09,48.09,0,0,0,1.63,12.17C68.07,371,69.8,371.8,70.9,372.76ZM57.52,358a10.92,10.92,0,0,0,9.74-3.59,2.72,2.72,0,0,0-.14-3.84,2.66,2.66,0,0,0-.86-.54,9,9,0,0,0-3.36-.62,3.09,3.09,0,0,0-3.46,2.51C59,353.83,58.26,355.68,57.52,358Z"/><path class="cls-1" d="M257,373.73c-.9,2.94-2.63,3.69-4.94,1.84a31.42,31.42,0,0,1-4.24-4.54c-1-1.21-1.83-2.57-2.73-3.85-3.24,1.85-3.26,1.94-2.7,5.49a31.44,31.44,0,0,1,.35,4,4,4,0,0,1-3.1,4.37c-.49-5.58-2-10.91-3-16.32-.51-2.68-1.35-5.17-3.55-7,2.27-2.62,3-2.74,5.36-.9a34,34,0,0,1,3.14-2.83c2.33-1.76,4.94-2,6.47-.74,1.71,1.43,2.33,4.48,1.33,6.92a36,36,0,0,1-1.71,3.39C250.41,367.27,252.25,371.79,257,373.73ZM241.68,368a14.46,14.46,0,0,0,4.84-6.25c.71-1.9.27-3.77-.88-4.56s-5.09-.47-6.14.67a1.69,1.69,0,0,0-.41,1.31c.81,2.86,1.68,5.69,2.61,8.83Z"/><path class="cls-1" d="M51.53,349.59a21.7,21.7,0,0,1-2.14,8.7c-2.71,5.45-7.82,7.23-13.39,6.24-3.37-.59-5.5-3-6-6.51a19.36,19.36,0,0,1,2-11.63c2.63-5.08,10.54-7.49,15.67-4.9a5.76,5.76,0,0,1,3.2,3.94C51.21,346.78,51.32,348.2,51.53,349.59ZM47.26,352c-.24-2.4-.36-4.06-.57-5.71a4.25,4.25,0,0,0-2.41-3.3c-2.24-1.21-7.16-.65-8.47,3a24.43,24.43,0,0,0-1.68,9.53,9.51,9.51,0,0,0,1.39,4.2,5.59,5.59,0,0,0,6,2.78,5.21,5.21,0,0,0,4.58-4.05c.58-2.32.9-4.72,1.16-6.4Z"/><path class="cls-1" d="M132.66,370.39A10.41,10.41,0,0,0,130,379a5,5,0,0,0,5.12,4.48c1.91-.07,2.81-.86,2.71-2.77-.08-1.58.08-2.87,1.83-3.32a2.06,2.06,0,0,1,2.5,1.16c.87,1.65-.16,2.73-1.24,3.66a22.2,22.2,0,0,1-4,2.95,8.62,8.62,0,0,1-10-1.48,5.12,5.12,0,0,1-1.43-5,17.35,17.35,0,0,1,4.07-7.64c.53-.64,1.08-1.25,1.65-1.92a2.51,2.51,0,0,0-2.83-1.59c-1.12.17-1.29,1.12-1.46,2.06a3.17,3.17,0,0,1-2.89,2.69,1.71,1.71,0,0,1-1.4-.65c-.63-1.48,0-2.74,1-3.84a9.53,9.53,0,0,1,12.67-1c.53.41,1.06.81,1.6,1.2a1.66,1.66,0,0,0,2.33-.11,1.31,1.31,0,0,0,.24-.34,8,8,0,0,1,1.62-1.86,2,2,0,0,1,2.75.15,1.78,1.78,0,0,1,0,2.51,7.22,7.22,0,0,1-7.13,3.2C136.09,371.33,134.49,370.83,132.66,370.39Z"/><path class="cls-1" d="M233.56,370.63c-.62,2.65-1.09,5.35-1.91,7.94-1.44,4.52-8.31,5.5-11.46,2.16-4.41-4.67-6.84-14.5-.68-21.2a6.84,6.84,0,0,1,9.65-.71,6.68,6.68,0,0,1,1.65,2.12A25.87,25.87,0,0,1,233.56,370.63Zm-2.84,3.3a19.75,19.75,0,0,0-2.51-9.28,10.18,10.18,0,0,0-3.23-3.33c-3-1.8-6.24-.11-6.16,3.36a34.85,34.85,0,0,0,1.53,9,7.13,7.13,0,0,0,5.79,4.93,3.23,3.23,0,0,0,4.08-2.05,2.26,2.26,0,0,0,.11-.43,16.34,16.34,0,0,0,.39-2.2Z"/><path class="cls-1" d="M154.2,363.25a20.35,20.35,0,0,1,1.87-1.19c2.35-1.07,3.78-.35,4,2.22.44,5.89.71,11.79,1.05,17.69.06,1.06.13,2.11.22,3.42l6.73-.47c0-1.06-.06-1.95,0-2.83a2.67,2.67,0,0,1,2.41-2.72c1.34-.09,2.32.8,2.68,2.43a3.34,3.34,0,0,1-1.83,4,22.11,22.11,0,0,1-5.6,1.93c-2.76.49-5.59.59-8.54.87C156.55,380.14,158.39,371.39,154.2,363.25Z"/><path class="cls-1" d="M120.73,380c-1.93,2.21-4.13,3.9-7.27,3.7-5.64-.36-9-4.82-7.82-10.39,1-4.68,6-8.9,10.76-9a5.15,5.15,0,0,1,2.81.77,2.76,2.76,0,0,1,1.2,2.16c-.11.65-1.09,1.4-1.85,1.65a3.23,3.23,0,0,1-3.61-1c-1.46-1.57-2.33-1.55-3.51.19a26.86,26.86,0,0,0-1.85,3.91l.45.46c.68-.16,1.36-.3,2-.48a12.32,12.32,0,0,1,2.14-.58,1.86,1.86,0,0,1,2.15,1.52s0,.07,0,.11c.17,1.17-.81,1.64-1.73,1.72-1.55.13-3.13,0-4.69,0a6,6,0,0,0,6,6.05,6.2,6.2,0,0,0,1.14-.1c1.21-.19,2.41-.45,3.62-.69Z"/><path class="cls-1" d="M120.5,380v0Z"/><path class="cls-1" d="M88.36,288l3.57-4.17c.59,1.55-.2,2.68-1.05,3.91,2.37.68,3.21-1,4.47-2.66l.35,2.27c1.47.45,2.31-.48,3.24-1.49l1.23,1.49,2.33-.91v.42l6,.74v.4Z"/><path class="cls-1" d="M122.72,241h0Z"/><polygon class="cls-1" points="120.08 244.71 119.96 244.62 120.02 244.77 120.08 244.71"/><path class="cls-1" d="M209.1,122.55l-1.53-.43.13-.33,1.34.82Z"/><path class="cls-1" d="M212.62,124.1l1.53.47.06-.07-1.53-.46Z"/><path class="cls-1" d="M210.11,123.12l1.47.45.06-.06-1.47-.46Z"/><path class="cls-1" d="M212.68,124l-1-.53-.06.06,1,.53Z"/><path class="cls-1" d="M209,122.61l1.07.51.06-.07-1.07-.5Z"/><path class="cls-1" d="M205.09,102.56l.56-.57Z"/><path class="cls-1" d="M204.59,103.07l.57-.58Z"/><path class="cls-1" d="M146.74,59.07c3.41-1.21,6.81-2.45,10.25-3.6a3.2,3.2,0,0,1,1.91.1c3.3,1.13,6.57,2.33,10.42,3.72-4.06,1.21-7.59,2.28-11.13,3.32a1.89,1.89,0,0,1-1,0c-3.49-1-7-2.07-10.48-3.11Zm2.76,0c6.86,3,10.91,3,16.1-.09-2.36-.85-4.61-1.7-6.89-2.46a2.9,2.9,0,0,0-1.7-.09c-2.44.82-4.84,1.71-7.51,2.66Z"/><path class="cls-1" d="M135.62,56a2.93,2.93,0,0,1,2.89,2.83,3,3,0,0,1-3,3A3.08,3.08,0,0,1,132.62,59a2.93,2.93,0,0,1,2.91-3Zm1.92,3.39a2,2,0,0,0-3.94,0,2,2,0,0,0,3.94.11Z"/><path class="cls-1" d="M177.05,59.47a2.84,2.84,0,0,1,2.68-3H180a2.9,2.9,0,0,1,2.85,2.83,3,3,0,0,1-2.95,3A2.93,2.93,0,0,1,177.05,59.47Zm4.45-.06a1.85,1.85,0,0,0-1.69-2h-.14a1.8,1.8,0,0,0-2,1.57,1.21,1.21,0,0,0,0,.19,1.93,1.93,0,0,0,1.62,2.2l.29,0a2,2,0,0,0,1.92-2Z"/><path class="cls-1" d="M90.63,240.61c-2.19-.45-2.46-.81-2.46-3.12a1.54,1.54,0,0,1,2.18-.05,1.3,1.3,0,0,1,.19.22A2.46,2.46,0,0,1,90.63,240.61Z"/></g></g></g></g></svg>