<svg xmlns="http://www.w3.org/2000/svg" viewBox="0 0 400 240"><defs><style>.cls-1{fill:#1f2937;}</style></defs><g id="Layer_2" data-name="Layer 2"><g id="Layer_1-2" data-name="Layer 1"><g id="Layer_2-2" data-name="Layer 2"><g id="Layer_1-2-2" data-name="Layer 1-2"><path class="cls-1" d="M200,0Q120,0,100,80q30-40,70-30c15.21,3.8,26.09,14.84,38.13,27.06C227.74,97,250.43,120,300,120q80,0,100-80-30,40-70,30c-15.21-3.8-26.09-14.84-38.13-27.06C272.26,23,249.57,0,200,0ZM100,120Q20,120,0,200q30-40,70-30c15.21,3.8,26.09,14.84,38.13,27.06C127.74,217,150.43,240,200,240q80,0,100-80-30,40-70,30c-15.21-3.8-26.09-14.84-38.13-27.06C172.26,143,149.57,120,100,120Z"/></g></g></g></g></svg>