<svg xmlns="http://www.w3.org/2000/svg" viewBox="0 0 4.11 3.42"><defs><style>.cls-1{fill:#1f2937;fill-rule:evenodd;}</style></defs><g id="Layer_2" data-name="Layer 2"><g id="Layer_1-2" data-name="Layer 1"><g id="Layer_2-2" data-name="Layer 2"><g id="Layer_1-2-2" data-name="Layer 1-2"><path id="telegram-1" class="cls-1" d="M3.15,3.39a.18.18,0,0,0,.19,0,.19.19,0,0,0,.12-.14C3.61,2.57,4,.8,4.11.16A.13.13,0,0,0,4.06,0a.13.13,0,0,0-.13,0L.09,1.44A.14.14,0,0,0,0,1.62a.16.16,0,0,0,.09.09L1,2l.38,1.13a.14.14,0,0,0,.1.1.15.15,0,0,0,.14,0l.53-.5ZM1.26,1.9l.29,1,.06-.6L3.36.68a0,0,0,0,0,0-.07s0,0-.06,0Z"/></g></g></g></g></svg>