<svg xmlns="http://www.w3.org/2000/svg" viewBox="0 0 400 400"><defs><style>.cls-1{fill:#1f2937;}</style></defs><g id="Layer_2" data-name="Layer 2"><g id="Layer_1-2" data-name="Layer 1"><g id="Layer_2-2" data-name="Layer 2"><g id="Layer_1-2-2" data-name="Layer 1-2"><path class="cls-1" d="M0,361.91V38.09c.07-.38.17-.76.21-1.14.15-1.36.22-2.72.43-4.07a37.47,37.47,0,0,1,9.88-20.29A38.07,38.07,0,0,1,37.14.2,9.08,9.08,0,0,0,38.28,0H361.72a15.23,15.23,0,0,0,1.53.22,35,35,0,0,1,9.46,1.71,38.87,38.87,0,0,1,27.08,34.92c0,.42.12.83.21,1.24V361.91c-.07.38-.17.76-.21,1.14-.15,1.36-.22,2.72-.43,4.07a37.5,37.5,0,0,1-10,20.43,38,38,0,0,1-26.49,12.25,9.08,9.08,0,0,0-1.14.2H38.28a15,15,0,0,0-1.62-.22,36.08,36.08,0,0,1-9.92-1.9A38.3,38.3,0,0,1,9.55,386.32,38,38,0,0,1,.23,363.44C.2,362.93.08,362.42,0,361.91Zm247-41.53V318l-.71.34a3.32,3.32,0,0,0,1.51,1.31,6.57,6.57,0,0,0,.2,1.16v35.68a1.31,1.31,0,0,0,.87,1.42c1.57.66,3.08,1.43,4.66,2.06a107.1,107.1,0,0,0,27.8,6.41c3.39.37,6.81.63,10.23.75a139.42,139.42,0,0,0,20.64-.57c3.78-.44,7.55-1,11.29-1.72a65.14,65.14,0,0,0,22.6-8.43c7.38-4.5,13.15-10.44,16.47-18.58a61.72,61.72,0,0,0,4.68-18.61c.19-2.66.09-5.35.06-8A44.56,44.56,0,0,0,365.91,301a38.73,38.73,0,0,0-8.29-16.67,66.08,66.08,0,0,0-12-10.86,99.77,99.77,0,0,0-14.2-8c-6.6-3.13-13.3-6-20-9a67.62,67.62,0,0,1-14.52-8.24,25.94,25.94,0,0,1-6.21-6.46,13.7,13.7,0,0,1,.75-15.69,20.29,20.29,0,0,1,7.47-5.73,42.91,42.91,0,0,1,16.33-3.52,72.06,72.06,0,0,1,12.8.6,86,86,0,0,1,12.8,2.72c6.57,2,12.89,4.47,18.52,8.46a3.89,3.89,0,0,0,.66.29V191.37c-.31-.14-.61-.31-.91-.41-3-.94-6-2-9.06-2.78a93.91,93.91,0,0,0-16.3-2.82c-3.81-.3-7.62-.61-11.43-.75-3.45-.13-6.92-.12-10.38,0s-6.65.26-9.95.65c-3.62.42-7.22,1-10.8,1.73a66.71,66.71,0,0,0-15.6,4.9,53.82,53.82,0,0,0-15.76,10.58A45.79,45.79,0,0,0,246,233a60.47,60.47,0,0,0,.52,13.17A43.59,43.59,0,0,0,251,260.06a51.38,51.38,0,0,0,14.57,16.57,93.65,93.65,0,0,0,16.69,10c5.79,2.77,11.7,5.29,17.55,7.91a85.48,85.48,0,0,1,12.27,6.38,37.81,37.81,0,0,1,8.73,7.36,16.25,16.25,0,0,1,3.93,12.45,13.89,13.89,0,0,1-4.83,9.32,25.5,25.5,0,0,1-10.05,5.07A51.85,51.85,0,0,1,296,336.94a71.62,71.62,0,0,1-27-4.56,76.74,76.74,0,0,1-21.15-11.54A5.73,5.73,0,0,0,247,320.38ZM182,365V222h49.74c.24-1.68.15-31.34-.08-32H92v32h50V365Z"/></g></g></g></g></svg>