<svg xmlns="http://www.w3.org/2000/svg" viewBox="0 0 399.99 239.62"><defs><style>.cls-1,.cls-2{fill:#f3f4f6;}.cls-2{fill-rule:evenodd;}</style></defs><g id="Layer_2" data-name="Layer 2"><g id="Layer_1-2" data-name="Layer 1"><g id="Layer_2-2" data-name="Layer 2"><g id="Layer_1-2-2" data-name="Layer 1-2"><path class="cls-1" d="M113.19,87.28a40.6,40.6,0,0,0,1.49,12,71.3,71.3,0,0,0,4.29,9.67,5.88,5.88,0,0,1,1,3.09c0,1.35-.81,2.69-2.55,4l-8.47,5.64a6.39,6.39,0,0,1-3.49,1.21,6.13,6.13,0,0,1-4-1.88,40.2,40.2,0,0,1-4.83-6.34c-1.35-2.28-2.69-4.84-4.17-7.93q-15.72,18.56-39.5,18.56c-11.28,0-20.29-3.22-26.88-9.68S16,100.54,16,89.83c0-11.42,4-20.69,12.23-27.68S47.36,51.67,61.19,51.67a107.83,107.83,0,0,1,14.25,1.07c5,.68,10.1,1.75,15.45,3V46.27c0-10.07-2.12-17.1-6.23-21.22S73.31,19,63,19a59.62,59.62,0,0,0-14.32,1.72,106.55,106.55,0,0,0-14.28,4.5,35.1,35.1,0,0,1-4.65,1.73,8,8,0,0,1-2.12.4c-1.85,0-2.78-1.33-2.78-4.11V16.65c0-2.13.26-3.72.93-4.66A9.91,9.91,0,0,1,29.47,9.2a77.47,77.47,0,0,1,16.77-6A80.51,80.51,0,0,1,67,.69q23.75,0,34.86,10.73c7.42,7.14,11,18.09,11,32.73V87.24ZM58.7,107.05a42.63,42.63,0,0,0,13.7-2.39A29.47,29.47,0,0,0,85,96.14a21,21,0,0,0,4.53-8.51,47.94,47.94,0,0,0,1.32-11.57V70.47a112.63,112.63,0,0,0-12.24-2.26,102.63,102.63,0,0,0-12.51-.8c-8.91,0-15.43,1.73-19.82,5.32S39.8,81.38,39.8,88c0,6.25,1.6,10.91,4.92,14.1s7.85,4.92,14,4.92Zm107,15c-2.42,0-4-.4-5.1-1.34a11.63,11.63,0,0,1-2.82-5.23L126.27,11.78a23.68,23.68,0,0,1-1.21-5.38c0-2.14,1.07-3.35,3.22-3.35h13.14s4.26,1.23,5.19,2.16a13.17,13.17,0,0,1,2.66,5.19l22.35,88.07,20.79-88c.67-2.66,1.47-4.39,2.53-5.19,1.6-1,5.32-1.18,5.32-1.18h11c2.51,0,4.22.4,5.28,1.32a9.2,9.2,0,0,1,2.5,5.14l20.8,88.29,22.79-88.29c.79-2.63,1.71-4.35,2.63-5.14a8.62,8.62,0,0,1,5.14-1.32h12.29c2.11,0,3.3,1,3.3,3.29a14.85,14.85,0,0,1-.27,2.11,18.78,18.78,0,0,1-.92,3.3L253,114.6q-1.18,4-2.78,5.14a8.38,8.38,0,0,1-5,1.31H233.79s-4.26.57-5.32-.37a9.47,9.47,0,0,1-2.53-5.32L205.32,29.55l-20.49,85.68c-.67,2.66-1.46,4.39-2.53,5.32s-5.32,1.5-5.32,1.5Zm170.93,3a87.25,87.25,0,0,1-20.55-2.39c-6.64-1.6-11.83-3.33-15.29-5.32-2.13-1.2-3.59-2.53-4.12-3.73a9.31,9.31,0,0,1-.8-3.72V103.1c0-2.79,1.07-4.12,3.06-4.12a7.51,7.51,0,0,1,2.4.4c.79.26,2,.8,3.32,1.33a71.58,71.58,0,0,0,14.63,4.65A78.4,78.4,0,0,0,335.1,107c8.37,0,14.89-1.46,19.41-4.39A14.34,14.34,0,0,0,361.43,90a13.05,13.05,0,0,0-3.59-9.31c-2.4-2.53-6.92-4.79-13.44-6.92l-19.28-6c-9.71-3.06-16.89-7.59-21.28-13.57a31.7,31.7,0,0,1-6.65-19.29,29.63,29.63,0,0,1,3.59-14.77A34.23,34.23,0,0,1,310.36,9.2a42.4,42.4,0,0,1,13.83-6.92A58.42,58.42,0,0,1,341,0a68,68,0,0,1,8.91.53c3.06.4,5.86.93,8.65,1.47a58.65,58.65,0,0,1,7.57,2.12,28.81,28.81,0,0,1,5.59,2.4,11.59,11.59,0,0,1,4,3.32,7.15,7.15,0,0,1,1.2,4.39v6.26c0,2.79-1.06,4.25-3.06,4.25a13.92,13.92,0,0,1-5.06-1.59A60.8,60.8,0,0,0,343.23,18c-7.57,0-13.56,1.2-17.68,3.72s-6.25,6.39-6.25,11.85a12.56,12.56,0,0,0,4,9.44c2.66,2.53,7.58,5.06,14.63,7.32l18.88,6c9.57,3.06,16.49,7.32,20.61,12.78a30,30,0,0,1,6.12,18.62,34.2,34.2,0,0,1-3.46,15.37,35.34,35.34,0,0,1-9.71,11.71,42.76,42.76,0,0,1-14.76,7.45,62.9,62.9,0,0,1-19,2.79Z"/><path class="cls-2" d="M361.63,190.13c-43.76,32.29-107.36,49.49-162,49.49-76.6,0-145.68-28.34-197.83-75.43-4.12-3.73-.4-8.78,4.53-5.86,56.4,32.73,126,52.55,198,52.55,48.56,0,101.91-10.11,151-30.86C362.57,176.69,368.82,184.81,361.63,190.13Z"/><path class="cls-2" d="M379.86,169.42c-5.59-7.19-37-3.46-51.22-1.73-4.26.53-4.92-3.2-1.06-6,25-17.56,66.12-12.51,70.9-6.65s-1.33,47.09-24.74,66.78c-3.59,3.06-7.05,1.46-5.45-2.53C373.61,206.09,385.45,176.42,379.86,169.42Z"/></g></g></g></g></svg>