<svg xmlns="http://www.w3.org/2000/svg" viewBox="0 0 400.86 99.49"><defs><style>.cls-1{fill:#f3f4f6;}</style></defs><g id="Layer_2" data-name="Layer 2"><g id="Layer_1-2" data-name="Layer 1"><g id="Layer_2-2" data-name="Layer 2"><g id="Layer_1-2-2" data-name="Layer 1-2"><path class="cls-1" d="M117,35h-9V26h2.66c5-.19,7.61-2.73,7.73-7.75.07-2.7,0-5.39,0-8.25H127V26h7.91a44.75,44.75,0,0,0,5.67-.26,6.53,6.53,0,0,0,6.28-6.2c.2-2.31.11-4.63.14-6.94V10.15c.7-.07,1.08-.15,1.5-.15H157V26h11v9H156.65s-.13,1.91-.13,2.58c0,8,.08,16,0,23.93-.07,5.15,1.47,8.36,8.81,7.75A8.46,8.46,0,0,0,167,69v8.6a18.62,18.62,0,0,1-12.44-.22c-4.93-1.94-7.33-5.83-7.95-10.91A53.14,53.14,0,0,0,146,60.7V36H127.12a28.88,28.88,0,0,0-.09,2.9l.27,18.44c-1.18,10,1,13.36,8.9,12.43.53-.07,1.06-.12,1.8-.19v7.76c-4.54,1.26-9.1,1.53-13.52-.46s-6.62-5.7-7.25-10.41a33.43,33.43,0,0,1-.23-4.36V35Z"/><path class="cls-1" d="M391,32.2V26h9.73c0,.78.1,1.52.1,2.26,0,15,.09,29.91-.05,44.86a39.72,39.72,0,0,1-1.37,10C397,91.85,391,97,382.22,98.75c-5.54,1.09-11.14,1.13-16.54-.88-7.23-2.68-12.12-7.59-14-15.21-.16-.64-.2-1.32-.32-2.16l9.17-2.16c.25.88.46,1.66.7,2.44A14,14,0,0,0,375.82,91a25.3,25.3,0,0,0,3.88-.42c6.79-1.42,10.51-5.71,11.18-13.28.3-3.37.05-6.8.05-10.29-.37.14-.57.15-.62.25-4.77,7.49-15.18,9.39-23.95,6.06-8.05-3.06-12.67-9.18-14.4-17.45a27.34,27.34,0,0,1,2.23-18.39C359.94,26,372.31,22.74,382.71,26a13.34,13.34,0,0,1,7.34,5.62,8.14,8.14,0,0,0,.54.63ZM360.71,50c.26,2,.37,3.69.7,5.33a14.82,14.82,0,0,0,28.73,1.26,21.89,21.89,0,0,0,.31-11.33,14.54,14.54,0,0,0-14-11.78,14.36,14.36,0,0,0-14.66,10.75A56.36,56.36,0,0,0,360.71,50Z"/><path class="cls-1" d="M11,71.3V78H0V0H10V33c1.45-1.25,2.18-2.21,3.05-3,4.25-4.05,9.47-5.53,15.19-5.34,12,.41,20.06,7.52,22.41,19.79a34.85,34.85,0,0,1-2.2,21.39c-6,13.33-19.33,15.31-28.35,12.46a17.84,17.84,0,0,1-9.34-7.1ZM24.13,33.54c-4.59.09-9.28,2.88-11.84,8.58A22.7,22.7,0,0,0,12.51,62c2.75,5.74,7.52,8.62,13.88,8.36s10.66-3.56,12.94-9.39a24.39,24.39,0,0,0,0-18.17C37.05,36.79,32.16,33.57,24.13,33.54Z"/><path class="cls-1" d="M105.73,55H67.15c-1,5.83,3.53,12.68,9.79,14.82a16.87,16.87,0,0,0,12.15-.34c4.1-1.69,6.38-5.08,7.91-9.18l8.69,3c-3.16,8.74-9.08,14.16-18,15.83C70.82,82.29,56.8,70.69,56.33,53.5c-.2-7.48,1.49-14.35,6.42-20.1C69.89,25.08,79,22.72,89.34,25.74,99.34,28.66,104,36.16,105.59,46A26.47,26.47,0,0,1,105.73,55ZM67.22,47H95.27c.14-7.29-5.2-12.67-12.76-13C74.07,33.57,67.84,38.78,67.22,47Z"/><path class="cls-1" d="M218.59,55H179.93c-1,5.93,3.56,12.74,9.82,14.88a16.74,16.74,0,0,0,12.14-.35c4.1-1.68,6.37-5.09,7.91-9.17l8.65,3c-3.18,8.74-9.1,14.17-18,15.83-16.62,3.08-30.48-8.07-31.32-25-.4-8.13,1.59-15.5,7.15-21.66,8.94-9.9,22.54-9.71,31.31-4.37,6.5,4,9.51,10.18,10.73,17.43A31.92,31.92,0,0,1,218.59,55Zm-38.37-8h27.84c.19-7.9-5.89-13.28-14.58-13.06C186.06,34.13,179.7,40.33,180.22,47Z"/><path class="cls-1" d="M307.56,64.61l8.32-3a6.31,6.31,0,0,1,.6,1c2.1,5.8,5.54,8.41,11.69,8.4a14.91,14.91,0,0,0,5.74-1.24,6,6,0,0,0,3.65-5.69,5.91,5.91,0,0,0-3.63-5.69,38.88,38.88,0,0,0-6.33-1.94c-2.58-.67-5.25-1.08-7.8-1.86-5.52-1.64-9.35-5.14-10.45-11-1-5.61.94-10.27,5.06-14a17.68,17.68,0,0,1,11-4.71,24.15,24.15,0,0,1,11,1.43,17,17,0,0,1,9.94,10.51,9.57,9.57,0,0,1,.28,1.51l-8.22,3.08c-.24-.57-.43-1-.58-1.39-2.29-6.78-9.11-8-14-6.49a8,8,0,0,0-2.25,1.12,6.32,6.32,0,0,0-3,6.29,5.84,5.84,0,0,0,4.45,5c2.77.82,5.66,1.27,8.47,2a45.18,45.18,0,0,1,7,2.22c11,5,11.27,18.83,2.42,25.42a19.65,19.65,0,0,1-10.69,3.74,23.88,23.88,0,0,1-15.14-3.61,17.09,17.09,0,0,1-7.06-9.08A10.27,10.27,0,0,1,307.56,64.61Z"/><path class="cls-1" d="M252,26.29V36l-.08.08a38.65,38.65,0,0,0-8.53.38c-5.71,1.33-9.12,6-9.29,13-.2,8-.08,15.94-.1,23.91V78H224V27h9v7.74l.43.25c2.35-4.24,5.68-7.26,10.4-8.46A17.11,17.11,0,0,1,252,26.29Z"/><path class="cls-1" d="M303.83,46.69a7.46,7.46,0,0,1-7.49,7.44,8.69,8.69,0,0,1-.89-.05,3.65,3.65,0,0,0-3.29,1q-5.16,4.22-10.44,8.3a6.42,6.42,0,0,1-2.62,1.28,3.25,3.25,0,0,1-3.44-1.8,3.53,3.53,0,0,1,.64-4.23c1.29-1.2,2.71-2.26,4.08-3.36,2.46-2,4.93-3.89,7.38-5.87a2.63,2.63,0,0,0,.74-3.66,2.49,2.49,0,0,0-.74-.74C282,40.3,276.12,35.7,270.34,31a2.86,2.86,0,0,0-2.75-.37A7.45,7.45,0,0,1,259.05,25a7.55,7.55,0,0,1,4.81-8.85,7.39,7.39,0,0,1,9.31,4.18,7.16,7.16,0,0,1,.6,2.89,2.51,2.51,0,0,0,1.17,2.29c5.64,4.48,11.3,8.93,16.88,13.49,1,.85,1.92.57,2.95.35a7.51,7.51,0,0,1,8.9,5.82A7.29,7.29,0,0,1,303.83,46.69Z"/><path class="cls-1" d="M273.56,71a7,7,0,0,1-6.74,7.24h-.44A7.28,7.28,0,0,1,259,71h0a7.56,7.56,0,0,1,7.31-7.38A7.27,7.27,0,0,1,273.56,71Z"/></g></g></g></g></svg>