<svg xmlns="http://www.w3.org/2000/svg" viewBox="0 0 400.54 122.28"><defs><style>.cls-1{fill:#f3f4f6;}</style></defs><g id="Layer_2" data-name="Layer 2"><g id="Layer_1-2" data-name="Layer 1"><g id="Layer_2-2" data-name="Layer 2"><g id="Layer_1-2-2" data-name="Layer 1-2"><g id="Layer_2-2-2" data-name="Layer 2-2"><g id="Layer_1-2-2-2" data-name="Layer 1-2-2"><path class="cls-1" d="M399.68,105.61a19.37,19.37,0,0,1-1.93,8.88c-1.53,3.18-4.83,2.72-6.42,5-1.52,0-3-.08-4.5,0a7.28,7.28,0,0,1-5.72-2.38q-12-11.82-23.75-23.74a26.71,26.71,0,0,1-2.59-3.76c.13-2.46.24-5.21.44-7.94,0-.29.5-.54.76-.8L339.81,64.72l-5.48,1c-5.46-1.46-7.37-5.2-9.44-8.42-1.77-2.79-3.26-5.75-5.22-8.47-.67-.93-.61-2.38-.81-3.25l6.87-6.82a6.36,6.36,0,0,1,4.47,1.44c3.11,2.49,6.76,4.26,10.18,6.4s6,5.19,5.49,9.73a10.42,10.42,0,0,1-1,2.62l16.69,16.7c4.79-2.66,9.32-.89,12.9,2.45,7.51,7,14.65,14.38,21.79,21.75C397.69,101.45,398.43,103.45,399.68,105.61Z"/><path class="cls-1" d="M372.33,61.84l4.23,4.23c3.17.68,5.62-.69,7.79-2.89,3.07-3.14,6.19-6.21,9.43-9.42h3.81c4.31,5.59,3.19,12,1.12,17.67A23.17,23.17,0,0,1,386,84.68c-2.88-2.88-5.89-5.75-8.74-8.81a16.37,16.37,0,0,0-12.19-5.11h-4.39l-8.63-8.61c.88-10.58,5.12-17.5,15.29-21.93,6.28-2.75,13.19-3.07,19,2-1.81,4.7-6,7.17-9,10.62a29.88,29.88,0,0,0-3.42,4.33A25.36,25.36,0,0,0,372.33,61.84Z"/><path class="cls-1" d="M346.06,76.92l3.94,4V91l5.24,8.12c-4.89,4.91-10.11,10.12-15.36,15.36-3.89,3.88-6.75,5-12.43,5-4.56-2.57-6.14-4.07-9.1-8.88l1.17-7.2C328.77,94.17,337.28,85.67,346.06,76.92Z"/><path class="cls-1" d="M293.72,30.05l-.08-.95-2.4-1.2-.49.46A9.19,9.19,0,0,1,287.43,25l.45-.55c-.77-.78-.43-2.52-2.25-2.48-.9-1.36-.75-3.06-1.46-4.51l.83-.3V14.31l-.74-.27,1.13-4.44,1.22-.21L287.82,7l-.41-.48a8,8,0,0,1,3.29-3.32l.49.39c.79-.71,2.45-.4,2.51-2.37L298.23,0l.26.76h2.93l.24-.74,4.59,1.2c-.26,2,1.62,1.55,2.31,2.44l1-.61c1,1.15,2.26,2,3,3.42l-.37.56,1.23,2.35,1.15.13L315.73,14l-.73.28V17.1l.73.35c-.62,1.4-.34,3.05-1.53,4.5-.32.14-1.14-.08-1.28,1-.09.61-1,1.1-.47,2-.49,1.41-1.89,2.19-2.89,3.42l-.81-.46-2.33,1.22-.12,1c-1.37,1-3.06.79-4.52,1.45l-.3-.81h-2.87a3.46,3.46,0,0,0-.13.38l-.16.34C296.79,30.89,295.24,31.09,293.72,30.05ZM308,13.3c-1.51-3.39-3.55-5.58-7.37-5.58s-6.14,2-7.59,5.64V16a6.81,6.81,0,0,0,3.56,5.78l1.92,1c1.43-.14,3.07.28,4.61-.4a6.67,6.67,0,0,0,3.22-2.15c.84-1.32,2-2.59,1.7-4.42A15.93,15.93,0,0,1,308,13.3Z"/><path class="cls-1" d="M0,79.29c0-24.26,18.43-43,43.14-43,15.79,0,29.79,8.3,36.79,20.84L58.6,69.54c-2.77-5.7-8.6-9.09-15.79-9.09-10.58,0-18.4,7.65-18.4,18.88s7.82,18.88,18.43,18.88C50,98.21,56,94.8,58.63,89.1L80,101.28c-7,12.7-20.87,21-36.82,21C18.43,122.28,0,103.56,0,79.29Z"/><path class="cls-1" d="M168,38.76v81H144v-7.62c-5.29,6.15-13.13,9.89-23.85,9.89-21,0-38.25-18.63-38.25-42.8s17.28-42.79,38.25-42.79c10.72,0,18.56,3.73,23.85,9.88V38.76ZM144.08,79.29c0-12.21-8.14-19.86-19.38-19.86s-19.37,7.67-19.37,19.86,8.15,19.86,19.37,19.86S144.08,91.51,144.08,79.29Z"/><path class="cls-1" d="M226,37.13V64.79c-9.93-1.59-24,2.42-24,18.24v36.73H177v-81h25V53.25C205.15,42.34,215.9,37.13,226,37.13Z"/><path class="cls-1" d="M266.55,38.76c0-8.42,4.86-10.84,12.45-11.26V4c-25.25.82-37,12.79-37,34.76H231v23h11v58h25v-58h21v58h24v-81Z"/></g></g></g></g></g></g></svg>