<svg xmlns="http://www.w3.org/2000/svg" viewBox="0 0 283.39 400.39"><defs><style>.cls-1{fill:#f3f4f6;}</style></defs><g id="Layer_2" data-name="Layer 2"><g id="Layer_1-2" data-name="Layer 1"><g id="Layer_2-2" data-name="Layer 2"><g id="Layer_1-2-2" data-name="Layer 1-2"><path id="path2999" class="cls-1" d="M66.44,0h43V18h-25V36h25V54h-43Z"/><path id="path3001" class="cls-1" d="M118.44,0h43V16h-25v3h25V55h-43V39h25V35h-25Z"/><path id="path3003" class="cls-1" d="M169.44,0h43V16h-25v3h25V55h-43V39h25V35h-25Z"/><path class="cls-1" d="M0,79,25.79,368.26l115.73,32.13,116-32.17L283.39,79ZM224,209.8l-.87,9.52-8.34,93.37-.53,6-72.59,20.13h0l-.16.05-72.6-20.19-5-55.68h35l2.53,28.67,40.05,10.82h0l40.16-10.87L185.84,245H62.28l-3.14-35h129.2l3.21-36H56l-3.27-36H230.41Z"/></g></g></g></g></svg>