<svg xmlns="http://www.w3.org/2000/svg" viewBox="0 0 296.1 399.96"><defs><style>.cls-1{fill:#f3f4f6;}</style></defs><g id="Layer_2" data-name="Layer 2"><g id="Layer_1-2" data-name="Layer 1"><g id="Layer_2-2" data-name="Layer 2"><g id="Layer_1-2-2" data-name="Layer 1-2"><path class="cls-1" d="M14.18,323.83l3-1.27c.2-5.13-2.13-9.4-4.63-13.63-.59-1-1-2.08-1.52-3.12l-.12-.1c1.38.29,2.79.94,4.12.79a125.31,125.31,0,0,0,14.3-2.2c5.08-1.2,9.58-1.09,13.35,3.25.56-5.8-3.89-10.1-10-9.62a102.67,102.67,0,0,0-10.29,1.85c-1.18.22-2.36.4-3.55.6.14-4.18-2.73-6.88-4.68-10.07a10,10,0,0,0,1.41,8.76c.82,1.17,1.8,2,3.36,1.23-2.18.57-4.42,1-6.55,1.76-4.33,1.51-7.8.32-10.7-3l-.08.08c.32-.43.9-.85.9-1.28,0-4.65,3.18-7.09,6.45-9.45,3.05-2.21,6-4.5,6.38-8.7L6,283.24l.09.11-.84-4.73c1.68-.27,4.07.9,4.66-2.58-2,.53-4.61-.85-4.55,2.7l-2.47-3.42-.09.1c.55-.28,1.36-.4,1.62-.85,2.53-4.24,4.63-5,9.19-3.36l1.84.67c-1.11-3.3-3.14-4.49-5.85-4.72-1.47-.13-2.95-.07-4.42-.09l.11.12c.15-1,.64-2,.4-2.87a82.08,82.08,0,0,1-2.74-21.94c-.13-17.76-.11-35.53-.36-53.29-.34-25.29-.92-50.58-1.31-75.88q-.6-40-1-79.93C.12,23.2.18,13.12.18,2.66a23,23,0,0,1,2.61-.24C33.87,2.31,65,2.3,96,2.11c33.64-.21,67.28-.57,100.92-.88Q223.63,1,250.26.66c12.5-.17,25-.45,37.51-.66h6V7.86c-.15,23.15-.18,46.3-.36,69.45q-.33,43.2-.88,86.39c-.31,25.69-.73,51.37-1.09,77.06A78.25,78.25,0,0,1,288.3,261c-.47,1.66-1.47,3.43.83,4l-7.68,1.27.11.11c3.47-3.59,4-8.33,4.85-12.88,2-10.51,1.53-21.18,1.6-31.8.08-11.57.11-23.15-.27-34.72v-4.41c-46.25-.67-92.47.32-138.63.69-1.35,3.77-1.23,112.56.1,122.45l3.41.63c-.16.14-.28.35-.4.35A98.5,98.5,0,0,0,110.37,317c-15.35,7.78-30.68,15.6-47.26,20.54-4.61,1.37-9.24,2.7-13.76,4A14.51,14.51,0,0,0,48,339c-3.72-4.24-7.45-8.48-11.29-12.61a12.69,12.69,0,0,0-3.21-1.86l.07.09,3.3-6.5c-7.81,2.71-15,5.21-22.76,5.59ZM64.81,245l-1.13-.81-.5-1.78.73-2.82,2.74,5.08,4.37-1c-2.6-1.8-4.51-3.32-3.41-6.84,1.79,2,3.09,3.55,4.39,5l.76-.47c-1.06-1.49-2.89-2.75-1.76-5.36a23.58,23.58,0,0,0,2.27,2.53c1.06.87,2.26,1.66,3.34,0l.93-.93c2.8-1.12-1.37-2.21.29-3.56,1.59-.77,2.68,0,2.25,1.93a19,19,0,0,1-2.45,6.68c-4.62,6.72-10.41,12.18-18.18,15.15l-8.71,3.31V262l7.31,1.69-.71-3.57,5.53,3.33-.75-3.85,5,3.09-.08.08c-.68-1.11-1.36-2.22-2-3.33l.64-.48,3.88,2.14-.09.09-.46-2.59,5.69,2.61c-1.4-1.77-4-2.28-3.86-5.61l8.12,4.24-4-5c3.31-.61,4.7,3.13,7.11,2L79.23,253l-.08.1,1.63-.15.82,1,.43.25-.52-.14L80.75,253l.21-1.71-.09.11c2-.06,3,3.13,5.47,1.84-.2-1.77-3.41-1.28-2.26-3.73l5.3,1.84a40.77,40.77,0,0,1-10.44,16l.08-.1a11.36,11.36,0,0,0,8.74-2.3h2v-.23l-1.28.29-2.72-.4v-1l6.09-.7c.25.21.58.63.76.59s.59-.44.87-.69l-.3-.34-1.42.55L89.23,261h4.48l.16-.49-2.64-1.19.81-1,5.36.58L94.26,256h7l-3.3-1.9.19-.68,6.63-.51V252c-2,0-4.25.69-5.82-1.83l7.28-1.29-2.32-2,5.48-.89-.1-.09c-1.22,2.74-2.4,5.49-3.71,8.18-.29.61-1.09,1-1.6,1.47-2.59,2.64-5.34,5.16-7.67,8-1.29,1.56-1.86,3.66-2.74,5.5l2,2.54-.4.46-3.63-1.46L90,272.75l-.75,1.07,3.85,1.41-.76,1.09-4.76-1.56-1.88,2.05,1.57,2.36c-2.22.45-4.59-2.39-5.86,1.08l1,2.57c-2.5-.79-4.79-1.81-5.62,1.48-.06.25-.73.37-1.13.52l-3.47,1.38-1-.44L70.08,288a12.47,12.47,0,0,0-2.72-1.8c-4-1.3-8.12-2.41-12.16-3.68-2-.63-3.56-.7-4.7,1.26,2,2.39,2.1-.87,3.61-.85l1,3.16.21-.11-.33.09,1.19-1.81,2.18,2.56,1.48-1.71,4.29,3.83a20,20,0,0,1-4.77-.06c-2.58-.63-5-1.71-7.56-2.54-4-1.31-7.51.58-8.09,4.51-.12.79,1,1.76,1.61,2.64a11.9,11.9,0,0,0,1.87-1.95c.27-.43,0-1.16,0-1.94l2.07.81,1.33-2.65,2.14,3.17.79-1.74,10.22,3,.22-3.3,3,4-12.31,4.86c-5.3.68-7.18,3.3-5.72,9l1.63-4.51,2.88,1.27c-.26-1.76-.42-2.92-.6-4.19l2-.47c-.06.31-.12.62,0,.3v1.06l-.23-1.36c4,2,4,2,5.71-.7,3.19,1.58,3.19,1.58,5-1.29,2.76,2.5,3.61-.34,4.78-1.92,2.88,1.38,5.29,3.39,8.51,3.37l.46-2.93,1.9,2.38,1.08-1.67,2.23,1.43c.68-1.87.66-3.11-1.39-3.17s-4.29,0-7.37,0c1.31-2.42,1.88-4.52,3.24-5.77a61.86,61.86,0,0,1,7.88-5.66A21.56,21.56,0,0,1,90,281.48c-.54,2.08-.92,3.49-1.28,4.91v0l-.08-.29L95.44,279a43.78,43.78,0,0,0,.63,4.44c.38,1.63-2.9,2.85-.3,4.93,2.62-3.7,2.55-8,2.75-12.94.9,3.11,1.52,5.32,2.42,8.39l1.93-11.47c.74.43.85.78.78,1.09-.39,1.78-.34,3.82,1.36,4.46,1.49.56,3.47.15,5.14-.26a25.21,25.21,0,0,0,4.58-2.09,36.23,36.23,0,0,1-5.89.32c-1.8-.17-2.68-1.75-2.76-3.95,3.27,2.77,6.29,3,9.92.85l5.74.39v-1.05l-5.24.49c-2.09-.55-4.78.47-6.45-2.58a49.72,49.72,0,0,0,14.2-.62l-4-1.18.22-1.1,4.2.23,1.07.36v-.49l-1.2.23c-.81-.75-1.61-1.49-2.56-2.35l2.4-5.94,2.84,1.55-.11-.12a21.47,21.47,0,0,0,2.85,3.72c2.66,2.25,5.54,4.25,8.32,6.36l.22-.11-.33.11,1.75-1.45c1.27,1.87,2.39,3.51,3.5,5.16l1.23-.36c0-26.46.06-52.92,0-79.38s-.3-53.06-.46-80c-3.66.41-6.88.51-10,1.17-10.56,2.23-19.6,7.54-27.83,14.35l3.81,3,.1-.12c-.53,0-1.19.28-1.57,0-4.43-2.64-7.58,0-10.76,2.53A5.39,5.39,0,0,0,96,141.83c6.16-5.34,13-4.09,20-1.83H105.29c5.46,1.45,10.67,5.6,16.68.9l.2,1-3.87,2.6c2.49,2.49,5,5.06,7.56,7.47a5.5,5.5,0,0,0,2.45.77c.43.09,1.2-.18,1.3,0,1.48,2.63,3.88.47,5.71,1.16l-.83.85,4.1,2.68-.1-.1c-1.87,2-3.83-.33-3.83-.33h-3l.23.1c-.87.91-1.7,1-2.49-.1h-.14l.24.11c-1.89,2.07-2.62-.68-3.66-1-.73,1.39-2.25,3.14-1.88,3.77,2.1,3.58-1.12,4.82-2.58,6.78-1,1.28-2.14,2.38-3.23,3.56l.56.66,3-1.19-.29,2.5-.12.14.1-.19c3.33-.1.59,2.28,1.69,3.09l-.71.71-4.67-2.81c-1.54,1-3.91,1.88-5.46,3.5-3.26,3.29-7.14,3.83-11.4,3.71-3.55-.1-6.6-1.57-9.57-3.26-6.6-3.77-11-9.24-10.74-17A93.84,93.84,0,0,1,83.1,143c1.88-8.43,3.23-16.61,0-25.14C77.41,103.28,80.43,89.75,89,77.16c1.15-1.7,2.55-3.22,4.12-5.18-3.35-.06-5.14,2-7.5,3.11l2,1.26-5.47,2.93c1.77,1.34.71,2-.57,2.78s-2.76,1.77-4.15,2.67l-1.84.44-.86,1-.15.15.06-.2.89-1,1.82-.42,2.47.12.23.76a40.33,40.33,0,0,0-4.21,2.35,52.59,52.59,0,0,0-4.24,3.79l5.31-1.75c-1.83,3.64-6.23,4.6-7.47,8.69L74.26,97c-1.89,3.41-6.15,4.89-5.51,9.67l4.75-3,.54.68c-1.27,2.48-4.64,3.91-4.28,7.55L73.83,110c-1.07,2.43-1.87,4.2-2.93,6.56l3.91-1.82-1.59,3.81.1-.1c-6.35,6.62-9.47,14.17-6.19,23.28.89,2.45.22,3.91-1.55,5.43a9.28,9.28,0,0,0-3.18,8.13,6.38,6.38,0,0,1-1.33,4.65c-3.5,4.89-4.72,10.16-2.49,16a15.16,15.16,0,0,1,.52,2.75c-10.37.38-19.74-1.5-28.31-7.16s-14-13.87-18.59-22.76l-1,.37c.31,3.12.63,6.26,1,9.44l2.54-.38v8.57l2-3.12c1.32,3.81-.22,7,2.13,9.22q.95-2.5,1.87-4.89l1,.26v7.37l1.55-3.09.9.89.53,6.61h1.09l1.6-5.37,1.06.17c0,.88.07,1.76,0,2.64-.16,1.76-.67,3.57,1.27,4.82v.11c-.14-1.84-.26-3.68,1.79-4.8,1.66,2.24-1.13,5.55,2.36,7.26.51-2.06-.74-4.48,1.79-5.84,1.33,2.35-.69,5.39,2.06,7.17v.27l-.1-.19.92-4.88c2,2.68.39,6.14,4,6.9-.38-4.42-.38-4.42,2.13-6.46.17,1.81.18,3.26.46,4.66s.48,3.37,2.89,3.37l.64-4.83h1l1.63,5.35,1.35-3.92,1.94,5.34,1.56-3.39,1.82,4c-16.18,5.84-31.36,3.49-46-4.25l-.5.86c1,1.91,2.15,3.82,3.15,5.58l2.66-1.1a18,18,0,0,0,.38,3.1,25.21,25.21,0,0,0,1.44,3.07l1.63-4.76,2.06,6.87.57-.12.39-4.39.76-.07,2.7,6.61c.67-1.74,1-2.82,1.77-4.6,1.43,2.58.25,5.45,3.5,6.16.34-2.09-1.7-4.53,1-6.27,1,2.4.31,5.32,3.22,7.19v-5.08l.67-.11,2.34,5.29.66-3.81c2.89,4,2.89,4,5.63,3.38-1.54-3.6-1.54-3.6-.16-5.73,1,2.07,2.06,4.06,3.26,6.53.63-2.51-2.49-4.19-.38-6.1,1.37,1.73,2.58,3.3,3.87,4.8.13.16.74-.06,1.11-.11v-3.45l4.16,4-.1-.07a6.82,6.82,0,0,1-.72,2.15c-3.63,4.63-8.76,6.61-14.31,7.48-7.39,1.18-14.47-.21-21.29-3.21A32.19,32.19,0,0,0,16.37,211l2.51,4,2.76-.75,1.88,6.42.23-.14-.34.11,1.12-3.7c1.66,2.77,1.12,5.88,4.21,6.54v.22l-.07-.14c-.33-1.81-2.08-3.66.57-6a36.47,36.47,0,0,0,1.54,3.91c.87,1.6,1.9,3.12,2.86,4.64l.12.12-.19-.07c0-1.85-2.08-3.65-.07-6,.8,1.88,1.4,3.4,2.08,4.87.8,1.74,1.9,3.12,4.16,2.65v.06l-.08-.21c-.56-2.11-2.67-4-.89-6.72,3.35,1.41.52,6.62,4.74,7.26l-1-5.74c3.63,1.39,2.8,6.29,6.84,6.3.31-2.6-3.35-4.67-.46-7.66.67,1.43,1.16,2.6,1.77,3.71s1.34,2.18,2,3.28c.15-2.12-2.13-3.78,0-5.93,1.62,1.81,1.17,5.28,4.79,5.25l-1.51-5.82c2.69,1.3,2.43,4.8,5.8,4.36-1.4-1.92-3.24-3.44-2.68-6,2.63.52,2.75,4.95,6.28,3.7-.4-1.62-3.17-2.23-1.57-4.42l3.59,2.77.39-.47-2.47-4.13.51-.48,3,1.58v-1.42l3.67-.67-.1.11c.52.46,1.51,1,1.45,1.34a14,14,0,0,1-1.25,4.65c-5,9.17-12.62,14.11-23.1,14.95a44.64,44.64,0,0,1-22.18-3.89,26.06,26.06,0,0,0-3.58-1l-.64.9,5.42,8,.48-3.72.72-.11,2.66,6.4.45-.09v-4.27l.6-.14c1.49,2.28,3,4.56,4.45,6.83-.74-3.79-.74-3.79,1.46-5a26.21,26.21,0,0,0,1.56,3.61,38.39,38.39,0,0,0,2.9,3.7l-1.66-5.6,1.11-.45a16.91,16.91,0,0,0,1.65,2.82A29.87,29.87,0,0,0,47.88,248l-.05.27.13-.17c-1.41-1.73-2.89-3.43-2.33-6.63,1,.66,2,.93,2.3,1.53a24.64,24.64,0,0,1,1.51,3.69l-.09-.1c1,1.15,2,2.6,4.08,1.92-.62-1.68-3.34-2.8-1.34-5.13,2.52.72,1.73,5.3,5.44,4.44.07-2-3-3.43-1-5.79,2.64,1,2,6.1,6.21,5l-2.1-5.31.64-.43,2,1,.52,1.81,1.14.81.63,1,.13.15-.19-.07ZM26.71,102.68l-.31.25.34-.37v-.2Zm4.63,25.6.19-.09-.31.1.25-1.91,2.65-3.66c1,3.35-2.06,6.32.22,9.56,1-2.06.48-4.82,3.56-5.9a5.8,5.8,0,0,1,0,1.86c-1.84,4.32-1.64,8.26,1.81,11.76H40l-.24.51c.41-2.41-.52-5.22,2.3-7.08a40.77,40.77,0,0,1,.47,5.29c.19,1.65-.83,3.82,1.6,4.74l-.08.09c0-1.88-.17-3.88,2.41-5.22-.12,3.28-1.73,6.51,1.44,8.73l.22-.06h-.33s0-3.71,2-5c.92,2.56-1.26,5.83,2.28,7.19l.2-.21h0l.6-4,.95.1.93,5.16,2-5.16c1.59,2.39-.51,5.34,2.67,6.81,1.37-2.93,2.66-5.72,3.94-8.49-9.29-4.55-13.72-7.69-17.65-12.74a68.31,68.31,0,0,1-15-43.14c0-1.4-.2-2.82-.36-4.88a13.72,13.72,0,0,0-4.38,8.75l-.23.07.14-.08c.4.38,1.23.91,1.15,1.11A36,36,0,0,1,25.33,96c.76.43,1.87.74,1.89,1.12.09,1.62,1.2,3.17-.16,4.93a9.19,9.19,0,0,0-1.86,8.11l2.42-3.47c.81,3.91-2.71,7.13-1,10.84l2.94-6.83,1.17.43c-.45,1.51-.95,3-1.37,4.5-.94,3.35-1.94,6.71.53,9.88Zm28,4.62.12.1h-.2L56,129.06l-.67.7Zm30.51,164,.27.08h-.34l-4-3.18v4.65Zm39.65-8.84,7.11-1c.63-3.4-3.19-1.71-4.79-3.72l5.92.38-.52-3.76-3.89-.24L129.52,286c.34-2.2-1.57-3-3.52-4.65l4.6.31c1-3.36-.81-3.89-3.49-3.9a36.41,36.41,0,0,1-2,3.26c-1.72,2.46-3.52,4.87-5.28,7.3-.15-3.06-.51-3.38-5.16-4.37-4.33,5.87-8.86,11.84-13.16,18-1.75,2.51-1.32,4,.82,5.46s3.72,1.5,5.56-.66a46.91,46.91,0,0,0,3.21-4.82l-5-4,.45-.76c1.07.52,2.16,1,3.21,1.59s2,1.14,2.92,1.71c-1.21,2.5-2.58,4.93-3.57,7.52a5.85,5.85,0,0,0-.15,4c1.7,3.72,5.2,3.34,8.71-1.3l-6.12-4.2a5.15,5.15,0,0,1,5.81,1.66,1.64,1.64,0,0,0,2.59.37l-.74,3.5,7.92-3.31a18.14,18.14,0,0,1-4.1-.08c-.64-.17-1.07-1.15-1.59-1.77a13.28,13.28,0,0,1,10.74,1.6c1.51-3.54.65-5.18-2.62-5.32-1.36-.05-2.74.17-4.88.31,3.3-2.76,6.09-1.78,8.76-.74,1.23-3.21.75-4.21-2.11-4.5-1.45-.14-2.93,0-4.82,0,2.93-2.7,5.65-2.29,8.48-.69-.45-4-.52-4-7.45-3.51L124,298.87c.16-1.54.91-3.4.31-4.55s-2.57-1.81-4.19-2.84c2.87-1.5,4.33.7,6.5,2.09.2-2.16.36-3.79.5-5.25l-3.69-2.06.37-.89,4.74,1.55,1.22-1.11c0,.8-.07,1.6-.11,2.4l-1.73,3.62c3.07-.79,5.55-1.13,8,1,.58-3.05-1.2-3.57-3.1-4Zm6.28,10.62,8.09-.89c-.54-.81-.89-2-1.45-2.07a25.26,25.26,0,0,0-4.6-.09c1.21-2.8,3.83-.86,5.92-2.33L139.07,291h4.79c.77-4-2.74-3.37-5.06-4.85l5.09-1.81a8.61,8.61,0,0,0-1.48-2,6.31,6.31,0,0,0-2.07-.64l.18-.68h3.95L141,275.07a156.17,156.17,0,0,0-5.19,23.71c-.67,2.53-2.13,5-1.09,8l7.42-1.33,0-1-5.74-.36c2.24-3.29,5-1,7.6-.53-.64-3.57-2.06-4.65-5.07-4.21-1.13.21-2.54,1.62-3.16-.57ZM56.53,95.43l4.23-2.78c-1.08,3.76-4.51,5.57-3.68,9l2.83-2,.52.54c-.62,1.54-1.23,3.08-1.89,4.75l2.26-.31c0,3.27.32,6.21,4.07,7.81-.34-1.7-.5-3-.89-4.28-1.82-5.92-1-11.87,1.08-17.35,2.49-6.6,6.06-12.79,9.13-19.17.56-1.18,1-2.43,1.44-3.65l-.76-.48-6,3.84-.13.09v-.19l1.6,1.69-6.53,3.23,3.12.93a27.4,27.4,0,0,0-4,2.32,13,13,0,0,0-2,2.66L60.67,82h.15l2.67-.35.19.77-5.93,4.63.44.6L61.91,86l.57.57c-2.17,2.84-5.92,4.77-5.84,8.94l-.13.57ZM14.12,308.49l-.18-.15.28.05,5.18,13.39c4.53-1.26,9.56-2.24,14.24-4.11,2.85-1.14,5.27-3.51,7.67-5.58a2.51,2.51,0,0,0,.41-3.53,2.59,2.59,0,0,0-.41-.4c-2.13-2.18-4.83-3.62-7.91-3.18C27,306,20.54,307.31,14.12,308.49ZM42.21,94h2.43l-3.79,8c1.78-.63,2-3,4.59-2.46-1.11,3.6-3.93,6.6-2.69,10.65l3-4.59c.77,3.67-2.43,6.53-.9,10,1-1.73,2-3.34,3.2-5.44,2.31,4.16-2.5,7.4.13,11.22l2.37-4.93,1.08.11c1.2,3.35-2.33,7.55,1.21,10.72.79-5,.79-5,2.54-6.24-.22,2-.42,3.77-.66,5.9l2.88-1.31a18.8,18.8,0,0,1,4.66,8.7l2.84-14.06c-1-.67-2.17-1.51-3.38-2.3-4.84-3.15-8.78-7.13-11-12.51A80.17,80.17,0,0,1,45,80.14l-1.2,3.44-.07.21v-.3c.22.9.82,1.94.57,2.67a16.92,16.92,0,0,1-2.13,3.28c-.1.16,0,.44,0,.61l1.76.62L42.21,94.1l-.05.16Zm6.53,74.75v.12l-.47-4.07,3.34.9c.27,1.52.5,2.88.73,4.22l.89.06c1-3.63,2.1-7.27,3-10.22-4.92-2.9-9.73-5.21-14-8.28a62,62,0,0,1-11.46-10.3,66.57,66.57,0,0,1-8.26-13.45c-2.22-4.56-3.61-9.54-5.43-14.54l-1.48,10.06,2.19-.91-1.6,6.6,2.91-1.47-1.66,8.18,2.63-3,1,.38L19.4,139.8l2.77-2.75-1.43,7.2v-.1l4.57-4.28-1.4,9.41.43.05,1.86-3.94,1,.29-.6,8,.89.16c.85-2,.54-4.78,3.7-6-.52,1.88-1,3.34-1.32,4.82a30.68,30.68,0,0,0-.48,4.08l.38-.09L32,151.79l.82.29a28.88,28.88,0,0,0-.5,4.63,24.16,24.16,0,0,0,.91,4.28l.62-.15,2-5.18.83.23a43,43,0,0,0-.41,5.33c.1,2.27,1.51,3.36,3.83,3.56.56-2.23-.2-4.87,2.85-6-.14,1.8-.28,3.34-.36,4.93s.19,3.21,2.14,3.75l-.09.09c0-2-.34-4,2.15-5.25-.08,1.48-.2,2.77-.21,4.06s.33,2.6,2.19,2.44ZM2.74,46.53c96-.28,191.5-.77,286.79-2.3,1.21-4.49,1.28-36,.11-39.23L2.74,7.35ZM287.83,178c.38-41.89.75-83.21,1.12-124.95h-7.08c-18,.24-36,.6-54,.71-24.47.15-49,.1-73.41.16-1.82,0-3.64.14-5.68.23v50.12q0,34.89.09,69.78a32.48,32.48,0,0,0,.87,5ZM11.75,279.19c3.24-2.3,3.9-4.81,2-6.31-2.05-1.64-6-.79-8.28,2.27l5-.86Zm109.73,5.73,1.85-4c-3.69-2.79-3.85-2.75-6.53,1.34Zm18.07-11.64L136,273c-.78,1.73-1.47,3.24-2.29,5h4.93C138.89,276.56,139.18,275.23,139.55,273.28ZM127,276.53,129.8,270l-.77-.59-5.61,4.5Zm5.09,0c.26-1.81.49-3.45.73-5.09l-1-.35L128.45,276Zm-11,.74,4,2.11c-.49-3.62-1.37-4-4-2.13ZM42.5,292.71l-1.2-.27c-1,.9-2.17,1.76.37,3.64Z"/><path class="cls-1" d="M222.28,236.71c1.5-1.31,3-2.65,4.52-3.92,1.9-1.57,3.57-1.16,4.16,1.31.51,2.16.43,4.45.92,6.76a8.23,8.23,0,0,0,.62-2.9c-.49-3.29,1.32-4.64,4-6a13.35,13.35,0,0,0,6.39-6.43c1.12-2.36,2.69-5.16,4.83-6.23a48.74,48.74,0,0,1,13.46-4.3,5,5,0,0,1,5.94,3.71c.19.83,1.71,1.5,2.74,2a7.07,7.07,0,0,1,4.41,7.37c-.11,2.35,0,4.7,0,7.47,3,3.49,3.15,5.17.6,9.83-1.33,2.45-2.9,4.77-4.15,7.25-1.14,2.28-3,3.21-5.3,3.91-3.74,1.16-7.48,2.07-11.42,1.73l.17.09L250,256.7l.15.11c-.08-.24-.08-.59-.25-.7-2.93-2.07-13.65-5.88-17.87-6.27,1.85,3.9.33,7.09-2.35,9.57-1.86,1.72-4.11,3.6-7.15,2.35l-.1-4.34.4-.06-.29.17.09,4.13c.11.65,0,1.5.35,1.91,3.42,3.75,6.93,7.42,10.4,11.12a8,8,0,0,1,1.56,1.83c2.18,4.6,5.76,8,9.39,11.42,1.73,1.63,3.43,3.3,5.91,5.68a61.8,61.8,0,0,1-1.36,7.13c-1.19,4.07-1.56,4.14-5.72,2.81-2.18,3.86-5.62,5-11.49,3.79-.66,2.21-1.33,4.43-1.85,6.15-2.56.54-4.47,1-6.41,1.3a11.34,11.34,0,0,1-3.58-.17c-2.86-.56-5.68-1.33-8.55-1.87a3.39,3.39,0,0,1-2.89-2.93,27.27,27.27,0,0,0-.81-3.9c-.56,2.56-1.11,5.12-1.79,8.3-2.76-1.36-5.6-2.39-8-4.05s-4.42-3.12-7.51-1.34c-2.13,1.23-3.7.15-4.31-2.55-.4-1.77-.55-3.61-.89-6-3.08,3.52-6.13,2-9,.78-2.28-1-2.76-2.65-1.17-4.45a13.71,13.71,0,0,1,4.27-2.79c2.24-1.09,4.6-2,6.91-2.93l-.35-1c-2.88.79-5.83,1.37-8.6,2.43a8.16,8.16,0,0,1-6.23-.17,49.75,49.75,0,0,0-5.36-1.69c-3.14-.83-4.94-3.29-3.85-6.3a17.73,17.73,0,0,0,.58-9.08,7.66,7.66,0,0,1,1.41-5.14c2.15-2.9,4.82-5.41,7.24-8.12a6.28,6.28,0,0,1,6.12-2.18c2.11.34,4.29.53,6-1.31l-.12.1a20.55,20.55,0,0,1,8.48.36c3.06.65,6.46-.35,10.32-.68,1.4,1.21,2.07,4.77,5.73,4.08l.62,1.29c-2,4.29-3.78,8.06-5.54,11.83l-.8.81-3.24,1.61-5.08,2.09-.7,1.15-.48,1-2.61,1.39L188,285c-.25.66-.5,1.32-.74,2l.51.17V285a17.62,17.62,0,0,0,1.77-1.61l2.57-1.43.5-1,.76-1.17c2.34.92,3.75-.42,5-2.07l3.24-1.6.81-.8c1.23-1.46,2.49-2.9,3.68-4.39,1.83-2.28,3.39-4.82,5.47-6.84,3.93-3.83,4-4.19-.14-8-.16-.14-.11-.5-.21-1l3.2-3.35,1.83-.64,2.73-.23-.39-1-2.38,1.35-1.86.62c-2,.21-4.27,1.26-4.81-1.91.7-1.11,1.38-2.17,2.06-3.23l2-.43.78-.88,3.13,1,1.2-1.79,7.08,4.95c-.13-2.2-.24-4.06-.36-6.22-1.11,3.06-2.91,2.1-4.59,1.22-2.37-1.25-4.54-1.47-6.35.92l-.81.86-2.06.38-2.93-1.95c.5,5.63-.78,11.53,4.18,15.65-1.75,2.42-3.74,2.19-5.74,1.93-3.6-2.33-5-5.63-4.83-9.9.1-2.33-.54-4.69-.77-7a18.43,18.43,0,0,1,0-2.78c.15-2.65.38-5.3.47-7.95.05-1.74-.35-3.81,2-4.16a3.68,3.68,0,0,1,4.38,2.65,9.77,9.77,0,0,0,1.2,1.85l-.11-.16,1.69,3.3-.57,2.7-1.66.16,1,1,.52-1.29c.2-.88.41-1.76.61-2.64,2.42-.72,2.51-3.06,3.35-4.86l-.13.15.95-1L215,233h3.4l-.18-.6,1.81.92-.16-.13,1,.95-.16-.12,1.58,3h.15ZM221,252h-.18l.27-.09,3,2.56c.1.38.19.77.07.27.38.33.09.09-.19-.16l1.15-2.29-.08.09Zm11.58-9.47c-.06.06-.18.12-.19.2s.06.19.09.28c.07-.07.18-.13.19-.21s-.06-.19-.09-.27Z"/><path class="cls-1" d="M289.41,342.31l-5,6.9c-1.45.11-2.92.12-4.36.36a74.14,74.14,0,0,1-25.69.17,201.73,201.73,0,0,1-42.29-12.82q-21.12-9-42.45-17.57a54.22,54.22,0,0,0-30.88-2.74c-11.44,2.17-22.1,6.64-32.48,11.71a328.27,328.27,0,0,1-47.37,19.26c-11.09,3.41-22.31,6-34,5.53-3.29-.14-6.57-.39-10.45-.62,5.61,6,5.94,13.07,5.58,20.15,8.07,2.79,16,1.81,23.55.64,10.9-1.67,21.3-5.49,31.35-10.1,19.3-8.86,38.78-17.17,59.38-22.67a54.94,54.94,0,0,1,23.52-1.1c10.78,1.78,20.86,5.9,31,9.76,16.19,6.15,32.27,12.63,48.64,18.29,10.67,3.69,21.75,6,33.25,4,4.28-.74,4.38-.95,5-5.2.9-6.66,3.4-12.62,8.79-17-.82,1.37-1.57,2.8-2.49,4.1A26.79,26.79,0,0,0,276.79,372c.1.93,0,1.87,0,3.1a30.71,30.71,0,0,1-10.89,2c-10.49.45-20.67-1.6-30.46-5-15.08-5.25-29.87-11.33-44.91-16.7-9.84-3.51-19.85-6.65-29.92-9.46-8-2.25-16.15-1.79-24.32.05-20.7,4.68-40.26,12.22-59.21,21.75a123.76,123.76,0,0,1-37.17,11.59,50.07,50.07,0,0,1-21.18-1.6,40.73,40.73,0,0,1,.06-6.44,19.66,19.66,0,0,0-4.48-16.92c-2.45-2.86-5-5.67-7.42-8.5l-.07.11c16.87,4.69,33.44,2.81,49.93-2.13a283.16,283.16,0,0,0,44.37-18c10.69-5.29,21.33-10.76,33.07-13.64A58.87,58.87,0,0,1,171.24,315c17.41,7.09,34.62,14.65,52.13,21.48a129.92,129.92,0,0,0,44.75,9.24,65.81,65.81,0,0,0,21.39-3.3Z"/><path class="cls-1" d="M204.71,365.85c3.74.59,7.31,1.62,10.26,4.16l.11-.08c-2.84-1.41-5.19-.55-7.76,1.1a315.78,315.78,0,0,1-56.41,28.19,8.46,8.46,0,0,1-6.9,0c-10.75-4.54-21.8-8.4-32.3-13.45-8.29-4-16-9.29-23.83-14.14-1.87-1.15-3.52-2.48-5.88-1.89l.1.11c7.37-3.48,14.65-7.15,22.12-10.38,10.35-4.47,21.21-7.35,32.21-9.78,9.7-2.13,19.2-.76,28.65,1.31,3.85.84,7.55,2.31,11.32,3.5l.1-.1c-.92-.12-1.87-.17-2.77-.37-5-1.13-9.9-2.43-14.89-3.38-3.07-.59-6.23-.66-9.47-1a25.72,25.72,0,0,0-.34,2.62q0,19.37.09,38.72a23.8,23.8,0,0,0,.63,3.76c13.62-3.78,49.3-21.55,55.76-27.67l-.73-1.39Z"/><path class="cls-1" d="M209.65,235c.78-5.93-3.69-7.77-7.74-9.89-1.06-.55-2.28-.8-3.36-1.31-5.05-2.36-5.71-6.91-5.77-11.74a26,26,0,0,1,.09-4.32,10.92,10.92,0,0,1,1.26-4.5A80,80,0,0,0,201,191.11c1.06-2.3,3.23-3,5.33-1.18,2.55,2.14,5,2.86,8.12,1.64a2.26,2.26,0,0,1,1.58,0c2.23.94,4.07.31,6.06-.88,3-1.8,4.11-1.45,6.8.86a14.94,14.94,0,0,0,3.63,2.24c5.48,2.47,8.81,10.36,7,16.84a36.42,36.42,0,0,1-1,4.25,11,11,0,0,1-2.31,4c-3.09,2.94-6.48,5.56-9.57,8.5a6.68,6.68,0,0,0-1.61,3.56c-.39,2.58-1.79,3.41-4.18,3.09l.16.12-1-1,.16.13-1.81-.92.18.12c-1.13-1.25-2.26-1.22-3.4,0l.16-.13-.95,1,.13-.15c-1.66.51-2.46,3.68-5,1.62Z"/><path class="cls-1" d="M182.86,258.36c-3.2-.25-6.4-.56-9.61-.7-1.57-.07-3.16.32-4.74.28-3.64-.07-5.86-2.86-8.65-4.62-3.46-2.2-3.26-5.48-3.43-8.82a6.76,6.76,0,0,0-.94-3.37c-1.52-2.2-.79-4,.48-5.9,1-1.54,2.51-3.2,2.58-4.85.22-5.37,4.5-6.75,7.95-9,1.07-.7,2.79-1.25,3.05-2.19,1-3.58,4-4,6.76-4.93a3.84,3.84,0,0,1,2.73.08c3.77,1.88,7.93,3.06,10.84,6.5,1.71,2,3.63,3.59,3.92,6.68.15,1.59,2.17,3.27,3.71,4.39,3.79,2.77,4,3.22,3.22,7.65a19,19,0,0,0-.18,5.93c.32,2.38-.55,3.67-2.72,4.1-3,.59-4.9,2.41-6.75,4.69-.91,1.11-2.68,1.55-4.09,2.24s-2.83,1.31-4.25,2Z"/><path class="cls-1" d="M253.94,258.3a48.27,48.27,0,0,1,5.3,1.32,20.7,20.7,0,0,1,5.14,2.65,10,10,0,0,1,2.65,3.51,7.52,7.52,0,0,1,1,3.7c-.16,2.64-.82,5.24-1,7.88a6.13,6.13,0,0,0,.89,3c1.21,2.36.64,4.26-.84,6.33-2.48,3.45-5.27,5.14-9.59,3.33-1.26-.52-2.91-.06-4.37-.22-1.7-.2-3.81,0-5-1-3.74-2.95-7.79-5.64-10.29-10-1.24-2.17-3.08-4-4.61-6-2.33-3.06-4.62-6.15-6.73-9l7.84-8c4.8,2.79,10.32.22,15.71.92l-.15-.11,4.22,1.71Z"/><path class="cls-1" d="M2.33,340.73c-1.77-3-3.35-6-1.49-9.55L.74,331v4.81c5.44-4.92,11.76-5.62,17.82-7.11,4.9-1.21,9.72-2.73,14.58-4.1l-.07-.09c-.55,1.35-1.14,2.69-1.64,4.06-2.13,5.84-2.16,7.79-.23,15.54a28,28,0,0,1-3,.49A57.62,57.62,0,0,1,5,340.88a8.29,8.29,0,0,0-2.81,0Z"/><path class="cls-1" d="M261.4,321.24c3.06,2.67,6.82,3.64,10.69,4.3,3.44.58,6.92,1,10.33,1.7,4.72,1,9,2.86,11.49,7.42,2.25-3,1.94-4.78-1.3-8.24l-.09.11c2.63.07,3.18,2,3.41,4,.45,4.1-1.24,7.19-4.36,8.13l.06.09c-4.26.78-8.49,1.76-12.78,2.28a87.83,87.83,0,0,1-25.64-.75c-.2,0-.36-.38-.53-.57l-.1.07c3.06.29,6.14.51,9.19.89,2.36.3,3.26-.68,3.77-3,1.07-4.79-.13-9-2.47-13.07a35.13,35.13,0,0,1-1.55-3.56Z"/><path class="cls-1" d="M289.61,281.61l-8.85-3.77c-.54,2.57.88,4.25,2.73,5.61s3.86,2.37,5.67,3.72c3.2,2.37,5.22,5.32,3.58,10l2.66-1.41-.1-.11a11.48,11.48,0,0,1-6.55,5.39l.07.13c-.41-.27-.78-.71-1.23-.8-4-.78-8.07-1.62-12.14-2.2-5.25-.75-10.54-1.29-15.8-1.92l.14.12c2.59-.17,5.22-.67,7.77-.4,1.88.19,3.24,0,4-1.65,2.6-5.84,5.17-11.7,7.56-17.62.46-1.15,0-2.65.13-4a34.81,34.81,0,0,1,.82-3.64L280,269c.45.19,1,.67,1.32.53,5-2.52,6.73-2.14,10.17,2.21a7.64,7.64,0,0,0,2.25,1.33l-.1-.1c-.32,1.41-.91,2.34-2.66,2.16s-3.37,0-5.78,0c.71.8,1.16,1.79,1.8,1.93a23.63,23.63,0,0,0,4.36.25l.06-.11-1.89,4.55Zm1.07-7.07c-.46-3.84-2.32-5.15-4.7-5.32a4.54,4.54,0,0,0-4.76,3c-.9,2.31.07,3.8,2.45,5.11.3-1.9.56-3.51.8-5.05Zm-15,22.32c2.83.09,3,.08,4.22-1.68,2.26-3.25,3.33-6.74,1.33-10.83Z"/><path class="cls-1" d="M285.84,304.37c-.72,1.23-1.53,2.42-2.14,3.71-1.47,3.09-2.95,6.2-4.21,9.38-.38,1-.06,2.2-.06,3.79L259.28,317l2.52,4.2.12-.14a9.38,9.38,0,0,0-2.26,1.48c-4,4.68-8,9.43-11.9,14.18a19.55,19.55,0,0,0-1.44,2.4c-7.94-1.51-15.91-3.45-23.31-7.34l-.1.11q7.47,2.2,14.94,4.39c1.14.33,2.3.59,3.44.88,6.08-5.17,10.77-11.33,15.48-17.49,1.48-1.93,1.31-3.57-.54-5.24-3.26-3-4.92-6.62-4.11-11.11a4.2,4.2,0,0,1,.72-1.31l-.1-.11v5.62c2.43-5.11,6.49-6.74,11.5-7.09,4.44-.3,8.41,1.31,12.35,2.86a16.57,16.57,0,0,0,9.36,1.11Zm-3.66,2.21c-3.82-1.24-7.69-2.86-11.71-3.69a30.75,30.75,0,0,0-9.9-.35c-3.67.46-6.27,3.39-6.28,6.36,0,3.29,2.28,5.06,5,6.15A59.48,59.48,0,0,0,277,319.26C278.73,314.84,280.45,310.68,282.18,306.58Z"/><path class="cls-1" d="M214.34,328.71,201.56,323l-.11.11,12.79,5.73Z"/><path class="cls-1" d="M159.63,307.54l7,1.79.1-.11-7-1.77Z"/><path class="cls-1" d="M184.59,315.63l-6.36-2.47-.08.1,6.34,2.48Z"/><path class="cls-1" d="M188.76,317.18l5.37,2.66.09-.1-5.34-2.68Z"/><path class="cls-1" d="M260.74,380h-4v1h4Z"/><path class="cls-1" d="M40.44,383.11l-3.7.2V383h3.71Z"/><path class="cls-1" d="M1.74,299c-.5-1.13-1-2.27-1.49-3.4l.73-.25.68,3.73Z"/><path class="cls-1" d="M272.18,380.06l-3.81,1.26-.17-.59,4.08-.63Z"/><path class="cls-1" d="M27.27,383H24.74v1h2.44Z"/><path class="cls-1" d="M159.72,307h-3.9l.06-.59,3.75.68Z"/><path class="cls-1" d="M171.91,310.61l3.48,2.13.09-.09L172,310.52Z"/><path class="cls-1" d="M218.39,330.28l-4-1.57-.1.11,4,1.57Z"/><path class="cls-1" d="M252.68,340h-3.85l.06-.53,3.69.6Z"/><path class="cls-1" d="M197.42,362.66l4,1.56.12-.1-4.06-1.6Z"/><path class="cls-1" d="M251.74,379h-2v1h2Z"/><path class="cls-1" d="M2.1,329.48l2.39-2.37L4.41,327,2,329.41Z"/><path class="cls-1" d="M292.11,325.21,289,323.66l-.12.11L292,325.3Z"/><path class="cls-1" d="M252.44,302.05l1.61-2.44-.09-.11L252.34,302Z"/><path class="cls-1" d="M45.86,382H44.74v-.24l1.19-.08Z"/><path class="cls-1" d="M272.3,380l3.79-.17h0l-3.93.17Z"/><path class="cls-1" d="M254.89,298.77l2.36-1.59-.05-.11-2.43,1.62Z"/><path class="cls-1" d="M5.36,267.07l-2.62,1.36v.09l2.76-1.33Z"/><path class="cls-1" d="M36.74,343.85l1,.15h-1Z"/><path class="cls-1" d="M247.7,379h-1.34a5.13,5.13,0,0,1,.72-.25C247.18,378.74,247.31,378.84,247.7,379Z"/><path class="cls-1" d="M.74,290.52V292h1v-1.49Z"/><path class="cls-1" d="M7.75,325.45l3.19-.79-.06-.12-3.25.8Z"/><path class="cls-1" d="M10.94,324.66l3.28-.83-.12-.1-3.22.81Z"/><path class="cls-1" d="M286.39,323l2.46.78.12-.11-2.47-.78Z"/><path class="cls-1" d="M166.63,309.33l2.34.92.09-.09-2.33-.94Z"/><path class="cls-1" d="M19.84,381.42,19.53,380h.21v1.33Z"/><path class="cls-1" d="M284,322.14l2.4.85.11-.11-2.41-.84Z"/><path class="cls-1" d="M284.09,322h-1.58l.09-.44,1.39.54Z"/><path class="cls-1" d="M191.76,360.22l2.42.76.11-.1-2.44-.8Z"/><path class="cls-1" d="M295.74,295.77v-1.52l.36.07-.46,1.34Z"/><path class="cls-1" d="M187.75,358.6l2.39.77.11-.1-2.43-.79Z"/><path class="cls-1" d="M185.28,357.82l2.47.78.07-.12-2.44-.81Z"/><path class="cls-1" d="M48.86,382h0Z"/><path class="cls-1" d="M181.29,356.17l2.38.79.12-.11-2.43-.81Z"/><path class="cls-1" d="M178.85,355.36l2.44.81.07-.13-2.44-.8Z"/><path class="cls-1" d="M186.18,316.59l2.63.59.12-.12-2.65-.58Z"/><path class="cls-1" d="M176.4,354.54l2.45.82.07-.12-2.42-.8Z"/><path class="cls-1" d="M221,331l-2.57-.65-.11.11,2.59.65Z"/><path class="cls-1" d="M257.25,297.18l2.54-.8-.14-.12-2.45.81Z"/><path class="cls-1" d="M70.44,374.57l-2,1,.11.05,2-1Z"/><path class="cls-1" d="M56.85,379h.63a2.77,2.77,0,0,1-.43.18C57,379.19,56.91,379.07,56.85,379Z"/><path class="cls-1" d="M239.35,378h0Z"/><path class="cls-1" d="M222,372l1.12.65-.23.21-.79-.86Z"/><path class="cls-1" d="M169,310.25l2.94.36.13-.09-3-.36Z"/><path class="cls-1" d="M52,380.68c-.06.07-.1.18-.17.2a1.21,1.21,0,0,1-.38,0c.06-.11.1-.27.19-.31S51.86,380.64,52,380.68Z"/><path class="cls-1" d="M175.39,312.74l2.76.52.08-.1-2.75-.51Z"/><path class="cls-1" d="M41.8,342.72l.59.1Z"/><path class="cls-1" d="M45.71,342h.61a1.92,1.92,0,0,1-.42.16A1.28,1.28,0,0,1,45.71,342Z"/><path class="cls-1" d="M291.53,341l.1-2.22-.06-.09-.12,2.27Z"/><path class="cls-1" d="M280.07,269.11c.15-.66.29-1.32.44-2l-.1-.08c-.14.66-.29,1.31-.43,2Z"/><path class="cls-1" d="M1.67,271.28c-.06,0-.18-.06-.19-.1a1.4,1.4,0,0,1,.06-.28c.08,0,.22.06.22.09A.75.75,0,0,1,1.67,271.28Z"/><path class="cls-1" d="M293.72,273.08c0-.3.09-.6,0-.31.17-.25,0,0-.15.21Z"/><path class="cls-1" d="M54.92,380a.91.91,0,0,1-.33.1c-.1,0-.18-.13-.27-.19Z"/><path class="cls-1" d="M2.18,274.23,1.54,274a.71.71,0,0,1,.32.07,1.13,1.13,0,0,1,.24.3Z"/><path class="cls-1" d="M222.61,331.82l-1.65-.89-.09.11,1.64.89Z"/><path class="cls-1" d="M1.26,331.18c.28-.56.56-1.13.83-1.7L2,329.4,1.18,331Z"/><path class="cls-1" d="M183.67,357l1.61.86.1-.15-1.59-.82Z"/><path class="cls-1" d="M190.18,359.37l1.62.85.09-.13-1.6-.82Z"/><path class="cls-1" d="M291.74,283l-1.94-.2-.06.1,2,.2Z"/><path class="cls-1" d="M4.49,327.11l1.62-.82L6,326.16,4.41,327Z"/><path class="cls-1" d="M6.11,326.29l1.64-.84-.12-.11-1.6.82Z"/><path class="cls-1" d="M194.18,361l1.59.82.12-.11-1.6-.81Z"/><path class="cls-1" d="M195.77,361.81l1.65.85.08-.14-1.61-.82Z"/><path class="cls-1" d="M275.74,380v0Z"/><path class="cls-1" d="M294.52,286.41,293.8,285l-.11.07.74,1.46Z"/><path class="cls-1" d="M201.44,364.22l1.62.82.12-.06-1.61-.81Z"/><path class="cls-1" d="M2.59,286.56l-.47,1.69.11.1.46-1.72Z"/><path class="cls-1" d="M203.06,365l1.65.81.07-.1-1.6-.77Z"/><path class="cls-1" d="M201.56,323l-1.38-1-.1.11,1.42,1Z"/><path class="cls-1" d="M295.18,288.24c-.21-.61-.41-1.22-.61-1.83l-.09.09c.19.62.38,1.23.58,1.85Z"/><path class="cls-1" d="M199.8,322h-1.06v-.32l.93.43Z"/><path class="cls-1" d="M195.88,321h.26c.36.28.09.07-.17-.14Z"/><path class="cls-1" d="M295,288.35l.27.14-.15-.25Z"/><path class="cls-1" d="M80.71,370.85l1.39-1-.1-.11-1.4,1Z"/><path class="cls-1" d="M215,370h.42l-.31-.12Z"/><path class="cls-1" d="M196,320.48l-1.75-.74-.09.1,1.75.75Z"/><path class="cls-1" d="M80.6,370.93l-.39.07h.5Z"/><path class="cls-1" d="M186.23,316.48l-1.64-.85-.1.11,1.64.85Z"/><path class="cls-1" d="M218.37,371.1c0-.06.06-.17.09-.17a1.27,1.27,0,0,1,.28.06c0,.07-.06.18-.09.18A1.43,1.43,0,0,1,218.37,371.1Z"/><path class="cls-1" d="M222.11,372l-.59-.07.49.07Z"/><path class="cls-1" d="M75.08,373.3l.31-.52-.42.48Z"/><path class="cls-1" d="M75,373h0Z"/><path class="cls-1" d="M225.8,373.41c0,.07-.06.19-.1.19a.8.8,0,0,1-.3-.06c0-.07.06-.21.09-.21A1.09,1.09,0,0,1,225.8,373.41Z"/><path class="cls-1" d="M70.54,374.65l.54-.21-.64.13Z"/><polygon class="cls-1" points="60.12 378.21 60.41 378.34 60.1 378.41 60.12 378.21"/><polygon class="cls-1" points="230.6 375.18 230.59 375 230.88 375.08 230.6 375.18"/><path class="cls-1" d="M68.45,375.61l-.66.16.77-.11Z"/><path class="cls-1" d="M65.08,376.75a.9.9,0,0,1-.28.08l-.09-.2a1.4,1.4,0,0,1,.28-.06Z"/><path class="cls-1" d="M62.77,377.57a1.3,1.3,0,0,1-.34.08s-.07-.15-.1-.23a1,1,0,0,1,.34-.07S62.74,377.49,62.77,377.57Z"/><path class="cls-1" d="M287,302.75l-.74.74.08.14.8-.82Z"/><path class="cls-1" d="M286.28,303.49l-.84.88.11.07.81-.81Z"/><path class="cls-1" d="M287.82,302l-.8.82.14.06.8-.81Z"/><path class="cls-1" d="M11.11,306.07l-.3-.07H11Z"/><path class="cls-1" d="M288.75,301.05l-.93.88.14.07.86-.82Z"/><path class="cls-1" d="M254.05,299.61l.84-.84-.12-.08-.81.81Z"/><path class="cls-1" d="M2.12,288.25l-.31.2.42-.1Z"/><path class="cls-1" d="M3.46,285.82l-.87.74.1.07.85-.76Z"/><path class="cls-1" d="M4.45,285.16l-1,.66.08.05,1-.61Z"/><path class="cls-1" d="M293,284.07l.68,1,.11-.07-.62-1Z"/><path class="cls-1" d="M4.49,285.26l.75-.91-.06-.09-.7.9Z"/><path class="cls-1" d="M292.18,283l.85,1h.14l-1-1Z"/><path class="cls-1" d="M292.61,326.42l-.5-1.21-.1.09.51,1.23Z"/><path class="cls-1" d="M5.24,284.35l.9-1-.09-.11-.9,1Z"/><path class="cls-1" d="M289.51,281.72l.67,1.18.06-.1-.63-1.19Z"/><path class="cls-1" d="M291.34,277.28l.06-.11Z"/><path class="cls-1" d="M2.88,275.32l-.7-1.09-.08.1.69,1.09Z"/><polygon class="cls-1" points="2.55 268.43 2.62 268.76 2.52 268.52 2.55 268.43"/><path class="cls-1" d="M293.44,268h.39l-.31-.14Z"/><path class="cls-1" d="M3.81,341.31l-1.06-.58-.12.1,1.28.59Z"/><path class="cls-1" d="M290.67,341.76l.86-.76h-.08l-.88.74Z"/><path class="cls-1" d="M3.91,341.42l-.24.1.14-.21Z"/><path class="cls-1" d="M289.51,342.41l1.16-.66-.1-.06-1.16.62Z"/><path class="cls-1" d="M293.62,268.2l-.88-.73v.11l.85.74Z"/><path class="cls-1" d="M292.74,267.47l-1-.92v.09l1,.94Z"/><path class="cls-1" d="M281.45,266.32l-1,.72.1.08,1.05-.69Z"/><path class="cls-1" d="M5.92,344.8l-.13.08Z"/><path class="cls-1" d="M6.85,345.73l-.93-.93-.13.08,1,1Z"/><polygon class="cls-1" points="291.96 266.55 291.85 266.4 291.91 266.64 291.96 266.55"/><path class="cls-1" d="M19.5,380.89l.28.11H19.6Z"/><path class="cls-1" d="M62.2,185.46l-.27-3.9.63-.12,1.49,3.95,1-1.32,2.68,6v-4.7l.8-.25c.55,1.74,1.12,3.46,1.67,5.18l.53-.06v-3.59l4.1,3.75c-1.61,2.44-3.4,3.15-6.74,2.42-4.37-1-7-4-8.06-9.37l2.21,1.92c.17.69.34,1.39.52,2.08l.13,0-.23-.14Z"/><path class="cls-1" d="M86.74,216.57v-3.82l.86-.32,2.53,4.73.38-.13c-.09-.86-.17-1.71-.34-3.44L93.31,217l2.17-.8L94,213.76l.31-.46L98,215.39c-2.08,5.76-11.13,6.32-16.25.48l2.21.3-.91-3.9.61-.32,3.18,4.65.21-.08Z"/><path class="cls-1" d="M127.08,131.55c5.06-3.69,6.2-4.12,9.89-3.69-.81.71-1.64,1.34-2.37,2.08a27.71,27.71,0,0,0-1.85,2.25l-1.5-1.82-2.07,4,1.26.43-.08-.09a13.57,13.57,0,0,1-3.54.43c-2.56-.34-5.09-1-8.31-1.63l2.18,3.7-.44.44L116,134l11.23-2.58.75,1.06.25-.28Z"/><path class="cls-1" d="M72.18,161.77c.57,2.55,1.13,5.09,1.86,8.34l1-3.9c1.21,2.35,2.11,4.11,3,5.86-6.08,1.63-9.66-1.71-9.46-9.37C70.54,165,70.64,162,72.18,161.77ZM71.74,166h-.2l.07,1h.13Z"/><path class="cls-1" d="M69.24,199.41l2.59,2.15.23.76-.32-.67v-3.48l.69-.13c.33,1.07.6,2.17,1,3.22.68,1.81.82,4,3.21,4.68l-.12-.1c2.45,2,5.13,1.9,7.92.91l-.1.08c.77,1,.77,1,.06,1.42-5.84,3.3-13.56-.26-15-7a9.55,9.55,0,0,1,0-2Z"/><path class="cls-1" d="M83.73,186.26l.79-1.77,2.65,5,.82-.27-.2-2.49,4.06,1.8c-3.78,4.44-8,3.7-13.31-3l2.21.61.44-3.41,2.6,3.48.58,1.8.1.14-.16-.09Z"/><path class="cls-1" d="M95.68,198h4.1l-.09-.27c-2.17,3.14-5.82,3.82-9.23,1.48-1.93-1.49-5.55-4.21-5.55-4.21h3.14l.18.45c0-.09,0-.19,0-.22a1.61,1.61,0,0,0-.28-.17l.36-2.27,2.31,4.11.67-2.6,3.32,3.77-.12-.07h1.19Z"/><path class="cls-1" d="M74.37,175.92l.89-1.4c2,.56,3.79,1.43,4.49,4.56.26-1.62.36-2.23.46-2.88.28,0,.7-.08.74,0,.83,1.78,1.48,3.81,4.54,1.81a4.91,4.91,0,0,1-5.31,3.25c-3.77-.2-5.57-1.84-7.91-7.51L74.52,176h.15Z"/><path class="cls-1" d="M112.68,219l4.74,22.58C113.91,239.57,111.18,227.26,112.68,219Z"/><path class="cls-1" d="M69,149.14c3.6.75-.45,2.93,1.42,4.06l.8-1.35L73,157.16a7.25,7.25,0,0,1-6.68-4.54c-.92-2.47-.31-3.88,3.19-6.6l-.36,3.22-.28.61Z"/><path class="cls-1" d="M75.11,131.15l1.63-1.38v4.79c-4.79-1.7-5.73-3.71-4.81-10.63l2.38-.43a14.94,14.94,0,0,1,1.42,3.66A16.84,16.84,0,0,1,75.11,131.15Z"/><path class="cls-1" d="M115.78,213.27l2,5c-4.83-2.75-6.52-8.71-3.71-14.21.23,2.29.37,3.74.53,5.35l1.74-2.08c.57,2,1,3.74,1.61,5.77l-2.28.21-.2-.8Z"/><path class="cls-1" d="M128.75,258.21l2,4.49-.47.4-3.18-2.5.11.12c-1.75-4.05-4.14-7.92-4.06-12.51l.93-.37,4.75,10.49Z"/><path class="cls-1" d="M62.45,164.66c-1.61,4.66,3.39,6.86,3.86,11l-2.87.46C60.53,172.47,60.35,168.71,62.45,164.66Z"/><path class="cls-1" d="M130.74,170.26c.22.18.39.24.42.35.14.51.25,1,.37,1.57l2.36-2.24c.85,3.06,1.58,5.65,2.3,8.25l-.61.54a23.14,23.14,0,0,1-2.24-1.7,24,24,0,0,0-2.38-2.56C129,173.05,129.3,171.77,130.74,170.26Z"/><path class="cls-1" d="M113.32,189.11c.24,3.94.47,7.55.69,11.23a7.45,7.45,0,0,1-1.38-10.44A7.36,7.36,0,0,1,113.32,189.11Z"/><path class="cls-1" d="M104.43,260.73l2.37.88,1.48-3.42c2.07,1.88,1.25,4-.2,4.39-2.67.78-3.55,3-5.22,4.61a1.82,1.82,0,0,1-1.5.54C102.35,265.49,103.33,263.24,104.43,260.73Z"/><path class="cls-1" d="M134.74,237.27v-2.65l1.19-.19,2.21,4.16c-2.21.6-4,1.12-5.33-.87-1.17-1.74-3.13-3.24-2-6.1a71.57,71.57,0,0,0,4.93,5.56v.27Z"/><path class="cls-1" d="M126.54,208.66A28.06,28.06,0,0,1,131,219.85C129.5,216.12,124.82,213.65,126.54,208.66Z"/><path class="cls-1" d="M97.36,244.26c-4.29.76-6.83-1.81-7.15-7.63Z"/><path class="cls-1" d="M74.18,145c-1.77-1.44-3.15-3.19-2.39-5.46.35-1,1.94-1.66,3.18-2.24C74.18,140,76.18,142.63,74.18,145Z"/><path class="cls-1" d="M119.1,236.05l5,9.06C120.26,243.86,118.18,240.32,119.1,236.05Z"/><path class="cls-1" d="M119,227.45l.81,2.62c-4.06-1.49-5.35-4.94-3.6-8.93,1,2.1,1.92,4.27,2.9,6.43Z"/><path class="cls-1" d="M87.59,230l.61,1.48c-5.09-1.07-6.86-3-6.7-6.64l6.21,5.26Z"/><path class="cls-1" d="M122,227.71c-1.32,2.38-2.3.3-3.4-.26l.11.12v-3.35l2.88-.52c.66,1.38,2.09,2.54.33,4.1l-.75-1.08-.45-.43.54.32Z"/><path class="cls-1" d="M128,240.54,126,243a4.91,4.91,0,0,1-3.35-4.86l4.65,1.63-.13-.09.93.92Z"/><path class="cls-1" d="M78.74,143.4v7.18C75.67,148.48,75.73,146.13,78.74,143.4Z"/><path class="cls-1" d="M104.66,208.28l.6,1.41c-4.12-.25-5.57-2-5.31-6l4.84,4.71Z"/><path class="cls-1" d="M127.79,198.42c-2.29-2.24-1.44-4.9-1-7.5l1-.15,1,7.36Z"/><path class="cls-1" d="M133.74,159.39v7.48a4.36,4.36,0,0,1-.38,1.12C131.13,165.6,131.12,163.66,133.74,159.39Z"/><path class="cls-1" d="M77.65,157.1l2.48,7.6C77.06,163,76.68,162,77.65,157.1Z"/><path class="cls-1" d="M82.18,169.47c1.49,2.13,2.7,3.83,3.84,5.47C82.42,174.46,81.83,173.68,82.18,169.47Z"/><path class="cls-1" d="M137.85,188.54c-3.13-2.27-3.26-2.88-1.49-7.58C136.92,183.84,137.32,185.83,137.85,188.54Z"/><path class="cls-1" d="M119.33,176.6c-.19,2.08-.37,4.17-.57,6.46C116.69,180.87,116.73,180,119.33,176.6Z"/><path class="cls-1" d="M120.5,248.09c1.07,2.43,2.13,4.87,3.2,7.3-2.62-1.67-3.52-4.19-4-6.94Z"/><path class="cls-1" d="M100.62,239.76c-.57.53-1.24,1.59-1.67,1.5-2-.41-2.87-1.85-2.52-4.21l4.31,2.8Z"/><path class="cls-1" d="M139.18,199.18l-.62,1.85c-2.3-2-2.07-4.24-.94-6.76q.82,2.52,1.67,5Z"/><path class="cls-1" d="M128.86,258.33l-.63-3.76.84-.39,3.47,6-.47.64-3.32-2.65Z"/><path class="cls-1" d="M80.89,135.78c-1.37-4.08-1.24-4.47,2.47-6.55-.63,1.4-1.15,2.4-1.54,3.45S81.18,134.7,80.89,135.78Z"/><path class="cls-1" d="M97.72,183c-3.13,1.14-4.2.58-5.53-3Z"/><path class="cls-1" d="M90,229.23c-.3,1.93-1.5.9-2.43.74l.12.1c-.87-1.26-2.27-2.36-1-4.5l3.47,3.77Z"/><path class="cls-1" d="M131.89,198.62c-3-2-3-2.34-.36-5Z"/><path class="cls-1" d="M133.62,255.26l2.7,5.85c-3-1.3-4.09-2.89-3.58-5.42Z"/><path class="cls-1" d="M76.49,206c-1.09-1.68-2.47-3.31-1.07-5.48.67,1.73,3.19,3.13,1,5.38Z"/><path class="cls-1" d="M121.74,179.77v4C119.11,182.36,119.11,182.36,121.74,179.77Z"/><path class="cls-1" d="M104.79,208.39c-.47-1.19-1-2.38-1.43-3.57l.85-.46c1,1.18,1.94,2.35,3.08,3.75l-2.63.17Z"/><path class="cls-1" d="M90.18,229.34l-.87-3.14.93-.57,3.14,4.07-3.32-.47Z"/><path class="cls-1" d="M106.18,224.37l-1.47.84-2.13-3.86.85-.52,2,2.82-.1-.11.94.94Z"/><path class="cls-1" d="M100.74,239.85c-.58-.77-1.17-1.53-1.75-2.29l.64-.69,3.89,2.3-2.9.59Z"/><path class="cls-1" d="M136.34,168.25c-2.55-1.23-2.33-2.67-1.39-4.14l1-.09Z"/><path class="cls-1" d="M81.53,206.2c-2.68-.2-2.82-1.88-3-3.51l.81-.47Z"/><path class="cls-1" d="M135.64,199c-3-1.06-3.08-2.33-1.43-4.21Z"/><path class="cls-1" d="M138.4,174.92l.21,2.51c-2.59-1.24-3-2.59-1.6-4.73l1.48,2.35Z"/><path class="cls-1" d="M128.18,226.79l-2.08-3.54,1.08-.63,2,3.56Z"/><path class="cls-1" d="M119.59,201.89c-2.75-1-2.38-2.32-1.06-4C118.84,199.08,119.18,200.22,119.59,201.89Z"/><path class="cls-1" d="M78,238.16l-.84.82-3.25-2,.68-1.1Z"/><path class="cls-1" d="M128.73,218.22l1.59,4.24C127.87,221.09,127.87,221.09,128.73,218.22Z"/><path class="cls-1" d="M128.83,185.61c-2.42-1.2-1.8-2.74-.09-4.39v4.48Z"/><path class="cls-1" d="M133.82,214c-.43-1.07-.85-2.15-1.27-3.22l1.09-.5,1.59,3.08Z"/><path class="cls-1" d="M127.28,239.79c-.49-1.3-1-2.61-1.75-4.68,3.37,3.13,3.47,3.41,2.44,5.43l.11.08-.93-.92Z"/><path class="cls-1" d="M135.26,264.17l3.61,1.64C136.87,267.41,136.87,267.41,135.26,264.17Z"/><path class="cls-1" d="M138.49,175.05c1.47-2.72,2.17-1.2,2.56,1.11l-2.65-1.24Z"/><path class="cls-1" d="M93.18,225.64l2.41,2.3-.64.77-2.69-2.08Z"/><path class="cls-1" d="M130.58,210.84c.53,1.09,1.07,2.17,1.85,3.75C130,213.44,130,213.44,130.58,210.84Z"/><path class="cls-1" d="M119.18,208l1.15,2.78-1,.45-1.22-2.75Z"/><path class="cls-1" d="M131.33,189.69l.28-3.93,1,.08c-.23,1.3-.47,2.6-.7,3.9Z"/><path class="cls-1" d="M138.59,157.05l-1.1-3.15.69-.28c.74,1,1.49,2,2.54,3.38H138.5Z"/><path class="cls-1" d="M59.26,204.16l-1.52,1.64.09.07-1.19-3.37,2.74,1.78Z"/><path class="cls-1" d="M137.85,257.08l2,2.87-.75.61-2.29-2.66Z"/><path class="cls-1" d="M139.31,199.32l.24-1.91.72-.26c.54,1.08,1.08,2.15,1.61,3.23l-.59.41-2.11-1.61Z"/><path class="cls-1" d="M115.9,268.92c1-2.16,1.92-1.79,3.28-.16Z"/><path class="cls-1" d="M105,238.15l-2.29-1.47.47-.7,2.4,1.18Z"/><path class="cls-1" d="M139.83,186.15l.95,2.41-1,.49-1.34-2.34Z"/><path class="cls-1" d="M139.09,192.63l-.33-2.67,1-.13c.11,1,.21,1.94.32,2.91Z"/><path class="cls-1" d="M84.29,206.75,82,204.41c2.24.35,2.24.35,2.24,2.42Z"/><path class="cls-1" d="M109.64,245.62l1.45-4.13-.11-.1-1.44,4.14Z"/><path class="cls-1" d="M103.05,186.76l1.86,3.09-.36.37a5,5,0,0,1-1.18-1.07A9.18,9.18,0,0,1,103.05,186.76Z"/><path class="cls-1" d="M101.4,190.42l-2.22-2.69,1-.57,1.19,3.35Z"/><path class="cls-1" d="M115.91,197.48l.63,3.17-1,.2c-.23-1.13-.45-2.26-.67-3.4Z"/><path class="cls-1" d="M110.18,260l.73-2.23.77.19-.42,2.38Z"/><path class="cls-1" d="M105.44,223.65l.75-1.55,1.39,1.54-1.41.73.11.11-.94-.94Z"/><path class="cls-1" d="M124.29,183.43l.41,2.47-1,.17c-.15-.82-.31-1.64-.46-2.46Z"/><path class="cls-1" d="M138.18,168.63l-.91-2.45.93-.41,1.09,2.42Z"/><path class="cls-1" d="M61.78,205l-2.52-.81.12.12L60,202l1.65,3Z"/><path class="cls-1" d="M74.63,117c1.52.81,1.52.81.11,2.77v-2.88Z"/><path class="cls-1" d="M88.8,248.24l2,2.42-2.92-1,.94-1.41Z"/><path class="cls-1" d="M128.8,234.71l1,2.37-.5.39c-.35-.36-.83-.67-1-1.1a4.61,4.61,0,0,1-.15-1.48Z"/><path class="cls-1" d="M97,227l-1.15-1.53.48-.44,1.47,1.37Z"/><path class="cls-1" d="M67.7,172.85l.76,1.58-.61.3-.78-1.57Z"/><path class="cls-1" d="M130.55,138.13l1.88-1.63.46.91-2.41.62Z"/><path class="cls-1" d="M106.73,204.64l1.58,1.28-.43.64-1.75-1.1Z"/><path class="cls-1" d="M128.68,138.65c-1.34,1.36-2.13,0-3.09-.6l-.11.1,3.31.61Z"/><path class="cls-1" d="M95,198.06l-1.08-2.2.83-.35,1,2.58.1-.09h-1Z"/><path class="cls-1" d="M127.18,173.85l.35,1.5-.56.19-.63-1.42Z"/><path class="cls-1" d="M113.32,132.88c-1,1.51-2,1.38-3,0l-.1.12h3.26Z"/><path class="cls-1" d="M130.44,134.76l.84-1.9.87,1-1.79.76Z"/><path class="cls-1" d="M106.26,187.56l.79.92a1.7,1.7,0,0,1-.24.22c-.33-.24-.63-.5-.94-.76Z"/><path class="cls-1" d="M81.56,232.68l1,.67a7.68,7.68,0,0,1-.82-.11C81.73,233.23,81.7,233.05,81.56,232.68Z"/><path class="cls-1" d="M119,244.43c-.59.28-.93.59-1.18.53s-.47-.49-.56-.79c0-.13.31-.55.4-.53A7.15,7.15,0,0,1,119,244.43Z"/><path class="cls-1" d="M89.06,248.29l2.68-.34v.83L89,248.24Z"/><path class="cls-1" d="M137.55,211.42c.21-.07.52-.27.63-.19a2.47,2.47,0,0,1,.32.67c-.22.07-.53.28-.64.2A2.18,2.18,0,0,1,137.55,211.42Z"/><path class="cls-1" d="M72.34,216.34l-1.29-1,.49-.38.7,1.46Z"/><path class="cls-1" d="M128.79,138.76l1.76-.63-.07-.1-1.8.62Z"/><path class="cls-1" d="M59.32,191.53a3.08,3.08,0,0,1-.61.06.47.47,0,0,1-.11-.34,2.55,2.55,0,0,1,.47-.4A6.22,6.22,0,0,1,59.32,191.53Z"/><path class="cls-1" d="M130.76,184.46a2.7,2.7,0,0,1-.08-.41.32.32,0,0,0,.21-.08Z"/><path class="cls-1" d="M102,192h.65l-.53-.12Z"/><path class="cls-1" d="M113.31,133h1l-1,.45.12.12a.75.75,0,0,0,0-.71Z"/><path class="cls-1" d="M111.09,241.49c.09-.29.17-.58,0-.13.51-.12.18,0-.15,0Z"/><polygon class="cls-1" points="122.74 136.54 122.85 136.8 122.59 136.78 122.74 136.54"/><path class="cls-1" d="M125.59,138.05l-.19-.28.08.38Z"/><polygon class="cls-1" points="69.19 199.3 68.93 199.25 69.09 199.41 69.19 199.3"/><polygon class="cls-1" points="65.45 288.46 65.54 288.73 65.29 288.71 65.45 288.46"/><path class="cls-1" d="M113.41,132.42l-.67-1-.08.08.65,1Z"/><path class="cls-1" d="M111.66,130.9l1,.64.08-.08-1-.66Z"/><path class="cls-1" d="M111.77,130.8l-.33-.52.22.62Z"/><path class="cls-1" d="M99.78,197.81l.28-.37c0,.07,0,.19-.06.22a.81.81,0,0,1-.31.06Z"/><path class="cls-1" d="M79.66,253.39l-.5-.21c.09,0,.22-.07.26,0a1.06,1.06,0,0,1,.16.34Z"/><path class="cls-1" d="M81.34,251.72l-.54-.08c.07,0,.17-.09.21-.06a.82.82,0,0,1,.24.25Z"/><polygon class="cls-1" points="49.7 247.13 49.74 246.98 49.61 247.03 49.7 247.13"/><path class="cls-1" d="M128.54,232.89l.66-.17-.7.07Z"/><polygon class="cls-1" points="128.5 232.79 128.62 232.63 128.54 232.89 128.5 232.79"/><path class="cls-1" d="M128.7,185.7l.09-.09Z"/><path class="cls-1" d="M61.68,205.07l.35.09-.25-.18Z"/><path class="cls-1" d="M102.18,191.38l-.73-1-.1.09.71,1Z"/><path class="cls-1" d="M179.87,13h4.87V25h13V13h4V26.45c0,4.48.21,9,.32,13.55h-5.32V27h-12V40h-4.61C180.67,31,180.94,22,179.87,13Z"/><path class="cls-1" d="M95.65,40.92c-7.75,0-13-5.83-13-14.22,0-8,5.57-13.87,13-13.88,7.63,0,13.1,6,13,14.27C108.62,35.16,103.18,41,95.65,40.92ZM105.18,27c-1-3.13-1.54-6.56-3.16-9.34-3-5.1-9.73-4.93-13,0s-3.09,14.05.25,18.79,10.06,4.83,13-.39C103.7,33.41,104.18,30.26,105.18,27Z"/><path class="cls-1" d="M63.74,39.78V34.24c.9,1.17,1.54,2.09,2.27,2.95a6.63,6.63,0,0,0,6,2.36c3.94-.44,5.73-4.07,3.45-7.23a17.38,17.38,0,0,0-4.19-3.6c-1.71-1.22-3.69-2.1-5.33-3.41-2.87-2.27-3.53-5-2.26-8.09s3.77-4.47,7.35-4.16c2.16.18,4.31.63,6.69,1v5.17c-.75-1-1.31-1.91-2-2.69-1.51-1.71-3.48-2.69-5.67-2.11-1.37.37-3.11,1.34-3.6,2.5a5,5,0,0,0,.86,4.22c1.09,1.38,3,2.19,4.44,3.23a49.89,49.89,0,0,1,5.58,3.75,6.73,6.73,0,0,1,2,7.88,7,7,0,0,1-6.73,4.68,27.53,27.53,0,0,1-4.35-.34C67,40.18,65.55,40,63.74,39.78Z"/><path class="cls-1" d="M16.65,40C22.05,40,27.17,41.49,32,37.16L30.78,41H12.37c1.1-8.8.15-17.82,0-27H29.54l.51,2.88c-4.37-3.13-8.76-2-13.31-1.74V25.8c3.78.74,7.38,1,11-1.16v3.9c-3.42-2.27-7.09-1.25-11-1.21Z"/><path class="cls-1" d="M220.31,12.08,232.6,39h-6.42c1.71-2.2-.33-4.71-1.59-7.31-.29-.6-1.57-1-2.42-1-2.66-.12-5.34,0-8,0-1.27,3.21-3.87,5.63-2.28,9.31h-3.56Zm-6,17.92h9.51c-1.6-3.74-3-7-4.4-10.25l-.89.19Z"/><path class="cls-1" d="M117.74,25.34l10-.72V26.4l-10-.49V40h-4.55c1.4-8.81.44-17.71.36-27h17.88l.3,3c-4.43-3.69-9.19-1.66-14-2.14Z"/><path class="cls-1" d="M140.74,14.16V25.7L151.18,25l.2,2.32c-1.87-.29-3.5-.64-5.16-.77s-3.39,0-4.48,0V41h-5.56c1.25-9.49.72-18.66-.11-28h18.58l.76,3.24C150.54,12.61,145.65,14.46,140.74,14.16Z"/><path class="cls-1" d="M35.74,14h5c-.21,2.62-.55,5.14-.56,7.66,0,4,.1,8.07.33,12.09s2.8,6.35,6.73,6.73,8.2-1.79,8.78-5c1.27-7,.94-14.14.06-21.43a5.21,5.21,0,0,1,1.1-.21,10.7,10.7,0,0,1,1.6.15l-.14.77a28.49,28.49,0,0,0-.77,4.3c-.13,4.7,0,9.42-.18,14.12-.17,4.52-2.44,7.4-6.86,8.22a19.39,19.39,0,0,1-7.55-.2c-4.24-.94-6.34-3.74-6.52-8.07s-.09-8.88-.26-13.31C36.43,17.89,36,16,35.74,14Z"/><path class="cls-1" d="M281.88,35.47c-.46,1.11-.93,2.21-1.48,3.53h-17c0-4.59.11-9.07,0-13.53s.73-8.94-.82-13.47h5.13V37.56c4.36.27,8.54,1.28,12.41-1.48a5.9,5.9,0,0,1,1.76-.54Z"/><path class="cls-1" d="M257.81,34.82l-.6,4.18H238.9c1.72-3.47,1.88-22.51,0-27h5.93a25.09,25.09,0,0,0-.84,4.38c-.11,5.92-.11,11.94,0,17.91,0,3.26.43,3.54,3.74,3.7,3.79.18,7.44-.07,10.28-3.07Z"/><path class="cls-1" d="M258,35.4l.34-.7-.44.6Z"/><path class="cls-1" d="M281.74,35.82v-.39a1.77,1.77,0,0,0,.05.32Z"/><path class="cls-1" d="M217.68,70.58A14.44,14.44,0,0,1,230,67.5c7.84,1.39,15.74,2.46,23.62,3.67a8.86,8.86,0,0,1,1.55.31c3.73,1.2,7.45,2.44,11.88,3.89.17,1.74.42,4.22.7,7,1.73-1.55,3.49-3.43,5.93-1.84a50.18,50.18,0,0,1,5.41,4,3.3,3.3,0,0,1,.63,2.25c0,3.75-3.43,4.47-5.66,6-1.65,1.18-3.58.27-4.74-1.6-.12-.18-.45-.22-1.17-.56.55,7.25,1.06,14.23,1.6,21.43,3.74-4.15,4.69-4.14,9.14-1,2,1.39,4.23,2.37,4,5.34a7.4,7.4,0,0,1-.21,2c-1.5,4.37-7.68,6.43-12.22,3.53.45,7.18.87,13.93,1.32,21.23,1.18-1.41,1.84-2.6,2.83-3.26s2.51-1.12,3.22-.7a31.39,31.39,0,0,1,6.55,5,4.39,4.39,0,0,1,.72,4,32.58,32.58,0,0,1-4.79,5.62c-1.71,1.81-3.37,1.88-7.37.36.27,3.71.54,7.23.82,11.18-1.59.13-3,.38-4.37.35-13.44-.3-26.89-.69-40.33-.92-2.76,0-5.53.64-8.3.66a56.54,56.54,0,0,1-6.62-.73,38.22,38.22,0,0,0-5.45-.51c-12.24.43-24.47.95-36.71,1.45-2.52.11-5.05.42-7.57.43-3.08,0-3.47-.54-3.21-3.52s.44-5.81.71-9.67l-6.85,3.35-4.22-8.66,5.08-8.79,7.16,3.62,2.23-20.64c-3-1.33-4.72.88-7.2,2.64L156,118.57l-3.68-3.16c1.72-1.63,3.62-2.72,4.34-4.33.82-1.82,1.11-3.79,3.24-5,1.73,1.75,3,4.32,6.73,3.62l1.61-17.79-.92-.64-6.23,3c-1.25-2.6-2.6-5.26-3.79-8-.2-.44.12-1.63.46-1.75,2.68-.92,3.24-3.67,4.95-5.46.14-.16.49-.12.53-.13l4.53,3.62c3.07-2.54.93-6.2,3.27-8.84.76-.06,1.92-.13,3.07-.24s2.68.16,3.52-.46c3.43-2.55,7.4-1.59,11.14-2.17,5.11-.8,10.1-2.27,15.19-3.16a27.31,27.31,0,0,1,7.87-.31c1.5.17,2.88,1.47,4.31,2.27l.1-.11c-4-.9-7.92-2-12.05-.76-6.84,2.1-13.78,3.73-21,3.37-.21,0-.44.25-.94.55-.19.93-.45,2.08-.63,3.24q-1.1,7.23-2.15,14.46c.19-5.14.4-10.29.6-15.44h-.64l-1.62,9.58v-9.2a29.25,29.25,0,0,0-2.25,5.75l.25.09V76.89c-.93.35-1.33.78-1.37,1.24-.41,4.68-.74,9.36-1.11,14s-2.17,9.22-1.52,14a12.69,12.69,0,0,1-.35,3.19c-.41,3.46-.88,6.91-1.21,10.38-.67,7.08-1.27,14.16-1.9,21.24l-.67,7.06h1.13v-7.08c.26-.44.71-.87.77-1.33.88-8,1.69-15.92,2.55-23.8.35-3.17.75-6.32,1.13-9.48l.86.11q-1,10.86-2,21.73l-2.31,20.53a10.61,10.61,0,0,0,1.22-4.26c.39-5.46.69-10.95,1-16.36.34-1.21.76-2.39,1-3.6.62-3.28,1.16-6.56,1.73-9.84q-1.14,14.28-2.25,28.54c1.11-6.3,2.05-12.6,2.76-18.9,1-8.6,1.67-17.24,2.64-25.88.31-2.71,1.12-5.38,1.7-8.07-.6,6.1-1.14,12.2-1.79,18.29-.94,8.88-2,17.75-2.92,26.63-.48,4.58-.83,9.17-1.27,14.16a45.41,45.41,0,0,0,4.95,0c7.48-.87,14.93-2,22.42-2.72,4.63-.47,9.2-.11,12.87,3.39a30.18,30.18,0,0,0-15.92-2.2Q186.39,149.36,175,151c-.43.06-.81.64-1.71,1.4,8.13.2,15.51.14,22.87-1.22,6.1-1.12,12.14-1.11,17.75,2.25.67.4,1.66.24,3.29.43L213.56,150l4.18,1.57V70.51Zm8.76,85.12-2.13.83.26.43,1.78-1.35,1.47-.14-.12-.34Zm-15.34,1.72,1.63.71.13-.46-1.86-.15-4.82-1.61c-1.25-.32-2.51-1-3.73-.9-4.45.3-8.87.85-13.31,1.3l-19.4.66c5.61.22,11.21.26,16.8.18a8.21,8.21,0,0,0,2.5-.89c1.88,0,3.75,0,5.62-.1l11.61-.34Zm13.77-4.21a15.85,15.85,0,0,0,2.65.4c3.2,0,6.45-.61,9.58-.18a146,146,0,0,0,24,1.26,18.78,18.78,0,0,0,2.37-.34,6.89,6.89,0,0,0-3.61-.86c-7.5,0-15,0-22.41-1.36-4-.71-8.56-1.4-12.51,1.18l-2,1.11.71.82Zm35.67-77.1-.18-.11h.27c.28,5.21.49,10.44.84,15.65q.79,11.43,1.74,22.87c.74,8.94,1.53,17.87,2.31,26.81.36,4.13.76,8.27,1.15,12.4.08-7.26-.29-14.47-.87-21.65-.64-7.89-1.58-15.75-2.21-23.63-.69-8.56-1.12-17.14-1.78-25.7A60.25,60.25,0,0,0,260.54,76.11ZM221.3,153h.93c2.67-1,5.3-2.46,8-2.72a51.57,51.57,0,0,1,11,.6c7,.89,14.06.56,22,.46-1.2-1-1.58-1.56-2-1.56-12.53.21-25-2.75-37.55-.77,1.86-.64,3.72-1.82,5.58-1.83,5.29,0,10.61.29,15.89.72,5.67.46,11.31.38,17.15.31-.61-8.57-1.17-16.55-1.74-24.53l-.07.08a23.77,23.77,0,0,1,1.19,4.13c.7,7,1.26,14.08,1.88,21.11H263q-.57-9.72-1.15-19.44l.75-.06,1.89,21.43.71-.08q-3.17-37.92-6.3-75.85h-.23c-.18.91-.35,1.83-.62,3.25l-.93-2.49-.42.1,1,16.14h-.67c-.63-6.74-1.26-13.5-1.88-20.11-6.55-1.06-12.73-2.08-19-3-2.78-.42-5.57-.82-8.38-1-6.56-.5-9.09,1.82-9.1,8.24v74.91l2.63-.42c0,.71,0,1.54-.07,2.37Zm51.63,9c-2.23-29.5-3.72-58.57-6.62-87.68-3,.21-2.32,1.92-2.23,3.24C265,90,266,102.48,266.94,114.92c.75,9.48,1.59,19,2.37,28.45.44,5.31.83,10.63,1.29,16.63H226.74v.88ZM172.78,75c-2-.79-2,.65-2.16,2-1.26,12-2.59,24-3.81,36.07-1.49,14.7-2.89,29.42-4.34,44.13-.18,1.81-.4,3.62-.66,5.92l39.93-1.5v-.56l-37.23-.77c2.82-28.65,5.54-56.76,8.31-85.29Zm-1.9,79.52.12,1c7.47-.21,15,.54,22.38-1.25,4.75-1.14,9.52-1.48,14.27.07l5.9,2,.43-.86c-1-.65-2.06-1.38-3.16-1.95-4.26-2.2-8.93-2.25-13.37-1.38a112,112,0,0,1-23.18,2.13c-1.09,0-2.22.17-3.35.26ZM264.74,157V156c-5.44,0-10.89.23-16.31-.06s-10.58-1.08-15.86-1.65A104.63,104.63,0,0,0,264.75,157Zm-45.64-1.88c.27,2.34.45,3.77.64,5.42,2.93-1.69,2.89-2.16-.63-5.4ZM274.34,118c1-.83,1.66-1.09,1.71-1.43a3.72,3.72,0,0,0-.45-1.53H275Zm-9.6-19h-1V95h1Zm13.1,49.83c.39-.75.76-1.15.68-1.38-.14-.39-.57-.67-.87-1-.25.23-.71.48-.7.7,0,.39.37.74.9,1.7ZM266.74,129h-1v-3h1Zm-1-14h-1v3h1Zm0-7h-1v-3h1Zm-95,41h0v-2h0Zm-4,3h0v3h0Zm106-64.2.75-1a3.56,3.56,0,0,0-.87-.55c-.09,0-.48.36-.45.51A4.22,4.22,0,0,0,272.78,87.8Zm-9-2.8h0v2h0Zm-16.92,73,.07.35,1.85-.11V158Zm20.92-20h-1v-2h1Zm.24,11h-.24v-2H268Zm-5.24-72h-1v1h1Zm-20.37,80.57-.06.26,1.83-.09Zm-55.9.88.08.15.28-.07Zm11.12-1.58.57.09Zm4.58.1-.31-.13-.05.14Zm64.16,1.53.31.13.05-.14Z"/><path class="cls-1" d="M216,69.36l1.66.78.06-.07-1.62-.82Z"/><path class="cls-1" d="M32,127.53l-1.71-.83c-.6-3,0-5.7,2.78-8.5C32.61,121.79,32.28,124.66,32,127.53Z"/><path class="cls-1" d="M113.44,298.82c-.38-2.95-.38-2.95-3.4-5.61l5.34,1.86c.36-.84.82-1.88,1.54-3.52l-3.38-3.48a24.69,24.69,0,0,0,3.3,1.73,7.13,7.13,0,0,0,2.35,0Z"/><path class="cls-1" d="M121.61,306.86l-1.71,1.67c.63-3.68-1.46-5.57-5-6.68,3.71-1.79,4.9,1.13,6.76,2.52Z"/><path class="cls-1" d="M124,298.69c-.57,1.39-1.14,2.79-1.72,4.18.57-3.48-1.5-5-5.11-5.89,2.24-.76,3.6-.7,4.89.61A7.77,7.77,0,0,0,124,298.69Z"/><path class="cls-1" d="M119.08,290c.3-.6.6-1.2.91-1.79C119.68,288.74,119.38,289.34,119.08,290Z"/><path class="cls-1" d="M112.63,300.45l.91-1.79Z"/><path class="cls-1" d="M122.42,302.71l-.92,1.78Z"/><path class="cls-1" d="M103.37,301.76c3.09-.62,4.21.83,4.34,3.42Z"/><path class="cls-1" d="M145.83,325.69l.76-3.53c3.86,2.95,2.36,8.91,7.62,11.06.6-4,1.12-7.33,1.68-11.06,4,1.28,3.72,5.89,6.65,8.36l1.65-6.52,1.18.32a37.94,37.94,0,0,1-3.19,10.93q-2.37-4.17-4.78-8.34l-.74.09-1.42,7h-5.39c-1.19-1.47-.91-4.73-3.68-3.88-1.54.47-2.64,2.36-4.39,4,.5-2.92,1.32-5.08,3.25-6.73l-.1-.08,1.74,1.5.82-.83-1.73-2.31Z"/><path class="cls-1" d="M226.49,348.14c1.75-.6,2.46.17,2.66,1.87.23,2,.6,4,.91,6,3.41-.53,3.84-6.55,8.21-4.79-1.3,3.82-2.51,7.41-3.82,11.25l-2.53-.82,2.3-6.09-.4-.28-5.42,5.23c-.56-3.09-1-5.49-1.55-8.51-.8,2.77-1.45,5-2.15,7.39l-1.44-.66c1.14-3.63,2.23-7.15,3.33-10.66Z"/><path class="cls-1" d="M165.65,336.34c1.11-3.54,2.21-7.1,3.47-11.15,3.34,1.19,7.22,1.13,8.67,5.34a5.66,5.66,0,0,1-1.73,6.21C173.63,339.09,170.72,339,165.65,336.34Zm5.42-9-2.67,8.55c4.08,1.1,5.91.38,6.83-2.39C176.26,330.44,175.18,328.65,171.07,327.34Z"/><path class="cls-1" d="M198.18,349.22,196.09,348c.49-1.55.92-2.92,1.48-4.66l-3.95-1.66-2.06,4.79-2.27-1c1.47-3.64,2.87-7.07,4.38-10.78l2.43.79c-.62,1.47-1.17,2.74-1.95,4.54l4,1.64c.84-1.62,1.51-2.88,2.26-4.32l2.08.8Z"/><path class="cls-1" d="M221.24,357.91c-4.06-.88-2.68-4.74-5-6.74l-1.53,4.33-2.71-.9,4.42-11c2.36.85,5.16.91,6.18,3.75.92,2.55-1.31,3.44-3,4.65C220.09,353.8,220.58,355.56,221.24,357.91Zm-4.24-9.1.58.73c.87-.43,2.12-.63,2.54-1.33.82-1.37-.08-2.12-1.82-2.32-.43,1-.87,1.94-1.3,2.92Z"/><path class="cls-1" d="M249.6,358.78c0,3.65-2.49,6.39-5.79,6.43a6.1,6.1,0,0,1-5.95-6.23v-.05a6.39,6.39,0,0,1,6.21-6.16C247.4,352.76,249.62,355.18,249.6,358.78Zm-1.53-.64c-1.27-1.47-2-3-3.22-3.59-1.84-.83-2.95.71-3.6,2.29-.85,2-1.51,4.21.17,6.05.55.6,2.4,1,2.75.63a46.61,46.61,0,0,0,3.9-5.38Z"/><path class="cls-1" d="M48,368.13l-2.64,1-3-3.59c-2.47.64-1.34,4.28-4.62,4.35l2.93-6.1-4.57-5,2.71-1.22,2.74,3.33c2.75-.07.68-4.64,4.28-3.91-.78,2-2.36,4-2,5.72S46.24,366,48,368.13Z"/><path class="cls-1" d="M99.82,348.84l-4.64-10.68c3.6-1.55,6.1,2.85,10,2.91l-2.33-5.83c1.76.35,4.2,5.07,5.23,10.35L97.92,341l3.54,7.58-1.74.24Z"/><path class="cls-1" d="M258.52,362.48c.61-2.25,1.17-4.34,1.77-6.43a8.27,8.27,0,0,1,1,.12q-1,5.47-1.9,10.91l-.8.27c-1.86-2.81-3.71-5.62-5.59-8.48-1.57,2.42-.53,5.63-2.76,7.69l1.16-12.13C255.65,355.1,255.49,360.31,258.52,362.48Z"/><path class="cls-1" d="M123.64,338.1l4.87-2.09c-.29,2.33-.92,2.7-6.94,3.86l-3.82-10.75c5.07-2.64,5.29-2.68,8-1.21a21.71,21.71,0,0,0-2.89.35c-1.5.41-2.39,1.39-1.71,3s1.86,1.13,3,.41l1.37-.91.86,1.93-3.87,1.44Z"/><path class="cls-1" d="M30,369l4.89-.71c-1.26,2.21-3.13,2.68-8.18,1.88V359c2.91-1.05,4.34-1,7.35.4l-5,.28c-.28,3.24-.28,3.24,4.11,3.91C32.58,365.67,27.22,364.36,30,369Z"/><path class="cls-1" d="M65.9,357.62,62.26,359c.37,1.25.73,2.44,1.21,4.08l5.16-1.84c-1,2.11-1.46,2.36-7.16,3.59-1.21-3.56-2.44-7.16-3.79-11.1,1.89-.63,3.86-1.35,5.87-1.87.35-.09.92.68,1.38,1.06l.08-.09-4.29,1.26.93,3.51L65.88,356l-.08,1.66Z"/><path class="cls-1" d="M88.36,341.47c.34,1.19.34,2.87,1.12,3.41s2.29-.25,3.88-.52l.74,1.26L90,347.23l1.86,3.95,5-2.85c0,2.39-1.46,3.37-7,4.72-1.49-3.39-3-6.78-4.69-10.69l3.31-.79Z"/><path class="cls-1" d="M265.68,356.05l3.09,5.47,3.54-5.69c1.53,2-.34,2.83-.82,3.94s-1.48,2.32-1.76,3.58a22.58,22.58,0,0,0-.08,4.65h-3c1.52-4.61-1.45-7.7-3.88-11.37Z"/><path class="cls-1" d="M209.74,340.82v12.62l-2.52-.58c0-1.35.42-2.83-.12-3.76s-2-.92-3-1.3l-3.26,3C201.2,348.16,205.2,343.68,209.74,340.82Zm-2,5.18c-.38-.32-.65-.72-.92-.73s-.56.39-.84.61c.28.29.53.68.88.82.13.06.49-.39.86-.7Z"/><path class="cls-1" d="M80.34,356.81c-1.18-3.36-2.35-6.73-3.65-10.45l2-1.14,4.09,9.85,4.65-2.62c-.07,2.63-2.54,4.15-7.16,4.27Z"/><path class="cls-1" d="M71.49,360.91c-1.39-3.41-2.78-6.83-4.31-10.57l2.7-.63-.1-.1c1.18,3.09,2.35,6.18,3.73,9.8L79,356.07c-.37,1.12-.43,2.41-.94,2.62-2.14.88-4.41,1.45-6.64,2.14Z"/><path class="cls-1" d="M111.69,331.69a17.11,17.11,0,0,0-1.25,2.45,6.19,6.19,0,0,0,1.91,6.52c1.84,1.33,3.48,1,6.31-1.35-.89,2.76-2.8,4.19-5.28,3.94a6.69,6.69,0,0,1-5.59-5c-.56-2.69.91-5.05,4-6.41Z"/><path class="cls-1" d="M56.09,365.79c-3.14,2-6.34,1.53-8.1-1.23-2-3.16-1-6.52,2.44-8.49l-.08-.09c-.37,1.64-1.17,3.31-1,4.9.29,3.48,2,4.53,6.87,5Z"/><path class="cls-1" d="M50.43,356.07l5.24-1.73.86,2.65-6.18-1Z"/><path class="cls-1" d="M88.43,341.57c1.06-1.59,2.34-2.33,4.24-.52l-4.31.42Z"/><path class="cls-1" d="M111.77,331.79c1.73-.88,3.56-2.38,5.1,1l-5.18-1.11Z"/><path class="cls-1" d="M145,327.07l.81-1.65-.08-.07c-.27.55-.55,1.09-.83,1.64Z"/><polygon class="cls-1" points="226.59 348.05 226.47 347.92 226.49 348.14 226.59 348.05"/><polygon class="cls-1" points="69.88 349.71 69.99 349.52 69.78 349.61 69.88 349.71"/><polygon class="cls-1" points="99.72 348.75 99.66 348.92 99.82 348.84 99.72 348.75"/><path class="cls-1" d="M64.93,352.81l.39.19h-.2a1.28,1.28,0,0,1-.11-.27Z"/><polygon class="cls-1" points="80.25 356.72 80.27 356.94 80.34 356.81 80.25 356.72"/><polygon class="cls-1" points="65.8 357.71 65.96 357.89 65.9 357.62 65.8 357.71"/><polygon class="cls-1" points="71.39 360.83 71.38 361.08 71.49 360.91 71.39 360.83"/><path class="cls-1" d="M57,365l.08-.35-.18.25Z"/><path class="cls-1" d="M56.18,365.89,57,365l-.1-.1-.85.85Z"/><path class="cls-1" d="M260.38,102l1.95,24.94-.89.06q-1-12.44-2.06-24.88Z"/><path class="cls-1" d="M259.07,98.58q-.63-8.67-1.28-17.34l.82-.08c.31,2.87.74,5.74.89,8.61s0,5.83,0,8.74Z"/><path class="cls-1" d="M259.49,124.43q-.84-9.27-1.66-18.54l-.06.09c.34.37,1,.73,1,1.12.28,5.8.47,11.61.68,17.41Z"/><path class="cls-1" d="M257.83,105.55,257.29,97h1q-.24,4.32-.49,8.64Z"/><path class="cls-1" d="M223.4,149.21,220.82,151Z"/><path class="cls-1" d="M177.31,84.55c-.25,4.35-.47,8.7-.79,13a10.46,10.46,0,0,1-.88,2.5Z"/><path class="cls-1" d="M175.7,99.9c-.28,4.48-.54,9-.88,13.45,0,.44-.52.85-.8,1.28Z"/><path class="cls-1" d="M175,89.62Q174.5,96.29,174,103l-.81-.08c-.16-4.46,0-8.89,1.82-13.16Z"/><path class="cls-1" d="M175.43,81.13,175,89.62l.09.1.45-8.5Z"/></g></g></g></g></svg>