<svg xmlns="http://www.w3.org/2000/svg" viewBox="0 0 399.98 99.75"><defs><style>.cls-1{fill:#f3f4f6;}</style></defs><g id="Layer_2" data-name="Layer 2"><g id="Layer_1-2" data-name="Layer 1"><g id="Layer_2-2" data-name="Layer 2"><g id="Layer_1-2-2" data-name="Layer 1-2"><g id="Layer_2-2-2" data-name="Layer 2-2"><g id="Layer_1-2-2-2" data-name="Layer 1-2-2"><g id="Layer_2-2-2-2" data-name="Layer 2-2-2"><g id="Layer_1-2-2-2-2" data-name="Layer 1-2-2-2"><path class="cls-1" d="M51,9.65c-10.07.1-18.28,2.36-25.68,7.24A31.87,31.87,0,0,0,11.6,34.37a35.74,35.74,0,0,0-.68,18.36A42.16,42.16,0,0,0,19.6,70.91c1.18,1.37,2.46,2.64,3.77,3.9l.68.67a4.53,4.53,0,0,1,1.39,5c-.68,2.36-1.39,4.68-2,7V88a.8.8,0,0,0,.5-.11,29.31,29.31,0,0,0,9.57-5,4.62,4.62,0,0,1,6.44.49,7.36,7.36,0,0,1,.89,1.48,4.16,4.16,0,0,1-1.39,4.5,34.86,34.86,0,0,1-9.11,5.27A55.11,55.11,0,0,1,17.9,98.3a13.28,13.28,0,0,1-3.56.1A2.62,2.62,0,0,1,12,95.66a.84.84,0,0,1,.1-.49c.68-2.85,1.57-5.66,2.39-8.51.49-1.87,1-3.73,1.56-5.56a.91.91,0,0,0-.21-.88A50,50,0,0,1,2.07,53.61a46.85,46.85,0,0,1-.78-11.82A39.72,39.72,0,0,1,11.35,17.46,47.71,47.71,0,0,1,31.59,4.16,53.81,53.81,0,0,1,51.15,1c12.16.39,23.12,4.12,32.4,11.82a39.52,39.52,0,0,1,14,22.26c2.66,12.31,0,23.45-8.29,33.13A35.86,35.86,0,0,1,66.84,80.54a42.91,42.91,0,0,1-33.29-7.91,34.27,34.27,0,0,1-13.73-21,28.84,28.84,0,0,1,.1-14,20.72,20.72,0,0,1,10-13.09c6.61-3.72,13.12-3,19.27,1.38.5.38.79.28,1.28,0a17.38,17.38,0,0,1,22.13.66,20.7,20.7,0,0,1,7.61,14.07c.78,7.24-1.28,13.47-6.83,18.46a21.29,21.29,0,0,1-9.67,5.17C60.65,65,58,62.91,58.16,60a4.21,4.21,0,0,1,2.56-3.73,28.51,28.51,0,0,0,6.22-3.9,12.58,12.58,0,0,0,1.41-17.73l-.23-.27-.89-.88a8.72,8.72,0,0,0-6.9-2.64,10.79,10.79,0,0,0-5.73,2.64L51.72,36a2.87,2.87,0,0,1-3.77.11C46.46,35,45.07,34,43.61,32.89a8.06,8.06,0,0,0-8.89-1,11.18,11.18,0,0,0-4.34,4.29,15.69,15.69,0,0,0-2.17,10.36C29.31,57,34.93,64.23,44.21,69a32.66,32.66,0,0,0,16.22,3.73c10-.28,18.07-4.19,23.9-12.31a27.41,27.41,0,0,0,5.06-13.79c1-10.83-3.06-19.62-11.17-26.86a40.35,40.35,0,0,0-20.85-9.46C54.78,10,52.22,9.86,51,9.65Z"/><path class="cls-1" d="M15.6,99.71A7.64,7.64,0,0,1,14,99.6a3.65,3.65,0,0,1-3.35-3.93V95.6a1.1,1.1,0,0,1,.21-.66c.5-2,1.1-4.12,1.67-6,.22-.78.5-1.55.68-2.36l.39-1.37L14.81,81C7.59,73.79,3,65,.87,54a49.91,49.91,0,0,1-.78-12.2,40.67,40.67,0,0,1,10.38-25A49.74,49.74,0,0,1,31.21,3.21,52.12,52.12,0,0,1,51.27,0a53.45,53.45,0,0,1,33.11,12.1c7.61,6.37,12.45,14,14.33,23,2.67,12.8-.21,24.23-8.5,34.08A37.57,37.57,0,0,1,67.1,82,43.39,43.39,0,0,1,33,73.83a35.23,35.23,0,0,1-14.12-21.7C17.72,46.64,17.72,42,19,37.57c1.78-6.26,5.33-10.94,10.46-13.78,6.9-3.8,13.72-3.31,20.45,1.37a18.41,18.41,0,0,1,23.51.77,22,22,0,0,1,8.11,14.84c.89,7.81-1.57,14.35-7.22,19.34A24.48,24.48,0,0,1,64.13,65.6a5.79,5.79,0,0,1-5-1.09,5.44,5.44,0,0,1,1.28-9.07,27,27,0,0,0,5.94-3.73,11.48,11.48,0,0,0,1.34-16.18,12,12,0,0,0-1-1.09c-2-1.76-3.84-2.53-6-2.25a9.22,9.22,0,0,0-5,2.36c-.5.49-1.11,1-1.57,1.37a16.1,16.1,0,0,0-1.28,1.16,3.93,3.93,0,0,1-5.12.1c-.5-.38-1.1-.87-1.57-1.26-.88-.67-1.77-1.37-2.66-2A7.11,7.11,0,0,0,35.55,33a9.31,9.31,0,0,0-3.84,3.8,15,15,0,0,0-2.07,9.67c1,9.67,6,16.81,15.33,21.59a31.11,31.11,0,0,0,15.72,3.52c9.89-.29,17.57-4.29,22.91-11.82a27,27,0,0,0,4.84-13.19c.89-10.26-2.67-18.74-10.78-25.88a40.32,40.32,0,0,0-20.24-9.28c-1.78-.28-3.56-.39-4.84-.49-.49,0-.88-.11-1.17-.11-10.14.21-18,2.46-25.25,7.14C19.33,22.49,15,28,12.82,35a33.59,33.59,0,0,0-.6,17.79,40.53,40.53,0,0,0,8.39,17.67A22,22,0,0,0,23,73l1.28,1.27a5.51,5.51,0,0,0,.68.6A5.52,5.52,0,0,1,26.62,81c-.5,1.86-1.1,3.8-1.56,5.66a25.65,25.65,0,0,0,7.78-4.29,5.77,5.77,0,0,1,8,.6h0a5.39,5.39,0,0,1,1.1,1.86,5.32,5.32,0,0,1-1.78,5.77A37.93,37.93,0,0,1,30.77,96a58.41,58.41,0,0,1-12.66,3.73A19.7,19.7,0,0,0,15.6,99.71Zm1.17-18.25c-.39,1.37-.78,2.85-1.17,4.18L15.2,87l-.67,2.43c-.61,2-1.18,4-1.67,6a.3.3,0,0,1-.11.28A2.24,2.24,0,0,0,13,96.86a1.42,1.42,0,0,0,1,.49,11.7,11.7,0,0,0,3.34-.1,52.68,52.68,0,0,0,12.17-3.52,33.73,33.73,0,0,0,8.78-5.06,3,3,0,0,0,1-3.31,3.09,3.09,0,0,0-.68-1.09,3.42,3.42,0,0,0-4.73-.39h0a55.18,55.18,0,0,1-10,5.77h-.08c-.21-.6-.39-.49-.67-.49l-1.7.1V88.1c.5-.26.54-.52,1-.77v-.11l0-1.37C23,84,23.56,82,24.13,80.09a3.24,3.24,0,0,0-1-3.8,5,5,0,0,0-.79-.67c-.39-.39-.78-.88-1.17-1.27-.89-.87-1.67-1.75-2.56-2.63A42.37,42.37,0,0,1,9.73,53a37.32,37.32,0,0,1,.67-19c2.28-7.31,7.12-13.47,14.23-18.18,7.47-5,15.86-7.32,26.25-7.21H51c.29-.21.79-.11,1.18-.11,1.38.11,3.16.22,5.05.5a42.38,42.38,0,0,1,21.45,9.77c8.6,7.53,12.44,16.92,11.55,27.85A28.37,28.37,0,0,1,84.88,61C79,69.26,70.76,73.58,60.09,73.86A33.42,33.42,0,0,1,43.3,70q-15-7.76-16.61-23.35a17.25,17.25,0,0,1,2.38-11A11.25,11.25,0,0,1,33.81,31c3.55-1.76,6.9-1.38,10.17,1.09.89.66,1.88,1.47,2.77,2.14.5.39,1.1.88,1.57,1.27h0a1.79,1.79,0,0,0,2.17,0c.39-.39.89-.67,1.28-1.09A22.22,22.22,0,0,1,53.44,33,12,12,0,0,1,59.77,30a9.68,9.68,0,0,1,7.79,2.85A13.47,13.47,0,0,1,72,43.2a13.85,13.85,0,0,1-4.74,10.34,31.21,31.21,0,0,1-6.43,4.11A2.84,2.84,0,0,0,59,60.39,2.78,2.78,0,0,0,60,62.93a3.47,3.47,0,0,0,3.06.66,20.39,20.39,0,0,0,9.18-5c5-4.5,7.22-10.44,6.44-17.48a20,20,0,0,0-7.22-13.4c-6.19-5.15-14.4-5.47-20.7-.67a1.9,1.9,0,0,1-2.56,0q-8.91-6.28-18.07-1.27a20,20,0,0,0-9.49,12.48c-1.18,4-1.18,8.3-.11,13.4A33,33,0,0,0,33.88,72a41.1,41.1,0,0,0,32.4,7.7A35,35,0,0,0,88,67.67c7.89-9.28,10.56-20.11,8-32.14-1.78-8.4-6.44-15.72-13.62-21.7C73.6,6.52,62.93,2.69,50.66,2.3A51.13,51.13,0,0,0,31.49,5.43,47.16,47.16,0,0,0,11.65,18.34,37.89,37.89,0,0,0,1.87,42a46.65,46.65,0,0,0,.67,11.5C4.6,64.09,9,72.6,16,79.52a1.42,1.42,0,0,1,.8,1.84Z"/></g></g></g></g><path class="cls-1" d="M118.09,78.92a6,6,0,0,1-.82-3.13c0-2.36,1.72-4.13,4.45-4.13a5.16,5.16,0,0,1,3.78,1.62c3,2.9,5.81,4.48,9.44,4.52,6,0,9.5-3.36,9.5-8.54V62.65h-.3c-1.88,4.46-6.58,7.43-12.42,7.43-10,0-16.39-7.89-16.39-20.54,0-13,6.18-20.71,16.57-20.71a13.07,13.07,0,0,1,12.31,7.82h.23V34.36c0-3.83,2.37-5.73,5.53-5.73s5.47,1.9,5.47,5.73v35c0,10.78-7.57,17.28-20.48,17.2C126.77,86.5,120.67,83.29,118.09,78.92Zm26.5-29c0-7.46-3.63-12.25-9.28-12.25s-9.08,4.71-9.08,12.21,3.48,12,9.08,12S144.59,57.45,144.59,50Z"/><path class="cls-1" d="M163,18.8a6,6,0,1,1,6.16,5.83H169a5.85,5.85,0,0,1-6-5.7Zm.49,47V35.23c0-3.58,2.06-5.78,5.5-5.78s5.5,2.2,5.5,5.78V65.76c0,3.58-2.11,5.73-5.5,5.73S163.44,69.34,163.44,65.76Z"/><path class="cls-1" d="M191.36,66.62,180.58,37.71A10.32,10.32,0,0,1,180,34.4c0-3.06,2.43-5.07,5.64-5.07,2.74,0,4.56,1.47,5.41,4.53l8.39,27.79h.23l8.33-28c.77-3,2.67-4.41,5.29-4.41,3.14,0,5.49,2.17,5.49,5a10.13,10.13,0,0,1-.61,3.17L207.4,66.62c-1.39,4-3.79,5.78-7.88,5.78C195.19,72.4,192.87,70.64,191.36,66.62Z"/><path class="cls-1" d="M221.35,50.26c0-13.34,7.77-21.8,20-21.8,11.78,0,19.68,8,19.64,19.39a4.88,4.88,0,0,1-4.91,4.8H232.44v.5c0,6.15,3.71,10.17,9.43,10.17,4.14,0,6.85-1.39,9.9-5a4.58,4.58,0,0,1,3.67-1.66,4.08,4.08,0,0,1,4.39,3.76c0,.13,0,.25,0,.38a5.83,5.83,0,0,1-.78,2.74c-2.74,5.1-9.16,8.12-17.16,8.12C229,71.67,221.35,63.67,221.35,50.26ZM250,46.65c-.24-5.41-3.72-8.93-8.66-8.93s-8.55,3.64-8.93,8.93Z"/><path class="cls-1" d="M267.44,66.22V20.87c0-3.63,2.06-5.8,5.51-5.8s5.49,2.17,5.49,5.8V37.65h.23c2.14-5.22,6.56-8.16,12.67-8.16,9,0,14.1,5.95,14.1,15.54V66.64c0,3.86-2.27,5.87-5.5,5.87s-5.5-2-5.5-5.87V46.88c0-5.26-2.6-8.45-7.66-8.45-5.26,0-8.34,3.68-8.34,9V66.22c0,3.77-2.27,5.73-5.52,5.73S267.44,70,267.44,66.22Z"/><path class="cls-1" d="M312.44,56.38V34.74c0-3.87,2.3-5.92,5.49-5.92s5.51,2.05,5.51,5.92V53.85c0,5.91,2.93,9.06,8.27,9.06s8.73-3.84,8.73-9.72V34.76c0-3.77,2.3-5.76,5.5-5.76s5.5,2,5.5,5.76V66.2c0,3.75-2.22,5.72-5.5,5.72s-5.5-2-5.5-5.72V63.65h-1.38c-1.94,5.22-6,8.23-12.09,8.23C318.23,71.88,312.44,66.05,312.44,56.38Z"/><path class="cls-1" d="M359.44,65.84V20.19c0-3.87,2.3-5.92,5.5-5.92s5.5,2.05,5.5,5.92V36.65h.34a13.31,13.31,0,0,1,12.61-7.8c10.31,0,16.59,8,16.59,21.26s-6.24,21.27-16.55,21.27c-6,0-10.51-2.92-12.81-7.73h-.18v2.19c0,3.72-2.32,5.71-5.56,5.71S359.44,69.61,359.44,65.84Zm29-15.35c0-7.54-3.51-12.33-9.12-12.33s-9.24,4.91-9.24,12.33,3.75,12.29,9.24,12.29S388.45,58,388.45,50.49Z"/></g></g></g></g></svg>