<svg xmlns="http://www.w3.org/2000/svg" viewBox="0 0 348.55 390.8"><defs><style>.cls-1{fill:#f3f4f6;}</style></defs><g id="Layer_2" data-name="Layer 2"><g id="Layer_1-2" data-name="Layer 1"><g id="Layer_2-2" data-name="Layer 2"><g id="Layer_1-2-2" data-name="Layer 1-2"><rect class="cls-1" x="-55.51" y="146.96" width="320.29" height="16.6" transform="translate(-82.14 168.24) rotate(-60)"/><rect class="cls-1" x="13.75" y="267.8" width="320" height="17"/><rect class="cls-1" x="96.37" y="223.52" width="16.6" height="185" transform="translate(-221.35 248.66) rotate(-60)"/><rect class="cls-1" x="235.54" y="-17.56" width="16.6" height="185" transform="translate(57.02 248.64) rotate(-60)"/><rect class="cls-1" x="12.21" y="66.59" width="185" height="16.6" transform="translate(-23.42 62.39) rotate(-30)"/><rect class="cls-1" x="235.65" y="-4.88" width="16.6" height="320.29" transform="translate(-44.95 142.78) rotate(-30)"/><rect class="cls-1" x="26.75" y="102.8" width="17" height="185"/><rect class="cls-1" x="304.75" y="102.8" width="17" height="185"/><rect class="cls-1" x="163.4" y="308.69" width="160.9" height="14.5" transform="translate(-125.3 164.25) rotate(-30)"/><path class="cls-1" d="M343.77,293.34A34.92,34.92,0,1,1,331,245.63h0a35,35,0,0,1,12.8,47.7"/><path class="cls-1" d="M65.17,132.44a34.92,34.92,0,1,1-12.8-47.7,34.93,34.93,0,0,1,12.8,47.7"/><path class="cls-1" d="M4.77,293.34a34.92,34.92,0,1,1,47.7,12.8,34.93,34.93,0,0,1-47.7-12.8"/><path class="cls-1" d="M283.37,132.44a34.92,34.92,0,1,1,47.7,12.8,34.93,34.93,0,0,1-47.7-12.8"/><path class="cls-1" d="M174.27,390.8a34.9,34.9,0,1,1,34.9-34.9h0a34.87,34.87,0,0,1-34.84,34.9h.42"/><path class="cls-1" d="M174.27,69.8a34.87,34.87,0,1,1,.06,0h.42"/></g></g></g></g></svg>