<svg xmlns="http://www.w3.org/2000/svg" viewBox="0 0 392.02 400.02"><defs><style>.cls-1{fill:#f3f4f6;}</style></defs><g id="Layer_2" data-name="Layer 2"><g id="Layer_1-2" data-name="Layer 1"><g id="Layer_2-2" data-name="Layer 2"><g id="Layer_1-2-2" data-name="Layer 1-2"><path class="cls-1" d="M115,138H66.16c0,.94-.16,1.86-.16,2.79v58.86C65.82,202,64.74,203,62.46,203H3.67c-2.36,0-3.51-1.11-3.67-3.47V22.83C.15,20.24,1.34,19.06,3.88,19H62.56a3.22,3.22,0,0,1,3.35,3.08A20.73,20.73,0,0,1,66,24.57V82h49V23.67c0-3.61,1-4.66,4.67-4.67h57.11a7.85,7.85,0,0,1,2.41.34A2.47,2.47,0,0,1,181,21.83V200.4a2.86,2.86,0,0,1-2.51,2.6,15.32,15.32,0,0,1-1.66,0h-57.5c-3.42,0-4.33-.92-4.33-4.42v-58Z"/><path class="cls-1" d="M261.14,355.56c-.06,1.14-.14,2-.14,2.9v37.3c0,3.42-.83,4.24-4.26,4.24H198.12a3.09,3.09,0,0,1-3.12-3.07V222a17.7,17.7,0,0,1,0-2.06,3.05,3.05,0,0,1,3-2.89h1.66c27.69,0,55.36-.09,83,0a127.61,127.61,0,0,1,31.92,3.69c13.05,3.41,24.7,9.32,34.38,18.81a61.79,61.79,0,0,1,16.72,30,72.09,72.09,0,0,1,1.88,21.66c-.83,14-5.07,26.76-14.28,37.66a68.37,68.37,0,0,1-15.64,13.33l-2,1.24,2,2.87,29.74,43.64c1.09,1.6,2.16,3.19,3.3,4.75a3.19,3.19,0,0,1,.37,3.65A3.35,3.35,0,0,1,367.8,400H305.88a5.43,5.43,0,0,1-5-2.66c-8.88-13.18-17.84-26.29-26.7-39.47-1.15-1.71-2.32-2.59-4.49-2.42C267,355.72,264.19,355.56,261.14,355.56ZM261,303.9a2.87,2.87,0,0,0,.62.22c7.62-.07,15.27.31,22.84-.33,10-.85,16.06-6.34,16.28-16.64.14-6.31-2-11.77-7.65-15.23a20.59,20.59,0,0,0-10.42-2.73c-6.46-.14-12.91-.14-19.36-.19H261Z"/><path class="cls-1" d="M115,304.26l11,9.43c.54-1.45,1.1-2.66,1.43-3.93,1.12-4.24,2.32-8.48,3.18-12.77.52-2.62,2.25-3.5,4.66-2.86,2.92.76,5.79,1.69,8.68,2.55l33.12,9.85c3.31,1,4,2.25,3.22,5.65a122.9,122.9,0,0,1-13.61,33.87c-.27.46-.5,1-.82,1.54l9.27,7.91c1.35,1.16,2.72,2.3,4.07,3.47,1.78,1.55,2,3.36.39,5.22-2.17,2.56-4.43,5-6.66,7.57L151.35,396.1c-2,2.23-3.55,2.41-5.79.49q-7.09-6.1-14.17-12.24c-.41-.35-.86-.66-1.12-.86-4.6,2.25-9,4.56-13.48,6.54a97.84,97.84,0,0,1-30.52,7.89,129.52,129.52,0,0,1-15,.69c-14-.33-27.68-2.75-40.45-8.85C19.31,384.25,10,376.29,4.31,364.61c-3.47-7.08-4.48-14.67-4-22.45,1-15.58,8.07-28,20.15-37.68,2.78-2.22,5.79-4.16,8.69-6.23l1.9-1.33c-1.7-2.41-3.37-4.65-4.9-7a44,44,0,0,1-7.43-22.16c-.76-15.43,5-27.81,17.1-37.28,9.2-7.22,19.87-10.94,31.29-12.75a97.23,97.23,0,0,1,19.28-1.2c11.72.5,23.06,2.72,33.32,8.7,12.23,7.12,19.73,17.64,21.62,31.82,1.77,13.23-2.32,24.63-11.09,34.5a68.62,68.62,0,0,1-14.52,12.07A7.92,7.92,0,0,0,115,304.26Zm-48.9,24.15a20.28,20.28,0,0,0-5.57,8.51c-1.19,3.78-.57,7.29,2.33,10a18.16,18.16,0,0,0,5.35,3.34c5.65,2.34,11.52,2,17.37.85,1.68-.33,3.32-.84,5.38-1.38Zm14.25-54.19c1.52-1,2.82-1.76,4-2.64a14.46,14.46,0,0,0,4.8-5.24c1.59-3.26.37-6.53-3-7.68a10.35,10.35,0,0,0-8.55.58,5.89,5.89,0,0,0-2.82,7.29A19.56,19.56,0,0,0,80.33,274.22Z"/><path class="cls-1" d="M374.14,185c-.06,1-.14,1.77-.14,2.5v11.17c-.06,3.59-1.84,5.29-5.39,5.29q-84,0-168,.06a5.25,5.25,0,0,1-5.6-4.88,4.53,4.53,0,0,1,0-.64q.12-87.49.06-175c0-3.89,1.62-5.51,5.52-5.52h12.32c.06-1,.15-1.71.15-2.45V5.42C213,1.61,214.65,0,218.4,0H386c4.42,0,6,1.5,6,5.86v173a11.11,11.11,0,0,1-.13,2.44c-.58,2.4-2.25,3.63-5,3.68-3.36.06-6.73,0-10.09,0ZM223,9V175H382V9ZM212.71,184.06l-9.47,9.46a2.62,2.62,0,0,0,1.53.48H265a4.15,4.15,0,0,0,3.37-1.36c1.93-2.07,4-4,6-6.06a19.24,19.24,0,0,0,1.23-1.58H218.83a43.37,43.37,0,0,1-6.11-.95Zm133.69,1.52-.18-.58H290.87c-2.72,0-5.74-.69-8.05.29s-4.09,3.65-6.08,5.58c-.88.86-1.74,1.76-2.62,2.64l.25.49h62a3.57,3.57,0,0,0,2.15-.58C341.2,190.89,343.78,188.23,346.4,185.58ZM212.81,42.49c-.4.14-.63.15-.76.27-2.51,2.48-5,5-7.48,7.51a3.08,3.08,0,0,0-.57,1.92v60.49a11.09,11.09,0,0,0,.32,1.72c2.6-2.6,4.9-5,7.3-7.21a4.2,4.2,0,0,0,1.38-3.34V44.63C213,43.89,212.88,43.21,212.81,42.49Zm.18,71.09-.56-.25c-2.42,2.43-4.82,4.88-7.29,7.28A3.51,3.51,0,0,0,204,123.4v59.76a18.58,18.58,0,0,0,.23,1.91c2.54-2.53,4.77-4.85,7.13-7a4.78,4.78,0,0,0,1.64-3.88q-.08-29.23,0-58.48Zm133,79,.28.4H364v-8h-9.18a1.74,1.74,0,0,0-1.09.42c-2.6,2.32-5.15,4.74-7.73,7.12ZM205,42.38c3-2.94,5.63-5.5,8.23-8.1a1.69,1.69,0,0,0,.35-1.13c0-1.72.07-3.43,0-5.14,0-.42-.51-1.15-.81-1.16-2.57-.1-5.14-.06-7.75-.06Z"/><path class="cls-1" d="M277,140.91a23.61,23.61,0,0,1,1.43-9c2.5-6.79,7.41-10.62,14.56-11.32a17.07,17.07,0,0,1,13,3.59,16.43,16.43,0,0,1,5.29,7.71c2.25,6.83,2.29,13.7-.78,20.28-2.94,6.31-8.13,9.43-15.1,9.56-7.46.13-13-2.95-16.25-9.74a22.71,22.71,0,0,1-2.09-9.17A16.88,16.88,0,0,1,277,140.91ZM290,142c.41,2.05.78,4.62,1.49,7.09a3.33,3.33,0,0,0,3.42,2.48,3.46,3.46,0,0,0,3.45-2.46,23,23,0,0,0,0-15.33,3.45,3.45,0,0,0-3.45-2.47,3.66,3.66,0,0,0-3.45,2.46,5.39,5.39,0,0,0-.54,1.55c-.32,2-.57,4.05-.89,6.68Z"/><path class="cls-1" d="M274,151v10H242.33c0-2.6-.08-5,.06-7.54,0-.61.72-1.26,1.25-1.75,4.53-4.25,9.12-8.43,13.61-12.71a9.78,9.78,0,0,0,2.27-3.38c1-2.57-.43-4.56-3.17-4.72a7,7,0,0,0-6.52,3.58L240,129.54a14.68,14.68,0,0,1,6.32-6.44,22,22,0,0,1,20.12-.58c6.39,2.92,8.28,9.8,5.49,16.1-1.34,3-3.79,5.23-6.17,7.43-1.65,1.53-3.31,3-5,4.55l.17.4Z"/><path class="cls-1" d="M323.37,134.63l-9.7-4.93a15.83,15.83,0,0,1,8.11-7.36,22.1,22.1,0,0,1,16.33-.34c9.66,3.56,9.89,13.33,5.75,18.79-2.09,2.75-4.78,5-7.21,7.52a13.81,13.81,0,0,0-2.31,2.69H347v10H316v-7.54a2.36,2.36,0,0,1,.82-1.35c4-3.73,8-7.43,12-11.16a25.44,25.44,0,0,0,2.83-2.95,8.45,8.45,0,0,0,1.35-2.72,3.12,3.12,0,0,0-2.86-4.22A6.84,6.84,0,0,0,323.37,134.63Z"/><path class="cls-1" d="M356,131h-7V121h20v40H356Z"/></g></g></g></g></svg>