<svg xmlns="http://www.w3.org/2000/svg" viewBox="0 0 410 400"><defs><style>.cls-1{fill:#f3f4f6;}</style></defs><g id="Layer_2" data-name="Layer 2"><g id="Layer_1-2" data-name="Layer 1"><g id="Layer_2-2" data-name="Layer 2"><g id="Layer_1-2-2" data-name="Layer 1-2"><path class="cls-1" d="M337.36,0H72.56A72.57,72.57,0,0,0,0,72.57V327.35A72.57,72.57,0,0,0,72.48,400H337.4A72.57,72.57,0,0,0,410,327.47V72.65A72.57,72.57,0,0,0,337.52,0ZM250.69,281H214.36a2.55,2.55,0,0,1-2.69-1.86L197.85,239H135.12l-12.83,39.64a3,3,0,0,1-3.2,2.36H86.4c-1.88,0-2.39-1-1.88-3.08l55-158.31c.51-1.71,1-3.58,1.71-5.63a59.9,59.9,0,0,0,1-11.1,1.7,1.7,0,0,1,1.37-1.88h44.23c1.37,0,2,.51,2.23,1.37l62.33,175.9C252.92,280.12,252.4,281,250.69,281Zm59.36-.74c0,1.88-.68,2.74-2.2,2.74h-33.3c-1.7,0-2.55-1-2.55-2.74V148.4c0-1.71.68-2.4,2.21-2.4H307.8c1.53,0,2.2.86,2.2,2.4ZM306.18,125a20.06,20.06,0,0,1-15.55,6,21.18,21.18,0,0,1-15.22-6,22.21,22.21,0,0,1-5.81-15.73,20.08,20.08,0,0,1,6.16-15.21,21.89,21.89,0,0,1,15.21-6c6.67,0,11.8,2,15.56,6a21.56,21.56,0,0,1,5.64,15.21,21.63,21.63,0,0,1-6,15.73Z"/><path class="cls-1" d="M179.45,177.13c-1.71-5.28-3.24-10.39-5-15.68s-3.24-10.22-4.6-15.15-2.55-9.2-3.75-13.3h-.34A209.94,209.94,0,0,1,160,154.93c-2.55,8.18-5.11,16.7-7.83,25.21-2.39,8.69-5,16.7-7.5,23.86h43.28c-1-3.58-2.39-7.84-3.92-12.27S181,182.24,179.45,177.13Z"/></g></g></g></g></svg>