<svg xmlns="http://www.w3.org/2000/svg" viewBox="0 0 400 400"><defs><style>.cls-1{fill:#f3f4f6;}</style></defs><g id="Layer_2" data-name="Layer 2"><g id="Layer_1-2" data-name="Layer 1"><g id="Layer_2-2" data-name="Layer 2"><g id="Layer_1-2-2" data-name="Layer 1-2"><path class="cls-1" d="M0,0V400H400V0ZM218,311.34c0,38.92-23.06,56.64-56.75,56.64-30.43,0-48.06-15.58-57-34.34l30.94-18.52c6,10.47,11.4,19.33,24.46,19.33,12.49,0,20.37-4.83,20.37-23.62V183h38Zm88,57.14c-34.91,0-57.46-16.64-68.5-38.44l30.55-17.77c8.06,13.16,18.54,22.83,37.08,22.83,15.57,0,25.52-7.79,25.52-18.54,0-12.89-10.22-17.46-27.36-25l-9.4-4c-27.12-11.55-45.14-26-45.14-56.63,0-28.19,21.48-49.65,55-49.65,23.9,0,41.08,8.31,53.46,30.09L328,230.17c-6.45-11.56-13.4-16.11-24.2-16.11-11,0-18,7-18,16.11,0,11.27,7,15.84,23.11,22.82l9.4,4c31.93,13.69,50,27.65,50,59,0,33.93-26.56,52.47-62.26,52.47Z"/></g></g></g></g></svg>