<svg xmlns="http://www.w3.org/2000/svg" viewBox="0 0 294.99 400"><defs><style>.cls-1{fill:#f3f4f6;fill-rule:evenodd;}</style></defs><g id="Layer_2" data-name="Layer 2"><g id="Layer_1-2" data-name="Layer 1"><g id="Layer_2-2" data-name="Layer 2"><g id="Layer_1-2-2" data-name="Layer 1-2"><path class="cls-1" d="M95,309.34s-15.27,8.89,10.89,11.89c31.7,3.62,47.89,3.1,82.82-3.51a144.35,144.35,0,0,0,22,10.74C132.4,362,33.48,326.52,95,309.34Zm-9.57-43.79s-17.14,12.68,9,15.39c33.86,3.5,60.59,3.78,106.88-5.12a47.39,47.39,0,0,0,16.45,10C123.11,313.54,17.68,288,85.41,265.55Z"/><path class="cls-1" d="M166.08,191.26c19.3,22.22-5.07,42.2-5.07,42.2s49-25.28,26.5-57c-21-29.53-37.13-44.2,50.11-94.79C237.61,81.71,100.68,115.9,166.08,191.26Z"/><path class="cls-1" d="M269.65,342s11.3,9.32-12.46,16.53C212,372.23,69.07,376.31,29.37,359c-14.26-6.21,12.49-14.81,20.91-16.64,8.78-1.9,13.79-1.56,13.79-1.56-15.87-11.17-102.58,22-44,31.46,159.65,25.88,291-11.66,249.62-30.34ZM102.33,220.17s-72.69,17.27-25.74,23.55c19.84,2.65,59.34,2,96.17-1.05,30.09-2.52,60.29-7.93,60.29-7.93a129.41,129.41,0,0,0-18.28,9.79C141,264-1.67,254.91,39.39,235.05,74.1,218.26,102.33,220.17,102.33,220.17Zm130.42,72.89c75-39,40.35-76.46,16.12-71.41a56.88,56.88,0,0,0-8.58,2.3A13.73,13.73,0,0,1,246.7,219c47.92-16.84,84.77,49.68-15.45,76a6.48,6.48,0,0,0,1.5-1.95Z"/><path class="cls-1" d="M187.51,0s41.55,41.58-39.43,105.5c-64.94,51.29-14.8,80.53,0,113.94-37.91-34.2-65.72-64.31-47.06-92.33C128.38,86,204.27,66,187.51,0Z"/><path class="cls-1" d="M109.72,398.74c72,4.61,182.64-2.55,185.27-36.64,0,0-5,12.92-59.53,23.17C174,396.84,98.13,395.5,53.16,388.07,53.16,388.07,62.38,395.7,109.72,398.74Z"/></g></g></g></g></svg>