<svg xmlns="http://www.w3.org/2000/svg" viewBox="0 0 179.88 400.29"><defs><style>.cls-1{fill:#f3f4f6;}</style></defs><g id="Layer_2" data-name="Layer 2"><g id="Layer_1-2" data-name="Layer 1"><g id="Layer_2-2" data-name="Layer 2"><g id="Layer_1-2-2" data-name="Layer 1-2"><path class="cls-1" d="M88.78,1,99.46,21.05a60.05,60.05,0,0,0,8.06,10,279.4,279.4,0,0,1,25,28.32c18.08,23.75,30.28,50.12,39,78.64a193.52,193.52,0,0,1,8.28,53.37c.87,54-17.65,100.43-55,139a158.14,158.14,0,0,1-19.65,16.8c-3.7,0-5.45-2.84-7-5.45A45.19,45.19,0,0,1,92.75,326,75.89,75.89,0,0,1,91,306.22v-3.05C90.7,302.52,87.44,2.54,88.74,1Z"/><path class="cls-1" d="M88.58.43c-.44-.87-.87-.21-1.31.21.21,4.38-1.31,8.28-3.7,12-2.63,3.7-6.1,6.54-9.59,9.59C54.61,39,39.36,59.26,27.15,81.92c-16.25,30.5-24.62,63.19-27,97.6C-.94,191.93,4.08,235.72,8,248.36,18.66,281.91,37.84,310,62.67,334.42A244.12,244.12,0,0,0,82,351c2,0,2.18-1.75,2.63-3.05a57.66,57.66,0,0,0,2-8.5L91,306.76Z"/><path class="cls-1" d="M99.94,360.54c.45-5,3-9.15,5.74-13.29a14.24,14.24,0,0,1-6.43-5.66,38.17,38.17,0,0,1-3.42-7.19c-3.16-9.14-3.9-18.74-4.83-28.09v-5.67c-1.14.88-1.37,8.28-1.37,9.38a207.32,207.32,0,0,1-4.13,29.41c-.68,3.92-1.13,7.84-3.67,11.32a4.18,4.18,0,0,0,.23,1.53c4.12,11.55,5.25,23.31,5.94,35.3v4.24c0,5.5-.22,4.34,4.34,6.18,1.84.69,3.89.92,5.74,2.29,1.38,0,1.61-1.15,1.61-2.11L99,390.62V370.8a51.1,51.1,0,0,1,.92-10.25Z"/></g></g></g></g></svg>