<svg xmlns="http://www.w3.org/2000/svg" viewBox="0 0 313.03 400.04"><defs><style>.cls-1{fill:#f3f4f6;}</style></defs><g id="Layer_2" data-name="Layer 2"><g id="Layer_1-2" data-name="Layer 1"><g id="Layer_2-2" data-name="Layer 2"><g id="Layer_1-2-2" data-name="Layer 1-2"><path class="cls-1" d="M247.79,79.68a33.66,33.66,0,0,1-6,19.29,20.7,20.7,0,0,0,8.21,1.66A20.93,20.93,0,0,0,262.63,63a34.17,34.17,0,0,1-14.87,15.57Z"/><path class="cls-1" d="M244.52,65.39A21,21,0,0,0,250.11,59H250a21,21,0,0,0-8.16,1.68A35.28,35.28,0,0,1,244.52,65.39Z"/><path class="cls-1" d="M231.89,50.84A34,34,0,0,1,250,45.62l2.63.19a21,21,0,0,0-41.55-.06c.88-.06,1.77-.13,2.65-.13A34,34,0,0,1,231.89,50.84Z"/><path class="cls-1" d="M229.23,82.34a20.6,20.6,0,0,0,2.63,7.81,20.32,20.32,0,0,0,2.63-7.75c-.87.07-1.74.13-2.63.13Z"/><path class="cls-1" d="M219.2,65.42a33.34,33.34,0,0,1,2.74-4.74A21.31,21.31,0,0,0,213.72,59h-.11A21.13,21.13,0,0,0,219.2,65.42Z"/><path class="cls-1" d="M213.79,101A20.7,20.7,0,0,0,222,99.31a33.81,33.81,0,0,1-6-19.26V78.93a33.92,33.92,0,0,1-14.89-15.55,21,21,0,0,0,.45,33.77A20.26,20.26,0,0,0,213.7,101Z"/><path class="cls-1" d="M209.5,274.12c1.52-1.41,2.28-2.18,2.28-3.18s-.56-1.89-1.69-3.65a8.35,8.35,0,0,1-1.21-4.6c0-5.63,3.75-12.41,5.23-14.87-.42-.53-1-1.3-1.76-2.31l-.95-.64a27.55,27.55,0,0,1-5-4.77c-.21-.28-.42-.64-.65-1a57.06,57.06,0,0,0-18.2,2c2.35,1.35,2.9,3.1,3,5.35a35.82,35.82,0,0,0-13.05-.61c1.33,2.27,2.69,4.54,3.32,5.45a134.73,134.73,0,0,0,12.3,15.17,3.47,3.47,0,0,1,.94,2.56c0,2.48-1.57,6-3.51,10.42l-1,2.34-6,14.22-.88.05c-.41,0-9.95.61-13.07.46-3.4-.17-6,.41-7.61,1.66a4,4,0,0,1,.08,2.31,2.89,2.89,0,0,1-1.52,1.87,4.06,4.06,0,0,0,.26.51,19.05,19.05,0,0,1,3.65-.81,3.91,3.91,0,0,1,.61,3.06,4,4,0,0,1-1.4,2.32l.39.55a17.73,17.73,0,0,1,4.43-1.09,5.27,5.27,0,0,1,.73,3.44,2.85,2.85,0,0,1-1.13,1.84c2.55.81,9.15-1.08,13.26-2.27l6-1.55c3.06-.57,4.77-1.65,6.1-3.83l1.33-2.87a40.19,40.19,0,0,1,2.34-4.86c1.83-2.89,3.91-7.11,5.91-11.21,2.62-5.31,4.88-9.91,6.54-11.45"/><path class="cls-1" d="M96,237v.59h0l-.06-.17"/><path class="cls-1" d="M231.86,65.8a22.2,22.2,0,0,1,3,5.3,21.53,21.53,0,0,1-3,.23,22.22,22.22,0,0,1-3.05-.21,22.86,22.86,0,0,1,3.05-5.32"/><path class="cls-1" d="M238.33,82.05a32.83,32.83,0,0,0,5.57-1.61,29.87,29.87,0,0,1-5.54,16.85,20.75,20.75,0,0,1-4.14-3.63,24.68,24.68,0,0,0,4.11-11.61"/><path class="cls-1" d="M231.86,18.41a30.25,30.25,0,0,1,0,60.5l-2.77-.2a20.27,20.27,0,0,1,1-5.39l1.78.12a24.78,24.78,0,1,0-24.64-27,33.72,33.72,0,0,0-5.59,1.61,30.29,30.29,0,0,1,30.23-29.66"/><path class="cls-1" d="M250,49.62l2.76.21a20.53,20.53,0,0,1-1,5.39L250,55.11a24.92,24.92,0,0,0-10.56,2.45,34,34,0,0,0-4.17-4.06A30.18,30.18,0,0,1,250,49.62"/><path class="cls-1" d="M213.72,110.14a30.26,30.26,0,1,1,27.54-42.77,20.47,20.47,0,0,1-5.2,1.82,24.85,24.85,0,1,0-11.88,33.08l.15-.08a35.36,35.36,0,0,0,4.15,4.06,29.93,29.93,0,0,1-14.76,3.87"/><path class="cls-1" d="M209.52,59.35A25,25,0,0,0,217.71,69a33.24,33.24,0,0,0-1.37,5.65,30.18,30.18,0,0,1-12-13.46,20.79,20.79,0,0,1,5.19-1.82"/><path class="cls-1" d="M250,110.14a30.29,30.29,0,0,1-30.25-30.26,29.86,29.86,0,0,1,5.58-17.48A20.84,20.84,0,0,1,229.47,66a24.78,24.78,0,1,0,34.62-6.48,34.59,34.59,0,0,0,1.38-5.68A30.25,30.25,0,0,1,250,110.14"/><path class="cls-1" d="M291.37,177.77h0a14.36,14.36,0,0,0-8.12-9.8c-10.38-5.35-23.94-1.6-35.83,2.33-9,3-11.67,3.89-21.84,5.39-7.68,1.15-33.36,4.39-41.48-2.15a7.78,7.78,0,0,1-2.45-4.3,11,11,0,0,1,2-7c2-2.19,6.84-3.24,14.63-3.24l19.88.3c1.24,1.56,4.42,4.06,12.5,5.74,12.84,2.66,27-1.67,27-1.67a12.07,12.07,0,0,1-4.28-1.87,3.76,3.76,0,0,1-1.56-3.12,16.55,16.55,0,0,0,7,1.2c5.13-.14,7.52-2.52,12.31-3.7a27.82,27.82,0,0,1,10.13-.21s-4.84-5-9.65-5.93a33.64,33.64,0,0,0-10.76.31,14.35,14.35,0,0,0,3.28-2.22,6,6,0,0,0,1.72-3.39,33.12,33.12,0,0,1-11.56,1.86c-5.82-.29-5.39-2.35-16.69-2.64C229,143.44,222,148.39,219,150.8c-9.16-.58-16.37-.89-20.6-.89-11.64,0-18.36,1.85-22.48,6.19-3.43,3.63-4.92,8.34-4.43,14a15.34,15.34,0,0,0,6,10.95c10.86,8.75,40,6.07,50.33,4.29,11.55-1.95,15-2.85,21.69-5l.38-.13c5.18-1.69,20.93-6.81,27.53-3.39a5.87,5.87,0,0,1,2.83,3.95,9,9,0,0,1,.37,2.42,5.12,5.12,0,0,1-1.27,3.45c-6,7.16-28.64,8.39-38.46,8.89a78.33,78.33,0,0,0-16.37-1.73c-5.84,0-10.73.33-15.9.7a169,169,0,0,1-35.41-.39,125.31,125.31,0,0,1-19.89-3.69,10.77,10.77,0,0,0-3.2-6c3.88,1.22,8.94-2.92,10.36-5,0-.21-6.9-2-7.32-6.34,0-.13,4.88.4,6.92-6.12-4.88-2.57-3.35-3.52-5.7-6.72a10,10,0,0,0-8.75-4.16,6.81,6.81,0,0,0,3.17-.77c2.12-1,3.59-3.89,5.7-3.76-4.25-6.47-15.66-7.31-20.4-6,1.22-1.47,3.09-3.1,3.12-5.13-6.31,1.7-12.49-1.48-18.86-.33-5.27,1-8.28,3-9.93,7.92h-.22c-1.65-5-4.64-7.12-10-8.11-6.32-1.18-12.49,2.07-18.77.34,0,2.07,1.89,3.75,3.09,5.25-4.7-1.4-16.07-.53-20.31,6.1,2.11-.12,3.57,2.78,5.68,3.84a5.75,5.75,0,0,0,3.24.82,9.88,9.88,0,0,0-8.71,4.25c-2.35,3.28-.82,4.26-5.68,6.89,2,6.68,6.9,6.13,6.89,6.27-.41,4.47-7.27,6.28-7.3,6.49,1.43,2.12,6.46,6.38,10.34,5.13-3.19,3.56-3.71,6.28-3,9.87-5-3.75-9.82-7.89-12.41-11.33-.61-.87-2.55-7.26-3.83-11.48l-1-3.44L46,167.06c-1.54-5.69-3-10.45-5.63-11.08a12.94,12.94,0,0,0-3.82-.35A7.61,7.61,0,0,0,33,152.31c-3-.91-4.45-.26-4.45-.26a11.82,11.82,0,0,1,3.25,3.54,6.55,6.55,0,0,1,.41,1.3,9.86,9.86,0,0,0-1.43,1l-.23.17c-.31.25-.73.6-1.18,1a2.55,2.55,0,0,0-.61-.13c-3.11-.41-4.44.49-4.44.49a14.34,14.34,0,0,1,2.94,2,10,10,0,0,0-2,5.83,3.59,3.59,0,0,0,.05.72c-3,.22-4.07,1.3-4.07,1.3a11.88,11.88,0,0,1,4.31,2.11,4.49,4.49,0,0,1,.41.46l-.23.27a5.62,5.62,0,0,0-.87,3.12,10.38,10.38,0,0,0,3.45,7.22l5.85,4.87c2.11,4.71,4.44,8.85,6,10.59.48.6,3.74,6.21,7.2,12.15l1.4,2.42c.74,3.64,1.58,8.18,2,11.75a78.84,78.84,0,0,1,0,13.57s4.17-.2,6-2.91a27.7,27.7,0,0,1,1.3,9.48,77.24,77.24,0,0,1-1.18,9A42.83,42.83,0,0,0,64,248.47a26.65,26.65,0,0,0,4-5.05c3.34,2.13,13-1.29,17.72-3.2a40.68,40.68,0,0,0,4,6.37c.71-2.85,3.77-4.3,5.2-6.59h1.59c.18,3.15-.73,6.12,2.25,12a69.6,69.6,0,0,0,8,11c-1.13,5.35-3.3,15.09-5.53,23-2.57,9.13-4.65,13.66-5.83,15.77-3.44.17-9.71.38-11.71.29-4.78-.23-8.32.78-10.51,3-.15.15-.3.32-.44.49-1.66.23-3.57.76-4.61,1.92-2.08,2.36-2.09,4-2.09,4a11.74,11.74,0,0,1,4.57-1.5H71v.52a6.45,6.45,0,0,0,.74,2.12,4,4,0,0,0-.85.8c-1.92,2.49-1.81,4.11-1.81,4.11a11.61,11.61,0,0,1,4.41-1.81c.61,1,1.3,2,2,3a2.48,2.48,0,0,0-.25.3c-1.72,2.65-1.49,4.24-1.49,4.24a12.77,12.77,0,0,1,3.77-2,18.79,18.79,0,0,0,1.82,1.86c2.88,2.54,10,.89,19-1.51l5.61-1.4c4-.73,6.43-2.32,8.24-5.29a19.6,19.6,0,0,0,1.45-3.7l.52-1.57a43.71,43.71,0,0,1,4.71-9.76c.09-.12,2.51-4,5.82-9.41,2.93-2.44,6.46-5.26,9-7,3.91-2.63,11.72-6.62,11.72-6.62s-2.08-3.38-5.19-3.85c-.06,0,4-4.08,7.33-5.54a46,46,0,0,1,8.68-2.54,15.48,15.48,0,0,0-4.54-5.43,14.66,14.66,0,0,0,3.5-1.9c6.58-4.3,11.45-4.14,16-2.86.18-3-.57-4.8-3.14-6.52A43.53,43.53,0,0,1,175,246c1.5,2.58,3.19,5.43,4,6.53a134,134,0,0,0,12.64,15.58.8.8,0,0,1,.15.58c0,1.72-2.11,6.51-3.32,9.25l-1,2.37-5.38,12.64c-2.42.14-9.45.53-11.9.4-4.67-.22-8.13.76-10.27,2.89a6.31,6.31,0,0,0-.71.84c-1.74.31-3.82.94-4.85,2.25-2,2.5-1.88,4.08-1.88,4.08a11.77,11.77,0,0,1,4.49-1.75,6.32,6.32,0,0,1,.87,0,7.9,7.9,0,0,0,.82,2.15,4.38,4.38,0,0,0-1.16,1.15c-1.73,2.64-1.5,4.23-1.5,4.23a11.77,11.77,0,0,1,4.32-2.15h.22c.46.72,1,1.46,1.5,2.19a5.84,5.84,0,0,0-.51.59c-1.72,2.64-1.5,4.25-1.5,4.25a11.64,11.64,0,0,1,4.19-2.13,20.89,20.89,0,0,0,1.73,1.79c2.76,2.42,8.65,1,16.67-1.33l5.71-1.49c3.87-.72,6.28-2.27,8-5.17l1.5-3.24a40.51,40.51,0,0,1,2.13-4.46c.93-1.46,1.9-3.22,2.9-5.12,1.34-1.15,2.58-2.2,3.47-2.88,2.56-2,9-5.54,9-5.54s-1.31-2.84-4-3.11a25.42,25.42,0,0,1,5.71-4.73,26.09,26.09,0,0,1,6.64-2.05,28.84,28.84,0,0,0-5.36-3.59,15.65,15.65,0,0,0-3.29-.87,11.59,11.59,0,0,0-2.12-4.75c-2.27-3.53,1.06-11.1,3.45-15.39a96.24,96.24,0,0,0,7,8.52s11.61,12.67,14.19,15.43a151.61,151.61,0,0,1-4.71,15.29A125.18,125.18,0,0,1,227,302.15c-2.79.15-9.11.48-11.42.37-4.65-.23-8.11.75-10.26,2.89a6.8,6.8,0,0,0-.89,1.1,7.43,7.43,0,0,0-4.16,2.2c-1.91,2.52-1.79,4.13-1.79,4.13A7.45,7.45,0,0,1,203,311h-.16a16.86,16.86,0,0,0,.86,2.42,4.45,4.45,0,0,0-1.13,1.12c-1.72,2.64-1.5,4.23-1.5,4.23,1.27-1,2.74-1.74,4.31-2.77h.2a13.32,13.32,0,0,0,1.94,3.37h0C205.75,322,206,323.6,206,323.6a13.09,13.09,0,0,1,3.46-1.94,18.17,18.17,0,0,0,1.45,1.46c2.76,2.43,8.66,1,16.68-1.32l5.64-1.49c3.87-.71,6.27-2.26,8-5.16.79-1.29,4.3-9.46,5.26-11.82,1.73-4.24,3.68-8.62,5.58-12.63a27.67,27.67,0,0,1,2.55-2c3.16-2.19,9.91-6,9.91-6s-1.35-2.89-3.94-3.11a37.77,37.77,0,0,1,5.32-4.28c2.48-1.59,7-2.48,7-2.48a34.71,34.71,0,0,0-5.56-3.47,21.1,21.1,0,0,0-4.63-1.17c-.4-1.91-1.36-2.56-2.82-3.29a16.41,16.41,0,0,1-5.76-4.73c-3.46-4.08-4-11.87-4-19.64,0-1.71-.13-5.1-.13-5.1v-9.76a67.56,67.56,0,0,0-2.72-18.41c11.44-1,32.4-3.26,41-13.47a16.1,16.1,0,0,0,3.88-10.57A20.57,20.57,0,0,0,291.37,177.77ZM69.57,241.56c-2.67-3-13-20.8-19.89-32.6-5.17-8.91-7-12.08-7.55-12.65-1.36-1.55-3.69-5.75-5.67-10.23l-.15-.31-6.24-5.21a7.09,7.09,0,0,1-2.46-5.75,2.6,2.6,0,0,0,2.35.09c2.31-1.16,2.36-2.83,2.36-2.83a18.12,18.12,0,0,0-4.19-3.25,6.84,6.84,0,0,1,.64-4.57,4.94,4.94,0,0,1,.23,1.31,3.62,3.62,0,0,0,2.84.86,3.75,3.75,0,0,0,2.86-2.16,18.34,18.34,0,0,0-2.92-3.54l.42-.36.25-.18a6.6,6.6,0,0,1,.68-.5,3.59,3.59,0,0,0,1.69.51c2.89.14,3.16-1.59,3.16-1.59h0a8.13,8.13,0,0,1,1.63.25c.85.4,2.06,3.46,3.6,9.1l.54,1.92,1,3.44c2.34,7.66,3.53,11.38,4.31,12.43,3.33,4.41,10,9.75,16,14.14.29.84.59,1.72.91,2.67,1.13,3.36,4.94,9.29,6.34,12.32a16,16,0,0,1,1.52,10.71c4.34-.53,7.69-1.83,9.54-4.61.95,5.93-1.21,10.15,1.27,17.05C77.67,240.83,70.6,242.49,69.57,241.56ZM99,211.05c-.85-1.88-1.05-3.67-1.85-7.13-.36-.09-5.19-3.18-5.19-3.18v-9.12s-12.13-14.11-12.2-14l4.2-7v-.1c-1.88-1.25-6.38-4.8-4-9.1,2.54-4.55,8.4-2.7,10.12-2,.24-.24,13.18-5.6,13.37-5.51-.11-.07,5,5.71,5,5.71s5.17-5.78,5-5.71c.17-.09,13.12,5.27,13.36,5.51,1.73-.68,7.58-2.53,10.13,2,2.36,4.24-2,7.74-3.89,9l0,.16,4.2,7c-.07-.12-12.2,14-12.19,14s0,9.13,0,9.12-4.79,3.09-5.17,3.18c-.77,3.46-1,5.25-1.86,7.13-.26.6-4.89,1.88-9.37,1.95h-.36C103.94,212.92,99.32,211.64,99,211.05Zm187-17.51c-8.28,10.09-30.28,12-40.85,13l-1.83.16.59,1.71c1.28,3.72,2.84,10.17,3.09,19.82v7.15s.05,20.83,5,26.62a19.13,19.13,0,0,0,6.65,5.43c1.21.61,1.29.65,1.4,2,.09,1-.88,2.42-2,4.09l-1.9,3a251.52,251.52,0,0,0-12.27,25.8c-1.22,3-4.47,10.47-5,11.41-1.34,2.19-3,3.27-6.11,3.84l-5.91,1.53c-3.79,1.1-9.66,2.79-12.59,2.44a3,3,0,0,0,1.29-2,4.72,4.72,0,0,0-.62-3.34,17.68,17.68,0,0,0-5.1,1.37l-.55-.75a2.73,2.73,0,0,0,1.36-2.1,5.52,5.52,0,0,0-.62-3.38,18.73,18.73,0,0,0-3.69.82l-.22-.41a4.57,4.57,0,0,0,1.63-1.83,4,4,0,0,0,0-2.82c1.63-1.08,4.11-1.58,7.31-1.42a93.28,93.28,0,0,0,12.49-.73h.8l.38-.42a126.15,126.15,0,0,0,6.35-14,157.73,157.73,0,0,0,5-16.33l.17-.74L225,257c-6-6.64-7.87-10-7.89-10l-.06-.11-.09-.11a64.69,64.69,0,0,1-4.87-6.76L211,238.26c-2.15-3.46-4.2-6.73-6.32-8.84a72.43,72.43,0,0,0-7-5.72l-2,1.86,3.51,6.06-60.3,17.63.38,1.36a36.38,36.38,0,0,1,1.35,7,1.48,1.48,0,0,1,0,.42c-.71,2.32-18.3,31.1-24.25,40.62a45,45,0,0,0-5,10.3l-.55,1.62a22.47,22.47,0,0,1-1.15,3.09c-1.37,2.27-3.16,3.37-6.32,4l-5.81,1.43c-4.6,1.23-12.79,3.4-15.7,2.5a2.16,2.16,0,0,0,1-1.47c.65-2.69-.35-4-.35-4a18.52,18.52,0,0,0-4.8,1.23c-.21-.28-.42-.56-.62-.85A3,3,0,0,0,78.28,315a4.88,4.88,0,0,0,0-3.86,19.13,19.13,0,0,0-4.18.64,3.15,3.15,0,0,1-.27-.59,3.74,3.74,0,0,0,1.8-1.6,4.07,4.07,0,0,0,.26-2.77c1.67-1.07,4.19-1.56,7.41-1.41l12.75.6h.25l.39-.64c1.18-1.93,3.6-6.7,6.57-17.25,2.15-7.75,4.27-17.12,5.47-22.73,3-2.35,8.41-10.39,9.39-12.34,3.92-7.76,1.17-10.47,2.87-15.11-.47,4.49,5,5.75,6,9.72,9.74-13.09,5.11-18.06,6.42-26.25,1.86,2.8,5.23,4.1,9.59,4.64a16.19,16.19,0,0,1,1.55-10.8c1.41-3,5.24-9.06,6.38-12.39a52.32,52.32,0,0,0,2.33-8.06A128.3,128.3,0,0,0,173,198.51a168.32,168.32,0,0,0,36.25.4c5.15-.38,10.07-.75,15.77-.72a76.59,76.59,0,0,1,16,1.76l.2.05h-.65c11.85-.64,33.91-1.82,40.76-10.19,1.92-2.35,2.39-5.16,1.43-8.61a8.73,8.73,0,0,0-4.23-5.84c-7.71-4.09-23.78,1.28-29.84,3.3l-.38.13c-6.55,2.17-9.95,3.05-21.34,5-11.69,2.08-38.85,3.86-48.1-3.79a13.17,13.17,0,0,1-5-9.3q-.62-7.51,3.7-12.19c3.52-3.83,9.64-5.47,20.42-5.47,4.21,0,11.47.33,20.7.94l1.53,1.63L218.71,157,198,156.73c-8.9,0-14,1.31-16.77,4.26-1.56,1.7-3,5.87-2.76,9.39a10.65,10.65,0,0,0,3.5,6.37c8.8,7.28,33.58,4.41,43.82,2.84,10-1.54,12.71-2.37,22.37-5.66,11.35-3.86,24.24-7.56,33.62-2.58a11.77,11.77,0,0,1,6.73,8.31h0c1.44,5.24.56,10.09-2.55,13.87Z"/><path class="cls-1" d="M101.72,170.87l-.38,6L91,171Z"/><path class="cls-1" d="M115.28,176.72c0,.47,1.64,14.38,1.64,14.38L109,195.4v5.13a21.47,21.47,0,0,0,2.94,1.88,8.9,8.9,0,0,0,5.13.44l.64-.16-.54,2.31h-.24a29.06,29.06,0,0,1-5.33-.57,15.67,15.67,0,0,1-3.37-1.43H107a17.73,17.73,0,0,1-3.45,1.43,38.59,38.59,0,0,1-5.32.57H98l-.52-1.93.6.16a8.19,8.19,0,0,0,5-.44,14.32,14.32,0,0,0,3-1.9v-5.23c-.3-.21-7.61-5.66-7.61-5.66H112V170l11.74,1h1.41l-10,5.93"/><path class="cls-1" d="M144,87.91V26.48a182.65,182.65,0,0,0-26.12-2,76.86,76.86,0,0,0-25.88,5V90.37A98,98,0,0,1,119.41,86,150,150,0,0,1,144,87.91ZM101.93,36.24c.32-.11,7.76-3,14.82-3a100.9,100.9,0,0,1,16.17,1.6,2.43,2.43,0,0,1,1.94,2.84,1.14,1.14,0,0,1-.06.25,3,3,0,0,1-3.56,1.63,96.46,96.46,0,0,0-14.49-1.4c-6,0-12.75,2.73-12.82,2.76a3,3,0,0,1-3.66-1.44,2.39,2.39,0,0,1,1.29-3.12A2.65,2.65,0,0,1,101.93,36.24Zm0,12.18c.32-.11,7.76-3.07,14.82-3.07A98.57,98.57,0,0,1,132.92,47a2.43,2.43,0,0,1,1.94,2.84,1.14,1.14,0,0,1-.06.25,3,3,0,0,1-3.56,1.62,97.77,97.77,0,0,0-14.49-1.39c-6,0-12.75,2.73-12.82,2.76a3,3,0,0,1-3.66-1.48,2.37,2.37,0,0,1,1.38-3.05C101.74,48.47,101.84,48.45,101.93,48.42ZM102,60.59c.32-.1,7.76-3.07,14.82-3.07A97.48,97.48,0,0,1,133,59.13,2.43,2.43,0,0,1,134.93,62a1.14,1.14,0,0,1-.06.25,3,3,0,0,1-3.56,1.62,96.46,96.46,0,0,0-14.49-1.4c-6,0-12.75,2.74-12.82,2.76a3,3,0,0,1-3.66-1.44,2.36,2.36,0,0,1,1.28-3.08,2.78,2.78,0,0,1,.38-.12Zm1.93,16.78a3,3,0,0,1-3.66-1.44,2.36,2.36,0,0,1,1.34-3.07l.32-.1c.32-.11,7.76-3.08,14.82-3.08a97.5,97.5,0,0,1,16.17,1.62,2.43,2.43,0,0,1,1.94,2.84,1.14,1.14,0,0,1-.06.25A3,3,0,0,1,131.24,76a96.46,96.46,0,0,0-14.49-1.4C110.74,74.61,104,77.35,103.93,77.37Z"/><path class="cls-1" d="M313,192.13V0H0V193.75c0,9.08,2,57.12,40.59,118,42.19,66.57,111.82,87.15,114.75,88l1.06.29,1-.29c2.95-.85,72.79-21.42,115-88C314.55,245.38,313.1,194.27,313,192.13ZM198,49.6v-.33c0-19.94,16.32-36,36.22-34.7A34,34,0,0,1,266,48.49h0a6.64,6.64,0,0,1-.06,1.09,34,34,0,1,1-34,58.82,34,34,0,0,1-36.67-57.22c.89-.57,1.8-1.1,2.74-1.58ZM32,22.91l1.72-.31a176,176,0,0,1,28.54-2.35c12,0,22.95,3.63,27.75,5.47,4.79-1.84,15.68-5.47,27.76-5.47a177,177,0,0,1,28.53,2.35l1.72.31V104l-2.53-.56a137.78,137.78,0,0,0-26.19-2.28,95.18,95.18,0,0,0-28.58,5l-.71.26-.71-.26a95.11,95.11,0,0,0-28.57-5,138.61,138.61,0,0,0-26.19,2.29l-2.52.56Zm234.61,284.3h0C228.64,367,165.64,388.83,156.88,391.62c-8.71-2.8-71.51-24.59-109.44-84.41S8,199.31,8,192.77V124H306v68.67C306,199.38,304.62,247.36,266.59,307.21Z"/><path class="cls-1" d="M89,90.46V29.36h0a76.73,76.73,0,0,0-25.81-5,182.19,182.19,0,0,0-26.19,2V88.06a148.29,148.29,0,0,1,24.72-1.93A98.27,98.27,0,0,1,89,90.46ZM48.25,34.79a100.9,100.9,0,0,1,16.17-1.6c7.07,0,14.5,2.94,14.83,3A2.4,2.4,0,0,1,81,39.11a2.13,2.13,0,0,1-.08.27,3,3,0,0,1-3.66,1.44c-.07,0-6.82-2.76-12.84-2.76a95,95,0,0,0-14.48,1.5,3,3,0,0,1-3.56-1.63,2.43,2.43,0,0,1,1.56-3.06Zm0,12.17a98.57,98.57,0,0,1,16.17-1.61c7.07,0,14.5,3,14.83,3.07A2.38,2.38,0,0,1,81,51.3a2,2,0,0,1-.08.26A3,3,0,0,1,77.26,53c-.07,0-6.82-2.76-12.84-2.76a97.77,97.77,0,0,0-14.48,1.39A3,3,0,0,1,46.38,50,2.44,2.44,0,0,1,48,47Zm0,12.17a97.54,97.54,0,0,1,16.17-1.57c7.07,0,14.5,3,14.83,3.07A2.38,2.38,0,0,1,81,63.5a1.71,1.71,0,0,1-.09.3,3,3,0,0,1-3.66,1.44c-.07,0-6.82-2.76-12.84-2.76a96.21,96.21,0,0,0-14.48,1.4,3,3,0,0,1-3.56-1.62,2.43,2.43,0,0,1,1.57-3ZM46.38,74.39a2.43,2.43,0,0,1,1.62-3l.25-.06a98.58,98.58,0,0,1,16.17-1.62c7.07,0,14.5,3,14.83,3.08A2.38,2.38,0,0,1,81,75.63a1.71,1.71,0,0,1-.09.3,3,3,0,0,1-3.66,1.44c-.07,0-6.82-2.76-12.84-2.76A96.21,96.21,0,0,0,49.94,76,3,3,0,0,1,46.38,74.39Z"/></g></g></g></g></svg>