<svg xmlns="http://www.w3.org/2000/svg" viewBox="0 0 287.64 399.49"><defs><style>.cls-1{fill:#f3f4f6;}</style></defs><g id="Layer_2" data-name="Layer 2"><g id="Layer_1-2" data-name="Layer 1"><g id="Layer_2-2" data-name="Layer 2"><g id="Layer_1-2-2" data-name="Layer 1-2"><path class="cls-1" d="M175.8.75c.27,4.39.72,8.28.73,12.17.07,21.51,0,43,0,64.52a82.71,82.71,0,0,0,.29,9.83c2,16.3,10.36,24,26.78,24.12,23.7.17,47.39,0,71.09,0h12.95v12.92q-.12,123-.3,246.07a55.2,55.2,0,0,1-1.11,11.89q-3.71,16.65-20.78,17c-11.29.25-22.61.09-33.95.09H25.88c-17.89,0-25.87-8-25.88-26Q0,199.56.05,25.67C.05,8.41,8.25.12,25.3.05q70-.11,140,0C168.49.05,171.68.48,175.8.75ZM66.8,196c-.29,4.17-.69,7.39-.7,10.6q-.06,55.29,0,110.56c0,11.31.35,11.63,11.73,11.65q65.13.08,130.26,0c12.14,0,12.45-.27,12.47-12.16q.12-53.61,0-107.27c0-14.42-.28-14.75-14.63-14.77q-62.37-.09-124.78,0C76.56,194.65,72,195.49,66.8,196Z"/><path class="cls-1" d="M130.64,237.44h-43v-19h43Z"/><path class="cls-1" d="M155.64,217.44h41v20h-41Z"/><path class="cls-1" d="M130.64,255.44v17h-43v-17Z"/><path class="cls-1" d="M87.64,289.44h43v17h-43Z"/><path class="cls-1" d="M155.64,254.44h41v17h-41Z"/><path class="cls-1" d="M197.64,290.44v16h-42v-16Z"/></g></g></g></g></svg>